G04 #@! TF.GenerationSoftware,KiCad,Pcbnew,(5.1.5)-3*
G04 #@! TF.CreationDate,2020-06-19T18:53:09+01:00*
G04 #@! TF.ProjectId,gardenlight,67617264-656e-46c6-9967-68742e6b6963,1.0.1*
G04 #@! TF.SameCoordinates,Original*
G04 #@! TF.FileFunction,Soldermask,Top*
G04 #@! TF.FilePolarity,Negative*
%FSLAX46Y46*%
G04 Gerber Fmt 4.6, Leading zero omitted, Abs format (unit mm)*
G04 Created by KiCad (PCBNEW (5.1.5)-3) date 2020-06-19 18:53:09*
%MOMM*%
%LPD*%
G04 APERTURE LIST*
%ADD10C,0.150000*%
G04 APERTURE END LIST*
D10*
G36*
X109722169Y-91637895D02*
G01*
X109877005Y-91702031D01*
X110016354Y-91795140D01*
X110134860Y-91913646D01*
X110227969Y-92052995D01*
X110292105Y-92207831D01*
X110324800Y-92372203D01*
X110324800Y-92539797D01*
X110292105Y-92704169D01*
X110227969Y-92859005D01*
X110134860Y-92998354D01*
X110016354Y-93116860D01*
X109877005Y-93209969D01*
X109722169Y-93274105D01*
X109557797Y-93306800D01*
X109390203Y-93306800D01*
X109225831Y-93274105D01*
X109070995Y-93209969D01*
X108931646Y-93116860D01*
X108813140Y-92998354D01*
X108720031Y-92859005D01*
X108655895Y-92704169D01*
X108623200Y-92539797D01*
X108623200Y-92372203D01*
X108655895Y-92207831D01*
X108720031Y-92052995D01*
X108813140Y-91913646D01*
X108931646Y-91795140D01*
X109070995Y-91702031D01*
X109225831Y-91637895D01*
X109390203Y-91605200D01*
X109557797Y-91605200D01*
X109722169Y-91637895D01*
G37*
G36*
X119882169Y-91637895D02*
G01*
X120037005Y-91702031D01*
X120176354Y-91795140D01*
X120294860Y-91913646D01*
X120387969Y-92052995D01*
X120452105Y-92207831D01*
X120484800Y-92372203D01*
X120484800Y-92539797D01*
X120452105Y-92704169D01*
X120387969Y-92859005D01*
X120294860Y-92998354D01*
X120176354Y-93116860D01*
X120037005Y-93209969D01*
X119882169Y-93274105D01*
X119717797Y-93306800D01*
X119550203Y-93306800D01*
X119385831Y-93274105D01*
X119230995Y-93209969D01*
X119091646Y-93116860D01*
X118973140Y-92998354D01*
X118880031Y-92859005D01*
X118815895Y-92704169D01*
X118783200Y-92539797D01*
X118783200Y-92372203D01*
X118815895Y-92207831D01*
X118880031Y-92052995D01*
X118973140Y-91913646D01*
X119091646Y-91795140D01*
X119230995Y-91702031D01*
X119385831Y-91637895D01*
X119550203Y-91605200D01*
X119717797Y-91605200D01*
X119882169Y-91637895D01*
G37*
G36*
X106730800Y-92506800D02*
G01*
X105105200Y-92506800D01*
X105105200Y-90881200D01*
X106730800Y-90881200D01*
X106730800Y-92506800D01*
G37*
G36*
X106155086Y-88880435D02*
G01*
X106303003Y-88941704D01*
X106436134Y-89030660D01*
X106549340Y-89143866D01*
X106638296Y-89276997D01*
X106699565Y-89424914D01*
X106730800Y-89581946D01*
X106730800Y-89742054D01*
X106699565Y-89899086D01*
X106638296Y-90047003D01*
X106549340Y-90180134D01*
X106436134Y-90293340D01*
X106303003Y-90382296D01*
X106155086Y-90443565D01*
X105998054Y-90474800D01*
X105837946Y-90474800D01*
X105680914Y-90443565D01*
X105532997Y-90382296D01*
X105399866Y-90293340D01*
X105286660Y-90180134D01*
X105197704Y-90047003D01*
X105136435Y-89899086D01*
X105105200Y-89742054D01*
X105105200Y-89581946D01*
X105136435Y-89424914D01*
X105197704Y-89276997D01*
X105286660Y-89143866D01*
X105399866Y-89030660D01*
X105532997Y-88941704D01*
X105680914Y-88880435D01*
X105837946Y-88849200D01*
X105998054Y-88849200D01*
X106155086Y-88880435D01*
G37*
G36*
X124175336Y-89016081D02*
G01*
X124220607Y-89029814D01*
X124262319Y-89052110D01*
X124298883Y-89082117D01*
X124328890Y-89118681D01*
X124351186Y-89160393D01*
X124364919Y-89205664D01*
X124369800Y-89255224D01*
X124369800Y-90068776D01*
X124364919Y-90118336D01*
X124351186Y-90163607D01*
X124328890Y-90205319D01*
X124298883Y-90241883D01*
X124262319Y-90271890D01*
X124220607Y-90294186D01*
X124175336Y-90307919D01*
X124125776Y-90312800D01*
X122762224Y-90312800D01*
X122712664Y-90307919D01*
X122667393Y-90294186D01*
X122625681Y-90271890D01*
X122589117Y-90241883D01*
X122559110Y-90205319D01*
X122536814Y-90163607D01*
X122523081Y-90118336D01*
X122518200Y-90068776D01*
X122518200Y-89255224D01*
X122523081Y-89205664D01*
X122536814Y-89160393D01*
X122559110Y-89118681D01*
X122589117Y-89082117D01*
X122625681Y-89052110D01*
X122667393Y-89029814D01*
X122712664Y-89016081D01*
X122762224Y-89011200D01*
X124125776Y-89011200D01*
X124175336Y-89016081D01*
G37*
G36*
X101061336Y-89016081D02*
G01*
X101106607Y-89029814D01*
X101148319Y-89052110D01*
X101184883Y-89082117D01*
X101214890Y-89118681D01*
X101237186Y-89160393D01*
X101250919Y-89205664D01*
X101255800Y-89255224D01*
X101255800Y-90068776D01*
X101250919Y-90118336D01*
X101237186Y-90163607D01*
X101214890Y-90205319D01*
X101184883Y-90241883D01*
X101148319Y-90271890D01*
X101106607Y-90294186D01*
X101061336Y-90307919D01*
X101011776Y-90312800D01*
X99648224Y-90312800D01*
X99598664Y-90307919D01*
X99553393Y-90294186D01*
X99511681Y-90271890D01*
X99475117Y-90241883D01*
X99445110Y-90205319D01*
X99422814Y-90163607D01*
X99409081Y-90118336D01*
X99404200Y-90068776D01*
X99404200Y-89255224D01*
X99409081Y-89205664D01*
X99422814Y-89160393D01*
X99445110Y-89118681D01*
X99475117Y-89082117D01*
X99511681Y-89052110D01*
X99553393Y-89029814D01*
X99598664Y-89016081D01*
X99648224Y-89011200D01*
X101011776Y-89011200D01*
X101061336Y-89016081D01*
G37*
G36*
X116520800Y-89088800D02*
G01*
X114619200Y-89088800D01*
X114619200Y-87187200D01*
X116520800Y-87187200D01*
X116520800Y-89088800D01*
G37*
G36*
X113307338Y-87223738D02*
G01*
X113480373Y-87295412D01*
X113636100Y-87399465D01*
X113768535Y-87531900D01*
X113872588Y-87687627D01*
X113944262Y-87860662D01*
X113980800Y-88044354D01*
X113980800Y-88231646D01*
X113944262Y-88415338D01*
X113872588Y-88588373D01*
X113768535Y-88744100D01*
X113636100Y-88876535D01*
X113480373Y-88980588D01*
X113307338Y-89052262D01*
X113123646Y-89088800D01*
X112936354Y-89088800D01*
X112752662Y-89052262D01*
X112579627Y-88980588D01*
X112423900Y-88876535D01*
X112291465Y-88744100D01*
X112187412Y-88588373D01*
X112115738Y-88415338D01*
X112079200Y-88231646D01*
X112079200Y-88044354D01*
X112115738Y-87860662D01*
X112187412Y-87687627D01*
X112291465Y-87531900D01*
X112423900Y-87399465D01*
X112579627Y-87295412D01*
X112752662Y-87223738D01*
X112936354Y-87187200D01*
X113123646Y-87187200D01*
X113307338Y-87223738D01*
G37*
G36*
X106155086Y-86848435D02*
G01*
X106303003Y-86909704D01*
X106436134Y-86998660D01*
X106549340Y-87111866D01*
X106549342Y-87111869D01*
X106549343Y-87111870D01*
X106578721Y-87155837D01*
X106638296Y-87244997D01*
X106699565Y-87392914D01*
X106730800Y-87549946D01*
X106730800Y-87710054D01*
X106699565Y-87867086D01*
X106638296Y-88015003D01*
X106549340Y-88148134D01*
X106436134Y-88261340D01*
X106436131Y-88261342D01*
X106436130Y-88261343D01*
X106392163Y-88290721D01*
X106303003Y-88350296D01*
X106155086Y-88411565D01*
X105998054Y-88442800D01*
X105837946Y-88442800D01*
X105680914Y-88411565D01*
X105532997Y-88350296D01*
X105443837Y-88290721D01*
X105399870Y-88261343D01*
X105399869Y-88261342D01*
X105399866Y-88261340D01*
X105286660Y-88148134D01*
X105197704Y-88015003D01*
X105136435Y-87867086D01*
X105105200Y-87710054D01*
X105105200Y-87549946D01*
X105136435Y-87392914D01*
X105197704Y-87244997D01*
X105257279Y-87155837D01*
X105286657Y-87111870D01*
X105286658Y-87111869D01*
X105286660Y-87111866D01*
X105399866Y-86998660D01*
X105532997Y-86909704D01*
X105680914Y-86848435D01*
X105837946Y-86817200D01*
X105998054Y-86817200D01*
X106155086Y-86848435D01*
G37*
G36*
X100732575Y-87020616D02*
G01*
X100732578Y-87020617D01*
X100732579Y-87020617D01*
X100761343Y-87029343D01*
X100855254Y-87057830D01*
X100911785Y-87088047D01*
X100968314Y-87118262D01*
X100968316Y-87118263D01*
X100968315Y-87118263D01*
X101067411Y-87199589D01*
X101148737Y-87298685D01*
X101209170Y-87411746D01*
X101246384Y-87534425D01*
X101258949Y-87662000D01*
X101246384Y-87789575D01*
X101209170Y-87912254D01*
X101209169Y-87912255D01*
X101148738Y-88025314D01*
X101067411Y-88124411D01*
X100968314Y-88205738D01*
X100919843Y-88231646D01*
X100855254Y-88266170D01*
X100761343Y-88294657D01*
X100732579Y-88303383D01*
X100732578Y-88303383D01*
X100732575Y-88303384D01*
X100636969Y-88312800D01*
X100023031Y-88312800D01*
X99927425Y-88303384D01*
X99927422Y-88303383D01*
X99927421Y-88303383D01*
X99898657Y-88294657D01*
X99804746Y-88266170D01*
X99740157Y-88231646D01*
X99691686Y-88205738D01*
X99592589Y-88124411D01*
X99511262Y-88025314D01*
X99450831Y-87912255D01*
X99450830Y-87912254D01*
X99413616Y-87789575D01*
X99401051Y-87662000D01*
X99413616Y-87534425D01*
X99450830Y-87411746D01*
X99511263Y-87298685D01*
X99592589Y-87199589D01*
X99691685Y-87118263D01*
X99691684Y-87118263D01*
X99691686Y-87118262D01*
X99748215Y-87088047D01*
X99804746Y-87057830D01*
X99898657Y-87029343D01*
X99927421Y-87020617D01*
X99927422Y-87020617D01*
X99927425Y-87020616D01*
X100023031Y-87011200D01*
X100636969Y-87011200D01*
X100732575Y-87020616D01*
G37*
G36*
X123846575Y-87020616D02*
G01*
X123846578Y-87020617D01*
X123846579Y-87020617D01*
X123875343Y-87029343D01*
X123969254Y-87057830D01*
X124025785Y-87088047D01*
X124082314Y-87118262D01*
X124082316Y-87118263D01*
X124082315Y-87118263D01*
X124181411Y-87199589D01*
X124262737Y-87298685D01*
X124323170Y-87411746D01*
X124360384Y-87534425D01*
X124372949Y-87662000D01*
X124360384Y-87789575D01*
X124323170Y-87912254D01*
X124323169Y-87912255D01*
X124262738Y-88025314D01*
X124181411Y-88124411D01*
X124082314Y-88205738D01*
X124033843Y-88231646D01*
X123969254Y-88266170D01*
X123875343Y-88294657D01*
X123846579Y-88303383D01*
X123846578Y-88303383D01*
X123846575Y-88303384D01*
X123750969Y-88312800D01*
X123137031Y-88312800D01*
X123041425Y-88303384D01*
X123041422Y-88303383D01*
X123041421Y-88303383D01*
X123012657Y-88294657D01*
X122918746Y-88266170D01*
X122854157Y-88231646D01*
X122805686Y-88205738D01*
X122706589Y-88124411D01*
X122625262Y-88025314D01*
X122564831Y-87912255D01*
X122564830Y-87912254D01*
X122527616Y-87789575D01*
X122515051Y-87662000D01*
X122527616Y-87534425D01*
X122564830Y-87411746D01*
X122625263Y-87298685D01*
X122706589Y-87199589D01*
X122805685Y-87118263D01*
X122805684Y-87118263D01*
X122805686Y-87118262D01*
X122862215Y-87088047D01*
X122918746Y-87057830D01*
X123012657Y-87029343D01*
X123041421Y-87020617D01*
X123041422Y-87020617D01*
X123041425Y-87020616D01*
X123137031Y-87011200D01*
X123750969Y-87011200D01*
X123846575Y-87020616D01*
G37*
G36*
X106155086Y-84816435D02*
G01*
X106303003Y-84877704D01*
X106436134Y-84966660D01*
X106549340Y-85079866D01*
X106638296Y-85212997D01*
X106699565Y-85360914D01*
X106730800Y-85517946D01*
X106730800Y-85678054D01*
X106699565Y-85835086D01*
X106638296Y-85983003D01*
X106549340Y-86116134D01*
X106436134Y-86229340D01*
X106303003Y-86318296D01*
X106155086Y-86379565D01*
X105998054Y-86410800D01*
X105837946Y-86410800D01*
X105680914Y-86379565D01*
X105532997Y-86318296D01*
X105399866Y-86229340D01*
X105286660Y-86116134D01*
X105197704Y-85983003D01*
X105136435Y-85835086D01*
X105105200Y-85678054D01*
X105105200Y-85517946D01*
X105136435Y-85360914D01*
X105197704Y-85212997D01*
X105286660Y-85079866D01*
X105399866Y-84966660D01*
X105532997Y-84877704D01*
X105680914Y-84816435D01*
X105837946Y-84785200D01*
X105998054Y-84785200D01*
X106155086Y-84816435D01*
G37*
G36*
X109809676Y-82713425D02*
G01*
X110019109Y-82800174D01*
X110207594Y-82926116D01*
X110367884Y-83086406D01*
X110493826Y-83274891D01*
X110580575Y-83484324D01*
X110624800Y-83706656D01*
X110624800Y-83933344D01*
X110580575Y-84155676D01*
X110493826Y-84365109D01*
X110367884Y-84553594D01*
X110207594Y-84713884D01*
X110019109Y-84839826D01*
X109809676Y-84926575D01*
X109587344Y-84970800D01*
X109360656Y-84970800D01*
X109138324Y-84926575D01*
X108928891Y-84839826D01*
X108740406Y-84713884D01*
X108580116Y-84553594D01*
X108454174Y-84365109D01*
X108367425Y-84155676D01*
X108323200Y-83933344D01*
X108323200Y-83706656D01*
X108367425Y-83484324D01*
X108454174Y-83274891D01*
X108580116Y-83086406D01*
X108740406Y-82926116D01*
X108928891Y-82800174D01*
X109138324Y-82713425D01*
X109360656Y-82669200D01*
X109587344Y-82669200D01*
X109809676Y-82713425D01*
G37*
G36*
X120784800Y-84970800D02*
G01*
X118483200Y-84970800D01*
X118483200Y-82669200D01*
X120784800Y-82669200D01*
X120784800Y-84970800D01*
G37*
M02*
