G04 #@! TF.GenerationSoftware,KiCad,Pcbnew,(5.1.5)-3*
G04 #@! TF.CreationDate,2020-06-19T18:53:09+01:00*
G04 #@! TF.ProjectId,gardenlight,67617264-656e-46c6-9967-68742e6b6963,1.0.1*
G04 #@! TF.SameCoordinates,Original*
G04 #@! TF.FileFunction,Legend,Bot*
G04 #@! TF.FilePolarity,Positive*
%FSLAX46Y46*%
G04 Gerber Fmt 4.6, Leading zero omitted, Abs format (unit mm)*
G04 Created by KiCad (PCBNEW (5.1.5)-3) date 2020-06-19 18:53:09*
%MOMM*%
%LPD*%
G04 APERTURE LIST*
%ADD10C,0.150000*%
G04 APERTURE END LIST*
D10*
X118188761Y-94448380D02*
X117855428Y-95448380D01*
X117522095Y-94448380D01*
X116807809Y-95400761D02*
X116903047Y-95448380D01*
X117093523Y-95448380D01*
X117188761Y-95400761D01*
X117236380Y-95305523D01*
X117236380Y-94924571D01*
X117188761Y-94829333D01*
X117093523Y-94781714D01*
X116903047Y-94781714D01*
X116807809Y-94829333D01*
X116760190Y-94924571D01*
X116760190Y-95019809D01*
X117236380Y-95115047D01*
X116331619Y-95448380D02*
X116331619Y-94781714D01*
X116331619Y-94972190D02*
X116284000Y-94876952D01*
X116236380Y-94829333D01*
X116141142Y-94781714D01*
X116045904Y-94781714D01*
X115760190Y-95400761D02*
X115664952Y-95448380D01*
X115474476Y-95448380D01*
X115379238Y-95400761D01*
X115331619Y-95305523D01*
X115331619Y-95257904D01*
X115379238Y-95162666D01*
X115474476Y-95115047D01*
X115617333Y-95115047D01*
X115712571Y-95067428D01*
X115760190Y-94972190D01*
X115760190Y-94924571D01*
X115712571Y-94829333D01*
X115617333Y-94781714D01*
X115474476Y-94781714D01*
X115379238Y-94829333D01*
X114903047Y-95448380D02*
X114903047Y-94781714D01*
X114903047Y-94448380D02*
X114950666Y-94496000D01*
X114903047Y-94543619D01*
X114855428Y-94496000D01*
X114903047Y-94448380D01*
X114903047Y-94543619D01*
X114284000Y-95448380D02*
X114379238Y-95400761D01*
X114426857Y-95353142D01*
X114474476Y-95257904D01*
X114474476Y-94972190D01*
X114426857Y-94876952D01*
X114379238Y-94829333D01*
X114284000Y-94781714D01*
X114141142Y-94781714D01*
X114045904Y-94829333D01*
X113998285Y-94876952D01*
X113950666Y-94972190D01*
X113950666Y-95257904D01*
X113998285Y-95353142D01*
X114045904Y-95400761D01*
X114141142Y-95448380D01*
X114284000Y-95448380D01*
X113522095Y-94781714D02*
X113522095Y-95448380D01*
X113522095Y-94876952D02*
X113474476Y-94829333D01*
X113379238Y-94781714D01*
X113236380Y-94781714D01*
X113141142Y-94829333D01*
X113093523Y-94924571D01*
X113093523Y-95448380D01*
X111331619Y-95448380D02*
X111903047Y-95448380D01*
X111617333Y-95448380D02*
X111617333Y-94448380D01*
X111712571Y-94591238D01*
X111807809Y-94686476D01*
X111903047Y-94734095D01*
X110903047Y-95353142D02*
X110855428Y-95400761D01*
X110903047Y-95448380D01*
X110950666Y-95400761D01*
X110903047Y-95353142D01*
X110903047Y-95448380D01*
X109903047Y-95448380D02*
X110474476Y-95448380D01*
X110188761Y-95448380D02*
X110188761Y-94448380D01*
X110284000Y-94591238D01*
X110379238Y-94686476D01*
X110474476Y-94734095D01*
X109474476Y-95353142D02*
X109426857Y-95400761D01*
X109474476Y-95448380D01*
X109522095Y-95400761D01*
X109474476Y-95353142D01*
X109474476Y-95448380D01*
X108807809Y-94448380D02*
X108712571Y-94448380D01*
X108617333Y-94496000D01*
X108569714Y-94543619D01*
X108522095Y-94638857D01*
X108474476Y-94829333D01*
X108474476Y-95067428D01*
X108522095Y-95257904D01*
X108569714Y-95353142D01*
X108617333Y-95400761D01*
X108712571Y-95448380D01*
X108807809Y-95448380D01*
X108903047Y-95400761D01*
X108950666Y-95353142D01*
X108998285Y-95257904D01*
X109045904Y-95067428D01*
X109045904Y-94829333D01*
X108998285Y-94638857D01*
X108950666Y-94543619D01*
X108903047Y-94496000D01*
X108807809Y-94448380D01*
X120022190Y-86717142D02*
X120069809Y-86764761D01*
X120212666Y-86812380D01*
X120307904Y-86812380D01*
X120450761Y-86764761D01*
X120546000Y-86669523D01*
X120593619Y-86574285D01*
X120641238Y-86383809D01*
X120641238Y-86240952D01*
X120593619Y-86050476D01*
X120546000Y-85955238D01*
X120450761Y-85860000D01*
X120307904Y-85812380D01*
X120212666Y-85812380D01*
X120069809Y-85860000D01*
X120022190Y-85907619D01*
X119450761Y-86812380D02*
X119546000Y-86764761D01*
X119593619Y-86717142D01*
X119641238Y-86621904D01*
X119641238Y-86336190D01*
X119593619Y-86240952D01*
X119546000Y-86193333D01*
X119450761Y-86145714D01*
X119307904Y-86145714D01*
X119212666Y-86193333D01*
X119165047Y-86240952D01*
X119117428Y-86336190D01*
X119117428Y-86621904D01*
X119165047Y-86717142D01*
X119212666Y-86764761D01*
X119307904Y-86812380D01*
X119450761Y-86812380D01*
X118260285Y-86812380D02*
X118260285Y-85812380D01*
X118260285Y-86764761D02*
X118355523Y-86812380D01*
X118546000Y-86812380D01*
X118641238Y-86764761D01*
X118688857Y-86717142D01*
X118736476Y-86621904D01*
X118736476Y-86336190D01*
X118688857Y-86240952D01*
X118641238Y-86193333D01*
X118546000Y-86145714D01*
X118355523Y-86145714D01*
X118260285Y-86193333D01*
X117403142Y-86764761D02*
X117498380Y-86812380D01*
X117688857Y-86812380D01*
X117784095Y-86764761D01*
X117831714Y-86669523D01*
X117831714Y-86288571D01*
X117784095Y-86193333D01*
X117688857Y-86145714D01*
X117498380Y-86145714D01*
X117403142Y-86193333D01*
X117355523Y-86288571D01*
X117355523Y-86383809D01*
X117831714Y-86479047D01*
X116974571Y-86764761D02*
X116831714Y-86812380D01*
X116593619Y-86812380D01*
X116498380Y-86764761D01*
X116450761Y-86717142D01*
X116403142Y-86621904D01*
X116403142Y-86526666D01*
X116450761Y-86431428D01*
X116498380Y-86383809D01*
X116593619Y-86336190D01*
X116784095Y-86288571D01*
X116879333Y-86240952D01*
X116926952Y-86193333D01*
X116974571Y-86098095D01*
X116974571Y-86002857D01*
X116926952Y-85907619D01*
X116879333Y-85860000D01*
X116784095Y-85812380D01*
X116546000Y-85812380D01*
X116403142Y-85860000D01*
X115546000Y-86145714D02*
X115546000Y-87145714D01*
X115546000Y-86764761D02*
X115641238Y-86812380D01*
X115831714Y-86812380D01*
X115926952Y-86764761D01*
X115974571Y-86717142D01*
X116022190Y-86621904D01*
X116022190Y-86336190D01*
X115974571Y-86240952D01*
X115926952Y-86193333D01*
X115831714Y-86145714D01*
X115641238Y-86145714D01*
X115546000Y-86193333D01*
X114641238Y-86145714D02*
X114641238Y-86812380D01*
X115069809Y-86145714D02*
X115069809Y-86669523D01*
X115022190Y-86764761D01*
X114926952Y-86812380D01*
X114784095Y-86812380D01*
X114688857Y-86764761D01*
X114641238Y-86717142D01*
X113784095Y-86764761D02*
X113879333Y-86812380D01*
X114069809Y-86812380D01*
X114165047Y-86764761D01*
X114212666Y-86669523D01*
X114212666Y-86288571D01*
X114165047Y-86193333D01*
X114069809Y-86145714D01*
X113879333Y-86145714D01*
X113784095Y-86193333D01*
X113736476Y-86288571D01*
X113736476Y-86383809D01*
X114212666Y-86479047D01*
X112879333Y-86812380D02*
X112879333Y-86288571D01*
X112926952Y-86193333D01*
X113022190Y-86145714D01*
X113212666Y-86145714D01*
X113307904Y-86193333D01*
X112879333Y-86764761D02*
X112974571Y-86812380D01*
X113212666Y-86812380D01*
X113307904Y-86764761D01*
X113355523Y-86669523D01*
X113355523Y-86574285D01*
X113307904Y-86479047D01*
X113212666Y-86431428D01*
X112974571Y-86431428D01*
X112879333Y-86383809D01*
X112403142Y-86812380D02*
X112403142Y-85812380D01*
X112307904Y-86431428D02*
X112022190Y-86812380D01*
X112022190Y-86145714D02*
X112403142Y-86526666D01*
X110879333Y-85907619D02*
X110831714Y-85860000D01*
X110736476Y-85812380D01*
X110498380Y-85812380D01*
X110403142Y-85860000D01*
X110355523Y-85907619D01*
X110307904Y-86002857D01*
X110307904Y-86098095D01*
X110355523Y-86240952D01*
X110926952Y-86812380D01*
X110307904Y-86812380D01*
X109688857Y-85812380D02*
X109593619Y-85812380D01*
X109498380Y-85860000D01*
X109450761Y-85907619D01*
X109403142Y-86002857D01*
X109355523Y-86193333D01*
X109355523Y-86431428D01*
X109403142Y-86621904D01*
X109450761Y-86717142D01*
X109498380Y-86764761D01*
X109593619Y-86812380D01*
X109688857Y-86812380D01*
X109784095Y-86764761D01*
X109831714Y-86717142D01*
X109879333Y-86621904D01*
X109926952Y-86431428D01*
X109926952Y-86193333D01*
X109879333Y-86002857D01*
X109831714Y-85907619D01*
X109784095Y-85860000D01*
X109688857Y-85812380D01*
X108974571Y-85907619D02*
X108926952Y-85860000D01*
X108831714Y-85812380D01*
X108593619Y-85812380D01*
X108498380Y-85860000D01*
X108450761Y-85907619D01*
X108403142Y-86002857D01*
X108403142Y-86098095D01*
X108450761Y-86240952D01*
X109022190Y-86812380D01*
X108403142Y-86812380D01*
X107784095Y-85812380D02*
X107688857Y-85812380D01*
X107593619Y-85860000D01*
X107546000Y-85907619D01*
X107498380Y-86002857D01*
X107450761Y-86193333D01*
X107450761Y-86431428D01*
X107498380Y-86621904D01*
X107546000Y-86717142D01*
X107593619Y-86764761D01*
X107688857Y-86812380D01*
X107784095Y-86812380D01*
X107879333Y-86764761D01*
X107926952Y-86717142D01*
X107974571Y-86621904D01*
X108022190Y-86431428D01*
X108022190Y-86193333D01*
X107974571Y-86002857D01*
X107926952Y-85907619D01*
X107879333Y-85860000D01*
X107784095Y-85812380D01*
X121926761Y-81684761D02*
X121783904Y-81732380D01*
X121545809Y-81732380D01*
X121450571Y-81684761D01*
X121402952Y-81637142D01*
X121355333Y-81541904D01*
X121355333Y-81446666D01*
X121402952Y-81351428D01*
X121450571Y-81303809D01*
X121545809Y-81256190D01*
X121736285Y-81208571D01*
X121831523Y-81160952D01*
X121879142Y-81113333D01*
X121926761Y-81018095D01*
X121926761Y-80922857D01*
X121879142Y-80827619D01*
X121831523Y-80780000D01*
X121736285Y-80732380D01*
X121498190Y-80732380D01*
X121355333Y-80780000D01*
X120926761Y-81732380D02*
X120926761Y-81065714D01*
X120926761Y-80732380D02*
X120974380Y-80780000D01*
X120926761Y-80827619D01*
X120879142Y-80780000D01*
X120926761Y-80732380D01*
X120926761Y-80827619D01*
X120450571Y-81732380D02*
X120450571Y-81065714D01*
X120450571Y-81160952D02*
X120402952Y-81113333D01*
X120307714Y-81065714D01*
X120164857Y-81065714D01*
X120069619Y-81113333D01*
X120022000Y-81208571D01*
X120022000Y-81732380D01*
X120022000Y-81208571D02*
X119974380Y-81113333D01*
X119879142Y-81065714D01*
X119736285Y-81065714D01*
X119641047Y-81113333D01*
X119593428Y-81208571D01*
X119593428Y-81732380D01*
X119117238Y-81065714D02*
X119117238Y-82065714D01*
X119117238Y-81113333D02*
X119022000Y-81065714D01*
X118831523Y-81065714D01*
X118736285Y-81113333D01*
X118688666Y-81160952D01*
X118641047Y-81256190D01*
X118641047Y-81541904D01*
X118688666Y-81637142D01*
X118736285Y-81684761D01*
X118831523Y-81732380D01*
X119022000Y-81732380D01*
X119117238Y-81684761D01*
X118069619Y-81732380D02*
X118164857Y-81684761D01*
X118212476Y-81589523D01*
X118212476Y-80732380D01*
X117307714Y-81684761D02*
X117402952Y-81732380D01*
X117593428Y-81732380D01*
X117688666Y-81684761D01*
X117736285Y-81589523D01*
X117736285Y-81208571D01*
X117688666Y-81113333D01*
X117593428Y-81065714D01*
X117402952Y-81065714D01*
X117307714Y-81113333D01*
X117260095Y-81208571D01*
X117260095Y-81303809D01*
X117736285Y-81399047D01*
X115545809Y-80780000D02*
X115641047Y-80732380D01*
X115783904Y-80732380D01*
X115926761Y-80780000D01*
X116022000Y-80875238D01*
X116069619Y-80970476D01*
X116117238Y-81160952D01*
X116117238Y-81303809D01*
X116069619Y-81494285D01*
X116022000Y-81589523D01*
X115926761Y-81684761D01*
X115783904Y-81732380D01*
X115688666Y-81732380D01*
X115545809Y-81684761D01*
X115498190Y-81637142D01*
X115498190Y-81303809D01*
X115688666Y-81303809D01*
X114641047Y-81732380D02*
X114641047Y-81208571D01*
X114688666Y-81113333D01*
X114783904Y-81065714D01*
X114974380Y-81065714D01*
X115069619Y-81113333D01*
X114641047Y-81684761D02*
X114736285Y-81732380D01*
X114974380Y-81732380D01*
X115069619Y-81684761D01*
X115117238Y-81589523D01*
X115117238Y-81494285D01*
X115069619Y-81399047D01*
X114974380Y-81351428D01*
X114736285Y-81351428D01*
X114641047Y-81303809D01*
X114164857Y-81732380D02*
X114164857Y-81065714D01*
X114164857Y-81256190D02*
X114117238Y-81160952D01*
X114069619Y-81113333D01*
X113974380Y-81065714D01*
X113879142Y-81065714D01*
X113117238Y-81732380D02*
X113117238Y-80732380D01*
X113117238Y-81684761D02*
X113212476Y-81732380D01*
X113402952Y-81732380D01*
X113498190Y-81684761D01*
X113545809Y-81637142D01*
X113593428Y-81541904D01*
X113593428Y-81256190D01*
X113545809Y-81160952D01*
X113498190Y-81113333D01*
X113402952Y-81065714D01*
X113212476Y-81065714D01*
X113117238Y-81113333D01*
X112260095Y-81684761D02*
X112355333Y-81732380D01*
X112545809Y-81732380D01*
X112641047Y-81684761D01*
X112688666Y-81589523D01*
X112688666Y-81208571D01*
X112641047Y-81113333D01*
X112545809Y-81065714D01*
X112355333Y-81065714D01*
X112260095Y-81113333D01*
X112212476Y-81208571D01*
X112212476Y-81303809D01*
X112688666Y-81399047D01*
X111783904Y-81065714D02*
X111783904Y-81732380D01*
X111783904Y-81160952D02*
X111736285Y-81113333D01*
X111641047Y-81065714D01*
X111498190Y-81065714D01*
X111402952Y-81113333D01*
X111355333Y-81208571D01*
X111355333Y-81732380D01*
X109641047Y-81732380D02*
X110117238Y-81732380D01*
X110117238Y-80732380D01*
X109307714Y-81208571D02*
X108974380Y-81208571D01*
X108831523Y-81732380D02*
X109307714Y-81732380D01*
X109307714Y-80732380D01*
X108831523Y-80732380D01*
X108402952Y-81732380D02*
X108402952Y-80732380D01*
X108164857Y-80732380D01*
X108022000Y-80780000D01*
X107926761Y-80875238D01*
X107879142Y-80970476D01*
X107831523Y-81160952D01*
X107831523Y-81303809D01*
X107879142Y-81494285D01*
X107926761Y-81589523D01*
X108022000Y-81684761D01*
X108164857Y-81732380D01*
X108402952Y-81732380D01*
X106164857Y-81732380D02*
X106641047Y-81732380D01*
X106641047Y-80732380D01*
X105402952Y-81732380D02*
X105402952Y-81208571D01*
X105450571Y-81113333D01*
X105545809Y-81065714D01*
X105736285Y-81065714D01*
X105831523Y-81113333D01*
X105402952Y-81684761D02*
X105498190Y-81732380D01*
X105736285Y-81732380D01*
X105831523Y-81684761D01*
X105879142Y-81589523D01*
X105879142Y-81494285D01*
X105831523Y-81399047D01*
X105736285Y-81351428D01*
X105498190Y-81351428D01*
X105402952Y-81303809D01*
X104926761Y-81732380D02*
X104926761Y-81065714D01*
X104926761Y-81160952D02*
X104879142Y-81113333D01*
X104783904Y-81065714D01*
X104641047Y-81065714D01*
X104545809Y-81113333D01*
X104498190Y-81208571D01*
X104498190Y-81732380D01*
X104498190Y-81208571D02*
X104450571Y-81113333D01*
X104355333Y-81065714D01*
X104212476Y-81065714D01*
X104117238Y-81113333D01*
X104069619Y-81208571D01*
X104069619Y-81732380D01*
X103593428Y-81065714D02*
X103593428Y-82065714D01*
X103593428Y-81113333D02*
X103498190Y-81065714D01*
X103307714Y-81065714D01*
X103212476Y-81113333D01*
X103164857Y-81160952D01*
X103117238Y-81256190D01*
X103117238Y-81541904D01*
X103164857Y-81637142D01*
X103212476Y-81684761D01*
X103307714Y-81732380D01*
X103498190Y-81732380D01*
X103593428Y-81684761D01*
M02*
