G04 #@! TF.GenerationSoftware,KiCad,Pcbnew,(5.1.5)-3*
G04 #@! TF.CreationDate,2020-06-19T18:53:09+01:00*
G04 #@! TF.ProjectId,gardenlight,67617264-656e-46c6-9967-68742e6b6963,1.0.1*
G04 #@! TF.SameCoordinates,Original*
G04 #@! TF.FileFunction,Legend,Top*
G04 #@! TF.FilePolarity,Positive*
%FSLAX46Y46*%
G04 Gerber Fmt 4.6, Leading zero omitted, Abs format (unit mm)*
G04 Created by KiCad (PCBNEW (5.1.5)-3) date 2020-06-19 18:53:09*
%MOMM*%
%LPD*%
G04 APERTURE LIST*
%ADD10C,0.200000*%
%ADD11C,0.125000*%
%ADD12C,0.150000*%
%ADD13C,0.120000*%
%ADD14C,0.203200*%
G04 APERTURE END LIST*
D10*
X121793047Y-92781428D02*
X122554952Y-92781428D01*
X122174000Y-93162380D02*
X122174000Y-92400476D01*
X98425047Y-92781428D02*
X99186952Y-92781428D01*
X98806000Y-93162380D02*
X98806000Y-92400476D01*
D11*
X106144190Y-93075142D02*
X106144190Y-93360857D01*
X106144190Y-93218000D02*
X105644190Y-93218000D01*
X105715619Y-93265619D01*
X105763238Y-93313238D01*
X105787047Y-93360857D01*
D12*
X100679428Y-92765619D02*
X100727047Y-92718000D01*
X100822285Y-92670380D01*
X101060380Y-92670380D01*
X101155619Y-92718000D01*
X101203238Y-92765619D01*
X101250857Y-92860857D01*
X101250857Y-92956095D01*
X101203238Y-93098952D01*
X100631809Y-93670380D01*
X101250857Y-93670380D01*
X101679428Y-93575142D02*
X101727047Y-93622761D01*
X101679428Y-93670380D01*
X101631809Y-93622761D01*
X101679428Y-93575142D01*
X101679428Y-93670380D01*
X102631809Y-92670380D02*
X102155619Y-92670380D01*
X102108000Y-93146571D01*
X102155619Y-93098952D01*
X102250857Y-93051333D01*
X102488952Y-93051333D01*
X102584190Y-93098952D01*
X102631809Y-93146571D01*
X102679428Y-93241809D01*
X102679428Y-93479904D01*
X102631809Y-93575142D01*
X102584190Y-93622761D01*
X102488952Y-93670380D01*
X102250857Y-93670380D01*
X102155619Y-93622761D01*
X102108000Y-93575142D01*
X102965142Y-92670380D02*
X103298476Y-93670380D01*
X103631809Y-92670380D01*
X117467142Y-88590380D02*
X116990952Y-88590380D01*
X116990952Y-87590380D01*
X117800476Y-88066571D02*
X118133809Y-88066571D01*
X118276666Y-88590380D02*
X117800476Y-88590380D01*
X117800476Y-87590380D01*
X118276666Y-87590380D01*
X118705238Y-88590380D02*
X118705238Y-87590380D01*
X118943333Y-87590380D01*
X119086190Y-87638000D01*
X119181428Y-87733238D01*
X119229047Y-87828476D01*
X119276666Y-88018952D01*
X119276666Y-88161809D01*
X119229047Y-88352285D01*
X119181428Y-88447523D01*
X119086190Y-88542761D01*
X118943333Y-88590380D01*
X118705238Y-88590380D01*
X113935142Y-81732380D02*
X113363714Y-81732380D01*
X113649428Y-81732380D02*
X113649428Y-80732380D01*
X113554190Y-80875238D01*
X113458952Y-80970476D01*
X113363714Y-81018095D01*
X114363714Y-81732380D02*
X114363714Y-80732380D01*
X114935142Y-81732380D01*
X114935142Y-80732380D01*
X115887523Y-80732380D02*
X115411333Y-80732380D01*
X115363714Y-81208571D01*
X115411333Y-81160952D01*
X115506571Y-81113333D01*
X115744666Y-81113333D01*
X115839904Y-81160952D01*
X115887523Y-81208571D01*
X115935142Y-81303809D01*
X115935142Y-81541904D01*
X115887523Y-81637142D01*
X115839904Y-81684761D01*
X115744666Y-81732380D01*
X115506571Y-81732380D01*
X115411333Y-81684761D01*
X115363714Y-81637142D01*
X116506571Y-81160952D02*
X116411333Y-81113333D01*
X116363714Y-81065714D01*
X116316095Y-80970476D01*
X116316095Y-80922857D01*
X116363714Y-80827619D01*
X116411333Y-80780000D01*
X116506571Y-80732380D01*
X116697047Y-80732380D01*
X116792285Y-80780000D01*
X116839904Y-80827619D01*
X116887523Y-80922857D01*
X116887523Y-80970476D01*
X116839904Y-81065714D01*
X116792285Y-81113333D01*
X116697047Y-81160952D01*
X116506571Y-81160952D01*
X116411333Y-81208571D01*
X116363714Y-81256190D01*
X116316095Y-81351428D01*
X116316095Y-81541904D01*
X116363714Y-81637142D01*
X116411333Y-81684761D01*
X116506571Y-81732380D01*
X116697047Y-81732380D01*
X116792285Y-81684761D01*
X116839904Y-81637142D01*
X116887523Y-81541904D01*
X116887523Y-81351428D01*
X116839904Y-81256190D01*
X116792285Y-81208571D01*
X116697047Y-81160952D01*
X117839904Y-81732380D02*
X117268476Y-81732380D01*
X117554190Y-81732380D02*
X117554190Y-80732380D01*
X117458952Y-80875238D01*
X117363714Y-80970476D01*
X117268476Y-81018095D01*
X118173238Y-80732380D02*
X118839904Y-80732380D01*
X118411333Y-81732380D01*
X114665428Y-94543619D02*
X114713047Y-94496000D01*
X114808285Y-94448380D01*
X115046380Y-94448380D01*
X115141619Y-94496000D01*
X115189238Y-94543619D01*
X115236857Y-94638857D01*
X115236857Y-94734095D01*
X115189238Y-94876952D01*
X114617809Y-95448380D01*
X115236857Y-95448380D01*
X115617809Y-94543619D02*
X115665428Y-94496000D01*
X115760666Y-94448380D01*
X115998761Y-94448380D01*
X116094000Y-94496000D01*
X116141619Y-94543619D01*
X116189238Y-94638857D01*
X116189238Y-94734095D01*
X116141619Y-94876952D01*
X115570190Y-95448380D01*
X116189238Y-95448380D01*
X116808285Y-94448380D02*
X116903523Y-94448380D01*
X116998761Y-94496000D01*
X117046380Y-94543619D01*
X117094000Y-94638857D01*
X117141619Y-94829333D01*
X117141619Y-95067428D01*
X117094000Y-95257904D01*
X117046380Y-95353142D01*
X116998761Y-95400761D01*
X116903523Y-95448380D01*
X116808285Y-95448380D01*
X116713047Y-95400761D01*
X116665428Y-95353142D01*
X116617809Y-95257904D01*
X116570190Y-95067428D01*
X116570190Y-94829333D01*
X116617809Y-94638857D01*
X116665428Y-94543619D01*
X116713047Y-94496000D01*
X116808285Y-94448380D01*
X117570190Y-95448380D02*
X117570190Y-94781714D01*
X117570190Y-94876952D02*
X117617809Y-94829333D01*
X117713047Y-94781714D01*
X117855904Y-94781714D01*
X117951142Y-94829333D01*
X117998761Y-94924571D01*
X117998761Y-95448380D01*
X117998761Y-94924571D02*
X118046380Y-94829333D01*
X118141619Y-94781714D01*
X118284476Y-94781714D01*
X118379714Y-94829333D01*
X118427333Y-94924571D01*
X118427333Y-95448380D01*
X118903523Y-95448380D02*
X118903523Y-94448380D01*
X118903523Y-94924571D02*
X119474952Y-94924571D01*
X119474952Y-95448380D02*
X119474952Y-94448380D01*
X124110857Y-93670380D02*
X123539428Y-93670380D01*
X123825142Y-93670380D02*
X123825142Y-92670380D01*
X123729904Y-92813238D01*
X123634666Y-92908476D01*
X123539428Y-92956095D01*
X124539428Y-93575142D02*
X124587047Y-93622761D01*
X124539428Y-93670380D01*
X124491809Y-93622761D01*
X124539428Y-93575142D01*
X124539428Y-93670380D01*
X124968000Y-92765619D02*
X125015619Y-92718000D01*
X125110857Y-92670380D01*
X125348952Y-92670380D01*
X125444190Y-92718000D01*
X125491809Y-92765619D01*
X125539428Y-92860857D01*
X125539428Y-92956095D01*
X125491809Y-93098952D01*
X124920380Y-93670380D01*
X125539428Y-93670380D01*
X125825142Y-92670380D02*
X126158476Y-93670380D01*
X126491809Y-92670380D01*
D13*
X98220000Y-92022000D02*
X99470000Y-92022000D01*
X98220000Y-90772000D02*
X98220000Y-92022000D01*
X102630000Y-88662000D02*
X102130000Y-88662000D01*
X102130000Y-88562000D02*
X102630000Y-88562000D01*
X102130000Y-88762000D02*
X102130000Y-88562000D01*
X102630000Y-88762000D02*
X102130000Y-88762000D01*
X101130000Y-85602000D02*
X101130000Y-86212000D01*
X99830000Y-85602000D02*
X99830000Y-86212000D01*
X101130000Y-91722000D02*
X101130000Y-91112000D01*
X99830000Y-91722000D02*
X99830000Y-91112000D01*
X99130000Y-88162000D02*
X98520000Y-88162000D01*
X99130000Y-86212000D02*
X99130000Y-88162000D01*
X102630000Y-86212000D02*
X99130000Y-86212000D01*
X102630000Y-91112000D02*
X102630000Y-86212000D01*
X99130000Y-91112000D02*
X102630000Y-91112000D01*
X99130000Y-89162000D02*
X99130000Y-91112000D01*
X98520000Y-89162000D02*
X99130000Y-89162000D01*
X98420000Y-89962000D02*
X98420000Y-90262000D01*
X98320000Y-90262000D02*
X98520000Y-90262000D01*
X98320000Y-89962000D02*
X98320000Y-90262000D01*
X98520000Y-89962000D02*
X98320000Y-89962000D01*
X98520000Y-85602000D02*
X98520000Y-91722000D01*
X103240000Y-85602000D02*
X98520000Y-85602000D01*
X103240000Y-91722000D02*
X103240000Y-85602000D01*
X98520000Y-91722000D02*
X103240000Y-91722000D01*
X116494000Y-85290000D02*
X116494000Y-82350000D01*
X116254000Y-85290000D02*
X116254000Y-82350000D01*
X116374000Y-85290000D02*
X116374000Y-82350000D01*
X110814000Y-83820000D02*
X111834000Y-83820000D01*
X118294000Y-83820000D02*
X117274000Y-83820000D01*
X111834000Y-85290000D02*
X117274000Y-85290000D01*
X111834000Y-82350000D02*
X111834000Y-85290000D01*
X117274000Y-82350000D02*
X111834000Y-82350000D01*
X117274000Y-85290000D02*
X117274000Y-82350000D01*
X121334000Y-92022000D02*
X122584000Y-92022000D01*
X121334000Y-90772000D02*
X121334000Y-92022000D01*
X125744000Y-88662000D02*
X125244000Y-88662000D01*
X125244000Y-88562000D02*
X125744000Y-88562000D01*
X125244000Y-88762000D02*
X125244000Y-88562000D01*
X125744000Y-88762000D02*
X125244000Y-88762000D01*
X124244000Y-85602000D02*
X124244000Y-86212000D01*
X122944000Y-85602000D02*
X122944000Y-86212000D01*
X124244000Y-91722000D02*
X124244000Y-91112000D01*
X122944000Y-91722000D02*
X122944000Y-91112000D01*
X122244000Y-88162000D02*
X121634000Y-88162000D01*
X122244000Y-86212000D02*
X122244000Y-88162000D01*
X125744000Y-86212000D02*
X122244000Y-86212000D01*
X125744000Y-91112000D02*
X125744000Y-86212000D01*
X122244000Y-91112000D02*
X125744000Y-91112000D01*
X122244000Y-89162000D02*
X122244000Y-91112000D01*
X121634000Y-89162000D02*
X122244000Y-89162000D01*
X121534000Y-89962000D02*
X121534000Y-90262000D01*
X121434000Y-90262000D02*
X121634000Y-90262000D01*
X121434000Y-89962000D02*
X121434000Y-90262000D01*
X121634000Y-89962000D02*
X121434000Y-89962000D01*
X121634000Y-85602000D02*
X121634000Y-91722000D01*
X126354000Y-85602000D02*
X121634000Y-85602000D01*
X126354000Y-91722000D02*
X126354000Y-85602000D01*
X121634000Y-91722000D02*
X126354000Y-91722000D01*
X118594000Y-92456000D02*
X117974000Y-92456000D01*
X110514000Y-92456000D02*
X111134000Y-92456000D01*
X117974000Y-90986000D02*
X111134000Y-90986000D01*
X117974000Y-93926000D02*
X117974000Y-90986000D01*
X111134000Y-93926000D02*
X117974000Y-93926000D01*
X111134000Y-90986000D02*
X111134000Y-93926000D01*
D14*
X107950000Y-93218000D02*
G75*
G03X107950000Y-93218000I-254000J0D01*
G01*
X107188000Y-84582000D02*
X107188000Y-92710000D01*
X104648000Y-84582000D02*
X107188000Y-84582000D01*
X104648000Y-92710000D02*
X104648000Y-84582000D01*
X107188000Y-92710000D02*
X104648000Y-92710000D01*
D13*
X115860000Y-87058000D02*
X115860000Y-86902000D01*
X115860000Y-89374000D02*
X115860000Y-89218000D01*
X113258870Y-87058163D02*
G75*
G02X115340961Y-87058000I1041130J-1079837D01*
G01*
X113258870Y-89217837D02*
G75*
G03X115340961Y-89218000I1041130J1079837D01*
G01*
X112627665Y-87059392D02*
G75*
G02X115860000Y-86902484I1672335J-1078608D01*
G01*
X112627665Y-89216608D02*
G75*
G03X115860000Y-89373516I1672335J1078608D01*
G01*
D12*
X99076095Y-84510761D02*
X99218952Y-84558380D01*
X99457047Y-84558380D01*
X99552285Y-84510761D01*
X99599904Y-84463142D01*
X99647523Y-84367904D01*
X99647523Y-84272666D01*
X99599904Y-84177428D01*
X99552285Y-84129809D01*
X99457047Y-84082190D01*
X99266571Y-84034571D01*
X99171333Y-83986952D01*
X99123714Y-83939333D01*
X99076095Y-83844095D01*
X99076095Y-83748857D01*
X99123714Y-83653619D01*
X99171333Y-83606000D01*
X99266571Y-83558380D01*
X99504666Y-83558380D01*
X99647523Y-83606000D01*
X100218952Y-84558380D02*
X100123714Y-84510761D01*
X100076095Y-84463142D01*
X100028476Y-84367904D01*
X100028476Y-84082190D01*
X100076095Y-83986952D01*
X100123714Y-83939333D01*
X100218952Y-83891714D01*
X100361809Y-83891714D01*
X100457047Y-83939333D01*
X100504666Y-83986952D01*
X100552285Y-84082190D01*
X100552285Y-84367904D01*
X100504666Y-84463142D01*
X100457047Y-84510761D01*
X100361809Y-84558380D01*
X100218952Y-84558380D01*
X101123714Y-84558380D02*
X101028476Y-84510761D01*
X100980857Y-84415523D01*
X100980857Y-83558380D01*
X101933238Y-84558380D02*
X101933238Y-84034571D01*
X101885619Y-83939333D01*
X101790380Y-83891714D01*
X101599904Y-83891714D01*
X101504666Y-83939333D01*
X101933238Y-84510761D02*
X101838000Y-84558380D01*
X101599904Y-84558380D01*
X101504666Y-84510761D01*
X101457047Y-84415523D01*
X101457047Y-84320285D01*
X101504666Y-84225047D01*
X101599904Y-84177428D01*
X101838000Y-84177428D01*
X101933238Y-84129809D01*
X102409428Y-84558380D02*
X102409428Y-83891714D01*
X102409428Y-84082190D02*
X102457047Y-83986952D01*
X102504666Y-83939333D01*
X102599904Y-83891714D01*
X102695142Y-83891714D01*
X109751904Y-81732380D02*
X109751904Y-80732380D01*
X109990000Y-80732380D01*
X110132857Y-80780000D01*
X110228095Y-80875238D01*
X110275714Y-80970476D01*
X110323333Y-81160952D01*
X110323333Y-81303809D01*
X110275714Y-81494285D01*
X110228095Y-81589523D01*
X110132857Y-81684761D01*
X109990000Y-81732380D01*
X109751904Y-81732380D01*
X111275714Y-81732380D02*
X110704285Y-81732380D01*
X110990000Y-81732380D02*
X110990000Y-80732380D01*
X110894761Y-80875238D01*
X110799523Y-80970476D01*
X110704285Y-81018095D01*
X122332952Y-84526380D02*
X122332952Y-83526380D01*
X122904380Y-84526380D01*
X122904380Y-83526380D01*
X123380571Y-84526380D02*
X123380571Y-83859714D01*
X123380571Y-83526380D02*
X123332952Y-83574000D01*
X123380571Y-83621619D01*
X123428190Y-83574000D01*
X123380571Y-83526380D01*
X123380571Y-83621619D01*
X123856761Y-84526380D02*
X123856761Y-83526380D01*
X124190095Y-84240666D01*
X124523428Y-83526380D01*
X124523428Y-84526380D01*
X124999619Y-84526380D02*
X124999619Y-83526380D01*
X124999619Y-84002571D02*
X125571047Y-84002571D01*
X125571047Y-84526380D02*
X125571047Y-83526380D01*
X109815333Y-95448380D02*
X109339142Y-95448380D01*
X109339142Y-94448380D01*
X110672476Y-95448380D02*
X110101047Y-95448380D01*
X110386761Y-95448380D02*
X110386761Y-94448380D01*
X110291523Y-94591238D01*
X110196285Y-94686476D01*
X110101047Y-94734095D01*
X105410095Y-83018380D02*
X105410095Y-83827904D01*
X105457714Y-83923142D01*
X105505333Y-83970761D01*
X105600571Y-84018380D01*
X105791047Y-84018380D01*
X105886285Y-83970761D01*
X105933904Y-83923142D01*
X105981523Y-83827904D01*
X105981523Y-83018380D01*
X106981523Y-84018380D02*
X106410095Y-84018380D01*
X106695809Y-84018380D02*
X106695809Y-83018380D01*
X106600571Y-83161238D01*
X106505333Y-83256476D01*
X106410095Y-83304095D01*
X109751904Y-88336380D02*
X109751904Y-87336380D01*
X109990000Y-87336380D01*
X110132857Y-87384000D01*
X110228095Y-87479238D01*
X110275714Y-87574476D01*
X110323333Y-87764952D01*
X110323333Y-87907809D01*
X110275714Y-88098285D01*
X110228095Y-88193523D01*
X110132857Y-88288761D01*
X109990000Y-88336380D01*
X109751904Y-88336380D01*
X110704285Y-87431619D02*
X110751904Y-87384000D01*
X110847142Y-87336380D01*
X111085238Y-87336380D01*
X111180476Y-87384000D01*
X111228095Y-87431619D01*
X111275714Y-87526857D01*
X111275714Y-87622095D01*
X111228095Y-87764952D01*
X110656666Y-88336380D01*
X111275714Y-88336380D01*
M02*
