G04 #@! TF.GenerationSoftware,KiCad,Pcbnew,(5.1.5)-3*
G04 #@! TF.CreationDate,2020-06-19T18:53:09+01:00*
G04 #@! TF.ProjectId,gardenlight,67617264-656e-46c6-9967-68742e6b6963,1.0.1*
G04 #@! TF.SameCoordinates,Original*
G04 #@! TF.FileFunction,Copper,L2,Bot*
G04 #@! TF.FilePolarity,Positive*
%FSLAX46Y46*%
G04 Gerber Fmt 4.6, Leading zero omitted, Abs format (unit mm)*
G04 Created by KiCad (PCBNEW (5.1.5)-3) date 2020-06-19 18:53:09*
%MOMM*%
%LPD*%
G04 APERTURE LIST*
%ADD10C,0.250000*%
%ADD11O,1.750000X1.200000*%
%ADD12C,0.150000*%
%ADD13O,2.200000X2.200000*%
%ADD14R,2.200000X2.200000*%
%ADD15O,1.600000X1.600000*%
%ADD16C,1.600000*%
%ADD17C,1.524000*%
%ADD18R,1.524000X1.524000*%
%ADD19C,1.800000*%
%ADD20R,1.800000X1.800000*%
%ADD21C,0.254000*%
G04 APERTURE END LIST*
D10*
X104473047Y-94702380D02*
X104139714Y-95702380D01*
X103806380Y-94702380D01*
X102187333Y-95702380D02*
X102758761Y-95702380D01*
X102473047Y-95702380D02*
X102473047Y-94702380D01*
X102568285Y-94845238D01*
X102663523Y-94940476D01*
X102758761Y-94988095D01*
X101758761Y-95607142D02*
X101711142Y-95654761D01*
X101758761Y-95702380D01*
X101806380Y-95654761D01*
X101758761Y-95607142D01*
X101758761Y-95702380D01*
X100758761Y-95702380D02*
X101330190Y-95702380D01*
X101044476Y-95702380D02*
X101044476Y-94702380D01*
X101139714Y-94845238D01*
X101234952Y-94940476D01*
X101330190Y-94988095D01*
X100330190Y-95607142D02*
X100282571Y-95654761D01*
X100330190Y-95702380D01*
X100377809Y-95654761D01*
X100330190Y-95607142D01*
X100330190Y-95702380D01*
X99663523Y-94702380D02*
X99568285Y-94702380D01*
X99473047Y-94750000D01*
X99425428Y-94797619D01*
X99377809Y-94892857D01*
X99330190Y-95083333D01*
X99330190Y-95321428D01*
X99377809Y-95511904D01*
X99425428Y-95607142D01*
X99473047Y-95654761D01*
X99568285Y-95702380D01*
X99663523Y-95702380D01*
X99758761Y-95654761D01*
X99806380Y-95607142D01*
X99854000Y-95511904D01*
X99901619Y-95321428D01*
X99901619Y-95083333D01*
X99854000Y-94892857D01*
X99806380Y-94797619D01*
X99758761Y-94750000D01*
X99663523Y-94702380D01*
D11*
X100330000Y-87662000D03*
G04 #@! TA.AperFunction,ComponentPad*
D12*
G36*
X100979505Y-89063204D02*
G01*
X101003773Y-89066804D01*
X101027572Y-89072765D01*
X101050671Y-89081030D01*
X101072850Y-89091520D01*
X101093893Y-89104132D01*
X101113599Y-89118747D01*
X101131777Y-89135223D01*
X101148253Y-89153401D01*
X101162868Y-89173107D01*
X101175480Y-89194150D01*
X101185970Y-89216329D01*
X101194235Y-89239428D01*
X101200196Y-89263227D01*
X101203796Y-89287495D01*
X101205000Y-89311999D01*
X101205000Y-90012001D01*
X101203796Y-90036505D01*
X101200196Y-90060773D01*
X101194235Y-90084572D01*
X101185970Y-90107671D01*
X101175480Y-90129850D01*
X101162868Y-90150893D01*
X101148253Y-90170599D01*
X101131777Y-90188777D01*
X101113599Y-90205253D01*
X101093893Y-90219868D01*
X101072850Y-90232480D01*
X101050671Y-90242970D01*
X101027572Y-90251235D01*
X101003773Y-90257196D01*
X100979505Y-90260796D01*
X100955001Y-90262000D01*
X99704999Y-90262000D01*
X99680495Y-90260796D01*
X99656227Y-90257196D01*
X99632428Y-90251235D01*
X99609329Y-90242970D01*
X99587150Y-90232480D01*
X99566107Y-90219868D01*
X99546401Y-90205253D01*
X99528223Y-90188777D01*
X99511747Y-90170599D01*
X99497132Y-90150893D01*
X99484520Y-90129850D01*
X99474030Y-90107671D01*
X99465765Y-90084572D01*
X99459804Y-90060773D01*
X99456204Y-90036505D01*
X99455000Y-90012001D01*
X99455000Y-89311999D01*
X99456204Y-89287495D01*
X99459804Y-89263227D01*
X99465765Y-89239428D01*
X99474030Y-89216329D01*
X99484520Y-89194150D01*
X99497132Y-89173107D01*
X99511747Y-89153401D01*
X99528223Y-89135223D01*
X99546401Y-89118747D01*
X99566107Y-89104132D01*
X99587150Y-89091520D01*
X99609329Y-89081030D01*
X99632428Y-89072765D01*
X99656227Y-89066804D01*
X99680495Y-89063204D01*
X99704999Y-89062000D01*
X100955001Y-89062000D01*
X100979505Y-89063204D01*
G37*
G04 #@! TD.AperFunction*
D13*
X109474000Y-83820000D03*
D14*
X119634000Y-83820000D03*
D11*
X123444000Y-87662000D03*
G04 #@! TA.AperFunction,ComponentPad*
D12*
G36*
X124093505Y-89063204D02*
G01*
X124117773Y-89066804D01*
X124141572Y-89072765D01*
X124164671Y-89081030D01*
X124186850Y-89091520D01*
X124207893Y-89104132D01*
X124227599Y-89118747D01*
X124245777Y-89135223D01*
X124262253Y-89153401D01*
X124276868Y-89173107D01*
X124289480Y-89194150D01*
X124299970Y-89216329D01*
X124308235Y-89239428D01*
X124314196Y-89263227D01*
X124317796Y-89287495D01*
X124319000Y-89311999D01*
X124319000Y-90012001D01*
X124317796Y-90036505D01*
X124314196Y-90060773D01*
X124308235Y-90084572D01*
X124299970Y-90107671D01*
X124289480Y-90129850D01*
X124276868Y-90150893D01*
X124262253Y-90170599D01*
X124245777Y-90188777D01*
X124227599Y-90205253D01*
X124207893Y-90219868D01*
X124186850Y-90232480D01*
X124164671Y-90242970D01*
X124141572Y-90251235D01*
X124117773Y-90257196D01*
X124093505Y-90260796D01*
X124069001Y-90262000D01*
X122818999Y-90262000D01*
X122794495Y-90260796D01*
X122770227Y-90257196D01*
X122746428Y-90251235D01*
X122723329Y-90242970D01*
X122701150Y-90232480D01*
X122680107Y-90219868D01*
X122660401Y-90205253D01*
X122642223Y-90188777D01*
X122625747Y-90170599D01*
X122611132Y-90150893D01*
X122598520Y-90129850D01*
X122588030Y-90107671D01*
X122579765Y-90084572D01*
X122573804Y-90060773D01*
X122570204Y-90036505D01*
X122569000Y-90012001D01*
X122569000Y-89311999D01*
X122570204Y-89287495D01*
X122573804Y-89263227D01*
X122579765Y-89239428D01*
X122588030Y-89216329D01*
X122598520Y-89194150D01*
X122611132Y-89173107D01*
X122625747Y-89153401D01*
X122642223Y-89135223D01*
X122660401Y-89118747D01*
X122680107Y-89104132D01*
X122701150Y-89091520D01*
X122723329Y-89081030D01*
X122746428Y-89072765D01*
X122770227Y-89066804D01*
X122794495Y-89063204D01*
X122818999Y-89062000D01*
X124069001Y-89062000D01*
X124093505Y-89063204D01*
G37*
G04 #@! TD.AperFunction*
D15*
X119634000Y-92456000D03*
D16*
X109474000Y-92456000D03*
D17*
X105918000Y-85598000D03*
X105918000Y-87630000D03*
X105918000Y-89662000D03*
D18*
X105918000Y-91694000D03*
D19*
X113030000Y-88138000D03*
D20*
X115570000Y-88138000D03*
D21*
G36*
X126594001Y-95606000D02*
G01*
X105328286Y-95606000D01*
X105328286Y-93832500D01*
X98379715Y-93832500D01*
X98379715Y-95606000D01*
X98196000Y-95606000D01*
X98196000Y-90932000D01*
X104517928Y-90932000D01*
X104517928Y-92456000D01*
X104530188Y-92580482D01*
X104566498Y-92700180D01*
X104625463Y-92810494D01*
X104704815Y-92907185D01*
X104801506Y-92986537D01*
X104911820Y-93045502D01*
X105031518Y-93081812D01*
X105156000Y-93094072D01*
X106680000Y-93094072D01*
X106804482Y-93081812D01*
X106924180Y-93045502D01*
X107034494Y-92986537D01*
X107131185Y-92907185D01*
X107210537Y-92810494D01*
X107269502Y-92700180D01*
X107305812Y-92580482D01*
X107318072Y-92456000D01*
X107318072Y-92314665D01*
X108039000Y-92314665D01*
X108039000Y-92597335D01*
X108094147Y-92874574D01*
X108202320Y-93135727D01*
X108359363Y-93370759D01*
X108559241Y-93570637D01*
X108794273Y-93727680D01*
X109055426Y-93835853D01*
X109332665Y-93891000D01*
X109615335Y-93891000D01*
X109892574Y-93835853D01*
X110153727Y-93727680D01*
X110388759Y-93570637D01*
X110588637Y-93370759D01*
X110745680Y-93135727D01*
X110853853Y-92874574D01*
X110909000Y-92597335D01*
X110909000Y-92314665D01*
X118199000Y-92314665D01*
X118199000Y-92597335D01*
X118254147Y-92874574D01*
X118362320Y-93135727D01*
X118519363Y-93370759D01*
X118719241Y-93570637D01*
X118954273Y-93727680D01*
X119215426Y-93835853D01*
X119492665Y-93891000D01*
X119775335Y-93891000D01*
X120052574Y-93835853D01*
X120313727Y-93727680D01*
X120548759Y-93570637D01*
X120748637Y-93370759D01*
X120905680Y-93135727D01*
X121013853Y-92874574D01*
X121069000Y-92597335D01*
X121069000Y-92314665D01*
X121013853Y-92037426D01*
X120905680Y-91776273D01*
X120748637Y-91541241D01*
X120548759Y-91341363D01*
X120313727Y-91184320D01*
X120052574Y-91076147D01*
X119775335Y-91021000D01*
X119492665Y-91021000D01*
X119215426Y-91076147D01*
X118954273Y-91184320D01*
X118719241Y-91341363D01*
X118519363Y-91541241D01*
X118362320Y-91776273D01*
X118254147Y-92037426D01*
X118199000Y-92314665D01*
X110909000Y-92314665D01*
X110853853Y-92037426D01*
X110745680Y-91776273D01*
X110588637Y-91541241D01*
X110388759Y-91341363D01*
X110153727Y-91184320D01*
X109892574Y-91076147D01*
X109615335Y-91021000D01*
X109332665Y-91021000D01*
X109055426Y-91076147D01*
X108794273Y-91184320D01*
X108559241Y-91341363D01*
X108359363Y-91541241D01*
X108202320Y-91776273D01*
X108094147Y-92037426D01*
X108039000Y-92314665D01*
X107318072Y-92314665D01*
X107318072Y-90932000D01*
X107305812Y-90807518D01*
X107269502Y-90687820D01*
X107210537Y-90577506D01*
X107131185Y-90480815D01*
X107079425Y-90438337D01*
X107156005Y-90323727D01*
X107261314Y-90069490D01*
X107315000Y-89799592D01*
X107315000Y-89524408D01*
X107261314Y-89254510D01*
X107156005Y-89000273D01*
X107003120Y-88771465D01*
X106808535Y-88576880D01*
X106579727Y-88423995D01*
X106498917Y-88390522D01*
X105918000Y-87809605D01*
X105337083Y-88390522D01*
X105256273Y-88423995D01*
X105027465Y-88576880D01*
X104832880Y-88771465D01*
X104679995Y-89000273D01*
X104574686Y-89254510D01*
X104521000Y-89524408D01*
X104521000Y-89799592D01*
X104574686Y-90069490D01*
X104679995Y-90323727D01*
X104756575Y-90438337D01*
X104704815Y-90480815D01*
X104625463Y-90577506D01*
X104566498Y-90687820D01*
X104530188Y-90807518D01*
X104517928Y-90932000D01*
X98196000Y-90932000D01*
X98196000Y-89311999D01*
X98816928Y-89311999D01*
X98816928Y-90012001D01*
X98833992Y-90185255D01*
X98884528Y-90351851D01*
X98966595Y-90505387D01*
X99077038Y-90639962D01*
X99211613Y-90750405D01*
X99365149Y-90832472D01*
X99531745Y-90883008D01*
X99704999Y-90900072D01*
X100955001Y-90900072D01*
X101128255Y-90883008D01*
X101294851Y-90832472D01*
X101448387Y-90750405D01*
X101582962Y-90639962D01*
X101693405Y-90505387D01*
X101775472Y-90351851D01*
X101826008Y-90185255D01*
X101843072Y-90012001D01*
X101843072Y-89311999D01*
X101826008Y-89138745D01*
X101775472Y-88972149D01*
X101693405Y-88818613D01*
X101582962Y-88684038D01*
X101448387Y-88573595D01*
X101443594Y-88571033D01*
X101568078Y-88445474D01*
X101702421Y-88242533D01*
X101794591Y-88017282D01*
X101798462Y-87979609D01*
X101673731Y-87789000D01*
X100457000Y-87789000D01*
X100457000Y-87809000D01*
X100203000Y-87809000D01*
X100203000Y-87789000D01*
X98986269Y-87789000D01*
X98861538Y-87979609D01*
X98865409Y-88017282D01*
X98957579Y-88242533D01*
X99091922Y-88445474D01*
X99216406Y-88571033D01*
X99211613Y-88573595D01*
X99077038Y-88684038D01*
X98966595Y-88818613D01*
X98884528Y-88972149D01*
X98833992Y-89138745D01*
X98816928Y-89311999D01*
X98196000Y-89311999D01*
X98196000Y-87702017D01*
X104516090Y-87702017D01*
X104557078Y-87974133D01*
X104650364Y-88233023D01*
X104712344Y-88348980D01*
X104952435Y-88415960D01*
X105738395Y-87630000D01*
X106097605Y-87630000D01*
X106883565Y-88415960D01*
X107123656Y-88348980D01*
X107240756Y-88099952D01*
X107268826Y-87986816D01*
X111495000Y-87986816D01*
X111495000Y-88289184D01*
X111553989Y-88585743D01*
X111669701Y-88865095D01*
X111837688Y-89116505D01*
X112051495Y-89330312D01*
X112302905Y-89498299D01*
X112582257Y-89614011D01*
X112878816Y-89673000D01*
X113181184Y-89673000D01*
X113477743Y-89614011D01*
X113757095Y-89498299D01*
X114008505Y-89330312D01*
X114074944Y-89263873D01*
X114080498Y-89282180D01*
X114139463Y-89392494D01*
X114218815Y-89489185D01*
X114315506Y-89568537D01*
X114425820Y-89627502D01*
X114545518Y-89663812D01*
X114670000Y-89676072D01*
X115284250Y-89673000D01*
X115443000Y-89514250D01*
X115443000Y-88265000D01*
X115697000Y-88265000D01*
X115697000Y-89514250D01*
X115855750Y-89673000D01*
X116470000Y-89676072D01*
X116594482Y-89663812D01*
X116714180Y-89627502D01*
X116824494Y-89568537D01*
X116921185Y-89489185D01*
X117000537Y-89392494D01*
X117043563Y-89311999D01*
X121930928Y-89311999D01*
X121930928Y-90012001D01*
X121947992Y-90185255D01*
X121998528Y-90351851D01*
X122080595Y-90505387D01*
X122191038Y-90639962D01*
X122325613Y-90750405D01*
X122479149Y-90832472D01*
X122645745Y-90883008D01*
X122818999Y-90900072D01*
X124069001Y-90900072D01*
X124242255Y-90883008D01*
X124408851Y-90832472D01*
X124562387Y-90750405D01*
X124696962Y-90639962D01*
X124807405Y-90505387D01*
X124889472Y-90351851D01*
X124940008Y-90185255D01*
X124957072Y-90012001D01*
X124957072Y-89311999D01*
X124940008Y-89138745D01*
X124889472Y-88972149D01*
X124807405Y-88818613D01*
X124696962Y-88684038D01*
X124562387Y-88573595D01*
X124557594Y-88571033D01*
X124682078Y-88445474D01*
X124816421Y-88242533D01*
X124908591Y-88017282D01*
X124912462Y-87979609D01*
X124787731Y-87789000D01*
X123571000Y-87789000D01*
X123571000Y-87809000D01*
X123317000Y-87809000D01*
X123317000Y-87789000D01*
X122100269Y-87789000D01*
X121975538Y-87979609D01*
X121979409Y-88017282D01*
X122071579Y-88242533D01*
X122205922Y-88445474D01*
X122330406Y-88571033D01*
X122325613Y-88573595D01*
X122191038Y-88684038D01*
X122080595Y-88818613D01*
X121998528Y-88972149D01*
X121947992Y-89138745D01*
X121930928Y-89311999D01*
X117043563Y-89311999D01*
X117059502Y-89282180D01*
X117095812Y-89162482D01*
X117108072Y-89038000D01*
X117105000Y-88423750D01*
X116946250Y-88265000D01*
X115697000Y-88265000D01*
X115443000Y-88265000D01*
X115423000Y-88265000D01*
X115423000Y-88011000D01*
X115443000Y-88011000D01*
X115443000Y-86761750D01*
X115697000Y-86761750D01*
X115697000Y-88011000D01*
X116946250Y-88011000D01*
X117105000Y-87852250D01*
X117107539Y-87344391D01*
X121975538Y-87344391D01*
X122100269Y-87535000D01*
X123317000Y-87535000D01*
X123317000Y-86427000D01*
X123571000Y-86427000D01*
X123571000Y-87535000D01*
X124787731Y-87535000D01*
X124912462Y-87344391D01*
X124908591Y-87306718D01*
X124816421Y-87081467D01*
X124682078Y-86878526D01*
X124510725Y-86705693D01*
X124308946Y-86569610D01*
X124084496Y-86475507D01*
X123846000Y-86427000D01*
X123571000Y-86427000D01*
X123317000Y-86427000D01*
X123042000Y-86427000D01*
X122803504Y-86475507D01*
X122579054Y-86569610D01*
X122377275Y-86705693D01*
X122205922Y-86878526D01*
X122071579Y-87081467D01*
X121979409Y-87306718D01*
X121975538Y-87344391D01*
X117107539Y-87344391D01*
X117108072Y-87238000D01*
X117095812Y-87113518D01*
X117059502Y-86993820D01*
X117000537Y-86883506D01*
X116921185Y-86786815D01*
X116824494Y-86707463D01*
X116714180Y-86648498D01*
X116594482Y-86612188D01*
X116470000Y-86599928D01*
X115855750Y-86603000D01*
X115697000Y-86761750D01*
X115443000Y-86761750D01*
X115284250Y-86603000D01*
X114670000Y-86599928D01*
X114545518Y-86612188D01*
X114425820Y-86648498D01*
X114315506Y-86707463D01*
X114218815Y-86786815D01*
X114139463Y-86883506D01*
X114080498Y-86993820D01*
X114074944Y-87012127D01*
X114008505Y-86945688D01*
X113757095Y-86777701D01*
X113477743Y-86661989D01*
X113181184Y-86603000D01*
X112878816Y-86603000D01*
X112582257Y-86661989D01*
X112302905Y-86777701D01*
X112051495Y-86945688D01*
X111837688Y-87159495D01*
X111669701Y-87410905D01*
X111553989Y-87690257D01*
X111495000Y-87986816D01*
X107268826Y-87986816D01*
X107307023Y-87832865D01*
X107319910Y-87557983D01*
X107278922Y-87285867D01*
X107185636Y-87026977D01*
X107123656Y-86911020D01*
X106883565Y-86844040D01*
X106097605Y-87630000D01*
X105738395Y-87630000D01*
X104952435Y-86844040D01*
X104712344Y-86911020D01*
X104595244Y-87160048D01*
X104528977Y-87427135D01*
X104516090Y-87702017D01*
X98196000Y-87702017D01*
X98196000Y-87344391D01*
X98861538Y-87344391D01*
X98986269Y-87535000D01*
X100203000Y-87535000D01*
X100203000Y-86427000D01*
X100457000Y-86427000D01*
X100457000Y-87535000D01*
X101673731Y-87535000D01*
X101798462Y-87344391D01*
X101794591Y-87306718D01*
X101702421Y-87081467D01*
X101568078Y-86878526D01*
X101396725Y-86705693D01*
X101194946Y-86569610D01*
X100970496Y-86475507D01*
X100732000Y-86427000D01*
X100457000Y-86427000D01*
X100203000Y-86427000D01*
X99928000Y-86427000D01*
X99689504Y-86475507D01*
X99465054Y-86569610D01*
X99263275Y-86705693D01*
X99091922Y-86878526D01*
X98957579Y-87081467D01*
X98865409Y-87306718D01*
X98861538Y-87344391D01*
X98196000Y-87344391D01*
X98196000Y-85460408D01*
X104521000Y-85460408D01*
X104521000Y-85735592D01*
X104574686Y-86005490D01*
X104679995Y-86259727D01*
X104832880Y-86488535D01*
X105027465Y-86683120D01*
X105256273Y-86836005D01*
X105337083Y-86869478D01*
X105918000Y-87450395D01*
X106498917Y-86869478D01*
X106579727Y-86836005D01*
X106808535Y-86683120D01*
X107003120Y-86488535D01*
X107156005Y-86259727D01*
X107261314Y-86005490D01*
X107315000Y-85735592D01*
X107315000Y-85460408D01*
X107261314Y-85190510D01*
X107156005Y-84936273D01*
X107003120Y-84707465D01*
X106808535Y-84512880D01*
X106579727Y-84359995D01*
X106325490Y-84254686D01*
X106055592Y-84201000D01*
X105780408Y-84201000D01*
X105510510Y-84254686D01*
X105256273Y-84359995D01*
X105027465Y-84512880D01*
X104832880Y-84707465D01*
X104679995Y-84936273D01*
X104574686Y-85190510D01*
X104521000Y-85460408D01*
X98196000Y-85460408D01*
X98196000Y-83649117D01*
X107739000Y-83649117D01*
X107739000Y-83990883D01*
X107805675Y-84326081D01*
X107936463Y-84641831D01*
X108126337Y-84925998D01*
X108368002Y-85167663D01*
X108652169Y-85357537D01*
X108967919Y-85488325D01*
X109303117Y-85555000D01*
X109644883Y-85555000D01*
X109980081Y-85488325D01*
X110295831Y-85357537D01*
X110579998Y-85167663D01*
X110821663Y-84925998D01*
X111011537Y-84641831D01*
X111142325Y-84326081D01*
X111209000Y-83990883D01*
X111209000Y-83649117D01*
X111142325Y-83313919D01*
X111011537Y-82998169D01*
X110825671Y-82720000D01*
X117895928Y-82720000D01*
X117895928Y-84920000D01*
X117908188Y-85044482D01*
X117944498Y-85164180D01*
X118003463Y-85274494D01*
X118082815Y-85371185D01*
X118179506Y-85450537D01*
X118289820Y-85509502D01*
X118409518Y-85545812D01*
X118534000Y-85558072D01*
X120734000Y-85558072D01*
X120858482Y-85545812D01*
X120978180Y-85509502D01*
X121088494Y-85450537D01*
X121185185Y-85371185D01*
X121264537Y-85274494D01*
X121323502Y-85164180D01*
X121359812Y-85044482D01*
X121372072Y-84920000D01*
X121372072Y-82720000D01*
X121359812Y-82595518D01*
X121323502Y-82475820D01*
X121264537Y-82365506D01*
X121185185Y-82268815D01*
X121088494Y-82189463D01*
X120978180Y-82130498D01*
X120858482Y-82094188D01*
X120734000Y-82081928D01*
X118534000Y-82081928D01*
X118409518Y-82094188D01*
X118289820Y-82130498D01*
X118179506Y-82189463D01*
X118082815Y-82268815D01*
X118003463Y-82365506D01*
X117944498Y-82475820D01*
X117908188Y-82595518D01*
X117895928Y-82720000D01*
X110825671Y-82720000D01*
X110821663Y-82714002D01*
X110579998Y-82472337D01*
X110295831Y-82282463D01*
X109980081Y-82151675D01*
X109644883Y-82085000D01*
X109303117Y-82085000D01*
X108967919Y-82151675D01*
X108652169Y-82282463D01*
X108368002Y-82472337D01*
X108126337Y-82714002D01*
X107936463Y-82998169D01*
X107805675Y-83313919D01*
X107739000Y-83649117D01*
X98196000Y-83649117D01*
X98196000Y-80670000D01*
X126594000Y-80670000D01*
X126594001Y-95606000D01*
G37*
X126594001Y-95606000D02*
X105328286Y-95606000D01*
X105328286Y-93832500D01*
X98379715Y-93832500D01*
X98379715Y-95606000D01*
X98196000Y-95606000D01*
X98196000Y-90932000D01*
X104517928Y-90932000D01*
X104517928Y-92456000D01*
X104530188Y-92580482D01*
X104566498Y-92700180D01*
X104625463Y-92810494D01*
X104704815Y-92907185D01*
X104801506Y-92986537D01*
X104911820Y-93045502D01*
X105031518Y-93081812D01*
X105156000Y-93094072D01*
X106680000Y-93094072D01*
X106804482Y-93081812D01*
X106924180Y-93045502D01*
X107034494Y-92986537D01*
X107131185Y-92907185D01*
X107210537Y-92810494D01*
X107269502Y-92700180D01*
X107305812Y-92580482D01*
X107318072Y-92456000D01*
X107318072Y-92314665D01*
X108039000Y-92314665D01*
X108039000Y-92597335D01*
X108094147Y-92874574D01*
X108202320Y-93135727D01*
X108359363Y-93370759D01*
X108559241Y-93570637D01*
X108794273Y-93727680D01*
X109055426Y-93835853D01*
X109332665Y-93891000D01*
X109615335Y-93891000D01*
X109892574Y-93835853D01*
X110153727Y-93727680D01*
X110388759Y-93570637D01*
X110588637Y-93370759D01*
X110745680Y-93135727D01*
X110853853Y-92874574D01*
X110909000Y-92597335D01*
X110909000Y-92314665D01*
X118199000Y-92314665D01*
X118199000Y-92597335D01*
X118254147Y-92874574D01*
X118362320Y-93135727D01*
X118519363Y-93370759D01*
X118719241Y-93570637D01*
X118954273Y-93727680D01*
X119215426Y-93835853D01*
X119492665Y-93891000D01*
X119775335Y-93891000D01*
X120052574Y-93835853D01*
X120313727Y-93727680D01*
X120548759Y-93570637D01*
X120748637Y-93370759D01*
X120905680Y-93135727D01*
X121013853Y-92874574D01*
X121069000Y-92597335D01*
X121069000Y-92314665D01*
X121013853Y-92037426D01*
X120905680Y-91776273D01*
X120748637Y-91541241D01*
X120548759Y-91341363D01*
X120313727Y-91184320D01*
X120052574Y-91076147D01*
X119775335Y-91021000D01*
X119492665Y-91021000D01*
X119215426Y-91076147D01*
X118954273Y-91184320D01*
X118719241Y-91341363D01*
X118519363Y-91541241D01*
X118362320Y-91776273D01*
X118254147Y-92037426D01*
X118199000Y-92314665D01*
X110909000Y-92314665D01*
X110853853Y-92037426D01*
X110745680Y-91776273D01*
X110588637Y-91541241D01*
X110388759Y-91341363D01*
X110153727Y-91184320D01*
X109892574Y-91076147D01*
X109615335Y-91021000D01*
X109332665Y-91021000D01*
X109055426Y-91076147D01*
X108794273Y-91184320D01*
X108559241Y-91341363D01*
X108359363Y-91541241D01*
X108202320Y-91776273D01*
X108094147Y-92037426D01*
X108039000Y-92314665D01*
X107318072Y-92314665D01*
X107318072Y-90932000D01*
X107305812Y-90807518D01*
X107269502Y-90687820D01*
X107210537Y-90577506D01*
X107131185Y-90480815D01*
X107079425Y-90438337D01*
X107156005Y-90323727D01*
X107261314Y-90069490D01*
X107315000Y-89799592D01*
X107315000Y-89524408D01*
X107261314Y-89254510D01*
X107156005Y-89000273D01*
X107003120Y-88771465D01*
X106808535Y-88576880D01*
X106579727Y-88423995D01*
X106498917Y-88390522D01*
X105918000Y-87809605D01*
X105337083Y-88390522D01*
X105256273Y-88423995D01*
X105027465Y-88576880D01*
X104832880Y-88771465D01*
X104679995Y-89000273D01*
X104574686Y-89254510D01*
X104521000Y-89524408D01*
X104521000Y-89799592D01*
X104574686Y-90069490D01*
X104679995Y-90323727D01*
X104756575Y-90438337D01*
X104704815Y-90480815D01*
X104625463Y-90577506D01*
X104566498Y-90687820D01*
X104530188Y-90807518D01*
X104517928Y-90932000D01*
X98196000Y-90932000D01*
X98196000Y-89311999D01*
X98816928Y-89311999D01*
X98816928Y-90012001D01*
X98833992Y-90185255D01*
X98884528Y-90351851D01*
X98966595Y-90505387D01*
X99077038Y-90639962D01*
X99211613Y-90750405D01*
X99365149Y-90832472D01*
X99531745Y-90883008D01*
X99704999Y-90900072D01*
X100955001Y-90900072D01*
X101128255Y-90883008D01*
X101294851Y-90832472D01*
X101448387Y-90750405D01*
X101582962Y-90639962D01*
X101693405Y-90505387D01*
X101775472Y-90351851D01*
X101826008Y-90185255D01*
X101843072Y-90012001D01*
X101843072Y-89311999D01*
X101826008Y-89138745D01*
X101775472Y-88972149D01*
X101693405Y-88818613D01*
X101582962Y-88684038D01*
X101448387Y-88573595D01*
X101443594Y-88571033D01*
X101568078Y-88445474D01*
X101702421Y-88242533D01*
X101794591Y-88017282D01*
X101798462Y-87979609D01*
X101673731Y-87789000D01*
X100457000Y-87789000D01*
X100457000Y-87809000D01*
X100203000Y-87809000D01*
X100203000Y-87789000D01*
X98986269Y-87789000D01*
X98861538Y-87979609D01*
X98865409Y-88017282D01*
X98957579Y-88242533D01*
X99091922Y-88445474D01*
X99216406Y-88571033D01*
X99211613Y-88573595D01*
X99077038Y-88684038D01*
X98966595Y-88818613D01*
X98884528Y-88972149D01*
X98833992Y-89138745D01*
X98816928Y-89311999D01*
X98196000Y-89311999D01*
X98196000Y-87702017D01*
X104516090Y-87702017D01*
X104557078Y-87974133D01*
X104650364Y-88233023D01*
X104712344Y-88348980D01*
X104952435Y-88415960D01*
X105738395Y-87630000D01*
X106097605Y-87630000D01*
X106883565Y-88415960D01*
X107123656Y-88348980D01*
X107240756Y-88099952D01*
X107268826Y-87986816D01*
X111495000Y-87986816D01*
X111495000Y-88289184D01*
X111553989Y-88585743D01*
X111669701Y-88865095D01*
X111837688Y-89116505D01*
X112051495Y-89330312D01*
X112302905Y-89498299D01*
X112582257Y-89614011D01*
X112878816Y-89673000D01*
X113181184Y-89673000D01*
X113477743Y-89614011D01*
X113757095Y-89498299D01*
X114008505Y-89330312D01*
X114074944Y-89263873D01*
X114080498Y-89282180D01*
X114139463Y-89392494D01*
X114218815Y-89489185D01*
X114315506Y-89568537D01*
X114425820Y-89627502D01*
X114545518Y-89663812D01*
X114670000Y-89676072D01*
X115284250Y-89673000D01*
X115443000Y-89514250D01*
X115443000Y-88265000D01*
X115697000Y-88265000D01*
X115697000Y-89514250D01*
X115855750Y-89673000D01*
X116470000Y-89676072D01*
X116594482Y-89663812D01*
X116714180Y-89627502D01*
X116824494Y-89568537D01*
X116921185Y-89489185D01*
X117000537Y-89392494D01*
X117043563Y-89311999D01*
X121930928Y-89311999D01*
X121930928Y-90012001D01*
X121947992Y-90185255D01*
X121998528Y-90351851D01*
X122080595Y-90505387D01*
X122191038Y-90639962D01*
X122325613Y-90750405D01*
X122479149Y-90832472D01*
X122645745Y-90883008D01*
X122818999Y-90900072D01*
X124069001Y-90900072D01*
X124242255Y-90883008D01*
X124408851Y-90832472D01*
X124562387Y-90750405D01*
X124696962Y-90639962D01*
X124807405Y-90505387D01*
X124889472Y-90351851D01*
X124940008Y-90185255D01*
X124957072Y-90012001D01*
X124957072Y-89311999D01*
X124940008Y-89138745D01*
X124889472Y-88972149D01*
X124807405Y-88818613D01*
X124696962Y-88684038D01*
X124562387Y-88573595D01*
X124557594Y-88571033D01*
X124682078Y-88445474D01*
X124816421Y-88242533D01*
X124908591Y-88017282D01*
X124912462Y-87979609D01*
X124787731Y-87789000D01*
X123571000Y-87789000D01*
X123571000Y-87809000D01*
X123317000Y-87809000D01*
X123317000Y-87789000D01*
X122100269Y-87789000D01*
X121975538Y-87979609D01*
X121979409Y-88017282D01*
X122071579Y-88242533D01*
X122205922Y-88445474D01*
X122330406Y-88571033D01*
X122325613Y-88573595D01*
X122191038Y-88684038D01*
X122080595Y-88818613D01*
X121998528Y-88972149D01*
X121947992Y-89138745D01*
X121930928Y-89311999D01*
X117043563Y-89311999D01*
X117059502Y-89282180D01*
X117095812Y-89162482D01*
X117108072Y-89038000D01*
X117105000Y-88423750D01*
X116946250Y-88265000D01*
X115697000Y-88265000D01*
X115443000Y-88265000D01*
X115423000Y-88265000D01*
X115423000Y-88011000D01*
X115443000Y-88011000D01*
X115443000Y-86761750D01*
X115697000Y-86761750D01*
X115697000Y-88011000D01*
X116946250Y-88011000D01*
X117105000Y-87852250D01*
X117107539Y-87344391D01*
X121975538Y-87344391D01*
X122100269Y-87535000D01*
X123317000Y-87535000D01*
X123317000Y-86427000D01*
X123571000Y-86427000D01*
X123571000Y-87535000D01*
X124787731Y-87535000D01*
X124912462Y-87344391D01*
X124908591Y-87306718D01*
X124816421Y-87081467D01*
X124682078Y-86878526D01*
X124510725Y-86705693D01*
X124308946Y-86569610D01*
X124084496Y-86475507D01*
X123846000Y-86427000D01*
X123571000Y-86427000D01*
X123317000Y-86427000D01*
X123042000Y-86427000D01*
X122803504Y-86475507D01*
X122579054Y-86569610D01*
X122377275Y-86705693D01*
X122205922Y-86878526D01*
X122071579Y-87081467D01*
X121979409Y-87306718D01*
X121975538Y-87344391D01*
X117107539Y-87344391D01*
X117108072Y-87238000D01*
X117095812Y-87113518D01*
X117059502Y-86993820D01*
X117000537Y-86883506D01*
X116921185Y-86786815D01*
X116824494Y-86707463D01*
X116714180Y-86648498D01*
X116594482Y-86612188D01*
X116470000Y-86599928D01*
X115855750Y-86603000D01*
X115697000Y-86761750D01*
X115443000Y-86761750D01*
X115284250Y-86603000D01*
X114670000Y-86599928D01*
X114545518Y-86612188D01*
X114425820Y-86648498D01*
X114315506Y-86707463D01*
X114218815Y-86786815D01*
X114139463Y-86883506D01*
X114080498Y-86993820D01*
X114074944Y-87012127D01*
X114008505Y-86945688D01*
X113757095Y-86777701D01*
X113477743Y-86661989D01*
X113181184Y-86603000D01*
X112878816Y-86603000D01*
X112582257Y-86661989D01*
X112302905Y-86777701D01*
X112051495Y-86945688D01*
X111837688Y-87159495D01*
X111669701Y-87410905D01*
X111553989Y-87690257D01*
X111495000Y-87986816D01*
X107268826Y-87986816D01*
X107307023Y-87832865D01*
X107319910Y-87557983D01*
X107278922Y-87285867D01*
X107185636Y-87026977D01*
X107123656Y-86911020D01*
X106883565Y-86844040D01*
X106097605Y-87630000D01*
X105738395Y-87630000D01*
X104952435Y-86844040D01*
X104712344Y-86911020D01*
X104595244Y-87160048D01*
X104528977Y-87427135D01*
X104516090Y-87702017D01*
X98196000Y-87702017D01*
X98196000Y-87344391D01*
X98861538Y-87344391D01*
X98986269Y-87535000D01*
X100203000Y-87535000D01*
X100203000Y-86427000D01*
X100457000Y-86427000D01*
X100457000Y-87535000D01*
X101673731Y-87535000D01*
X101798462Y-87344391D01*
X101794591Y-87306718D01*
X101702421Y-87081467D01*
X101568078Y-86878526D01*
X101396725Y-86705693D01*
X101194946Y-86569610D01*
X100970496Y-86475507D01*
X100732000Y-86427000D01*
X100457000Y-86427000D01*
X100203000Y-86427000D01*
X99928000Y-86427000D01*
X99689504Y-86475507D01*
X99465054Y-86569610D01*
X99263275Y-86705693D01*
X99091922Y-86878526D01*
X98957579Y-87081467D01*
X98865409Y-87306718D01*
X98861538Y-87344391D01*
X98196000Y-87344391D01*
X98196000Y-85460408D01*
X104521000Y-85460408D01*
X104521000Y-85735592D01*
X104574686Y-86005490D01*
X104679995Y-86259727D01*
X104832880Y-86488535D01*
X105027465Y-86683120D01*
X105256273Y-86836005D01*
X105337083Y-86869478D01*
X105918000Y-87450395D01*
X106498917Y-86869478D01*
X106579727Y-86836005D01*
X106808535Y-86683120D01*
X107003120Y-86488535D01*
X107156005Y-86259727D01*
X107261314Y-86005490D01*
X107315000Y-85735592D01*
X107315000Y-85460408D01*
X107261314Y-85190510D01*
X107156005Y-84936273D01*
X107003120Y-84707465D01*
X106808535Y-84512880D01*
X106579727Y-84359995D01*
X106325490Y-84254686D01*
X106055592Y-84201000D01*
X105780408Y-84201000D01*
X105510510Y-84254686D01*
X105256273Y-84359995D01*
X105027465Y-84512880D01*
X104832880Y-84707465D01*
X104679995Y-84936273D01*
X104574686Y-85190510D01*
X104521000Y-85460408D01*
X98196000Y-85460408D01*
X98196000Y-83649117D01*
X107739000Y-83649117D01*
X107739000Y-83990883D01*
X107805675Y-84326081D01*
X107936463Y-84641831D01*
X108126337Y-84925998D01*
X108368002Y-85167663D01*
X108652169Y-85357537D01*
X108967919Y-85488325D01*
X109303117Y-85555000D01*
X109644883Y-85555000D01*
X109980081Y-85488325D01*
X110295831Y-85357537D01*
X110579998Y-85167663D01*
X110821663Y-84925998D01*
X111011537Y-84641831D01*
X111142325Y-84326081D01*
X111209000Y-83990883D01*
X111209000Y-83649117D01*
X111142325Y-83313919D01*
X111011537Y-82998169D01*
X110825671Y-82720000D01*
X117895928Y-82720000D01*
X117895928Y-84920000D01*
X117908188Y-85044482D01*
X117944498Y-85164180D01*
X118003463Y-85274494D01*
X118082815Y-85371185D01*
X118179506Y-85450537D01*
X118289820Y-85509502D01*
X118409518Y-85545812D01*
X118534000Y-85558072D01*
X120734000Y-85558072D01*
X120858482Y-85545812D01*
X120978180Y-85509502D01*
X121088494Y-85450537D01*
X121185185Y-85371185D01*
X121264537Y-85274494D01*
X121323502Y-85164180D01*
X121359812Y-85044482D01*
X121372072Y-84920000D01*
X121372072Y-82720000D01*
X121359812Y-82595518D01*
X121323502Y-82475820D01*
X121264537Y-82365506D01*
X121185185Y-82268815D01*
X121088494Y-82189463D01*
X120978180Y-82130498D01*
X120858482Y-82094188D01*
X120734000Y-82081928D01*
X118534000Y-82081928D01*
X118409518Y-82094188D01*
X118289820Y-82130498D01*
X118179506Y-82189463D01*
X118082815Y-82268815D01*
X118003463Y-82365506D01*
X117944498Y-82475820D01*
X117908188Y-82595518D01*
X117895928Y-82720000D01*
X110825671Y-82720000D01*
X110821663Y-82714002D01*
X110579998Y-82472337D01*
X110295831Y-82282463D01*
X109980081Y-82151675D01*
X109644883Y-82085000D01*
X109303117Y-82085000D01*
X108967919Y-82151675D01*
X108652169Y-82282463D01*
X108368002Y-82472337D01*
X108126337Y-82714002D01*
X107936463Y-82998169D01*
X107805675Y-83313919D01*
X107739000Y-83649117D01*
X98196000Y-83649117D01*
X98196000Y-80670000D01*
X126594000Y-80670000D01*
X126594001Y-95606000D01*
M02*
