G04 #@! TF.GenerationSoftware,KiCad,Pcbnew,(5.1.5)-3*
G04 #@! TF.CreationDate,2020-08-31T21:18:36+01:00*
G04 #@! TF.ProjectId,groveToPi,67726f76-6554-46f5-9069-2e6b69636164,1.0.1*
G04 #@! TF.SameCoordinates,Original*
G04 #@! TF.FileFunction,Legend,Top*
G04 #@! TF.FilePolarity,Positive*
%FSLAX46Y46*%
G04 Gerber Fmt 4.6, Leading zero omitted, Abs format (unit mm)*
G04 Created by KiCad (PCBNEW (5.1.5)-3) date 2020-08-31 21:18:36*
%MOMM*%
%LPD*%
G04 APERTURE LIST*
%ADD10C,0.150000*%
%ADD11C,0.127000*%
%ADD12C,0.200000*%
%ADD13C,0.120000*%
%ADD14C,0.015000*%
G04 APERTURE END LIST*
D10*
X144750000Y-112523809D02*
X144702380Y-112619047D01*
X144702380Y-112761904D01*
X144750000Y-112904761D01*
X144845238Y-113000000D01*
X144940476Y-113047619D01*
X145130952Y-113095238D01*
X145273809Y-113095238D01*
X145464285Y-113047619D01*
X145559523Y-113000000D01*
X145654761Y-112904761D01*
X145702380Y-112761904D01*
X145702380Y-112666666D01*
X145654761Y-112523809D01*
X145607142Y-112476190D01*
X145273809Y-112476190D01*
X145273809Y-112666666D01*
X145702380Y-112047619D02*
X144702380Y-112047619D01*
X145702380Y-111476190D01*
X144702380Y-111476190D01*
X145702380Y-111000000D02*
X144702380Y-111000000D01*
X144702380Y-110761904D01*
X144750000Y-110619047D01*
X144845238Y-110523809D01*
X144940476Y-110476190D01*
X145130952Y-110428571D01*
X145273809Y-110428571D01*
X145464285Y-110476190D01*
X145559523Y-110523809D01*
X145654761Y-110619047D01*
X145702380Y-110761904D01*
X145702380Y-111000000D01*
X145702380Y-109238095D02*
X144702380Y-109238095D01*
X145702380Y-108666666D01*
X144702380Y-108666666D01*
X145607142Y-107619047D02*
X145654761Y-107666666D01*
X145702380Y-107809523D01*
X145702380Y-107904761D01*
X145654761Y-108047619D01*
X145559523Y-108142857D01*
X145464285Y-108190476D01*
X145273809Y-108238095D01*
X145130952Y-108238095D01*
X144940476Y-108190476D01*
X144845238Y-108142857D01*
X144750000Y-108047619D01*
X144702380Y-107904761D01*
X144702380Y-107809523D01*
X144750000Y-107666666D01*
X144797619Y-107619047D01*
X145654761Y-106476190D02*
X145702380Y-106333333D01*
X145702380Y-106095238D01*
X145654761Y-106000000D01*
X145607142Y-105952380D01*
X145511904Y-105904761D01*
X145416666Y-105904761D01*
X145321428Y-105952380D01*
X145273809Y-106000000D01*
X145226190Y-106095238D01*
X145178571Y-106285714D01*
X145130952Y-106380952D01*
X145083333Y-106428571D01*
X144988095Y-106476190D01*
X144892857Y-106476190D01*
X144797619Y-106428571D01*
X144750000Y-106380952D01*
X144702380Y-106285714D01*
X144702380Y-106047619D01*
X144750000Y-105904761D01*
X145607142Y-104904761D02*
X145654761Y-104952380D01*
X145702380Y-105095238D01*
X145702380Y-105190476D01*
X145654761Y-105333333D01*
X145559523Y-105428571D01*
X145464285Y-105476190D01*
X145273809Y-105523809D01*
X145130952Y-105523809D01*
X144940476Y-105476190D01*
X144845238Y-105428571D01*
X144750000Y-105333333D01*
X144702380Y-105190476D01*
X144702380Y-105095238D01*
X144750000Y-104952380D01*
X144797619Y-104904761D01*
X145702380Y-104000000D02*
X145702380Y-104476190D01*
X144702380Y-104476190D01*
X145654761Y-102952380D02*
X145702380Y-102809523D01*
X145702380Y-102571428D01*
X145654761Y-102476190D01*
X145607142Y-102428571D01*
X145511904Y-102380952D01*
X145416666Y-102380952D01*
X145321428Y-102428571D01*
X145273809Y-102476190D01*
X145226190Y-102571428D01*
X145178571Y-102761904D01*
X145130952Y-102857142D01*
X145083333Y-102904761D01*
X144988095Y-102952380D01*
X144892857Y-102952380D01*
X144797619Y-102904761D01*
X144750000Y-102857142D01*
X144702380Y-102761904D01*
X144702380Y-102523809D01*
X144750000Y-102380952D01*
X145702380Y-101952380D02*
X144702380Y-101952380D01*
X144702380Y-101714285D01*
X144750000Y-101571428D01*
X144845238Y-101476190D01*
X144940476Y-101428571D01*
X145130952Y-101380952D01*
X145273809Y-101380952D01*
X145464285Y-101428571D01*
X145559523Y-101476190D01*
X145654761Y-101571428D01*
X145702380Y-101714285D01*
X145702380Y-101952380D01*
X145416666Y-101000000D02*
X145416666Y-100523809D01*
X145702380Y-101095238D02*
X144702380Y-100761904D01*
X145702380Y-100428571D01*
X144702380Y-99476190D02*
X145702380Y-99142857D01*
X144702380Y-98809523D01*
X145607142Y-97904761D02*
X145654761Y-97952380D01*
X145702380Y-98095238D01*
X145702380Y-98190476D01*
X145654761Y-98333333D01*
X145559523Y-98428571D01*
X145464285Y-98476190D01*
X145273809Y-98523809D01*
X145130952Y-98523809D01*
X144940476Y-98476190D01*
X144845238Y-98428571D01*
X144750000Y-98333333D01*
X144702380Y-98190476D01*
X144702380Y-98095238D01*
X144750000Y-97952380D01*
X144797619Y-97904761D01*
X145607142Y-96904761D02*
X145654761Y-96952380D01*
X145702380Y-97095238D01*
X145702380Y-97190476D01*
X145654761Y-97333333D01*
X145559523Y-97428571D01*
X145464285Y-97476190D01*
X145273809Y-97523809D01*
X145130952Y-97523809D01*
X144940476Y-97476190D01*
X144845238Y-97428571D01*
X144750000Y-97333333D01*
X144702380Y-97190476D01*
X144702380Y-97095238D01*
X144750000Y-96952380D01*
X144797619Y-96904761D01*
X98000000Y-112523809D02*
X97952380Y-112619047D01*
X97952380Y-112761904D01*
X98000000Y-112904761D01*
X98095238Y-113000000D01*
X98190476Y-113047619D01*
X98380952Y-113095238D01*
X98523809Y-113095238D01*
X98714285Y-113047619D01*
X98809523Y-113000000D01*
X98904761Y-112904761D01*
X98952380Y-112761904D01*
X98952380Y-112666666D01*
X98904761Y-112523809D01*
X98857142Y-112476190D01*
X98523809Y-112476190D01*
X98523809Y-112666666D01*
X98952380Y-112047619D02*
X97952380Y-112047619D01*
X98952380Y-111476190D01*
X97952380Y-111476190D01*
X98952380Y-111000000D02*
X97952380Y-111000000D01*
X97952380Y-110761904D01*
X98000000Y-110619047D01*
X98095238Y-110523809D01*
X98190476Y-110476190D01*
X98380952Y-110428571D01*
X98523809Y-110428571D01*
X98714285Y-110476190D01*
X98809523Y-110523809D01*
X98904761Y-110619047D01*
X98952380Y-110761904D01*
X98952380Y-111000000D01*
X98952380Y-109238095D02*
X97952380Y-109238095D01*
X98952380Y-108666666D01*
X97952380Y-108666666D01*
X98857142Y-107619047D02*
X98904761Y-107666666D01*
X98952380Y-107809523D01*
X98952380Y-107904761D01*
X98904761Y-108047619D01*
X98809523Y-108142857D01*
X98714285Y-108190476D01*
X98523809Y-108238095D01*
X98380952Y-108238095D01*
X98190476Y-108190476D01*
X98095238Y-108142857D01*
X98000000Y-108047619D01*
X97952380Y-107904761D01*
X97952380Y-107809523D01*
X98000000Y-107666666D01*
X98047619Y-107619047D01*
X98904761Y-106476190D02*
X98952380Y-106333333D01*
X98952380Y-106095238D01*
X98904761Y-106000000D01*
X98857142Y-105952380D01*
X98761904Y-105904761D01*
X98666666Y-105904761D01*
X98571428Y-105952380D01*
X98523809Y-106000000D01*
X98476190Y-106095238D01*
X98428571Y-106285714D01*
X98380952Y-106380952D01*
X98333333Y-106428571D01*
X98238095Y-106476190D01*
X98142857Y-106476190D01*
X98047619Y-106428571D01*
X98000000Y-106380952D01*
X97952380Y-106285714D01*
X97952380Y-106047619D01*
X98000000Y-105904761D01*
X98857142Y-104904761D02*
X98904761Y-104952380D01*
X98952380Y-105095238D01*
X98952380Y-105190476D01*
X98904761Y-105333333D01*
X98809523Y-105428571D01*
X98714285Y-105476190D01*
X98523809Y-105523809D01*
X98380952Y-105523809D01*
X98190476Y-105476190D01*
X98095238Y-105428571D01*
X98000000Y-105333333D01*
X97952380Y-105190476D01*
X97952380Y-105095238D01*
X98000000Y-104952380D01*
X98047619Y-104904761D01*
X98952380Y-104000000D02*
X98952380Y-104476190D01*
X97952380Y-104476190D01*
X98904761Y-102952380D02*
X98952380Y-102809523D01*
X98952380Y-102571428D01*
X98904761Y-102476190D01*
X98857142Y-102428571D01*
X98761904Y-102380952D01*
X98666666Y-102380952D01*
X98571428Y-102428571D01*
X98523809Y-102476190D01*
X98476190Y-102571428D01*
X98428571Y-102761904D01*
X98380952Y-102857142D01*
X98333333Y-102904761D01*
X98238095Y-102952380D01*
X98142857Y-102952380D01*
X98047619Y-102904761D01*
X98000000Y-102857142D01*
X97952380Y-102761904D01*
X97952380Y-102523809D01*
X98000000Y-102380952D01*
X98952380Y-101952380D02*
X97952380Y-101952380D01*
X97952380Y-101714285D01*
X98000000Y-101571428D01*
X98095238Y-101476190D01*
X98190476Y-101428571D01*
X98380952Y-101380952D01*
X98523809Y-101380952D01*
X98714285Y-101428571D01*
X98809523Y-101476190D01*
X98904761Y-101571428D01*
X98952380Y-101714285D01*
X98952380Y-101952380D01*
X98666666Y-101000000D02*
X98666666Y-100523809D01*
X98952380Y-101095238D02*
X97952380Y-100761904D01*
X98952380Y-100428571D01*
X97952380Y-99476190D02*
X98952380Y-99142857D01*
X97952380Y-98809523D01*
X98857142Y-97904761D02*
X98904761Y-97952380D01*
X98952380Y-98095238D01*
X98952380Y-98190476D01*
X98904761Y-98333333D01*
X98809523Y-98428571D01*
X98714285Y-98476190D01*
X98523809Y-98523809D01*
X98380952Y-98523809D01*
X98190476Y-98476190D01*
X98095238Y-98428571D01*
X98000000Y-98333333D01*
X97952380Y-98190476D01*
X97952380Y-98095238D01*
X98000000Y-97952380D01*
X98047619Y-97904761D01*
X98857142Y-96904761D02*
X98904761Y-96952380D01*
X98952380Y-97095238D01*
X98952380Y-97190476D01*
X98904761Y-97333333D01*
X98809523Y-97428571D01*
X98714285Y-97476190D01*
X98523809Y-97523809D01*
X98380952Y-97523809D01*
X98190476Y-97476190D01*
X98095238Y-97428571D01*
X98000000Y-97333333D01*
X97952380Y-97190476D01*
X97952380Y-97095238D01*
X98000000Y-96952380D01*
X98047619Y-96904761D01*
X147000000Y-111627380D02*
X147333333Y-112627380D01*
X147666666Y-111627380D01*
X148571428Y-112532142D02*
X148523809Y-112579761D01*
X148380952Y-112627380D01*
X148285714Y-112627380D01*
X148142857Y-112579761D01*
X148047619Y-112484523D01*
X148000000Y-112389285D01*
X147952380Y-112198809D01*
X147952380Y-112055952D01*
X148000000Y-111865476D01*
X148047619Y-111770238D01*
X148142857Y-111675000D01*
X148285714Y-111627380D01*
X148380952Y-111627380D01*
X148523809Y-111675000D01*
X148571428Y-111722619D01*
X149571428Y-112532142D02*
X149523809Y-112579761D01*
X149380952Y-112627380D01*
X149285714Y-112627380D01*
X149142857Y-112579761D01*
X149047619Y-112484523D01*
X149000000Y-112389285D01*
X148952380Y-112198809D01*
X148952380Y-112055952D01*
X149000000Y-111865476D01*
X149047619Y-111770238D01*
X149142857Y-111675000D01*
X149285714Y-111627380D01*
X149380952Y-111627380D01*
X149523809Y-111675000D01*
X149571428Y-111722619D01*
X150285714Y-113008333D02*
X150238095Y-112960714D01*
X150142857Y-112817857D01*
X150095238Y-112722619D01*
X150047619Y-112579761D01*
X150000000Y-112341666D01*
X150000000Y-112151190D01*
X150047619Y-111913095D01*
X150095238Y-111770238D01*
X150142857Y-111675000D01*
X150238095Y-111532142D01*
X150285714Y-111484523D01*
X151238095Y-112627380D02*
X150904761Y-112151190D01*
X150666666Y-112627380D02*
X150666666Y-111627380D01*
X151047619Y-111627380D01*
X151142857Y-111675000D01*
X151190476Y-111722619D01*
X151238095Y-111817857D01*
X151238095Y-111960714D01*
X151190476Y-112055952D01*
X151142857Y-112103571D01*
X151047619Y-112151190D01*
X150666666Y-112151190D01*
X151571428Y-113008333D02*
X151619047Y-112960714D01*
X151714285Y-112817857D01*
X151761904Y-112722619D01*
X151809523Y-112579761D01*
X151857142Y-112341666D01*
X151857142Y-112151190D01*
X151809523Y-111913095D01*
X151761904Y-111770238D01*
X151714285Y-111675000D01*
X151619047Y-111532142D01*
X151571428Y-111484523D01*
X147571428Y-113325000D02*
X147476190Y-113277380D01*
X147333333Y-113277380D01*
X147190476Y-113325000D01*
X147095238Y-113420238D01*
X147047619Y-113515476D01*
X147000000Y-113705952D01*
X147000000Y-113848809D01*
X147047619Y-114039285D01*
X147095238Y-114134523D01*
X147190476Y-114229761D01*
X147333333Y-114277380D01*
X147428571Y-114277380D01*
X147571428Y-114229761D01*
X147619047Y-114182142D01*
X147619047Y-113848809D01*
X147428571Y-113848809D01*
X148047619Y-114277380D02*
X148047619Y-113277380D01*
X148619047Y-114277380D01*
X148619047Y-113277380D01*
X149095238Y-114277380D02*
X149095238Y-113277380D01*
X149333333Y-113277380D01*
X149476190Y-113325000D01*
X149571428Y-113420238D01*
X149619047Y-113515476D01*
X149666666Y-113705952D01*
X149666666Y-113848809D01*
X149619047Y-114039285D01*
X149571428Y-114134523D01*
X149476190Y-114229761D01*
X149333333Y-114277380D01*
X149095238Y-114277380D01*
X150380952Y-114658333D02*
X150333333Y-114610714D01*
X150238095Y-114467857D01*
X150190476Y-114372619D01*
X150142857Y-114229761D01*
X150095238Y-113991666D01*
X150095238Y-113801190D01*
X150142857Y-113563095D01*
X150190476Y-113420238D01*
X150238095Y-113325000D01*
X150333333Y-113182142D01*
X150380952Y-113134523D01*
X151095238Y-113753571D02*
X151238095Y-113801190D01*
X151285714Y-113848809D01*
X151333333Y-113944047D01*
X151333333Y-114086904D01*
X151285714Y-114182142D01*
X151238095Y-114229761D01*
X151142857Y-114277380D01*
X150761904Y-114277380D01*
X150761904Y-113277380D01*
X151095238Y-113277380D01*
X151190476Y-113325000D01*
X151238095Y-113372619D01*
X151285714Y-113467857D01*
X151285714Y-113563095D01*
X151238095Y-113658333D01*
X151190476Y-113705952D01*
X151095238Y-113753571D01*
X150761904Y-113753571D01*
X151666666Y-114658333D02*
X151714285Y-114610714D01*
X151809523Y-114467857D01*
X151857142Y-114372619D01*
X151904761Y-114229761D01*
X151952380Y-113991666D01*
X151952380Y-113801190D01*
X151904761Y-113563095D01*
X151857142Y-113420238D01*
X151809523Y-113325000D01*
X151714285Y-113182142D01*
X151666666Y-113134523D01*
X146964285Y-96579761D02*
X147107142Y-96627380D01*
X147345238Y-96627380D01*
X147440476Y-96579761D01*
X147488095Y-96532142D01*
X147535714Y-96436904D01*
X147535714Y-96341666D01*
X147488095Y-96246428D01*
X147440476Y-96198809D01*
X147345238Y-96151190D01*
X147154761Y-96103571D01*
X147059523Y-96055952D01*
X147011904Y-96008333D01*
X146964285Y-95913095D01*
X146964285Y-95817857D01*
X147011904Y-95722619D01*
X147059523Y-95675000D01*
X147154761Y-95627380D01*
X147392857Y-95627380D01*
X147535714Y-95675000D01*
X148535714Y-96532142D02*
X148488095Y-96579761D01*
X148345238Y-96627380D01*
X148250000Y-96627380D01*
X148107142Y-96579761D01*
X148011904Y-96484523D01*
X147964285Y-96389285D01*
X147916666Y-96198809D01*
X147916666Y-96055952D01*
X147964285Y-95865476D01*
X148011904Y-95770238D01*
X148107142Y-95675000D01*
X148250000Y-95627380D01*
X148345238Y-95627380D01*
X148488095Y-95675000D01*
X148535714Y-95722619D01*
X149440476Y-96627380D02*
X148964285Y-96627380D01*
X148964285Y-95627380D01*
X150059523Y-97008333D02*
X150011904Y-96960714D01*
X149916666Y-96817857D01*
X149869047Y-96722619D01*
X149821428Y-96579761D01*
X149773809Y-96341666D01*
X149773809Y-96151190D01*
X149821428Y-95913095D01*
X149869047Y-95770238D01*
X149916666Y-95675000D01*
X150011904Y-95532142D01*
X150059523Y-95484523D01*
X150630952Y-96151190D02*
X150630952Y-96627380D01*
X150297619Y-95627380D02*
X150630952Y-96151190D01*
X150964285Y-95627380D01*
X151202380Y-97008333D02*
X151250000Y-96960714D01*
X151345238Y-96817857D01*
X151392857Y-96722619D01*
X151440476Y-96579761D01*
X151488095Y-96341666D01*
X151488095Y-96151190D01*
X151440476Y-95913095D01*
X151392857Y-95770238D01*
X151345238Y-95675000D01*
X151250000Y-95532142D01*
X151202380Y-95484523D01*
X146797619Y-98229761D02*
X146940476Y-98277380D01*
X147178571Y-98277380D01*
X147273809Y-98229761D01*
X147321428Y-98182142D01*
X147369047Y-98086904D01*
X147369047Y-97991666D01*
X147321428Y-97896428D01*
X147273809Y-97848809D01*
X147178571Y-97801190D01*
X146988095Y-97753571D01*
X146892857Y-97705952D01*
X146845238Y-97658333D01*
X146797619Y-97563095D01*
X146797619Y-97467857D01*
X146845238Y-97372619D01*
X146892857Y-97325000D01*
X146988095Y-97277380D01*
X147226190Y-97277380D01*
X147369047Y-97325000D01*
X147797619Y-98277380D02*
X147797619Y-97277380D01*
X148035714Y-97277380D01*
X148178571Y-97325000D01*
X148273809Y-97420238D01*
X148321428Y-97515476D01*
X148369047Y-97705952D01*
X148369047Y-97848809D01*
X148321428Y-98039285D01*
X148273809Y-98134523D01*
X148178571Y-98229761D01*
X148035714Y-98277380D01*
X147797619Y-98277380D01*
X148750000Y-97991666D02*
X149226190Y-97991666D01*
X148654761Y-98277380D02*
X148988095Y-97277380D01*
X149321428Y-98277380D01*
X149940476Y-98658333D02*
X149892857Y-98610714D01*
X149797619Y-98467857D01*
X149750000Y-98372619D01*
X149702380Y-98229761D01*
X149654761Y-97991666D01*
X149654761Y-97801190D01*
X149702380Y-97563095D01*
X149750000Y-97420238D01*
X149797619Y-97325000D01*
X149892857Y-97182142D01*
X149940476Y-97134523D01*
X150226190Y-97277380D02*
X150464285Y-98277380D01*
X150654761Y-97563095D01*
X150845238Y-98277380D01*
X151083333Y-97277380D01*
X151369047Y-98658333D02*
X151416666Y-98610714D01*
X151511904Y-98467857D01*
X151559523Y-98372619D01*
X151607142Y-98229761D01*
X151654761Y-97991666D01*
X151654761Y-97801190D01*
X151607142Y-97563095D01*
X151559523Y-97420238D01*
X151511904Y-97325000D01*
X151416666Y-97182142D01*
X151369047Y-97134523D01*
X92250000Y-111627380D02*
X92583333Y-112627380D01*
X92916666Y-111627380D01*
X93821428Y-112532142D02*
X93773809Y-112579761D01*
X93630952Y-112627380D01*
X93535714Y-112627380D01*
X93392857Y-112579761D01*
X93297619Y-112484523D01*
X93250000Y-112389285D01*
X93202380Y-112198809D01*
X93202380Y-112055952D01*
X93250000Y-111865476D01*
X93297619Y-111770238D01*
X93392857Y-111675000D01*
X93535714Y-111627380D01*
X93630952Y-111627380D01*
X93773809Y-111675000D01*
X93821428Y-111722619D01*
X94821428Y-112532142D02*
X94773809Y-112579761D01*
X94630952Y-112627380D01*
X94535714Y-112627380D01*
X94392857Y-112579761D01*
X94297619Y-112484523D01*
X94250000Y-112389285D01*
X94202380Y-112198809D01*
X94202380Y-112055952D01*
X94250000Y-111865476D01*
X94297619Y-111770238D01*
X94392857Y-111675000D01*
X94535714Y-111627380D01*
X94630952Y-111627380D01*
X94773809Y-111675000D01*
X94821428Y-111722619D01*
X95535714Y-113008333D02*
X95488095Y-112960714D01*
X95392857Y-112817857D01*
X95345238Y-112722619D01*
X95297619Y-112579761D01*
X95250000Y-112341666D01*
X95250000Y-112151190D01*
X95297619Y-111913095D01*
X95345238Y-111770238D01*
X95392857Y-111675000D01*
X95488095Y-111532142D01*
X95535714Y-111484523D01*
X96488095Y-112627380D02*
X96154761Y-112151190D01*
X95916666Y-112627380D02*
X95916666Y-111627380D01*
X96297619Y-111627380D01*
X96392857Y-111675000D01*
X96440476Y-111722619D01*
X96488095Y-111817857D01*
X96488095Y-111960714D01*
X96440476Y-112055952D01*
X96392857Y-112103571D01*
X96297619Y-112151190D01*
X95916666Y-112151190D01*
X96821428Y-113008333D02*
X96869047Y-112960714D01*
X96964285Y-112817857D01*
X97011904Y-112722619D01*
X97059523Y-112579761D01*
X97107142Y-112341666D01*
X97107142Y-112151190D01*
X97059523Y-111913095D01*
X97011904Y-111770238D01*
X96964285Y-111675000D01*
X96869047Y-111532142D01*
X96821428Y-111484523D01*
X92821428Y-113325000D02*
X92726190Y-113277380D01*
X92583333Y-113277380D01*
X92440476Y-113325000D01*
X92345238Y-113420238D01*
X92297619Y-113515476D01*
X92250000Y-113705952D01*
X92250000Y-113848809D01*
X92297619Y-114039285D01*
X92345238Y-114134523D01*
X92440476Y-114229761D01*
X92583333Y-114277380D01*
X92678571Y-114277380D01*
X92821428Y-114229761D01*
X92869047Y-114182142D01*
X92869047Y-113848809D01*
X92678571Y-113848809D01*
X93297619Y-114277380D02*
X93297619Y-113277380D01*
X93869047Y-114277380D01*
X93869047Y-113277380D01*
X94345238Y-114277380D02*
X94345238Y-113277380D01*
X94583333Y-113277380D01*
X94726190Y-113325000D01*
X94821428Y-113420238D01*
X94869047Y-113515476D01*
X94916666Y-113705952D01*
X94916666Y-113848809D01*
X94869047Y-114039285D01*
X94821428Y-114134523D01*
X94726190Y-114229761D01*
X94583333Y-114277380D01*
X94345238Y-114277380D01*
X95630952Y-114658333D02*
X95583333Y-114610714D01*
X95488095Y-114467857D01*
X95440476Y-114372619D01*
X95392857Y-114229761D01*
X95345238Y-113991666D01*
X95345238Y-113801190D01*
X95392857Y-113563095D01*
X95440476Y-113420238D01*
X95488095Y-113325000D01*
X95583333Y-113182142D01*
X95630952Y-113134523D01*
X96345238Y-113753571D02*
X96488095Y-113801190D01*
X96535714Y-113848809D01*
X96583333Y-113944047D01*
X96583333Y-114086904D01*
X96535714Y-114182142D01*
X96488095Y-114229761D01*
X96392857Y-114277380D01*
X96011904Y-114277380D01*
X96011904Y-113277380D01*
X96345238Y-113277380D01*
X96440476Y-113325000D01*
X96488095Y-113372619D01*
X96535714Y-113467857D01*
X96535714Y-113563095D01*
X96488095Y-113658333D01*
X96440476Y-113705952D01*
X96345238Y-113753571D01*
X96011904Y-113753571D01*
X96916666Y-114658333D02*
X96964285Y-114610714D01*
X97059523Y-114467857D01*
X97107142Y-114372619D01*
X97154761Y-114229761D01*
X97202380Y-113991666D01*
X97202380Y-113801190D01*
X97154761Y-113563095D01*
X97107142Y-113420238D01*
X97059523Y-113325000D01*
X96964285Y-113182142D01*
X96916666Y-113134523D01*
X92464285Y-96829761D02*
X92607142Y-96877380D01*
X92845238Y-96877380D01*
X92940476Y-96829761D01*
X92988095Y-96782142D01*
X93035714Y-96686904D01*
X93035714Y-96591666D01*
X92988095Y-96496428D01*
X92940476Y-96448809D01*
X92845238Y-96401190D01*
X92654761Y-96353571D01*
X92559523Y-96305952D01*
X92511904Y-96258333D01*
X92464285Y-96163095D01*
X92464285Y-96067857D01*
X92511904Y-95972619D01*
X92559523Y-95925000D01*
X92654761Y-95877380D01*
X92892857Y-95877380D01*
X93035714Y-95925000D01*
X94035714Y-96782142D02*
X93988095Y-96829761D01*
X93845238Y-96877380D01*
X93750000Y-96877380D01*
X93607142Y-96829761D01*
X93511904Y-96734523D01*
X93464285Y-96639285D01*
X93416666Y-96448809D01*
X93416666Y-96305952D01*
X93464285Y-96115476D01*
X93511904Y-96020238D01*
X93607142Y-95925000D01*
X93750000Y-95877380D01*
X93845238Y-95877380D01*
X93988095Y-95925000D01*
X94035714Y-95972619D01*
X94940476Y-96877380D02*
X94464285Y-96877380D01*
X94464285Y-95877380D01*
X95559523Y-97258333D02*
X95511904Y-97210714D01*
X95416666Y-97067857D01*
X95369047Y-96972619D01*
X95321428Y-96829761D01*
X95273809Y-96591666D01*
X95273809Y-96401190D01*
X95321428Y-96163095D01*
X95369047Y-96020238D01*
X95416666Y-95925000D01*
X95511904Y-95782142D01*
X95559523Y-95734523D01*
X96130952Y-96401190D02*
X96130952Y-96877380D01*
X95797619Y-95877380D02*
X96130952Y-96401190D01*
X96464285Y-95877380D01*
X96702380Y-97258333D02*
X96750000Y-97210714D01*
X96845238Y-97067857D01*
X96892857Y-96972619D01*
X96940476Y-96829761D01*
X96988095Y-96591666D01*
X96988095Y-96401190D01*
X96940476Y-96163095D01*
X96892857Y-96020238D01*
X96845238Y-95925000D01*
X96750000Y-95782142D01*
X96702380Y-95734523D01*
X92297619Y-98479761D02*
X92440476Y-98527380D01*
X92678571Y-98527380D01*
X92773809Y-98479761D01*
X92821428Y-98432142D01*
X92869047Y-98336904D01*
X92869047Y-98241666D01*
X92821428Y-98146428D01*
X92773809Y-98098809D01*
X92678571Y-98051190D01*
X92488095Y-98003571D01*
X92392857Y-97955952D01*
X92345238Y-97908333D01*
X92297619Y-97813095D01*
X92297619Y-97717857D01*
X92345238Y-97622619D01*
X92392857Y-97575000D01*
X92488095Y-97527380D01*
X92726190Y-97527380D01*
X92869047Y-97575000D01*
X93297619Y-98527380D02*
X93297619Y-97527380D01*
X93535714Y-97527380D01*
X93678571Y-97575000D01*
X93773809Y-97670238D01*
X93821428Y-97765476D01*
X93869047Y-97955952D01*
X93869047Y-98098809D01*
X93821428Y-98289285D01*
X93773809Y-98384523D01*
X93678571Y-98479761D01*
X93535714Y-98527380D01*
X93297619Y-98527380D01*
X94250000Y-98241666D02*
X94726190Y-98241666D01*
X94154761Y-98527380D02*
X94488095Y-97527380D01*
X94821428Y-98527380D01*
X95440476Y-98908333D02*
X95392857Y-98860714D01*
X95297619Y-98717857D01*
X95250000Y-98622619D01*
X95202380Y-98479761D01*
X95154761Y-98241666D01*
X95154761Y-98051190D01*
X95202380Y-97813095D01*
X95250000Y-97670238D01*
X95297619Y-97575000D01*
X95392857Y-97432142D01*
X95440476Y-97384523D01*
X95726190Y-97527380D02*
X95964285Y-98527380D01*
X96154761Y-97813095D01*
X96345238Y-98527380D01*
X96583333Y-97527380D01*
X96869047Y-98908333D02*
X96916666Y-98860714D01*
X97011904Y-98717857D01*
X97059523Y-98622619D01*
X97107142Y-98479761D01*
X97154761Y-98241666D01*
X97154761Y-98051190D01*
X97107142Y-97813095D01*
X97059523Y-97670238D01*
X97011904Y-97575000D01*
X96916666Y-97432142D01*
X96869047Y-97384523D01*
X100714285Y-114166666D02*
X101190476Y-114166666D01*
X100619047Y-114452380D02*
X100952380Y-113452380D01*
X101285714Y-114452380D01*
X102857142Y-114452380D02*
X102380952Y-114452380D01*
X102380952Y-113452380D01*
X103333333Y-114452380D02*
X103238095Y-114404761D01*
X103190476Y-114357142D01*
X103142857Y-114261904D01*
X103142857Y-113976190D01*
X103190476Y-113880952D01*
X103238095Y-113833333D01*
X103333333Y-113785714D01*
X103476190Y-113785714D01*
X103571428Y-113833333D01*
X103619047Y-113880952D01*
X103666666Y-113976190D01*
X103666666Y-114261904D01*
X103619047Y-114357142D01*
X103571428Y-114404761D01*
X103476190Y-114452380D01*
X103333333Y-114452380D01*
X104523809Y-114404761D02*
X104428571Y-114452380D01*
X104238095Y-114452380D01*
X104142857Y-114404761D01*
X104095238Y-114357142D01*
X104047619Y-114261904D01*
X104047619Y-113976190D01*
X104095238Y-113880952D01*
X104142857Y-113833333D01*
X104238095Y-113785714D01*
X104428571Y-113785714D01*
X104523809Y-113833333D01*
X104952380Y-114452380D02*
X104952380Y-113452380D01*
X105047619Y-114071428D02*
X105333333Y-114452380D01*
X105333333Y-113785714D02*
X104952380Y-114166666D01*
X106190476Y-114452380D02*
X106190476Y-113452380D01*
X106190476Y-114404761D02*
X106095238Y-114452380D01*
X105904761Y-114452380D01*
X105809523Y-114404761D01*
X105761904Y-114357142D01*
X105714285Y-114261904D01*
X105714285Y-113976190D01*
X105761904Y-113880952D01*
X105809523Y-113833333D01*
X105904761Y-113785714D01*
X106095238Y-113785714D01*
X106190476Y-113833333D01*
X106809523Y-114452380D02*
X106714285Y-114404761D01*
X106666666Y-114357142D01*
X106619047Y-114261904D01*
X106619047Y-113976190D01*
X106666666Y-113880952D01*
X106714285Y-113833333D01*
X106809523Y-113785714D01*
X106952380Y-113785714D01*
X107047619Y-113833333D01*
X107095238Y-113880952D01*
X107142857Y-113976190D01*
X107142857Y-114261904D01*
X107095238Y-114357142D01*
X107047619Y-114404761D01*
X106952380Y-114452380D01*
X106809523Y-114452380D01*
X107476190Y-113785714D02*
X107666666Y-114452380D01*
X107857142Y-113976190D01*
X108047619Y-114452380D01*
X108238095Y-113785714D01*
X108619047Y-113785714D02*
X108619047Y-114452380D01*
X108619047Y-113880952D02*
X108666666Y-113833333D01*
X108761904Y-113785714D01*
X108904761Y-113785714D01*
X109000000Y-113833333D01*
X109047619Y-113928571D01*
X109047619Y-114452380D01*
X110285714Y-114452380D02*
X110285714Y-113452380D01*
X110666666Y-113452380D01*
X110761904Y-113500000D01*
X110809523Y-113547619D01*
X110857142Y-113642857D01*
X110857142Y-113785714D01*
X110809523Y-113880952D01*
X110761904Y-113928571D01*
X110666666Y-113976190D01*
X110285714Y-113976190D01*
X111285714Y-114452380D02*
X111285714Y-113785714D01*
X111285714Y-113976190D02*
X111333333Y-113880952D01*
X111380952Y-113833333D01*
X111476190Y-113785714D01*
X111571428Y-113785714D01*
X112047619Y-114452380D02*
X111952380Y-114404761D01*
X111904761Y-114357142D01*
X111857142Y-114261904D01*
X111857142Y-113976190D01*
X111904761Y-113880952D01*
X111952380Y-113833333D01*
X112047619Y-113785714D01*
X112190476Y-113785714D01*
X112285714Y-113833333D01*
X112333333Y-113880952D01*
X112380952Y-113976190D01*
X112380952Y-114261904D01*
X112333333Y-114357142D01*
X112285714Y-114404761D01*
X112190476Y-114452380D01*
X112047619Y-114452380D01*
X113238095Y-114452380D02*
X113238095Y-113452380D01*
X113238095Y-114404761D02*
X113142857Y-114452380D01*
X112952380Y-114452380D01*
X112857142Y-114404761D01*
X112809523Y-114357142D01*
X112761904Y-114261904D01*
X112761904Y-113976190D01*
X112809523Y-113880952D01*
X112857142Y-113833333D01*
X112952380Y-113785714D01*
X113142857Y-113785714D01*
X113238095Y-113833333D01*
X114142857Y-113785714D02*
X114142857Y-114452380D01*
X113714285Y-113785714D02*
X113714285Y-114309523D01*
X113761904Y-114404761D01*
X113857142Y-114452380D01*
X114000000Y-114452380D01*
X114095238Y-114404761D01*
X114142857Y-114357142D01*
X115047619Y-114404761D02*
X114952380Y-114452380D01*
X114761904Y-114452380D01*
X114666666Y-114404761D01*
X114619047Y-114357142D01*
X114571428Y-114261904D01*
X114571428Y-113976190D01*
X114619047Y-113880952D01*
X114666666Y-113833333D01*
X114761904Y-113785714D01*
X114952380Y-113785714D01*
X115047619Y-113833333D01*
X115333333Y-113785714D02*
X115714285Y-113785714D01*
X115476190Y-113452380D02*
X115476190Y-114309523D01*
X115523809Y-114404761D01*
X115619047Y-114452380D01*
X115714285Y-114452380D01*
X116047619Y-114452380D02*
X116047619Y-113785714D01*
X116047619Y-113452380D02*
X116000000Y-113500000D01*
X116047619Y-113547619D01*
X116095238Y-113500000D01*
X116047619Y-113452380D01*
X116047619Y-113547619D01*
X116666666Y-114452380D02*
X116571428Y-114404761D01*
X116523809Y-114357142D01*
X116476190Y-114261904D01*
X116476190Y-113976190D01*
X116523809Y-113880952D01*
X116571428Y-113833333D01*
X116666666Y-113785714D01*
X116809523Y-113785714D01*
X116904761Y-113833333D01*
X116952380Y-113880952D01*
X117000000Y-113976190D01*
X117000000Y-114261904D01*
X116952380Y-114357142D01*
X116904761Y-114404761D01*
X116809523Y-114452380D01*
X116666666Y-114452380D01*
X117428571Y-113785714D02*
X117428571Y-114452380D01*
X117428571Y-113880952D02*
X117476190Y-113833333D01*
X117571428Y-113785714D01*
X117714285Y-113785714D01*
X117809523Y-113833333D01*
X117857142Y-113928571D01*
X117857142Y-114452380D01*
X118380952Y-114404761D02*
X118380952Y-114452380D01*
X118333333Y-114547619D01*
X118285714Y-114595238D01*
X119571428Y-114452380D02*
X119571428Y-113452380D01*
X119571428Y-113833333D02*
X119666666Y-113785714D01*
X119857142Y-113785714D01*
X119952380Y-113833333D01*
X120000000Y-113880952D01*
X120047619Y-113976190D01*
X120047619Y-114261904D01*
X120000000Y-114357142D01*
X119952380Y-114404761D01*
X119857142Y-114452380D01*
X119666666Y-114452380D01*
X119571428Y-114404761D01*
X120476190Y-114452380D02*
X120476190Y-113785714D01*
X120476190Y-113976190D02*
X120523809Y-113880952D01*
X120571428Y-113833333D01*
X120666666Y-113785714D01*
X120761904Y-113785714D01*
X121238095Y-114452380D02*
X121142857Y-114404761D01*
X121095238Y-114357142D01*
X121047619Y-114261904D01*
X121047619Y-113976190D01*
X121095238Y-113880952D01*
X121142857Y-113833333D01*
X121238095Y-113785714D01*
X121380952Y-113785714D01*
X121476190Y-113833333D01*
X121523809Y-113880952D01*
X121571428Y-113976190D01*
X121571428Y-114261904D01*
X121523809Y-114357142D01*
X121476190Y-114404761D01*
X121380952Y-114452380D01*
X121238095Y-114452380D01*
X122428571Y-113785714D02*
X122428571Y-114452380D01*
X122000000Y-113785714D02*
X122000000Y-114309523D01*
X122047619Y-114404761D01*
X122142857Y-114452380D01*
X122285714Y-114452380D01*
X122380952Y-114404761D01*
X122428571Y-114357142D01*
X123333333Y-113785714D02*
X123333333Y-114595238D01*
X123285714Y-114690476D01*
X123238095Y-114738095D01*
X123142857Y-114785714D01*
X122999999Y-114785714D01*
X122904761Y-114738095D01*
X123333333Y-114404761D02*
X123238095Y-114452380D01*
X123047619Y-114452380D01*
X122952380Y-114404761D01*
X122904761Y-114357142D01*
X122857142Y-114261904D01*
X122857142Y-113976190D01*
X122904761Y-113880952D01*
X122952380Y-113833333D01*
X123047619Y-113785714D01*
X123238095Y-113785714D01*
X123333333Y-113833333D01*
X123809523Y-114452380D02*
X123809523Y-113452380D01*
X124238095Y-114452380D02*
X124238095Y-113928571D01*
X124190476Y-113833333D01*
X124095238Y-113785714D01*
X123952380Y-113785714D01*
X123857142Y-113833333D01*
X123809523Y-113880952D01*
X124571428Y-113785714D02*
X124952380Y-113785714D01*
X124714285Y-113452380D02*
X124714285Y-114309523D01*
X124761904Y-114404761D01*
X124857142Y-114452380D01*
X124952380Y-114452380D01*
X125904761Y-113785714D02*
X126285714Y-113785714D01*
X126047619Y-113452380D02*
X126047619Y-114309523D01*
X126095238Y-114404761D01*
X126190476Y-114452380D01*
X126285714Y-114452380D01*
X126761904Y-114452380D02*
X126666666Y-114404761D01*
X126619047Y-114357142D01*
X126571428Y-114261904D01*
X126571428Y-113976190D01*
X126619047Y-113880952D01*
X126666666Y-113833333D01*
X126761904Y-113785714D01*
X126904761Y-113785714D01*
X126999999Y-113833333D01*
X127047619Y-113880952D01*
X127095238Y-113976190D01*
X127095238Y-114261904D01*
X127047619Y-114357142D01*
X126999999Y-114404761D01*
X126904761Y-114452380D01*
X126761904Y-114452380D01*
X128190476Y-113785714D02*
X128428571Y-114452380D01*
X128666666Y-113785714D02*
X128428571Y-114452380D01*
X128333333Y-114690476D01*
X128285714Y-114738095D01*
X128190476Y-114785714D01*
X129190476Y-114452380D02*
X129095238Y-114404761D01*
X129047619Y-114357142D01*
X128999999Y-114261904D01*
X128999999Y-113976190D01*
X129047619Y-113880952D01*
X129095238Y-113833333D01*
X129190476Y-113785714D01*
X129333333Y-113785714D01*
X129428571Y-113833333D01*
X129476190Y-113880952D01*
X129523809Y-113976190D01*
X129523809Y-114261904D01*
X129476190Y-114357142D01*
X129428571Y-114404761D01*
X129333333Y-114452380D01*
X129190476Y-114452380D01*
X130380952Y-113785714D02*
X130380952Y-114452380D01*
X129952380Y-113785714D02*
X129952380Y-114309523D01*
X129999999Y-114404761D01*
X130095238Y-114452380D01*
X130238095Y-114452380D01*
X130333333Y-114404761D01*
X130380952Y-114357142D01*
X131619047Y-114452380D02*
X131619047Y-113452380D01*
X131619047Y-113833333D02*
X131714285Y-113785714D01*
X131904761Y-113785714D01*
X131999999Y-113833333D01*
X132047619Y-113880952D01*
X132095238Y-113976190D01*
X132095238Y-114261904D01*
X132047619Y-114357142D01*
X131999999Y-114404761D01*
X131904761Y-114452380D01*
X131714285Y-114452380D01*
X131619047Y-114404761D01*
X132428571Y-113785714D02*
X132666666Y-114452380D01*
X132904761Y-113785714D02*
X132666666Y-114452380D01*
X132571428Y-114690476D01*
X132523809Y-114738095D01*
X132428571Y-114785714D01*
X133999999Y-114404761D02*
X134142857Y-114452380D01*
X134380952Y-114452380D01*
X134476190Y-114404761D01*
X134523809Y-114357142D01*
X134571428Y-114261904D01*
X134571428Y-114166666D01*
X134523809Y-114071428D01*
X134476190Y-114023809D01*
X134380952Y-113976190D01*
X134190476Y-113928571D01*
X134095238Y-113880952D01*
X134047619Y-113833333D01*
X133999999Y-113738095D01*
X133999999Y-113642857D01*
X134047619Y-113547619D01*
X134095238Y-113500000D01*
X134190476Y-113452380D01*
X134428571Y-113452380D01*
X134571428Y-113500000D01*
X135142857Y-114452380D02*
X135047619Y-114404761D01*
X134999999Y-114309523D01*
X134999999Y-113452380D01*
X135904761Y-114404761D02*
X135809523Y-114452380D01*
X135619047Y-114452380D01*
X135523809Y-114404761D01*
X135476190Y-114309523D01*
X135476190Y-113928571D01*
X135523809Y-113833333D01*
X135619047Y-113785714D01*
X135809523Y-113785714D01*
X135904761Y-113833333D01*
X135952380Y-113928571D01*
X135952380Y-114023809D01*
X135476190Y-114119047D01*
X136761904Y-114404761D02*
X136666666Y-114452380D01*
X136476190Y-114452380D01*
X136380952Y-114404761D01*
X136333333Y-114309523D01*
X136333333Y-113928571D01*
X136380952Y-113833333D01*
X136476190Y-113785714D01*
X136666666Y-113785714D01*
X136761904Y-113833333D01*
X136809523Y-113928571D01*
X136809523Y-114023809D01*
X136333333Y-114119047D01*
X137238095Y-113785714D02*
X137238095Y-114785714D01*
X137238095Y-113833333D02*
X137333333Y-113785714D01*
X137523809Y-113785714D01*
X137619047Y-113833333D01*
X137666666Y-113880952D01*
X137714285Y-113976190D01*
X137714285Y-114261904D01*
X137666666Y-114357142D01*
X137619047Y-114404761D01*
X137523809Y-114452380D01*
X137333333Y-114452380D01*
X137238095Y-114404761D01*
X138047619Y-113785714D02*
X138285714Y-114452380D01*
X138523809Y-113785714D02*
X138285714Y-114452380D01*
X138190476Y-114690476D01*
X138142857Y-114738095D01*
X138047619Y-114785714D01*
X138904761Y-114452380D02*
X138904761Y-113785714D01*
X138904761Y-113880952D02*
X138952380Y-113833333D01*
X139047619Y-113785714D01*
X139190476Y-113785714D01*
X139285714Y-113833333D01*
X139333333Y-113928571D01*
X139333333Y-114452380D01*
X139333333Y-113928571D02*
X139380952Y-113833333D01*
X139476190Y-113785714D01*
X139619047Y-113785714D01*
X139714285Y-113833333D01*
X139761904Y-113928571D01*
X139761904Y-114452380D01*
X140380952Y-114452380D02*
X140285714Y-114404761D01*
X140238095Y-114357142D01*
X140190476Y-114261904D01*
X140190476Y-113976190D01*
X140238095Y-113880952D01*
X140285714Y-113833333D01*
X140380952Y-113785714D01*
X140523809Y-113785714D01*
X140619047Y-113833333D01*
X140666666Y-113880952D01*
X140714285Y-113976190D01*
X140714285Y-114261904D01*
X140666666Y-114357142D01*
X140619047Y-114404761D01*
X140523809Y-114452380D01*
X140380952Y-114452380D01*
X141571428Y-113785714D02*
X141571428Y-114452380D01*
X141142857Y-113785714D02*
X141142857Y-114309523D01*
X141190476Y-114404761D01*
X141285714Y-114452380D01*
X141428571Y-114452380D01*
X141523809Y-114404761D01*
X141571428Y-114357142D01*
X141999999Y-114404761D02*
X142095238Y-114452380D01*
X142285714Y-114452380D01*
X142380952Y-114404761D01*
X142428571Y-114309523D01*
X142428571Y-114261904D01*
X142380952Y-114166666D01*
X142285714Y-114119047D01*
X142142857Y-114119047D01*
X142047619Y-114071428D01*
X141999999Y-113976190D01*
X141999999Y-113928571D01*
X142047619Y-113833333D01*
X142142857Y-113785714D01*
X142285714Y-113785714D01*
X142380952Y-113833333D01*
X143238095Y-114404761D02*
X143142857Y-114452380D01*
X142952380Y-114452380D01*
X142857142Y-114404761D01*
X142809523Y-114309523D01*
X142809523Y-113928571D01*
X142857142Y-113833333D01*
X142952380Y-113785714D01*
X143142857Y-113785714D01*
X143238095Y-113833333D01*
X143285714Y-113928571D01*
X143285714Y-114023809D01*
X142809523Y-114119047D01*
X106303571Y-95303571D02*
X106410714Y-95339285D01*
X106589285Y-95339285D01*
X106660714Y-95303571D01*
X106696428Y-95267857D01*
X106732142Y-95196428D01*
X106732142Y-95125000D01*
X106696428Y-95053571D01*
X106660714Y-95017857D01*
X106589285Y-94982142D01*
X106446428Y-94946428D01*
X106375000Y-94910714D01*
X106339285Y-94875000D01*
X106303571Y-94803571D01*
X106303571Y-94732142D01*
X106339285Y-94660714D01*
X106375000Y-94625000D01*
X106446428Y-94589285D01*
X106625000Y-94589285D01*
X106732142Y-94625000D01*
X107160714Y-95339285D02*
X107089285Y-95303571D01*
X107053571Y-95232142D01*
X107053571Y-94589285D01*
X107732142Y-95303571D02*
X107660714Y-95339285D01*
X107517857Y-95339285D01*
X107446428Y-95303571D01*
X107410714Y-95232142D01*
X107410714Y-94946428D01*
X107446428Y-94875000D01*
X107517857Y-94839285D01*
X107660714Y-94839285D01*
X107732142Y-94875000D01*
X107767857Y-94946428D01*
X107767857Y-95017857D01*
X107410714Y-95089285D01*
X108375000Y-95303571D02*
X108303571Y-95339285D01*
X108160714Y-95339285D01*
X108089285Y-95303571D01*
X108053571Y-95232142D01*
X108053571Y-94946428D01*
X108089285Y-94875000D01*
X108160714Y-94839285D01*
X108303571Y-94839285D01*
X108375000Y-94875000D01*
X108410714Y-94946428D01*
X108410714Y-95017857D01*
X108053571Y-95089285D01*
X108732142Y-94839285D02*
X108732142Y-95589285D01*
X108732142Y-94875000D02*
X108803571Y-94839285D01*
X108946428Y-94839285D01*
X109017857Y-94875000D01*
X109053571Y-94910714D01*
X109089285Y-94982142D01*
X109089285Y-95196428D01*
X109053571Y-95267857D01*
X109017857Y-95303571D01*
X108946428Y-95339285D01*
X108803571Y-95339285D01*
X108732142Y-95303571D01*
X109339285Y-94839285D02*
X109517857Y-95339285D01*
X109696428Y-94839285D02*
X109517857Y-95339285D01*
X109446428Y-95517857D01*
X109410714Y-95553571D01*
X109339285Y-95589285D01*
X109982142Y-95339285D02*
X109982142Y-94839285D01*
X109982142Y-94910714D02*
X110017857Y-94875000D01*
X110089285Y-94839285D01*
X110196428Y-94839285D01*
X110267857Y-94875000D01*
X110303571Y-94946428D01*
X110303571Y-95339285D01*
X110303571Y-94946428D02*
X110339285Y-94875000D01*
X110410714Y-94839285D01*
X110517857Y-94839285D01*
X110589285Y-94875000D01*
X110625000Y-94946428D01*
X110625000Y-95339285D01*
X111089285Y-95339285D02*
X111017857Y-95303571D01*
X110982142Y-95267857D01*
X110946428Y-95196428D01*
X110946428Y-94982142D01*
X110982142Y-94910714D01*
X111017857Y-94875000D01*
X111089285Y-94839285D01*
X111196428Y-94839285D01*
X111267857Y-94875000D01*
X111303571Y-94910714D01*
X111339285Y-94982142D01*
X111339285Y-95196428D01*
X111303571Y-95267857D01*
X111267857Y-95303571D01*
X111196428Y-95339285D01*
X111089285Y-95339285D01*
X111982142Y-94839285D02*
X111982142Y-95339285D01*
X111660714Y-94839285D02*
X111660714Y-95232142D01*
X111696428Y-95303571D01*
X111767857Y-95339285D01*
X111875000Y-95339285D01*
X111946428Y-95303571D01*
X111982142Y-95267857D01*
X112303571Y-95303571D02*
X112375000Y-95339285D01*
X112517857Y-95339285D01*
X112589285Y-95303571D01*
X112625000Y-95232142D01*
X112625000Y-95196428D01*
X112589285Y-95125000D01*
X112517857Y-95089285D01*
X112410714Y-95089285D01*
X112339285Y-95053571D01*
X112303571Y-94982142D01*
X112303571Y-94946428D01*
X112339285Y-94875000D01*
X112410714Y-94839285D01*
X112517857Y-94839285D01*
X112589285Y-94875000D01*
X113232142Y-95303571D02*
X113160714Y-95339285D01*
X113017857Y-95339285D01*
X112946428Y-95303571D01*
X112910714Y-95232142D01*
X112910714Y-94946428D01*
X112946428Y-94875000D01*
X113017857Y-94839285D01*
X113160714Y-94839285D01*
X113232142Y-94875000D01*
X113267857Y-94946428D01*
X113267857Y-95017857D01*
X112910714Y-95089285D01*
X114160714Y-95053571D02*
X114732142Y-95053571D01*
X115625000Y-94660714D02*
X115660714Y-94625000D01*
X115732142Y-94589285D01*
X115910714Y-94589285D01*
X115982142Y-94625000D01*
X116017857Y-94660714D01*
X116053571Y-94732142D01*
X116053571Y-94803571D01*
X116017857Y-94910714D01*
X115589285Y-95339285D01*
X116053571Y-95339285D01*
X116517857Y-94589285D02*
X116589285Y-94589285D01*
X116660714Y-94625000D01*
X116696428Y-94660714D01*
X116732142Y-94732142D01*
X116767857Y-94875000D01*
X116767857Y-95053571D01*
X116732142Y-95196428D01*
X116696428Y-95267857D01*
X116660714Y-95303571D01*
X116589285Y-95339285D01*
X116517857Y-95339285D01*
X116446428Y-95303571D01*
X116410714Y-95267857D01*
X116375000Y-95196428D01*
X116339285Y-95053571D01*
X116339285Y-94875000D01*
X116375000Y-94732142D01*
X116410714Y-94660714D01*
X116446428Y-94625000D01*
X116517857Y-94589285D01*
X117053571Y-94660714D02*
X117089285Y-94625000D01*
X117160714Y-94589285D01*
X117339285Y-94589285D01*
X117410714Y-94625000D01*
X117446428Y-94660714D01*
X117482142Y-94732142D01*
X117482142Y-94803571D01*
X117446428Y-94910714D01*
X117017857Y-95339285D01*
X117482142Y-95339285D01*
X117946428Y-94589285D02*
X118017857Y-94589285D01*
X118089285Y-94625000D01*
X118125000Y-94660714D01*
X118160714Y-94732142D01*
X118196428Y-94875000D01*
X118196428Y-95053571D01*
X118160714Y-95196428D01*
X118125000Y-95267857D01*
X118089285Y-95303571D01*
X118017857Y-95339285D01*
X117946428Y-95339285D01*
X117875000Y-95303571D01*
X117839285Y-95267857D01*
X117803571Y-95196428D01*
X117767857Y-95053571D01*
X117767857Y-94875000D01*
X117803571Y-94732142D01*
X117839285Y-94660714D01*
X117875000Y-94625000D01*
X117946428Y-94589285D01*
X119089285Y-95053571D02*
X119660714Y-95053571D01*
X121017857Y-95339285D02*
X120767857Y-94982142D01*
X120589285Y-95339285D02*
X120589285Y-94589285D01*
X120875000Y-94589285D01*
X120946428Y-94625000D01*
X120982142Y-94660714D01*
X121017857Y-94732142D01*
X121017857Y-94839285D01*
X120982142Y-94910714D01*
X120946428Y-94946428D01*
X120875000Y-94982142D01*
X120589285Y-94982142D01*
X121339285Y-95339285D02*
X121339285Y-94589285D01*
X121625000Y-94589285D01*
X121696428Y-94625000D01*
X121732142Y-94660714D01*
X121767857Y-94732142D01*
X121767857Y-94839285D01*
X121732142Y-94910714D01*
X121696428Y-94946428D01*
X121625000Y-94982142D01*
X121339285Y-94982142D01*
X122089285Y-95339285D02*
X122089285Y-94589285D01*
X122910714Y-94839285D02*
X123196428Y-94839285D01*
X123017857Y-94589285D02*
X123017857Y-95232142D01*
X123053571Y-95303571D01*
X123125000Y-95339285D01*
X123196428Y-95339285D01*
X123553571Y-95339285D02*
X123482142Y-95303571D01*
X123446428Y-95267857D01*
X123410714Y-95196428D01*
X123410714Y-94982142D01*
X123446428Y-94910714D01*
X123482142Y-94875000D01*
X123553571Y-94839285D01*
X123660714Y-94839285D01*
X123732142Y-94875000D01*
X123767857Y-94910714D01*
X123803571Y-94982142D01*
X123803571Y-95196428D01*
X123767857Y-95267857D01*
X123732142Y-95303571D01*
X123660714Y-95339285D01*
X123553571Y-95339285D01*
X125089285Y-94625000D02*
X125017857Y-94589285D01*
X124910714Y-94589285D01*
X124803571Y-94625000D01*
X124732142Y-94696428D01*
X124696428Y-94767857D01*
X124660714Y-94910714D01*
X124660714Y-95017857D01*
X124696428Y-95160714D01*
X124732142Y-95232142D01*
X124803571Y-95303571D01*
X124910714Y-95339285D01*
X124982142Y-95339285D01*
X125089285Y-95303571D01*
X125125000Y-95267857D01*
X125125000Y-95017857D01*
X124982142Y-95017857D01*
X125446428Y-95339285D02*
X125446428Y-94839285D01*
X125446428Y-94982142D02*
X125482142Y-94910714D01*
X125517857Y-94875000D01*
X125589285Y-94839285D01*
X125660714Y-94839285D01*
X126017857Y-95339285D02*
X125946428Y-95303571D01*
X125910714Y-95267857D01*
X125875000Y-95196428D01*
X125875000Y-94982142D01*
X125910714Y-94910714D01*
X125946428Y-94875000D01*
X126017857Y-94839285D01*
X126125000Y-94839285D01*
X126196428Y-94875000D01*
X126232142Y-94910714D01*
X126267857Y-94982142D01*
X126267857Y-95196428D01*
X126232142Y-95267857D01*
X126196428Y-95303571D01*
X126125000Y-95339285D01*
X126017857Y-95339285D01*
X126517857Y-94839285D02*
X126696428Y-95339285D01*
X126875000Y-94839285D01*
X127446428Y-95303571D02*
X127375000Y-95339285D01*
X127232142Y-95339285D01*
X127160714Y-95303571D01*
X127125000Y-95232142D01*
X127125000Y-94946428D01*
X127160714Y-94875000D01*
X127232142Y-94839285D01*
X127375000Y-94839285D01*
X127446428Y-94875000D01*
X127482142Y-94946428D01*
X127482142Y-95017857D01*
X127125000Y-95089285D01*
X128339285Y-95125000D02*
X128696428Y-95125000D01*
X128267857Y-95339285D02*
X128517857Y-94589285D01*
X128767857Y-95339285D01*
X129339285Y-95339285D02*
X129339285Y-94589285D01*
X129339285Y-95303571D02*
X129267857Y-95339285D01*
X129125000Y-95339285D01*
X129053571Y-95303571D01*
X129017857Y-95267857D01*
X128982142Y-95196428D01*
X128982142Y-94982142D01*
X129017857Y-94910714D01*
X129053571Y-94875000D01*
X129125000Y-94839285D01*
X129267857Y-94839285D01*
X129339285Y-94875000D01*
X130017857Y-95339285D02*
X130017857Y-94946428D01*
X129982142Y-94875000D01*
X129910714Y-94839285D01*
X129767857Y-94839285D01*
X129696428Y-94875000D01*
X130017857Y-95303571D02*
X129946428Y-95339285D01*
X129767857Y-95339285D01*
X129696428Y-95303571D01*
X129660714Y-95232142D01*
X129660714Y-95160714D01*
X129696428Y-95089285D01*
X129767857Y-95053571D01*
X129946428Y-95053571D01*
X130017857Y-95017857D01*
X130375000Y-94839285D02*
X130375000Y-95589285D01*
X130375000Y-94875000D02*
X130446428Y-94839285D01*
X130589285Y-94839285D01*
X130660714Y-94875000D01*
X130696428Y-94910714D01*
X130732142Y-94982142D01*
X130732142Y-95196428D01*
X130696428Y-95267857D01*
X130660714Y-95303571D01*
X130589285Y-95339285D01*
X130446428Y-95339285D01*
X130375000Y-95303571D01*
X130946428Y-94839285D02*
X131232142Y-94839285D01*
X131053571Y-94589285D02*
X131053571Y-95232142D01*
X131089285Y-95303571D01*
X131160714Y-95339285D01*
X131232142Y-95339285D01*
X131589285Y-95339285D02*
X131517857Y-95303571D01*
X131482142Y-95267857D01*
X131446428Y-95196428D01*
X131446428Y-94982142D01*
X131482142Y-94910714D01*
X131517857Y-94875000D01*
X131589285Y-94839285D01*
X131696428Y-94839285D01*
X131767857Y-94875000D01*
X131803571Y-94910714D01*
X131839285Y-94982142D01*
X131839285Y-95196428D01*
X131803571Y-95267857D01*
X131767857Y-95303571D01*
X131696428Y-95339285D01*
X131589285Y-95339285D01*
X132160714Y-95339285D02*
X132160714Y-94839285D01*
X132160714Y-94982142D02*
X132196428Y-94910714D01*
X132232142Y-94875000D01*
X132303571Y-94839285D01*
X132375000Y-94839285D01*
X133410714Y-95625000D02*
X133375000Y-95589285D01*
X133303571Y-95482142D01*
X133267857Y-95410714D01*
X133232142Y-95303571D01*
X133196428Y-95125000D01*
X133196428Y-94982142D01*
X133232142Y-94803571D01*
X133267857Y-94696428D01*
X133303571Y-94625000D01*
X133375000Y-94517857D01*
X133410714Y-94482142D01*
X133696428Y-95339285D02*
X133696428Y-94589285D01*
X134017857Y-94660714D02*
X134053571Y-94625000D01*
X134125000Y-94589285D01*
X134303571Y-94589285D01*
X134375000Y-94625000D01*
X134410714Y-94660714D01*
X134446428Y-94732142D01*
X134446428Y-94803571D01*
X134410714Y-94910714D01*
X133982142Y-95339285D01*
X134446428Y-95339285D01*
X135196428Y-95267857D02*
X135160714Y-95303571D01*
X135053571Y-95339285D01*
X134982142Y-95339285D01*
X134875000Y-95303571D01*
X134803571Y-95232142D01*
X134767857Y-95160714D01*
X134732142Y-95017857D01*
X134732142Y-94910714D01*
X134767857Y-94767857D01*
X134803571Y-94696428D01*
X134875000Y-94625000D01*
X134982142Y-94589285D01*
X135053571Y-94589285D01*
X135160714Y-94625000D01*
X135196428Y-94660714D01*
X135446428Y-95625000D02*
X135482142Y-95589285D01*
X135553571Y-95482142D01*
X135589285Y-95410714D01*
X135625000Y-95303571D01*
X135660714Y-95125000D01*
X135660714Y-94982142D01*
X135625000Y-94803571D01*
X135589285Y-94696428D01*
X135553571Y-94625000D01*
X135482142Y-94517857D01*
X135446428Y-94482142D01*
D11*
X152900000Y-100000000D02*
X152900000Y-110000000D01*
X152900000Y-110000000D02*
X147800000Y-110000000D01*
X147800000Y-110000000D02*
X147800000Y-100000000D01*
X147800000Y-100000000D02*
X152900000Y-100000000D01*
D12*
X150850000Y-99200000D02*
G75*
G03X150850000Y-99200000I-100000J0D01*
G01*
X93600000Y-99200000D02*
G75*
G03X93600000Y-99200000I-100000J0D01*
G01*
D11*
X90550000Y-100000000D02*
X95650000Y-100000000D01*
X90550000Y-110000000D02*
X90550000Y-100000000D01*
X95650000Y-110000000D02*
X90550000Y-110000000D01*
X95650000Y-100000000D02*
X95650000Y-110000000D01*
D13*
X100670000Y-101270000D02*
X103330000Y-101270000D01*
X100670000Y-101270000D02*
X100670000Y-111490000D01*
X100670000Y-111490000D02*
X103330000Y-111490000D01*
X103330000Y-101270000D02*
X103330000Y-111490000D01*
X103330000Y-98670000D02*
X103330000Y-100000000D01*
X102000000Y-98670000D02*
X103330000Y-98670000D01*
X112000000Y-98670000D02*
X113330000Y-98670000D01*
X113330000Y-98670000D02*
X113330000Y-100000000D01*
X113330000Y-101270000D02*
X113330000Y-111490000D01*
X110670000Y-111490000D02*
X113330000Y-111490000D01*
X110670000Y-101270000D02*
X110670000Y-111490000D01*
X110670000Y-101270000D02*
X113330000Y-101270000D01*
X120670000Y-101270000D02*
X123330000Y-101270000D01*
X120670000Y-101270000D02*
X120670000Y-111490000D01*
X120670000Y-111490000D02*
X123330000Y-111490000D01*
X123330000Y-101270000D02*
X123330000Y-111490000D01*
X123330000Y-98670000D02*
X123330000Y-100000000D01*
X122000000Y-98670000D02*
X123330000Y-98670000D01*
X132000000Y-98670000D02*
X133330000Y-98670000D01*
X133330000Y-98670000D02*
X133330000Y-100000000D01*
X133330000Y-101270000D02*
X133330000Y-111490000D01*
X130670000Y-111490000D02*
X133330000Y-111490000D01*
X130670000Y-101270000D02*
X130670000Y-111490000D01*
X130670000Y-101270000D02*
X133330000Y-101270000D01*
X140670000Y-101270000D02*
X143330000Y-101270000D01*
X140670000Y-101270000D02*
X140670000Y-111490000D01*
X140670000Y-111490000D02*
X143330000Y-111490000D01*
X143330000Y-101270000D02*
X143330000Y-111490000D01*
X143330000Y-98670000D02*
X143330000Y-100000000D01*
X142000000Y-98670000D02*
X143330000Y-98670000D01*
D14*
X153687380Y-103508333D02*
X154401666Y-103508333D01*
X154544523Y-103555952D01*
X154639761Y-103651190D01*
X154687380Y-103794047D01*
X154687380Y-103889285D01*
X153687380Y-103127380D02*
X153687380Y-102460714D01*
X154687380Y-102889285D01*
X96437380Y-103508333D02*
X97151666Y-103508333D01*
X97294523Y-103555952D01*
X97389761Y-103651190D01*
X97437380Y-103794047D01*
X97437380Y-103889285D01*
X97437380Y-102508333D02*
X97437380Y-103079761D01*
X97437380Y-102794047D02*
X96437380Y-102794047D01*
X96580238Y-102889285D01*
X96675476Y-102984523D01*
X96723095Y-103079761D01*
D10*
X101666666Y-96682380D02*
X101666666Y-97396666D01*
X101619047Y-97539523D01*
X101523809Y-97634761D01*
X101380952Y-97682380D01*
X101285714Y-97682380D01*
X102095238Y-96777619D02*
X102142857Y-96730000D01*
X102238095Y-96682380D01*
X102476190Y-96682380D01*
X102571428Y-96730000D01*
X102619047Y-96777619D01*
X102666666Y-96872857D01*
X102666666Y-96968095D01*
X102619047Y-97110952D01*
X102047619Y-97682380D01*
X102666666Y-97682380D01*
X111666666Y-96682380D02*
X111666666Y-97396666D01*
X111619047Y-97539523D01*
X111523809Y-97634761D01*
X111380952Y-97682380D01*
X111285714Y-97682380D01*
X112047619Y-96682380D02*
X112666666Y-96682380D01*
X112333333Y-97063333D01*
X112476190Y-97063333D01*
X112571428Y-97110952D01*
X112619047Y-97158571D01*
X112666666Y-97253809D01*
X112666666Y-97491904D01*
X112619047Y-97587142D01*
X112571428Y-97634761D01*
X112476190Y-97682380D01*
X112190476Y-97682380D01*
X112095238Y-97634761D01*
X112047619Y-97587142D01*
X121666666Y-96682380D02*
X121666666Y-97396666D01*
X121619047Y-97539523D01*
X121523809Y-97634761D01*
X121380952Y-97682380D01*
X121285714Y-97682380D01*
X122571428Y-97015714D02*
X122571428Y-97682380D01*
X122333333Y-96634761D02*
X122095238Y-97349047D01*
X122714285Y-97349047D01*
X131666666Y-96682380D02*
X131666666Y-97396666D01*
X131619047Y-97539523D01*
X131523809Y-97634761D01*
X131380952Y-97682380D01*
X131285714Y-97682380D01*
X132619047Y-96682380D02*
X132142857Y-96682380D01*
X132095238Y-97158571D01*
X132142857Y-97110952D01*
X132238095Y-97063333D01*
X132476190Y-97063333D01*
X132571428Y-97110952D01*
X132619047Y-97158571D01*
X132666666Y-97253809D01*
X132666666Y-97491904D01*
X132619047Y-97587142D01*
X132571428Y-97634761D01*
X132476190Y-97682380D01*
X132238095Y-97682380D01*
X132142857Y-97634761D01*
X132095238Y-97587142D01*
X141666666Y-96682380D02*
X141666666Y-97396666D01*
X141619047Y-97539523D01*
X141523809Y-97634761D01*
X141380952Y-97682380D01*
X141285714Y-97682380D01*
X142571428Y-96682380D02*
X142380952Y-96682380D01*
X142285714Y-96730000D01*
X142238095Y-96777619D01*
X142142857Y-96920476D01*
X142095238Y-97110952D01*
X142095238Y-97491904D01*
X142142857Y-97587142D01*
X142190476Y-97634761D01*
X142285714Y-97682380D01*
X142476190Y-97682380D01*
X142571428Y-97634761D01*
X142619047Y-97587142D01*
X142666666Y-97491904D01*
X142666666Y-97253809D01*
X142619047Y-97158571D01*
X142571428Y-97110952D01*
X142476190Y-97063333D01*
X142285714Y-97063333D01*
X142190476Y-97110952D01*
X142142857Y-97158571D01*
X142095238Y-97253809D01*
M02*
