G04 #@! TF.GenerationSoftware,KiCad,Pcbnew,(5.1.5)-3*
G04 #@! TF.CreationDate,2020-08-31T21:18:36+01:00*
G04 #@! TF.ProjectId,groveToPi,67726f76-6554-46f5-9069-2e6b69636164,1.0.1*
G04 #@! TF.SameCoordinates,Original*
G04 #@! TF.FileFunction,Copper,L2,Bot*
G04 #@! TF.FilePolarity,Positive*
%FSLAX46Y46*%
G04 Gerber Fmt 4.6, Leading zero omitted, Abs format (unit mm)*
G04 Created by KiCad (PCBNEW (5.1.5)-3) date 2020-08-31 21:18:36*
%MOMM*%
%LPD*%
G04 APERTURE LIST*
%ADD10R,1.308000X1.308000*%
%ADD11C,1.308000*%
%ADD12C,5.000000*%
%ADD13R,1.700000X1.700000*%
%ADD14O,1.700000X1.700000*%
%ADD15C,0.254000*%
G04 APERTURE END LIST*
D10*
X150750000Y-102000000D03*
D11*
X150750000Y-104000000D03*
X150750000Y-106000000D03*
X150750000Y-108000000D03*
X93500000Y-108000000D03*
X93500000Y-106000000D03*
X93500000Y-104000000D03*
D10*
X93500000Y-102000000D03*
D12*
X154750000Y-112750000D03*
X89250000Y-112750000D03*
X89250000Y-97250000D03*
X154500000Y-97250000D03*
D13*
X102000000Y-100000000D03*
D14*
X102000000Y-102540000D03*
X102000000Y-105080000D03*
X102000000Y-107620000D03*
X102000000Y-110160000D03*
X112000000Y-110160000D03*
X112000000Y-107620000D03*
X112000000Y-105080000D03*
X112000000Y-102540000D03*
D13*
X112000000Y-100000000D03*
X122000000Y-100000000D03*
D14*
X122000000Y-102540000D03*
X122000000Y-105080000D03*
X122000000Y-107620000D03*
X122000000Y-110160000D03*
X132000000Y-110160000D03*
X132000000Y-107620000D03*
X132000000Y-105080000D03*
X132000000Y-102540000D03*
D13*
X132000000Y-100000000D03*
X142000000Y-100000000D03*
D14*
X142000000Y-102540000D03*
X142000000Y-105080000D03*
X142000000Y-107620000D03*
X142000000Y-110160000D03*
D15*
X102000000Y-100000000D02*
X112000000Y-100000000D01*
X112000000Y-100000000D02*
X122000000Y-100000000D01*
X122000000Y-100000000D02*
X132000000Y-100000000D01*
X132000000Y-100000000D02*
X142000000Y-100000000D01*
X151493802Y-100000000D02*
X152750000Y-101256198D01*
X142000000Y-100000000D02*
X151493802Y-100000000D01*
X102000000Y-100000000D02*
X92756198Y-100000000D01*
X92756198Y-100000000D02*
X91250000Y-101506198D01*
X91250000Y-103750000D02*
X93500000Y-106000000D01*
X91250000Y-101506198D02*
X91250000Y-103750000D01*
X152750000Y-104000000D02*
X150750000Y-106000000D01*
X152750000Y-101256198D02*
X152750000Y-104000000D01*
X102000000Y-105080000D02*
X112000000Y-105080000D01*
X112000000Y-105080000D02*
X122000000Y-105080000D01*
X122000000Y-105080000D02*
X132000000Y-105080000D01*
X132000000Y-105080000D02*
X142000000Y-105080000D01*
X147670000Y-105080000D02*
X150750000Y-102000000D01*
X142000000Y-105080000D02*
X147670000Y-105080000D01*
X98920000Y-102000000D02*
X102000000Y-105080000D01*
X93500000Y-102000000D02*
X98920000Y-102000000D01*
G36*
X152501554Y-94814886D02*
G01*
X152064886Y-95251554D01*
X151721799Y-95765021D01*
X151485476Y-96335554D01*
X151365000Y-96941229D01*
X151365000Y-97558771D01*
X151485476Y-98164446D01*
X151721799Y-98734979D01*
X152064886Y-99248446D01*
X152501554Y-99685114D01*
X153015021Y-100028201D01*
X153585554Y-100264524D01*
X154191229Y-100385000D01*
X154808771Y-100385000D01*
X155414446Y-100264524D01*
X155984979Y-100028201D01*
X156498446Y-99685114D01*
X156935114Y-99248446D01*
X157278201Y-98734979D01*
X157340000Y-98585783D01*
X157340001Y-110983359D01*
X157185114Y-110751554D01*
X156748446Y-110314886D01*
X156234979Y-109971799D01*
X155664446Y-109735476D01*
X155058771Y-109615000D01*
X154441229Y-109615000D01*
X153835554Y-109735476D01*
X153265021Y-109971799D01*
X152751554Y-110314886D01*
X152314886Y-110751554D01*
X151971799Y-111265021D01*
X151735476Y-111835554D01*
X151615000Y-112441229D01*
X151615000Y-113058771D01*
X151735476Y-113664446D01*
X151971799Y-114234979D01*
X152314886Y-114748446D01*
X152751554Y-115185114D01*
X152983358Y-115340000D01*
X91016642Y-115340000D01*
X91248446Y-115185114D01*
X91685114Y-114748446D01*
X92028201Y-114234979D01*
X92264524Y-113664446D01*
X92385000Y-113058771D01*
X92385000Y-112441229D01*
X92264524Y-111835554D01*
X92028201Y-111265021D01*
X91685114Y-110751554D01*
X91450450Y-110516890D01*
X100558524Y-110516890D01*
X100603175Y-110664099D01*
X100728359Y-110926920D01*
X100902412Y-111160269D01*
X101118645Y-111355178D01*
X101368748Y-111504157D01*
X101643109Y-111601481D01*
X101873000Y-111480814D01*
X101873000Y-110287000D01*
X102127000Y-110287000D01*
X102127000Y-111480814D01*
X102356891Y-111601481D01*
X102631252Y-111504157D01*
X102881355Y-111355178D01*
X103097588Y-111160269D01*
X103271641Y-110926920D01*
X103396825Y-110664099D01*
X103441476Y-110516890D01*
X110558524Y-110516890D01*
X110603175Y-110664099D01*
X110728359Y-110926920D01*
X110902412Y-111160269D01*
X111118645Y-111355178D01*
X111368748Y-111504157D01*
X111643109Y-111601481D01*
X111873000Y-111480814D01*
X111873000Y-110287000D01*
X112127000Y-110287000D01*
X112127000Y-111480814D01*
X112356891Y-111601481D01*
X112631252Y-111504157D01*
X112881355Y-111355178D01*
X113097588Y-111160269D01*
X113271641Y-110926920D01*
X113396825Y-110664099D01*
X113441476Y-110516890D01*
X120558524Y-110516890D01*
X120603175Y-110664099D01*
X120728359Y-110926920D01*
X120902412Y-111160269D01*
X121118645Y-111355178D01*
X121368748Y-111504157D01*
X121643109Y-111601481D01*
X121873000Y-111480814D01*
X121873000Y-110287000D01*
X122127000Y-110287000D01*
X122127000Y-111480814D01*
X122356891Y-111601481D01*
X122631252Y-111504157D01*
X122881355Y-111355178D01*
X123097588Y-111160269D01*
X123271641Y-110926920D01*
X123396825Y-110664099D01*
X123441476Y-110516890D01*
X130558524Y-110516890D01*
X130603175Y-110664099D01*
X130728359Y-110926920D01*
X130902412Y-111160269D01*
X131118645Y-111355178D01*
X131368748Y-111504157D01*
X131643109Y-111601481D01*
X131873000Y-111480814D01*
X131873000Y-110287000D01*
X132127000Y-110287000D01*
X132127000Y-111480814D01*
X132356891Y-111601481D01*
X132631252Y-111504157D01*
X132881355Y-111355178D01*
X133097588Y-111160269D01*
X133271641Y-110926920D01*
X133396825Y-110664099D01*
X133441476Y-110516890D01*
X140558524Y-110516890D01*
X140603175Y-110664099D01*
X140728359Y-110926920D01*
X140902412Y-111160269D01*
X141118645Y-111355178D01*
X141368748Y-111504157D01*
X141643109Y-111601481D01*
X141873000Y-111480814D01*
X141873000Y-110287000D01*
X142127000Y-110287000D01*
X142127000Y-111480814D01*
X142356891Y-111601481D01*
X142631252Y-111504157D01*
X142881355Y-111355178D01*
X143097588Y-111160269D01*
X143271641Y-110926920D01*
X143396825Y-110664099D01*
X143441476Y-110516890D01*
X143320155Y-110287000D01*
X142127000Y-110287000D01*
X141873000Y-110287000D01*
X140679845Y-110287000D01*
X140558524Y-110516890D01*
X133441476Y-110516890D01*
X133320155Y-110287000D01*
X132127000Y-110287000D01*
X131873000Y-110287000D01*
X130679845Y-110287000D01*
X130558524Y-110516890D01*
X123441476Y-110516890D01*
X123320155Y-110287000D01*
X122127000Y-110287000D01*
X121873000Y-110287000D01*
X120679845Y-110287000D01*
X120558524Y-110516890D01*
X113441476Y-110516890D01*
X113320155Y-110287000D01*
X112127000Y-110287000D01*
X111873000Y-110287000D01*
X110679845Y-110287000D01*
X110558524Y-110516890D01*
X103441476Y-110516890D01*
X103320155Y-110287000D01*
X102127000Y-110287000D01*
X101873000Y-110287000D01*
X100679845Y-110287000D01*
X100558524Y-110516890D01*
X91450450Y-110516890D01*
X91248446Y-110314886D01*
X90734979Y-109971799D01*
X90164446Y-109735476D01*
X89558771Y-109615000D01*
X88941229Y-109615000D01*
X88335554Y-109735476D01*
X87765021Y-109971799D01*
X87251554Y-110314886D01*
X86814886Y-110751554D01*
X86660000Y-110983358D01*
X86660000Y-108888387D01*
X92791218Y-108888387D01*
X92845093Y-109117468D01*
X93075684Y-109223763D01*
X93322581Y-109283028D01*
X93576296Y-109292988D01*
X93827079Y-109253259D01*
X94065293Y-109165368D01*
X94154907Y-109117468D01*
X94208782Y-108888387D01*
X93500000Y-108179605D01*
X92791218Y-108888387D01*
X86660000Y-108888387D01*
X86660000Y-108076296D01*
X92207012Y-108076296D01*
X92246741Y-108327079D01*
X92334632Y-108565293D01*
X92382532Y-108654907D01*
X92611613Y-108708782D01*
X93320395Y-108000000D01*
X93679605Y-108000000D01*
X94388387Y-108708782D01*
X94617468Y-108654907D01*
X94723763Y-108424316D01*
X94783028Y-108177419D01*
X94792988Y-107923704D01*
X94753259Y-107672921D01*
X94665368Y-107434707D01*
X94617468Y-107345093D01*
X94388387Y-107291218D01*
X93679605Y-108000000D01*
X93320395Y-108000000D01*
X92611613Y-107291218D01*
X92382532Y-107345093D01*
X92276237Y-107575684D01*
X92216972Y-107822581D01*
X92207012Y-108076296D01*
X86660000Y-108076296D01*
X86660000Y-101506198D01*
X90484314Y-101506198D01*
X90488000Y-101543622D01*
X90488001Y-103712567D01*
X90484314Y-103750000D01*
X90499027Y-103899378D01*
X90542599Y-104043015D01*
X90613355Y-104175392D01*
X90684721Y-104262351D01*
X90708579Y-104291422D01*
X90737649Y-104315279D01*
X92225005Y-105802635D01*
X92211000Y-105873045D01*
X92211000Y-106126955D01*
X92260535Y-106375987D01*
X92357703Y-106610570D01*
X92498768Y-106821690D01*
X92678310Y-107001232D01*
X92798319Y-107081419D01*
X92791218Y-107111613D01*
X93500000Y-107820395D01*
X94208782Y-107111613D01*
X94201681Y-107081419D01*
X94321690Y-107001232D01*
X94501232Y-106821690D01*
X94642297Y-106610570D01*
X94739465Y-106375987D01*
X94789000Y-106126955D01*
X94789000Y-105873045D01*
X94739465Y-105624013D01*
X94642297Y-105389430D01*
X94501232Y-105178310D01*
X94322922Y-105000000D01*
X94501232Y-104821690D01*
X94642297Y-104610570D01*
X94739465Y-104375987D01*
X94789000Y-104126955D01*
X94789000Y-103873045D01*
X94739465Y-103624013D01*
X94642297Y-103389430D01*
X94506209Y-103185758D01*
X94508494Y-103184537D01*
X94605185Y-103105185D01*
X94684537Y-103008494D01*
X94743502Y-102898180D01*
X94779812Y-102778482D01*
X94781435Y-102762000D01*
X98604370Y-102762000D01*
X100558321Y-104715952D01*
X100515000Y-104933740D01*
X100515000Y-105226260D01*
X100572068Y-105513158D01*
X100684010Y-105783411D01*
X100846525Y-106026632D01*
X101053368Y-106233475D01*
X101227760Y-106350000D01*
X101053368Y-106466525D01*
X100846525Y-106673368D01*
X100684010Y-106916589D01*
X100572068Y-107186842D01*
X100515000Y-107473740D01*
X100515000Y-107766260D01*
X100572068Y-108053158D01*
X100684010Y-108323411D01*
X100846525Y-108566632D01*
X101053368Y-108773475D01*
X101235534Y-108895195D01*
X101118645Y-108964822D01*
X100902412Y-109159731D01*
X100728359Y-109393080D01*
X100603175Y-109655901D01*
X100558524Y-109803110D01*
X100679845Y-110033000D01*
X101873000Y-110033000D01*
X101873000Y-110013000D01*
X102127000Y-110013000D01*
X102127000Y-110033000D01*
X103320155Y-110033000D01*
X103441476Y-109803110D01*
X103396825Y-109655901D01*
X103271641Y-109393080D01*
X103097588Y-109159731D01*
X102881355Y-108964822D01*
X102764466Y-108895195D01*
X102946632Y-108773475D01*
X103153475Y-108566632D01*
X103315990Y-108323411D01*
X103427932Y-108053158D01*
X103485000Y-107766260D01*
X103485000Y-107473740D01*
X103427932Y-107186842D01*
X103315990Y-106916589D01*
X103153475Y-106673368D01*
X102946632Y-106466525D01*
X102772240Y-106350000D01*
X102946632Y-106233475D01*
X103153475Y-106026632D01*
X103276842Y-105842000D01*
X110723158Y-105842000D01*
X110846525Y-106026632D01*
X111053368Y-106233475D01*
X111227760Y-106350000D01*
X111053368Y-106466525D01*
X110846525Y-106673368D01*
X110684010Y-106916589D01*
X110572068Y-107186842D01*
X110515000Y-107473740D01*
X110515000Y-107766260D01*
X110572068Y-108053158D01*
X110684010Y-108323411D01*
X110846525Y-108566632D01*
X111053368Y-108773475D01*
X111235534Y-108895195D01*
X111118645Y-108964822D01*
X110902412Y-109159731D01*
X110728359Y-109393080D01*
X110603175Y-109655901D01*
X110558524Y-109803110D01*
X110679845Y-110033000D01*
X111873000Y-110033000D01*
X111873000Y-110013000D01*
X112127000Y-110013000D01*
X112127000Y-110033000D01*
X113320155Y-110033000D01*
X113441476Y-109803110D01*
X113396825Y-109655901D01*
X113271641Y-109393080D01*
X113097588Y-109159731D01*
X112881355Y-108964822D01*
X112764466Y-108895195D01*
X112946632Y-108773475D01*
X113153475Y-108566632D01*
X113315990Y-108323411D01*
X113427932Y-108053158D01*
X113485000Y-107766260D01*
X113485000Y-107473740D01*
X113427932Y-107186842D01*
X113315990Y-106916589D01*
X113153475Y-106673368D01*
X112946632Y-106466525D01*
X112772240Y-106350000D01*
X112946632Y-106233475D01*
X113153475Y-106026632D01*
X113276842Y-105842000D01*
X120723158Y-105842000D01*
X120846525Y-106026632D01*
X121053368Y-106233475D01*
X121227760Y-106350000D01*
X121053368Y-106466525D01*
X120846525Y-106673368D01*
X120684010Y-106916589D01*
X120572068Y-107186842D01*
X120515000Y-107473740D01*
X120515000Y-107766260D01*
X120572068Y-108053158D01*
X120684010Y-108323411D01*
X120846525Y-108566632D01*
X121053368Y-108773475D01*
X121235534Y-108895195D01*
X121118645Y-108964822D01*
X120902412Y-109159731D01*
X120728359Y-109393080D01*
X120603175Y-109655901D01*
X120558524Y-109803110D01*
X120679845Y-110033000D01*
X121873000Y-110033000D01*
X121873000Y-110013000D01*
X122127000Y-110013000D01*
X122127000Y-110033000D01*
X123320155Y-110033000D01*
X123441476Y-109803110D01*
X123396825Y-109655901D01*
X123271641Y-109393080D01*
X123097588Y-109159731D01*
X122881355Y-108964822D01*
X122764466Y-108895195D01*
X122946632Y-108773475D01*
X123153475Y-108566632D01*
X123315990Y-108323411D01*
X123427932Y-108053158D01*
X123485000Y-107766260D01*
X123485000Y-107473740D01*
X123427932Y-107186842D01*
X123315990Y-106916589D01*
X123153475Y-106673368D01*
X122946632Y-106466525D01*
X122772240Y-106350000D01*
X122946632Y-106233475D01*
X123153475Y-106026632D01*
X123276842Y-105842000D01*
X130723158Y-105842000D01*
X130846525Y-106026632D01*
X131053368Y-106233475D01*
X131227760Y-106350000D01*
X131053368Y-106466525D01*
X130846525Y-106673368D01*
X130684010Y-106916589D01*
X130572068Y-107186842D01*
X130515000Y-107473740D01*
X130515000Y-107766260D01*
X130572068Y-108053158D01*
X130684010Y-108323411D01*
X130846525Y-108566632D01*
X131053368Y-108773475D01*
X131235534Y-108895195D01*
X131118645Y-108964822D01*
X130902412Y-109159731D01*
X130728359Y-109393080D01*
X130603175Y-109655901D01*
X130558524Y-109803110D01*
X130679845Y-110033000D01*
X131873000Y-110033000D01*
X131873000Y-110013000D01*
X132127000Y-110013000D01*
X132127000Y-110033000D01*
X133320155Y-110033000D01*
X133441476Y-109803110D01*
X133396825Y-109655901D01*
X133271641Y-109393080D01*
X133097588Y-109159731D01*
X132881355Y-108964822D01*
X132764466Y-108895195D01*
X132946632Y-108773475D01*
X133153475Y-108566632D01*
X133315990Y-108323411D01*
X133427932Y-108053158D01*
X133485000Y-107766260D01*
X133485000Y-107473740D01*
X133427932Y-107186842D01*
X133315990Y-106916589D01*
X133153475Y-106673368D01*
X132946632Y-106466525D01*
X132772240Y-106350000D01*
X132946632Y-106233475D01*
X133153475Y-106026632D01*
X133276842Y-105842000D01*
X140723158Y-105842000D01*
X140846525Y-106026632D01*
X141053368Y-106233475D01*
X141227760Y-106350000D01*
X141053368Y-106466525D01*
X140846525Y-106673368D01*
X140684010Y-106916589D01*
X140572068Y-107186842D01*
X140515000Y-107473740D01*
X140515000Y-107766260D01*
X140572068Y-108053158D01*
X140684010Y-108323411D01*
X140846525Y-108566632D01*
X141053368Y-108773475D01*
X141235534Y-108895195D01*
X141118645Y-108964822D01*
X140902412Y-109159731D01*
X140728359Y-109393080D01*
X140603175Y-109655901D01*
X140558524Y-109803110D01*
X140679845Y-110033000D01*
X141873000Y-110033000D01*
X141873000Y-110013000D01*
X142127000Y-110013000D01*
X142127000Y-110033000D01*
X143320155Y-110033000D01*
X143441476Y-109803110D01*
X143396825Y-109655901D01*
X143271641Y-109393080D01*
X143097588Y-109159731D01*
X142881355Y-108964822D01*
X142764466Y-108895195D01*
X142774654Y-108888387D01*
X150041218Y-108888387D01*
X150095093Y-109117468D01*
X150325684Y-109223763D01*
X150572581Y-109283028D01*
X150826296Y-109292988D01*
X151077079Y-109253259D01*
X151315293Y-109165368D01*
X151404907Y-109117468D01*
X151458782Y-108888387D01*
X150750000Y-108179605D01*
X150041218Y-108888387D01*
X142774654Y-108888387D01*
X142946632Y-108773475D01*
X143153475Y-108566632D01*
X143315990Y-108323411D01*
X143418347Y-108076296D01*
X149457012Y-108076296D01*
X149496741Y-108327079D01*
X149584632Y-108565293D01*
X149632532Y-108654907D01*
X149861613Y-108708782D01*
X150570395Y-108000000D01*
X150929605Y-108000000D01*
X151638387Y-108708782D01*
X151867468Y-108654907D01*
X151973763Y-108424316D01*
X152033028Y-108177419D01*
X152042988Y-107923704D01*
X152003259Y-107672921D01*
X151915368Y-107434707D01*
X151867468Y-107345093D01*
X151638387Y-107291218D01*
X150929605Y-108000000D01*
X150570395Y-108000000D01*
X149861613Y-107291218D01*
X149632532Y-107345093D01*
X149526237Y-107575684D01*
X149466972Y-107822581D01*
X149457012Y-108076296D01*
X143418347Y-108076296D01*
X143427932Y-108053158D01*
X143485000Y-107766260D01*
X143485000Y-107473740D01*
X143427932Y-107186842D01*
X143315990Y-106916589D01*
X143153475Y-106673368D01*
X142946632Y-106466525D01*
X142772240Y-106350000D01*
X142946632Y-106233475D01*
X143153475Y-106026632D01*
X143276842Y-105842000D01*
X147632577Y-105842000D01*
X147670000Y-105845686D01*
X147707423Y-105842000D01*
X147707426Y-105842000D01*
X147819378Y-105830974D01*
X147963015Y-105787402D01*
X148095392Y-105716645D01*
X148211422Y-105621422D01*
X148235284Y-105592346D01*
X149500764Y-104326866D01*
X149510535Y-104375987D01*
X149607703Y-104610570D01*
X149748768Y-104821690D01*
X149927078Y-105000000D01*
X149748768Y-105178310D01*
X149607703Y-105389430D01*
X149510535Y-105624013D01*
X149461000Y-105873045D01*
X149461000Y-106126955D01*
X149510535Y-106375987D01*
X149607703Y-106610570D01*
X149748768Y-106821690D01*
X149928310Y-107001232D01*
X150048319Y-107081419D01*
X150041218Y-107111613D01*
X150750000Y-107820395D01*
X151458782Y-107111613D01*
X151451681Y-107081419D01*
X151571690Y-107001232D01*
X151751232Y-106821690D01*
X151892297Y-106610570D01*
X151989465Y-106375987D01*
X152039000Y-106126955D01*
X152039000Y-105873045D01*
X152024995Y-105802636D01*
X153262352Y-104565279D01*
X153291422Y-104541422D01*
X153386645Y-104425392D01*
X153457402Y-104293015D01*
X153500974Y-104149378D01*
X153512000Y-104037426D01*
X153512000Y-104037424D01*
X153515686Y-104000001D01*
X153512000Y-103962578D01*
X153512000Y-101293620D01*
X153515686Y-101256197D01*
X153512000Y-101218772D01*
X153500974Y-101106820D01*
X153457402Y-100963183D01*
X153386645Y-100830806D01*
X153291422Y-100714776D01*
X153262353Y-100690920D01*
X152059086Y-99487654D01*
X152035224Y-99458578D01*
X151919194Y-99363355D01*
X151786817Y-99292598D01*
X151643180Y-99249026D01*
X151531228Y-99238000D01*
X151531225Y-99238000D01*
X151493802Y-99234314D01*
X151456379Y-99238000D01*
X143488072Y-99238000D01*
X143488072Y-99150000D01*
X143475812Y-99025518D01*
X143439502Y-98905820D01*
X143380537Y-98795506D01*
X143301185Y-98698815D01*
X143204494Y-98619463D01*
X143094180Y-98560498D01*
X142974482Y-98524188D01*
X142850000Y-98511928D01*
X141150000Y-98511928D01*
X141025518Y-98524188D01*
X140905820Y-98560498D01*
X140795506Y-98619463D01*
X140698815Y-98698815D01*
X140619463Y-98795506D01*
X140560498Y-98905820D01*
X140524188Y-99025518D01*
X140511928Y-99150000D01*
X140511928Y-99238000D01*
X133488072Y-99238000D01*
X133488072Y-99150000D01*
X133475812Y-99025518D01*
X133439502Y-98905820D01*
X133380537Y-98795506D01*
X133301185Y-98698815D01*
X133204494Y-98619463D01*
X133094180Y-98560498D01*
X132974482Y-98524188D01*
X132850000Y-98511928D01*
X131150000Y-98511928D01*
X131025518Y-98524188D01*
X130905820Y-98560498D01*
X130795506Y-98619463D01*
X130698815Y-98698815D01*
X130619463Y-98795506D01*
X130560498Y-98905820D01*
X130524188Y-99025518D01*
X130511928Y-99150000D01*
X130511928Y-99238000D01*
X123488072Y-99238000D01*
X123488072Y-99150000D01*
X123475812Y-99025518D01*
X123439502Y-98905820D01*
X123380537Y-98795506D01*
X123301185Y-98698815D01*
X123204494Y-98619463D01*
X123094180Y-98560498D01*
X122974482Y-98524188D01*
X122850000Y-98511928D01*
X121150000Y-98511928D01*
X121025518Y-98524188D01*
X120905820Y-98560498D01*
X120795506Y-98619463D01*
X120698815Y-98698815D01*
X120619463Y-98795506D01*
X120560498Y-98905820D01*
X120524188Y-99025518D01*
X120511928Y-99150000D01*
X120511928Y-99238000D01*
X113488072Y-99238000D01*
X113488072Y-99150000D01*
X113475812Y-99025518D01*
X113439502Y-98905820D01*
X113380537Y-98795506D01*
X113301185Y-98698815D01*
X113204494Y-98619463D01*
X113094180Y-98560498D01*
X112974482Y-98524188D01*
X112850000Y-98511928D01*
X111150000Y-98511928D01*
X111025518Y-98524188D01*
X110905820Y-98560498D01*
X110795506Y-98619463D01*
X110698815Y-98698815D01*
X110619463Y-98795506D01*
X110560498Y-98905820D01*
X110524188Y-99025518D01*
X110511928Y-99150000D01*
X110511928Y-99238000D01*
X103488072Y-99238000D01*
X103488072Y-99150000D01*
X103475812Y-99025518D01*
X103439502Y-98905820D01*
X103380537Y-98795506D01*
X103301185Y-98698815D01*
X103204494Y-98619463D01*
X103094180Y-98560498D01*
X102974482Y-98524188D01*
X102850000Y-98511928D01*
X101150000Y-98511928D01*
X101025518Y-98524188D01*
X100905820Y-98560498D01*
X100795506Y-98619463D01*
X100698815Y-98698815D01*
X100619463Y-98795506D01*
X100560498Y-98905820D01*
X100524188Y-99025518D01*
X100511928Y-99150000D01*
X100511928Y-99238000D01*
X92793621Y-99238000D01*
X92756198Y-99234314D01*
X92718775Y-99238000D01*
X92718772Y-99238000D01*
X92606820Y-99249026D01*
X92463183Y-99292598D01*
X92401562Y-99325535D01*
X92330805Y-99363355D01*
X92288417Y-99398143D01*
X92214776Y-99458578D01*
X92190914Y-99487654D01*
X90737654Y-100940914D01*
X90708578Y-100964776D01*
X90652983Y-101032520D01*
X90613355Y-101080806D01*
X90575535Y-101151563D01*
X90542598Y-101213184D01*
X90499026Y-101356821D01*
X90491354Y-101434721D01*
X90484314Y-101506198D01*
X86660000Y-101506198D01*
X86660000Y-99016642D01*
X86814886Y-99248446D01*
X87251554Y-99685114D01*
X87765021Y-100028201D01*
X88335554Y-100264524D01*
X88941229Y-100385000D01*
X89558771Y-100385000D01*
X90164446Y-100264524D01*
X90734979Y-100028201D01*
X91248446Y-99685114D01*
X91685114Y-99248446D01*
X92028201Y-98734979D01*
X92264524Y-98164446D01*
X92385000Y-97558771D01*
X92385000Y-96941229D01*
X92264524Y-96335554D01*
X92028201Y-95765021D01*
X91685114Y-95251554D01*
X91248446Y-94814886D01*
X91016642Y-94660000D01*
X152733358Y-94660000D01*
X152501554Y-94814886D01*
G37*
X152501554Y-94814886D02*
X152064886Y-95251554D01*
X151721799Y-95765021D01*
X151485476Y-96335554D01*
X151365000Y-96941229D01*
X151365000Y-97558771D01*
X151485476Y-98164446D01*
X151721799Y-98734979D01*
X152064886Y-99248446D01*
X152501554Y-99685114D01*
X153015021Y-100028201D01*
X153585554Y-100264524D01*
X154191229Y-100385000D01*
X154808771Y-100385000D01*
X155414446Y-100264524D01*
X155984979Y-100028201D01*
X156498446Y-99685114D01*
X156935114Y-99248446D01*
X157278201Y-98734979D01*
X157340000Y-98585783D01*
X157340001Y-110983359D01*
X157185114Y-110751554D01*
X156748446Y-110314886D01*
X156234979Y-109971799D01*
X155664446Y-109735476D01*
X155058771Y-109615000D01*
X154441229Y-109615000D01*
X153835554Y-109735476D01*
X153265021Y-109971799D01*
X152751554Y-110314886D01*
X152314886Y-110751554D01*
X151971799Y-111265021D01*
X151735476Y-111835554D01*
X151615000Y-112441229D01*
X151615000Y-113058771D01*
X151735476Y-113664446D01*
X151971799Y-114234979D01*
X152314886Y-114748446D01*
X152751554Y-115185114D01*
X152983358Y-115340000D01*
X91016642Y-115340000D01*
X91248446Y-115185114D01*
X91685114Y-114748446D01*
X92028201Y-114234979D01*
X92264524Y-113664446D01*
X92385000Y-113058771D01*
X92385000Y-112441229D01*
X92264524Y-111835554D01*
X92028201Y-111265021D01*
X91685114Y-110751554D01*
X91450450Y-110516890D01*
X100558524Y-110516890D01*
X100603175Y-110664099D01*
X100728359Y-110926920D01*
X100902412Y-111160269D01*
X101118645Y-111355178D01*
X101368748Y-111504157D01*
X101643109Y-111601481D01*
X101873000Y-111480814D01*
X101873000Y-110287000D01*
X102127000Y-110287000D01*
X102127000Y-111480814D01*
X102356891Y-111601481D01*
X102631252Y-111504157D01*
X102881355Y-111355178D01*
X103097588Y-111160269D01*
X103271641Y-110926920D01*
X103396825Y-110664099D01*
X103441476Y-110516890D01*
X110558524Y-110516890D01*
X110603175Y-110664099D01*
X110728359Y-110926920D01*
X110902412Y-111160269D01*
X111118645Y-111355178D01*
X111368748Y-111504157D01*
X111643109Y-111601481D01*
X111873000Y-111480814D01*
X111873000Y-110287000D01*
X112127000Y-110287000D01*
X112127000Y-111480814D01*
X112356891Y-111601481D01*
X112631252Y-111504157D01*
X112881355Y-111355178D01*
X113097588Y-111160269D01*
X113271641Y-110926920D01*
X113396825Y-110664099D01*
X113441476Y-110516890D01*
X120558524Y-110516890D01*
X120603175Y-110664099D01*
X120728359Y-110926920D01*
X120902412Y-111160269D01*
X121118645Y-111355178D01*
X121368748Y-111504157D01*
X121643109Y-111601481D01*
X121873000Y-111480814D01*
X121873000Y-110287000D01*
X122127000Y-110287000D01*
X122127000Y-111480814D01*
X122356891Y-111601481D01*
X122631252Y-111504157D01*
X122881355Y-111355178D01*
X123097588Y-111160269D01*
X123271641Y-110926920D01*
X123396825Y-110664099D01*
X123441476Y-110516890D01*
X130558524Y-110516890D01*
X130603175Y-110664099D01*
X130728359Y-110926920D01*
X130902412Y-111160269D01*
X131118645Y-111355178D01*
X131368748Y-111504157D01*
X131643109Y-111601481D01*
X131873000Y-111480814D01*
X131873000Y-110287000D01*
X132127000Y-110287000D01*
X132127000Y-111480814D01*
X132356891Y-111601481D01*
X132631252Y-111504157D01*
X132881355Y-111355178D01*
X133097588Y-111160269D01*
X133271641Y-110926920D01*
X133396825Y-110664099D01*
X133441476Y-110516890D01*
X140558524Y-110516890D01*
X140603175Y-110664099D01*
X140728359Y-110926920D01*
X140902412Y-111160269D01*
X141118645Y-111355178D01*
X141368748Y-111504157D01*
X141643109Y-111601481D01*
X141873000Y-111480814D01*
X141873000Y-110287000D01*
X142127000Y-110287000D01*
X142127000Y-111480814D01*
X142356891Y-111601481D01*
X142631252Y-111504157D01*
X142881355Y-111355178D01*
X143097588Y-111160269D01*
X143271641Y-110926920D01*
X143396825Y-110664099D01*
X143441476Y-110516890D01*
X143320155Y-110287000D01*
X142127000Y-110287000D01*
X141873000Y-110287000D01*
X140679845Y-110287000D01*
X140558524Y-110516890D01*
X133441476Y-110516890D01*
X133320155Y-110287000D01*
X132127000Y-110287000D01*
X131873000Y-110287000D01*
X130679845Y-110287000D01*
X130558524Y-110516890D01*
X123441476Y-110516890D01*
X123320155Y-110287000D01*
X122127000Y-110287000D01*
X121873000Y-110287000D01*
X120679845Y-110287000D01*
X120558524Y-110516890D01*
X113441476Y-110516890D01*
X113320155Y-110287000D01*
X112127000Y-110287000D01*
X111873000Y-110287000D01*
X110679845Y-110287000D01*
X110558524Y-110516890D01*
X103441476Y-110516890D01*
X103320155Y-110287000D01*
X102127000Y-110287000D01*
X101873000Y-110287000D01*
X100679845Y-110287000D01*
X100558524Y-110516890D01*
X91450450Y-110516890D01*
X91248446Y-110314886D01*
X90734979Y-109971799D01*
X90164446Y-109735476D01*
X89558771Y-109615000D01*
X88941229Y-109615000D01*
X88335554Y-109735476D01*
X87765021Y-109971799D01*
X87251554Y-110314886D01*
X86814886Y-110751554D01*
X86660000Y-110983358D01*
X86660000Y-108888387D01*
X92791218Y-108888387D01*
X92845093Y-109117468D01*
X93075684Y-109223763D01*
X93322581Y-109283028D01*
X93576296Y-109292988D01*
X93827079Y-109253259D01*
X94065293Y-109165368D01*
X94154907Y-109117468D01*
X94208782Y-108888387D01*
X93500000Y-108179605D01*
X92791218Y-108888387D01*
X86660000Y-108888387D01*
X86660000Y-108076296D01*
X92207012Y-108076296D01*
X92246741Y-108327079D01*
X92334632Y-108565293D01*
X92382532Y-108654907D01*
X92611613Y-108708782D01*
X93320395Y-108000000D01*
X93679605Y-108000000D01*
X94388387Y-108708782D01*
X94617468Y-108654907D01*
X94723763Y-108424316D01*
X94783028Y-108177419D01*
X94792988Y-107923704D01*
X94753259Y-107672921D01*
X94665368Y-107434707D01*
X94617468Y-107345093D01*
X94388387Y-107291218D01*
X93679605Y-108000000D01*
X93320395Y-108000000D01*
X92611613Y-107291218D01*
X92382532Y-107345093D01*
X92276237Y-107575684D01*
X92216972Y-107822581D01*
X92207012Y-108076296D01*
X86660000Y-108076296D01*
X86660000Y-101506198D01*
X90484314Y-101506198D01*
X90488000Y-101543622D01*
X90488001Y-103712567D01*
X90484314Y-103750000D01*
X90499027Y-103899378D01*
X90542599Y-104043015D01*
X90613355Y-104175392D01*
X90684721Y-104262351D01*
X90708579Y-104291422D01*
X90737649Y-104315279D01*
X92225005Y-105802635D01*
X92211000Y-105873045D01*
X92211000Y-106126955D01*
X92260535Y-106375987D01*
X92357703Y-106610570D01*
X92498768Y-106821690D01*
X92678310Y-107001232D01*
X92798319Y-107081419D01*
X92791218Y-107111613D01*
X93500000Y-107820395D01*
X94208782Y-107111613D01*
X94201681Y-107081419D01*
X94321690Y-107001232D01*
X94501232Y-106821690D01*
X94642297Y-106610570D01*
X94739465Y-106375987D01*
X94789000Y-106126955D01*
X94789000Y-105873045D01*
X94739465Y-105624013D01*
X94642297Y-105389430D01*
X94501232Y-105178310D01*
X94322922Y-105000000D01*
X94501232Y-104821690D01*
X94642297Y-104610570D01*
X94739465Y-104375987D01*
X94789000Y-104126955D01*
X94789000Y-103873045D01*
X94739465Y-103624013D01*
X94642297Y-103389430D01*
X94506209Y-103185758D01*
X94508494Y-103184537D01*
X94605185Y-103105185D01*
X94684537Y-103008494D01*
X94743502Y-102898180D01*
X94779812Y-102778482D01*
X94781435Y-102762000D01*
X98604370Y-102762000D01*
X100558321Y-104715952D01*
X100515000Y-104933740D01*
X100515000Y-105226260D01*
X100572068Y-105513158D01*
X100684010Y-105783411D01*
X100846525Y-106026632D01*
X101053368Y-106233475D01*
X101227760Y-106350000D01*
X101053368Y-106466525D01*
X100846525Y-106673368D01*
X100684010Y-106916589D01*
X100572068Y-107186842D01*
X100515000Y-107473740D01*
X100515000Y-107766260D01*
X100572068Y-108053158D01*
X100684010Y-108323411D01*
X100846525Y-108566632D01*
X101053368Y-108773475D01*
X101235534Y-108895195D01*
X101118645Y-108964822D01*
X100902412Y-109159731D01*
X100728359Y-109393080D01*
X100603175Y-109655901D01*
X100558524Y-109803110D01*
X100679845Y-110033000D01*
X101873000Y-110033000D01*
X101873000Y-110013000D01*
X102127000Y-110013000D01*
X102127000Y-110033000D01*
X103320155Y-110033000D01*
X103441476Y-109803110D01*
X103396825Y-109655901D01*
X103271641Y-109393080D01*
X103097588Y-109159731D01*
X102881355Y-108964822D01*
X102764466Y-108895195D01*
X102946632Y-108773475D01*
X103153475Y-108566632D01*
X103315990Y-108323411D01*
X103427932Y-108053158D01*
X103485000Y-107766260D01*
X103485000Y-107473740D01*
X103427932Y-107186842D01*
X103315990Y-106916589D01*
X103153475Y-106673368D01*
X102946632Y-106466525D01*
X102772240Y-106350000D01*
X102946632Y-106233475D01*
X103153475Y-106026632D01*
X103276842Y-105842000D01*
X110723158Y-105842000D01*
X110846525Y-106026632D01*
X111053368Y-106233475D01*
X111227760Y-106350000D01*
X111053368Y-106466525D01*
X110846525Y-106673368D01*
X110684010Y-106916589D01*
X110572068Y-107186842D01*
X110515000Y-107473740D01*
X110515000Y-107766260D01*
X110572068Y-108053158D01*
X110684010Y-108323411D01*
X110846525Y-108566632D01*
X111053368Y-108773475D01*
X111235534Y-108895195D01*
X111118645Y-108964822D01*
X110902412Y-109159731D01*
X110728359Y-109393080D01*
X110603175Y-109655901D01*
X110558524Y-109803110D01*
X110679845Y-110033000D01*
X111873000Y-110033000D01*
X111873000Y-110013000D01*
X112127000Y-110013000D01*
X112127000Y-110033000D01*
X113320155Y-110033000D01*
X113441476Y-109803110D01*
X113396825Y-109655901D01*
X113271641Y-109393080D01*
X113097588Y-109159731D01*
X112881355Y-108964822D01*
X112764466Y-108895195D01*
X112946632Y-108773475D01*
X113153475Y-108566632D01*
X113315990Y-108323411D01*
X113427932Y-108053158D01*
X113485000Y-107766260D01*
X113485000Y-107473740D01*
X113427932Y-107186842D01*
X113315990Y-106916589D01*
X113153475Y-106673368D01*
X112946632Y-106466525D01*
X112772240Y-106350000D01*
X112946632Y-106233475D01*
X113153475Y-106026632D01*
X113276842Y-105842000D01*
X120723158Y-105842000D01*
X120846525Y-106026632D01*
X121053368Y-106233475D01*
X121227760Y-106350000D01*
X121053368Y-106466525D01*
X120846525Y-106673368D01*
X120684010Y-106916589D01*
X120572068Y-107186842D01*
X120515000Y-107473740D01*
X120515000Y-107766260D01*
X120572068Y-108053158D01*
X120684010Y-108323411D01*
X120846525Y-108566632D01*
X121053368Y-108773475D01*
X121235534Y-108895195D01*
X121118645Y-108964822D01*
X120902412Y-109159731D01*
X120728359Y-109393080D01*
X120603175Y-109655901D01*
X120558524Y-109803110D01*
X120679845Y-110033000D01*
X121873000Y-110033000D01*
X121873000Y-110013000D01*
X122127000Y-110013000D01*
X122127000Y-110033000D01*
X123320155Y-110033000D01*
X123441476Y-109803110D01*
X123396825Y-109655901D01*
X123271641Y-109393080D01*
X123097588Y-109159731D01*
X122881355Y-108964822D01*
X122764466Y-108895195D01*
X122946632Y-108773475D01*
X123153475Y-108566632D01*
X123315990Y-108323411D01*
X123427932Y-108053158D01*
X123485000Y-107766260D01*
X123485000Y-107473740D01*
X123427932Y-107186842D01*
X123315990Y-106916589D01*
X123153475Y-106673368D01*
X122946632Y-106466525D01*
X122772240Y-106350000D01*
X122946632Y-106233475D01*
X123153475Y-106026632D01*
X123276842Y-105842000D01*
X130723158Y-105842000D01*
X130846525Y-106026632D01*
X131053368Y-106233475D01*
X131227760Y-106350000D01*
X131053368Y-106466525D01*
X130846525Y-106673368D01*
X130684010Y-106916589D01*
X130572068Y-107186842D01*
X130515000Y-107473740D01*
X130515000Y-107766260D01*
X130572068Y-108053158D01*
X130684010Y-108323411D01*
X130846525Y-108566632D01*
X131053368Y-108773475D01*
X131235534Y-108895195D01*
X131118645Y-108964822D01*
X130902412Y-109159731D01*
X130728359Y-109393080D01*
X130603175Y-109655901D01*
X130558524Y-109803110D01*
X130679845Y-110033000D01*
X131873000Y-110033000D01*
X131873000Y-110013000D01*
X132127000Y-110013000D01*
X132127000Y-110033000D01*
X133320155Y-110033000D01*
X133441476Y-109803110D01*
X133396825Y-109655901D01*
X133271641Y-109393080D01*
X133097588Y-109159731D01*
X132881355Y-108964822D01*
X132764466Y-108895195D01*
X132946632Y-108773475D01*
X133153475Y-108566632D01*
X133315990Y-108323411D01*
X133427932Y-108053158D01*
X133485000Y-107766260D01*
X133485000Y-107473740D01*
X133427932Y-107186842D01*
X133315990Y-106916589D01*
X133153475Y-106673368D01*
X132946632Y-106466525D01*
X132772240Y-106350000D01*
X132946632Y-106233475D01*
X133153475Y-106026632D01*
X133276842Y-105842000D01*
X140723158Y-105842000D01*
X140846525Y-106026632D01*
X141053368Y-106233475D01*
X141227760Y-106350000D01*
X141053368Y-106466525D01*
X140846525Y-106673368D01*
X140684010Y-106916589D01*
X140572068Y-107186842D01*
X140515000Y-107473740D01*
X140515000Y-107766260D01*
X140572068Y-108053158D01*
X140684010Y-108323411D01*
X140846525Y-108566632D01*
X141053368Y-108773475D01*
X141235534Y-108895195D01*
X141118645Y-108964822D01*
X140902412Y-109159731D01*
X140728359Y-109393080D01*
X140603175Y-109655901D01*
X140558524Y-109803110D01*
X140679845Y-110033000D01*
X141873000Y-110033000D01*
X141873000Y-110013000D01*
X142127000Y-110013000D01*
X142127000Y-110033000D01*
X143320155Y-110033000D01*
X143441476Y-109803110D01*
X143396825Y-109655901D01*
X143271641Y-109393080D01*
X143097588Y-109159731D01*
X142881355Y-108964822D01*
X142764466Y-108895195D01*
X142774654Y-108888387D01*
X150041218Y-108888387D01*
X150095093Y-109117468D01*
X150325684Y-109223763D01*
X150572581Y-109283028D01*
X150826296Y-109292988D01*
X151077079Y-109253259D01*
X151315293Y-109165368D01*
X151404907Y-109117468D01*
X151458782Y-108888387D01*
X150750000Y-108179605D01*
X150041218Y-108888387D01*
X142774654Y-108888387D01*
X142946632Y-108773475D01*
X143153475Y-108566632D01*
X143315990Y-108323411D01*
X143418347Y-108076296D01*
X149457012Y-108076296D01*
X149496741Y-108327079D01*
X149584632Y-108565293D01*
X149632532Y-108654907D01*
X149861613Y-108708782D01*
X150570395Y-108000000D01*
X150929605Y-108000000D01*
X151638387Y-108708782D01*
X151867468Y-108654907D01*
X151973763Y-108424316D01*
X152033028Y-108177419D01*
X152042988Y-107923704D01*
X152003259Y-107672921D01*
X151915368Y-107434707D01*
X151867468Y-107345093D01*
X151638387Y-107291218D01*
X150929605Y-108000000D01*
X150570395Y-108000000D01*
X149861613Y-107291218D01*
X149632532Y-107345093D01*
X149526237Y-107575684D01*
X149466972Y-107822581D01*
X149457012Y-108076296D01*
X143418347Y-108076296D01*
X143427932Y-108053158D01*
X143485000Y-107766260D01*
X143485000Y-107473740D01*
X143427932Y-107186842D01*
X143315990Y-106916589D01*
X143153475Y-106673368D01*
X142946632Y-106466525D01*
X142772240Y-106350000D01*
X142946632Y-106233475D01*
X143153475Y-106026632D01*
X143276842Y-105842000D01*
X147632577Y-105842000D01*
X147670000Y-105845686D01*
X147707423Y-105842000D01*
X147707426Y-105842000D01*
X147819378Y-105830974D01*
X147963015Y-105787402D01*
X148095392Y-105716645D01*
X148211422Y-105621422D01*
X148235284Y-105592346D01*
X149500764Y-104326866D01*
X149510535Y-104375987D01*
X149607703Y-104610570D01*
X149748768Y-104821690D01*
X149927078Y-105000000D01*
X149748768Y-105178310D01*
X149607703Y-105389430D01*
X149510535Y-105624013D01*
X149461000Y-105873045D01*
X149461000Y-106126955D01*
X149510535Y-106375987D01*
X149607703Y-106610570D01*
X149748768Y-106821690D01*
X149928310Y-107001232D01*
X150048319Y-107081419D01*
X150041218Y-107111613D01*
X150750000Y-107820395D01*
X151458782Y-107111613D01*
X151451681Y-107081419D01*
X151571690Y-107001232D01*
X151751232Y-106821690D01*
X151892297Y-106610570D01*
X151989465Y-106375987D01*
X152039000Y-106126955D01*
X152039000Y-105873045D01*
X152024995Y-105802636D01*
X153262352Y-104565279D01*
X153291422Y-104541422D01*
X153386645Y-104425392D01*
X153457402Y-104293015D01*
X153500974Y-104149378D01*
X153512000Y-104037426D01*
X153512000Y-104037424D01*
X153515686Y-104000001D01*
X153512000Y-103962578D01*
X153512000Y-101293620D01*
X153515686Y-101256197D01*
X153512000Y-101218772D01*
X153500974Y-101106820D01*
X153457402Y-100963183D01*
X153386645Y-100830806D01*
X153291422Y-100714776D01*
X153262353Y-100690920D01*
X152059086Y-99487654D01*
X152035224Y-99458578D01*
X151919194Y-99363355D01*
X151786817Y-99292598D01*
X151643180Y-99249026D01*
X151531228Y-99238000D01*
X151531225Y-99238000D01*
X151493802Y-99234314D01*
X151456379Y-99238000D01*
X143488072Y-99238000D01*
X143488072Y-99150000D01*
X143475812Y-99025518D01*
X143439502Y-98905820D01*
X143380537Y-98795506D01*
X143301185Y-98698815D01*
X143204494Y-98619463D01*
X143094180Y-98560498D01*
X142974482Y-98524188D01*
X142850000Y-98511928D01*
X141150000Y-98511928D01*
X141025518Y-98524188D01*
X140905820Y-98560498D01*
X140795506Y-98619463D01*
X140698815Y-98698815D01*
X140619463Y-98795506D01*
X140560498Y-98905820D01*
X140524188Y-99025518D01*
X140511928Y-99150000D01*
X140511928Y-99238000D01*
X133488072Y-99238000D01*
X133488072Y-99150000D01*
X133475812Y-99025518D01*
X133439502Y-98905820D01*
X133380537Y-98795506D01*
X133301185Y-98698815D01*
X133204494Y-98619463D01*
X133094180Y-98560498D01*
X132974482Y-98524188D01*
X132850000Y-98511928D01*
X131150000Y-98511928D01*
X131025518Y-98524188D01*
X130905820Y-98560498D01*
X130795506Y-98619463D01*
X130698815Y-98698815D01*
X130619463Y-98795506D01*
X130560498Y-98905820D01*
X130524188Y-99025518D01*
X130511928Y-99150000D01*
X130511928Y-99238000D01*
X123488072Y-99238000D01*
X123488072Y-99150000D01*
X123475812Y-99025518D01*
X123439502Y-98905820D01*
X123380537Y-98795506D01*
X123301185Y-98698815D01*
X123204494Y-98619463D01*
X123094180Y-98560498D01*
X122974482Y-98524188D01*
X122850000Y-98511928D01*
X121150000Y-98511928D01*
X121025518Y-98524188D01*
X120905820Y-98560498D01*
X120795506Y-98619463D01*
X120698815Y-98698815D01*
X120619463Y-98795506D01*
X120560498Y-98905820D01*
X120524188Y-99025518D01*
X120511928Y-99150000D01*
X120511928Y-99238000D01*
X113488072Y-99238000D01*
X113488072Y-99150000D01*
X113475812Y-99025518D01*
X113439502Y-98905820D01*
X113380537Y-98795506D01*
X113301185Y-98698815D01*
X113204494Y-98619463D01*
X113094180Y-98560498D01*
X112974482Y-98524188D01*
X112850000Y-98511928D01*
X111150000Y-98511928D01*
X111025518Y-98524188D01*
X110905820Y-98560498D01*
X110795506Y-98619463D01*
X110698815Y-98698815D01*
X110619463Y-98795506D01*
X110560498Y-98905820D01*
X110524188Y-99025518D01*
X110511928Y-99150000D01*
X110511928Y-99238000D01*
X103488072Y-99238000D01*
X103488072Y-99150000D01*
X103475812Y-99025518D01*
X103439502Y-98905820D01*
X103380537Y-98795506D01*
X103301185Y-98698815D01*
X103204494Y-98619463D01*
X103094180Y-98560498D01*
X102974482Y-98524188D01*
X102850000Y-98511928D01*
X101150000Y-98511928D01*
X101025518Y-98524188D01*
X100905820Y-98560498D01*
X100795506Y-98619463D01*
X100698815Y-98698815D01*
X100619463Y-98795506D01*
X100560498Y-98905820D01*
X100524188Y-99025518D01*
X100511928Y-99150000D01*
X100511928Y-99238000D01*
X92793621Y-99238000D01*
X92756198Y-99234314D01*
X92718775Y-99238000D01*
X92718772Y-99238000D01*
X92606820Y-99249026D01*
X92463183Y-99292598D01*
X92401562Y-99325535D01*
X92330805Y-99363355D01*
X92288417Y-99398143D01*
X92214776Y-99458578D01*
X92190914Y-99487654D01*
X90737654Y-100940914D01*
X90708578Y-100964776D01*
X90652983Y-101032520D01*
X90613355Y-101080806D01*
X90575535Y-101151563D01*
X90542598Y-101213184D01*
X90499026Y-101356821D01*
X90491354Y-101434721D01*
X90484314Y-101506198D01*
X86660000Y-101506198D01*
X86660000Y-99016642D01*
X86814886Y-99248446D01*
X87251554Y-99685114D01*
X87765021Y-100028201D01*
X88335554Y-100264524D01*
X88941229Y-100385000D01*
X89558771Y-100385000D01*
X90164446Y-100264524D01*
X90734979Y-100028201D01*
X91248446Y-99685114D01*
X91685114Y-99248446D01*
X92028201Y-98734979D01*
X92264524Y-98164446D01*
X92385000Y-97558771D01*
X92385000Y-96941229D01*
X92264524Y-96335554D01*
X92028201Y-95765021D01*
X91685114Y-95251554D01*
X91248446Y-94814886D01*
X91016642Y-94660000D01*
X152733358Y-94660000D01*
X152501554Y-94814886D01*
M02*
