M48
; DRILL file {KiCad (5.1.5)-3} date 31/08/2020 21:19:26
; FORMAT={-:-/ absolute / inch / decimal}
; #@! TF.CreationDate,2020-08-31T21:19:26+01:00
; #@! TF.GenerationSoftware,Kicad,Pcbnew,(5.1.5)-3
; #@! TF.FileFunction,Plated,1,2,PTH
FMAT,2
INCH
T1C0.0315
T2C0.0394
%
G90
G05
T1
X5.935Y-4.0157
X5.935Y-4.0945
X5.935Y-4.1732
X5.935Y-4.252
X3.6811Y-4.0157
X3.6811Y-4.0945
X3.6811Y-4.1732
X3.6811Y-4.252
T2
X4.0157Y-3.937
X4.0157Y-4.037
X4.0157Y-4.137
X4.0157Y-4.237
X4.0157Y-4.337
X5.1969Y-3.937
X5.1969Y-4.037
X5.1969Y-4.137
X5.1969Y-4.237
X5.1969Y-4.337
X4.4094Y-3.937
X4.4094Y-4.037
X4.4094Y-4.137
X4.4094Y-4.237
X4.4094Y-4.337
X5.5906Y-3.937
X5.5906Y-4.037
X5.5906Y-4.137
X5.5906Y-4.237
X5.5906Y-4.337
X4.8031Y-3.937
X4.8031Y-4.037
X4.8031Y-4.137
X4.8031Y-4.237
X4.8031Y-4.337
T0
M30
