G04 #@! TF.GenerationSoftware,KiCad,Pcbnew,(5.1.5)-3*
G04 #@! TF.CreationDate,2020-08-31T21:18:36+01:00*
G04 #@! TF.ProjectId,groveToPi,67726f76-6554-46f5-9069-2e6b69636164,1.0.1*
G04 #@! TF.SameCoordinates,Original*
G04 #@! TF.FileFunction,Legend,Bot*
G04 #@! TF.FilePolarity,Positive*
%FSLAX46Y46*%
G04 Gerber Fmt 4.6, Leading zero omitted, Abs format (unit mm)*
G04 Created by KiCad (PCBNEW (5.1.5)-3) date 2020-08-31 21:18:36*
%MOMM*%
%LPD*%
G04 APERTURE LIST*
%ADD10C,0.150000*%
G04 APERTURE END LIST*
D10*
X132190476Y-114452380D02*
X131666666Y-113785714D01*
X132190476Y-113785714D02*
X131666666Y-114452380D01*
X131380952Y-113785714D02*
X131142857Y-114452380D01*
X130904761Y-113785714D02*
X131142857Y-114452380D01*
X131238095Y-114690476D01*
X131285714Y-114738095D01*
X131380952Y-114785714D01*
X130619047Y-113785714D02*
X130095238Y-113785714D01*
X130619047Y-114452380D01*
X130095238Y-114452380D01*
X129809523Y-113785714D02*
X129285714Y-113785714D01*
X129809523Y-114452380D01*
X129285714Y-114452380D01*
X129000000Y-113785714D02*
X128761904Y-114452380D01*
X128523809Y-113785714D02*
X128761904Y-114452380D01*
X128857142Y-114690476D01*
X128904761Y-114738095D01*
X129000000Y-114785714D01*
X127380952Y-114071428D02*
X126619047Y-114071428D01*
X126142857Y-114071428D02*
X125380952Y-114071428D01*
X124142857Y-113785714D02*
X124142857Y-114785714D01*
X124142857Y-113833333D02*
X124047619Y-113785714D01*
X123857142Y-113785714D01*
X123761904Y-113833333D01*
X123714285Y-113880952D01*
X123666666Y-113976190D01*
X123666666Y-114261904D01*
X123714285Y-114357142D01*
X123761904Y-114404761D01*
X123857142Y-114452380D01*
X124047619Y-114452380D01*
X124142857Y-114404761D01*
X123095238Y-114452380D02*
X123190476Y-114404761D01*
X123238095Y-114309523D01*
X123238095Y-113452380D01*
X122285714Y-113785714D02*
X122285714Y-114452380D01*
X122714285Y-113785714D02*
X122714285Y-114309523D01*
X122666666Y-114404761D01*
X122571428Y-114452380D01*
X122428571Y-114452380D01*
X122333333Y-114404761D01*
X122285714Y-114357142D01*
X121380952Y-113785714D02*
X121380952Y-114595238D01*
X121428571Y-114690476D01*
X121476190Y-114738095D01*
X121571428Y-114785714D01*
X121714285Y-114785714D01*
X121809523Y-114738095D01*
X121380952Y-114404761D02*
X121476190Y-114452380D01*
X121666666Y-114452380D01*
X121761904Y-114404761D01*
X121809523Y-114357142D01*
X121857142Y-114261904D01*
X121857142Y-113976190D01*
X121809523Y-113880952D01*
X121761904Y-113833333D01*
X121666666Y-113785714D01*
X121476190Y-113785714D01*
X121380952Y-113833333D01*
X120904761Y-114452380D02*
X120904761Y-113452380D01*
X120476190Y-114452380D02*
X120476190Y-113928571D01*
X120523809Y-113833333D01*
X120619047Y-113785714D01*
X120761904Y-113785714D01*
X120857142Y-113833333D01*
X120904761Y-113880952D01*
X119238095Y-114071428D02*
X118476190Y-114071428D01*
X118000000Y-114071428D02*
X117238095Y-114071428D01*
X116000000Y-113785714D02*
X116000000Y-114785714D01*
X116000000Y-113833333D02*
X115904761Y-113785714D01*
X115714285Y-113785714D01*
X115619047Y-113833333D01*
X115571428Y-113880952D01*
X115523809Y-113976190D01*
X115523809Y-114261904D01*
X115571428Y-114357142D01*
X115619047Y-114404761D01*
X115714285Y-114452380D01*
X115904761Y-114452380D01*
X116000000Y-114404761D01*
X114952380Y-114452380D02*
X115047619Y-114404761D01*
X115095238Y-114309523D01*
X115095238Y-113452380D01*
X114428571Y-114452380D02*
X114523809Y-114404761D01*
X114571428Y-114357142D01*
X114619047Y-114261904D01*
X114619047Y-113976190D01*
X114571428Y-113880952D01*
X114523809Y-113833333D01*
X114428571Y-113785714D01*
X114285714Y-113785714D01*
X114190476Y-113833333D01*
X114142857Y-113880952D01*
X114095238Y-113976190D01*
X114095238Y-114261904D01*
X114142857Y-114357142D01*
X114190476Y-114404761D01*
X114285714Y-114452380D01*
X114428571Y-114452380D01*
X113761904Y-113785714D02*
X113523809Y-114452380D01*
X113285714Y-113785714D01*
X112523809Y-114404761D02*
X112619047Y-114452380D01*
X112809523Y-114452380D01*
X112904761Y-114404761D01*
X112952380Y-114309523D01*
X112952380Y-113928571D01*
X112904761Y-113833333D01*
X112809523Y-113785714D01*
X112619047Y-113785714D01*
X112523809Y-113833333D01*
X112476190Y-113928571D01*
X112476190Y-114023809D01*
X112952380Y-114119047D01*
X112047619Y-114452380D02*
X112047619Y-113785714D01*
X112047619Y-113976190D02*
X112000000Y-113880952D01*
X111952380Y-113833333D01*
X111857142Y-113785714D01*
X111761904Y-113785714D01*
X139214285Y-95785714D02*
X138833333Y-95785714D01*
X139071428Y-96452380D02*
X139071428Y-95595238D01*
X139023809Y-95500000D01*
X138928571Y-95452380D01*
X138833333Y-95452380D01*
X138071428Y-96452380D02*
X138071428Y-95928571D01*
X138119047Y-95833333D01*
X138214285Y-95785714D01*
X138404761Y-95785714D01*
X138500000Y-95833333D01*
X138071428Y-96404761D02*
X138166666Y-96452380D01*
X138404761Y-96452380D01*
X138500000Y-96404761D01*
X138547619Y-96309523D01*
X138547619Y-96214285D01*
X138500000Y-96119047D01*
X138404761Y-96071428D01*
X138166666Y-96071428D01*
X138071428Y-96023809D01*
X137166666Y-96452380D02*
X137166666Y-95928571D01*
X137214285Y-95833333D01*
X137309523Y-95785714D01*
X137500000Y-95785714D01*
X137595238Y-95833333D01*
X137166666Y-96404761D02*
X137261904Y-96452380D01*
X137500000Y-96452380D01*
X137595238Y-96404761D01*
X137642857Y-96309523D01*
X137642857Y-96214285D01*
X137595238Y-96119047D01*
X137500000Y-96071428D01*
X137261904Y-96071428D01*
X137166666Y-96023809D01*
X136547619Y-95880952D02*
X136642857Y-95833333D01*
X136690476Y-95785714D01*
X136738095Y-95690476D01*
X136738095Y-95642857D01*
X136690476Y-95547619D01*
X136642857Y-95500000D01*
X136547619Y-95452380D01*
X136357142Y-95452380D01*
X136261904Y-95500000D01*
X136214285Y-95547619D01*
X136166666Y-95642857D01*
X136166666Y-95690476D01*
X136214285Y-95785714D01*
X136261904Y-95833333D01*
X136357142Y-95880952D01*
X136547619Y-95880952D01*
X136642857Y-95928571D01*
X136690476Y-95976190D01*
X136738095Y-96071428D01*
X136738095Y-96261904D01*
X136690476Y-96357142D01*
X136642857Y-96404761D01*
X136547619Y-96452380D01*
X136357142Y-96452380D01*
X136261904Y-96404761D01*
X136214285Y-96357142D01*
X136166666Y-96261904D01*
X136166666Y-96071428D01*
X136214285Y-95976190D01*
X136261904Y-95928571D01*
X136357142Y-95880952D01*
X135309523Y-95452380D02*
X135500000Y-95452380D01*
X135595238Y-95500000D01*
X135642857Y-95547619D01*
X135738095Y-95690476D01*
X135785714Y-95880952D01*
X135785714Y-96261904D01*
X135738095Y-96357142D01*
X135690476Y-96404761D01*
X135595238Y-96452380D01*
X135404761Y-96452380D01*
X135309523Y-96404761D01*
X135261904Y-96357142D01*
X135214285Y-96261904D01*
X135214285Y-96023809D01*
X135261904Y-95928571D01*
X135309523Y-95880952D01*
X135404761Y-95833333D01*
X135595238Y-95833333D01*
X135690476Y-95880952D01*
X135738095Y-95928571D01*
X135785714Y-96023809D01*
X134595238Y-95452380D02*
X134500000Y-95452380D01*
X134404761Y-95500000D01*
X134357142Y-95547619D01*
X134309523Y-95642857D01*
X134261904Y-95833333D01*
X134261904Y-96071428D01*
X134309523Y-96261904D01*
X134357142Y-96357142D01*
X134404761Y-96404761D01*
X134500000Y-96452380D01*
X134595238Y-96452380D01*
X134690476Y-96404761D01*
X134738095Y-96357142D01*
X134785714Y-96261904D01*
X134833333Y-96071428D01*
X134833333Y-95833333D01*
X134785714Y-95642857D01*
X134738095Y-95547619D01*
X134690476Y-95500000D01*
X134595238Y-95452380D01*
X133928571Y-95452380D02*
X133261904Y-95452380D01*
X133690476Y-96452380D01*
X132357142Y-96452380D02*
X132928571Y-96452380D01*
X132642857Y-96452380D02*
X132642857Y-95452380D01*
X132738095Y-95595238D01*
X132833333Y-95690476D01*
X132928571Y-95738095D01*
X131928571Y-96071428D02*
X131166666Y-96071428D01*
X130309523Y-96404761D02*
X130404761Y-96452380D01*
X130595238Y-96452380D01*
X130690476Y-96404761D01*
X130738095Y-96309523D01*
X130738095Y-95928571D01*
X130690476Y-95833333D01*
X130595238Y-95785714D01*
X130404761Y-95785714D01*
X130309523Y-95833333D01*
X130261904Y-95928571D01*
X130261904Y-96023809D01*
X130738095Y-96119047D01*
X129928571Y-95452380D02*
X129309523Y-95452380D01*
X129642857Y-95833333D01*
X129500000Y-95833333D01*
X129404761Y-95880952D01*
X129357142Y-95928571D01*
X129309523Y-96023809D01*
X129309523Y-96261904D01*
X129357142Y-96357142D01*
X129404761Y-96404761D01*
X129500000Y-96452380D01*
X129785714Y-96452380D01*
X129880952Y-96404761D01*
X129928571Y-96357142D01*
X128404761Y-95452380D02*
X128880952Y-95452380D01*
X128928571Y-95928571D01*
X128880952Y-95880952D01*
X128785714Y-95833333D01*
X128547619Y-95833333D01*
X128452380Y-95880952D01*
X128404761Y-95928571D01*
X128357142Y-96023809D01*
X128357142Y-96261904D01*
X128404761Y-96357142D01*
X128452380Y-96404761D01*
X128547619Y-96452380D01*
X128785714Y-96452380D01*
X128880952Y-96404761D01*
X128928571Y-96357142D01*
X127452380Y-95452380D02*
X127928571Y-95452380D01*
X127976190Y-95928571D01*
X127928571Y-95880952D01*
X127833333Y-95833333D01*
X127595238Y-95833333D01*
X127500000Y-95880952D01*
X127452380Y-95928571D01*
X127404761Y-96023809D01*
X127404761Y-96261904D01*
X127452380Y-96357142D01*
X127500000Y-96404761D01*
X127595238Y-96452380D01*
X127833333Y-96452380D01*
X127928571Y-96404761D01*
X127976190Y-96357142D01*
X126976190Y-96071428D02*
X126214285Y-96071428D01*
X125309523Y-95785714D02*
X125309523Y-96452380D01*
X125547619Y-95404761D02*
X125785714Y-96119047D01*
X125166666Y-96119047D01*
X124261904Y-96452380D02*
X124833333Y-96452380D01*
X124547619Y-96452380D02*
X124547619Y-95452380D01*
X124642857Y-95595238D01*
X124738095Y-95690476D01*
X124833333Y-95738095D01*
X123642857Y-95452380D02*
X123547619Y-95452380D01*
X123452380Y-95500000D01*
X123404761Y-95547619D01*
X123357142Y-95642857D01*
X123309523Y-95833333D01*
X123309523Y-96071428D01*
X123357142Y-96261904D01*
X123404761Y-96357142D01*
X123452380Y-96404761D01*
X123547619Y-96452380D01*
X123642857Y-96452380D01*
X123738095Y-96404761D01*
X123785714Y-96357142D01*
X123833333Y-96261904D01*
X123880952Y-96071428D01*
X123880952Y-95833333D01*
X123833333Y-95642857D01*
X123785714Y-95547619D01*
X123738095Y-95500000D01*
X123642857Y-95452380D01*
X122452380Y-96452380D02*
X122452380Y-95928571D01*
X122500000Y-95833333D01*
X122595238Y-95785714D01*
X122785714Y-95785714D01*
X122880952Y-95833333D01*
X122452380Y-96404761D02*
X122547619Y-96452380D01*
X122785714Y-96452380D01*
X122880952Y-96404761D01*
X122928571Y-96309523D01*
X122928571Y-96214285D01*
X122880952Y-96119047D01*
X122785714Y-96071428D01*
X122547619Y-96071428D01*
X122452380Y-96023809D01*
X121976190Y-96071428D02*
X121214285Y-96071428D01*
X120595238Y-95880952D02*
X120690476Y-95833333D01*
X120738095Y-95785714D01*
X120785714Y-95690476D01*
X120785714Y-95642857D01*
X120738095Y-95547619D01*
X120690476Y-95500000D01*
X120595238Y-95452380D01*
X120404761Y-95452380D01*
X120309523Y-95500000D01*
X120261904Y-95547619D01*
X120214285Y-95642857D01*
X120214285Y-95690476D01*
X120261904Y-95785714D01*
X120309523Y-95833333D01*
X120404761Y-95880952D01*
X120595238Y-95880952D01*
X120690476Y-95928571D01*
X120738095Y-95976190D01*
X120785714Y-96071428D01*
X120785714Y-96261904D01*
X120738095Y-96357142D01*
X120690476Y-96404761D01*
X120595238Y-96452380D01*
X120404761Y-96452380D01*
X120309523Y-96404761D01*
X120261904Y-96357142D01*
X120214285Y-96261904D01*
X120214285Y-96071428D01*
X120261904Y-95976190D01*
X120309523Y-95928571D01*
X120404761Y-95880952D01*
X119357142Y-96452380D02*
X119357142Y-95928571D01*
X119404761Y-95833333D01*
X119500000Y-95785714D01*
X119690476Y-95785714D01*
X119785714Y-95833333D01*
X119357142Y-96404761D02*
X119452380Y-96452380D01*
X119690476Y-96452380D01*
X119785714Y-96404761D01*
X119833333Y-96309523D01*
X119833333Y-96214285D01*
X119785714Y-96119047D01*
X119690476Y-96071428D01*
X119452380Y-96071428D01*
X119357142Y-96023809D01*
X118833333Y-96452380D02*
X118642857Y-96452380D01*
X118547619Y-96404761D01*
X118500000Y-96357142D01*
X118404761Y-96214285D01*
X118357142Y-96023809D01*
X118357142Y-95642857D01*
X118404761Y-95547619D01*
X118452380Y-95500000D01*
X118547619Y-95452380D01*
X118738095Y-95452380D01*
X118833333Y-95500000D01*
X118880952Y-95547619D01*
X118928571Y-95642857D01*
X118928571Y-95880952D01*
X118880952Y-95976190D01*
X118833333Y-96023809D01*
X118738095Y-96071428D01*
X118547619Y-96071428D01*
X118452380Y-96023809D01*
X118404761Y-95976190D01*
X118357142Y-95880952D01*
X117880952Y-96452380D02*
X117690476Y-96452380D01*
X117595238Y-96404761D01*
X117547619Y-96357142D01*
X117452380Y-96214285D01*
X117404761Y-96023809D01*
X117404761Y-95642857D01*
X117452380Y-95547619D01*
X117500000Y-95500000D01*
X117595238Y-95452380D01*
X117785714Y-95452380D01*
X117880952Y-95500000D01*
X117928571Y-95547619D01*
X117976190Y-95642857D01*
X117976190Y-95880952D01*
X117928571Y-95976190D01*
X117880952Y-96023809D01*
X117785714Y-96071428D01*
X117595238Y-96071428D01*
X117500000Y-96023809D01*
X117452380Y-95976190D01*
X117404761Y-95880952D01*
X116976190Y-96071428D02*
X116214285Y-96071428D01*
X115880952Y-95785714D02*
X115500000Y-95785714D01*
X115738095Y-96452380D02*
X115738095Y-95595238D01*
X115690476Y-95500000D01*
X115595238Y-95452380D01*
X115500000Y-95452380D01*
X114738095Y-95452380D02*
X114928571Y-95452380D01*
X115023809Y-95500000D01*
X115071428Y-95547619D01*
X115166666Y-95690476D01*
X115214285Y-95880952D01*
X115214285Y-96261904D01*
X115166666Y-96357142D01*
X115119047Y-96404761D01*
X115023809Y-96452380D01*
X114833333Y-96452380D01*
X114738095Y-96404761D01*
X114690476Y-96357142D01*
X114642857Y-96261904D01*
X114642857Y-96023809D01*
X114690476Y-95928571D01*
X114738095Y-95880952D01*
X114833333Y-95833333D01*
X115023809Y-95833333D01*
X115119047Y-95880952D01*
X115166666Y-95928571D01*
X115214285Y-96023809D01*
X113690476Y-96452380D02*
X114261904Y-96452380D01*
X113976190Y-96452380D02*
X113976190Y-95452380D01*
X114071428Y-95595238D01*
X114166666Y-95690476D01*
X114261904Y-95738095D01*
X112880952Y-96404761D02*
X112976190Y-96452380D01*
X113166666Y-96452380D01*
X113261904Y-96404761D01*
X113309523Y-96309523D01*
X113309523Y-95928571D01*
X113261904Y-95833333D01*
X113166666Y-95785714D01*
X112976190Y-95785714D01*
X112880952Y-95833333D01*
X112833333Y-95928571D01*
X112833333Y-96023809D01*
X113309523Y-96119047D01*
X111880952Y-96452380D02*
X112452380Y-96452380D01*
X112166666Y-96452380D02*
X112166666Y-95452380D01*
X112261904Y-95595238D01*
X112357142Y-95690476D01*
X112452380Y-95738095D01*
X111309523Y-95880952D02*
X111404761Y-95833333D01*
X111452380Y-95785714D01*
X111500000Y-95690476D01*
X111500000Y-95642857D01*
X111452380Y-95547619D01*
X111404761Y-95500000D01*
X111309523Y-95452380D01*
X111119047Y-95452380D01*
X111023809Y-95500000D01*
X110976190Y-95547619D01*
X110928571Y-95642857D01*
X110928571Y-95690476D01*
X110976190Y-95785714D01*
X111023809Y-95833333D01*
X111119047Y-95880952D01*
X111309523Y-95880952D01*
X111404761Y-95928571D01*
X111452380Y-95976190D01*
X111500000Y-96071428D01*
X111500000Y-96261904D01*
X111452380Y-96357142D01*
X111404761Y-96404761D01*
X111309523Y-96452380D01*
X111119047Y-96452380D01*
X111023809Y-96404761D01*
X110976190Y-96357142D01*
X110928571Y-96261904D01*
X110928571Y-96071428D01*
X110976190Y-95976190D01*
X111023809Y-95928571D01*
X111119047Y-95880952D01*
X110642857Y-95785714D02*
X110261904Y-95785714D01*
X110500000Y-96452380D02*
X110500000Y-95595238D01*
X110452380Y-95500000D01*
X110357142Y-95452380D01*
X110261904Y-95452380D01*
X109928571Y-96452380D02*
X109928571Y-95452380D01*
X109928571Y-95833333D02*
X109833333Y-95785714D01*
X109642857Y-95785714D01*
X109547619Y-95833333D01*
X109500000Y-95880952D01*
X109452380Y-95976190D01*
X109452380Y-96261904D01*
X109500000Y-96357142D01*
X109547619Y-96404761D01*
X109642857Y-96452380D01*
X109833333Y-96452380D01*
X109928571Y-96404761D01*
X108833333Y-95452380D02*
X108738095Y-95452380D01*
X108642857Y-95500000D01*
X108595238Y-95547619D01*
X108547619Y-95642857D01*
X108500000Y-95833333D01*
X108500000Y-96071428D01*
X108547619Y-96261904D01*
X108595238Y-96357142D01*
X108642857Y-96404761D01*
X108738095Y-96452380D01*
X108833333Y-96452380D01*
X108928571Y-96404761D01*
X108976190Y-96357142D01*
X109023809Y-96261904D01*
X109071428Y-96071428D01*
X109071428Y-95833333D01*
X109023809Y-95642857D01*
X108976190Y-95547619D01*
X108928571Y-95500000D01*
X108833333Y-95452380D01*
X107880952Y-95452380D02*
X107785714Y-95452380D01*
X107690476Y-95500000D01*
X107642857Y-95547619D01*
X107595238Y-95642857D01*
X107547619Y-95833333D01*
X107547619Y-96071428D01*
X107595238Y-96261904D01*
X107642857Y-96357142D01*
X107690476Y-96404761D01*
X107785714Y-96452380D01*
X107880952Y-96452380D01*
X107976190Y-96404761D01*
X108023809Y-96357142D01*
X108071428Y-96261904D01*
X108119047Y-96071428D01*
X108119047Y-95833333D01*
X108071428Y-95642857D01*
X108023809Y-95547619D01*
X107976190Y-95500000D01*
X107880952Y-95452380D01*
X107214285Y-95452380D02*
X106595238Y-95452380D01*
X106928571Y-95833333D01*
X106785714Y-95833333D01*
X106690476Y-95880952D01*
X106642857Y-95928571D01*
X106595238Y-96023809D01*
X106595238Y-96261904D01*
X106642857Y-96357142D01*
X106690476Y-96404761D01*
X106785714Y-96452380D01*
X107071428Y-96452380D01*
X107166666Y-96404761D01*
X107214285Y-96357142D01*
X106119047Y-96452380D02*
X105928571Y-96452380D01*
X105833333Y-96404761D01*
X105785714Y-96357142D01*
X105690476Y-96214285D01*
X105642857Y-96023809D01*
X105642857Y-95642857D01*
X105690476Y-95547619D01*
X105738095Y-95500000D01*
X105833333Y-95452380D01*
X106023809Y-95452380D01*
X106119047Y-95500000D01*
X106166666Y-95547619D01*
X106214285Y-95642857D01*
X106214285Y-95880952D01*
X106166666Y-95976190D01*
X106119047Y-96023809D01*
X106023809Y-96071428D01*
X105833333Y-96071428D01*
X105738095Y-96023809D01*
X105690476Y-95976190D01*
X105642857Y-95880952D01*
X98904761Y-113452380D02*
X98571428Y-114452380D01*
X98238095Y-113452380D01*
X97523809Y-114404761D02*
X97619047Y-114452380D01*
X97809523Y-114452380D01*
X97904761Y-114404761D01*
X97952380Y-114309523D01*
X97952380Y-113928571D01*
X97904761Y-113833333D01*
X97809523Y-113785714D01*
X97619047Y-113785714D01*
X97523809Y-113833333D01*
X97476190Y-113928571D01*
X97476190Y-114023809D01*
X97952380Y-114119047D01*
X97047619Y-114452380D02*
X97047619Y-113785714D01*
X97047619Y-113976190D02*
X97000000Y-113880952D01*
X96952380Y-113833333D01*
X96857142Y-113785714D01*
X96761904Y-113785714D01*
X96476190Y-114404761D02*
X96380952Y-114452380D01*
X96190476Y-114452380D01*
X96095238Y-114404761D01*
X96047619Y-114309523D01*
X96047619Y-114261904D01*
X96095238Y-114166666D01*
X96190476Y-114119047D01*
X96333333Y-114119047D01*
X96428571Y-114071428D01*
X96476190Y-113976190D01*
X96476190Y-113928571D01*
X96428571Y-113833333D01*
X96333333Y-113785714D01*
X96190476Y-113785714D01*
X96095238Y-113833333D01*
X95619047Y-114452380D02*
X95619047Y-113785714D01*
X95619047Y-113452380D02*
X95666666Y-113500000D01*
X95619047Y-113547619D01*
X95571428Y-113500000D01*
X95619047Y-113452380D01*
X95619047Y-113547619D01*
X95000000Y-114452380D02*
X95095238Y-114404761D01*
X95142857Y-114357142D01*
X95190476Y-114261904D01*
X95190476Y-113976190D01*
X95142857Y-113880952D01*
X95095238Y-113833333D01*
X95000000Y-113785714D01*
X94857142Y-113785714D01*
X94761904Y-113833333D01*
X94714285Y-113880952D01*
X94666666Y-113976190D01*
X94666666Y-114261904D01*
X94714285Y-114357142D01*
X94761904Y-114404761D01*
X94857142Y-114452380D01*
X95000000Y-114452380D01*
X94238095Y-113785714D02*
X94238095Y-114452380D01*
X94238095Y-113880952D02*
X94190476Y-113833333D01*
X94095238Y-113785714D01*
X93952380Y-113785714D01*
X93857142Y-113833333D01*
X93809523Y-113928571D01*
X93809523Y-114452380D01*
X92047619Y-114452380D02*
X92619047Y-114452380D01*
X92333333Y-114452380D02*
X92333333Y-113452380D01*
X92428571Y-113595238D01*
X92523809Y-113690476D01*
X92619047Y-113738095D01*
X91619047Y-114357142D02*
X91571428Y-114404761D01*
X91619047Y-114452380D01*
X91666666Y-114404761D01*
X91619047Y-114357142D01*
X91619047Y-114452380D01*
X90952380Y-113452380D02*
X90857142Y-113452380D01*
X90761904Y-113500000D01*
X90714285Y-113547619D01*
X90666666Y-113642857D01*
X90619047Y-113833333D01*
X90619047Y-114071428D01*
X90666666Y-114261904D01*
X90714285Y-114357142D01*
X90761904Y-114404761D01*
X90857142Y-114452380D01*
X90952380Y-114452380D01*
X91047619Y-114404761D01*
X91095238Y-114357142D01*
X91142857Y-114261904D01*
X91190476Y-114071428D01*
X91190476Y-113833333D01*
X91142857Y-113642857D01*
X91095238Y-113547619D01*
X91047619Y-113500000D01*
X90952380Y-113452380D01*
X90190476Y-114357142D02*
X90142857Y-114404761D01*
X90190476Y-114452380D01*
X90238095Y-114404761D01*
X90190476Y-114357142D01*
X90190476Y-114452380D01*
X89523809Y-113452380D02*
X89428571Y-113452380D01*
X89333333Y-113500000D01*
X89285714Y-113547619D01*
X89238095Y-113642857D01*
X89190476Y-113833333D01*
X89190476Y-114071428D01*
X89238095Y-114261904D01*
X89285714Y-114357142D01*
X89333333Y-114404761D01*
X89428571Y-114452380D01*
X89523809Y-114452380D01*
X89619047Y-114404761D01*
X89666666Y-114357142D01*
X89714285Y-114261904D01*
X89761904Y-114071428D01*
X89761904Y-113833333D01*
X89714285Y-113642857D01*
X89666666Y-113547619D01*
X89619047Y-113500000D01*
X89523809Y-113452380D01*
M02*
