M48
; DRILL file {KiCad (5.1.5)-3} date 01/09/2020 16:09:22
; FORMAT={-:-/ absolute / inch / decimal}
; #@! TF.CreationDate,2020-09-01T16:09:22+01:00
; #@! TF.GenerationSoftware,Kicad,Pcbnew,(5.1.5)-3
FMAT,2
INCH
T1C0.0315
T2C0.0394
T3C0.0984
%
G90
G05
T1
X5.935Y-4.0157
X5.935Y-4.0945
X5.935Y-4.1732
X5.935Y-4.252
X3.6811Y-4.0157
X3.6811Y-4.0945
X3.6811Y-4.1732
X3.6811Y-4.252
T2
X4.8031Y-3.937
X4.8031Y-4.037
X4.8031Y-4.137
X4.8031Y-4.237
X4.8031Y-4.337
X5.1969Y-3.937
X5.1969Y-4.037
X5.1969Y-4.137
X5.1969Y-4.237
X5.1969Y-4.337
X4.0157Y-3.937
X4.0157Y-4.037
X4.0157Y-4.137
X4.0157Y-4.237
X4.0157Y-4.337
X4.4094Y-3.937
X4.4094Y-4.037
X4.4094Y-4.137
X4.4094Y-4.237
X4.4094Y-4.337
X5.5906Y-3.937
X5.5906Y-4.037
X5.5906Y-4.137
X5.5906Y-4.237
X5.5906Y-4.337
T3
X6.1024Y-4.4882
X3.4646Y-4.4882
X3.4646Y-3.7795
X6.1024Y-3.7795
T0
M30
