G04 #@! TF.GenerationSoftware,KiCad,Pcbnew,(5.1.5)-3*
G04 #@! TF.CreationDate,2020-09-01T16:09:18+01:00*
G04 #@! TF.ProjectId,groveToPi,67726f76-6554-46f5-9069-2e6b69636164,1.1.0*
G04 #@! TF.SameCoordinates,Original*
G04 #@! TF.FileFunction,Soldermask,Top*
G04 #@! TF.FilePolarity,Negative*
%FSLAX46Y46*%
G04 Gerber Fmt 4.6, Leading zero omitted, Abs format (unit mm)*
G04 Created by KiCad (PCBNEW (5.1.5)-3) date 2020-09-01 16:09:18*
%MOMM*%
%LPD*%
G04 APERTURE LIST*
%ADD10C,0.150000*%
G04 APERTURE END LIST*
D10*
G36*
X155744041Y-111547226D02*
G01*
X156208257Y-111739510D01*
X156626042Y-112018665D01*
X156981335Y-112373958D01*
X157260490Y-112791743D01*
X157452774Y-113255959D01*
X157550800Y-113748768D01*
X157550800Y-114251232D01*
X157452774Y-114744041D01*
X157260490Y-115208257D01*
X156981335Y-115626042D01*
X156626042Y-115981335D01*
X156208257Y-116260490D01*
X155744041Y-116452774D01*
X155251232Y-116550800D01*
X154748768Y-116550800D01*
X154255959Y-116452774D01*
X153791743Y-116260490D01*
X153373958Y-115981335D01*
X153018665Y-115626042D01*
X152739510Y-115208257D01*
X152547226Y-114744041D01*
X152449200Y-114251232D01*
X152449200Y-113748768D01*
X152547226Y-113255959D01*
X152739510Y-112791743D01*
X153018665Y-112373958D01*
X153373958Y-112018665D01*
X153791743Y-111739510D01*
X154255959Y-111547226D01*
X154748768Y-111449200D01*
X155251232Y-111449200D01*
X155744041Y-111547226D01*
G37*
G36*
X88744041Y-111547226D02*
G01*
X89208257Y-111739510D01*
X89626042Y-112018665D01*
X89981335Y-112373958D01*
X90260490Y-112791743D01*
X90452774Y-113255959D01*
X90550800Y-113748768D01*
X90550800Y-114251232D01*
X90452774Y-114744041D01*
X90260490Y-115208257D01*
X89981335Y-115626042D01*
X89626042Y-115981335D01*
X89208257Y-116260490D01*
X88744041Y-116452774D01*
X88251232Y-116550800D01*
X87748768Y-116550800D01*
X87255959Y-116452774D01*
X86791743Y-116260490D01*
X86373958Y-115981335D01*
X86018665Y-115626042D01*
X85739510Y-115208257D01*
X85547226Y-114744041D01*
X85449200Y-114251232D01*
X85449200Y-113748768D01*
X85547226Y-113255959D01*
X85739510Y-112791743D01*
X86018665Y-112373958D01*
X86373958Y-112018665D01*
X86791743Y-111739510D01*
X87255959Y-111547226D01*
X87748768Y-111449200D01*
X88251232Y-111449200D01*
X88744041Y-111547226D01*
G37*
G36*
X132262754Y-109293817D02*
G01*
X132426689Y-109361721D01*
X132574227Y-109460303D01*
X132699697Y-109585773D01*
X132798279Y-109733311D01*
X132866183Y-109897246D01*
X132900800Y-110071279D01*
X132900800Y-110248721D01*
X132866183Y-110422754D01*
X132798279Y-110586689D01*
X132699697Y-110734227D01*
X132574227Y-110859697D01*
X132426689Y-110958279D01*
X132262754Y-111026183D01*
X132088721Y-111060800D01*
X131911279Y-111060800D01*
X131737246Y-111026183D01*
X131573311Y-110958279D01*
X131425773Y-110859697D01*
X131300303Y-110734227D01*
X131201721Y-110586689D01*
X131133817Y-110422754D01*
X131099200Y-110248721D01*
X131099200Y-110071279D01*
X131133817Y-109897246D01*
X131201721Y-109733311D01*
X131300303Y-109585773D01*
X131425773Y-109460303D01*
X131573311Y-109361721D01*
X131737246Y-109293817D01*
X131911279Y-109259200D01*
X132088721Y-109259200D01*
X132262754Y-109293817D01*
G37*
G36*
X122262754Y-109293817D02*
G01*
X122426689Y-109361721D01*
X122574227Y-109460303D01*
X122699697Y-109585773D01*
X122798279Y-109733311D01*
X122866183Y-109897246D01*
X122900800Y-110071279D01*
X122900800Y-110248721D01*
X122866183Y-110422754D01*
X122798279Y-110586689D01*
X122699697Y-110734227D01*
X122574227Y-110859697D01*
X122426689Y-110958279D01*
X122262754Y-111026183D01*
X122088721Y-111060800D01*
X121911279Y-111060800D01*
X121737246Y-111026183D01*
X121573311Y-110958279D01*
X121425773Y-110859697D01*
X121300303Y-110734227D01*
X121201721Y-110586689D01*
X121133817Y-110422754D01*
X121099200Y-110248721D01*
X121099200Y-110071279D01*
X121133817Y-109897246D01*
X121201721Y-109733311D01*
X121300303Y-109585773D01*
X121425773Y-109460303D01*
X121573311Y-109361721D01*
X121737246Y-109293817D01*
X121911279Y-109259200D01*
X122088721Y-109259200D01*
X122262754Y-109293817D01*
G37*
G36*
X112262754Y-109293817D02*
G01*
X112426689Y-109361721D01*
X112574227Y-109460303D01*
X112699697Y-109585773D01*
X112798279Y-109733311D01*
X112866183Y-109897246D01*
X112900800Y-110071279D01*
X112900800Y-110248721D01*
X112866183Y-110422754D01*
X112798279Y-110586689D01*
X112699697Y-110734227D01*
X112574227Y-110859697D01*
X112426689Y-110958279D01*
X112262754Y-111026183D01*
X112088721Y-111060800D01*
X111911279Y-111060800D01*
X111737246Y-111026183D01*
X111573311Y-110958279D01*
X111425773Y-110859697D01*
X111300303Y-110734227D01*
X111201721Y-110586689D01*
X111133817Y-110422754D01*
X111099200Y-110248721D01*
X111099200Y-110071279D01*
X111133817Y-109897246D01*
X111201721Y-109733311D01*
X111300303Y-109585773D01*
X111425773Y-109460303D01*
X111573311Y-109361721D01*
X111737246Y-109293817D01*
X111911279Y-109259200D01*
X112088721Y-109259200D01*
X112262754Y-109293817D01*
G37*
G36*
X102262754Y-109293817D02*
G01*
X102426689Y-109361721D01*
X102574227Y-109460303D01*
X102699697Y-109585773D01*
X102798279Y-109733311D01*
X102866183Y-109897246D01*
X102900800Y-110071279D01*
X102900800Y-110248721D01*
X102866183Y-110422754D01*
X102798279Y-110586689D01*
X102699697Y-110734227D01*
X102574227Y-110859697D01*
X102426689Y-110958279D01*
X102262754Y-111026183D01*
X102088721Y-111060800D01*
X101911279Y-111060800D01*
X101737246Y-111026183D01*
X101573311Y-110958279D01*
X101425773Y-110859697D01*
X101300303Y-110734227D01*
X101201721Y-110586689D01*
X101133817Y-110422754D01*
X101099200Y-110248721D01*
X101099200Y-110071279D01*
X101133817Y-109897246D01*
X101201721Y-109733311D01*
X101300303Y-109585773D01*
X101425773Y-109460303D01*
X101573311Y-109361721D01*
X101737246Y-109293817D01*
X101911279Y-109259200D01*
X102088721Y-109259200D01*
X102262754Y-109293817D01*
G37*
G36*
X142262754Y-109293817D02*
G01*
X142426689Y-109361721D01*
X142574227Y-109460303D01*
X142699697Y-109585773D01*
X142798279Y-109733311D01*
X142866183Y-109897246D01*
X142900800Y-110071279D01*
X142900800Y-110248721D01*
X142866183Y-110422754D01*
X142798279Y-110586689D01*
X142699697Y-110734227D01*
X142574227Y-110859697D01*
X142426689Y-110958279D01*
X142262754Y-111026183D01*
X142088721Y-111060800D01*
X141911279Y-111060800D01*
X141737246Y-111026183D01*
X141573311Y-110958279D01*
X141425773Y-110859697D01*
X141300303Y-110734227D01*
X141201721Y-110586689D01*
X141133817Y-110422754D01*
X141099200Y-110248721D01*
X141099200Y-110071279D01*
X141133817Y-109897246D01*
X141201721Y-109733311D01*
X141300303Y-109585773D01*
X141425773Y-109460303D01*
X141573311Y-109361721D01*
X141737246Y-109293817D01*
X141911279Y-109259200D01*
X142088721Y-109259200D01*
X142262754Y-109293817D01*
G37*
G36*
X93705583Y-107322285D02*
G01*
X93833847Y-107375414D01*
X93949285Y-107452547D01*
X94047453Y-107550715D01*
X94124586Y-107666153D01*
X94177715Y-107794417D01*
X94204800Y-107930583D01*
X94204800Y-108069417D01*
X94177715Y-108205583D01*
X94124586Y-108333847D01*
X94124585Y-108333848D01*
X94068171Y-108418279D01*
X94047453Y-108449285D01*
X93949285Y-108547453D01*
X93833847Y-108624586D01*
X93705583Y-108677715D01*
X93569417Y-108704800D01*
X93430583Y-108704800D01*
X93294417Y-108677715D01*
X93166153Y-108624586D01*
X93050715Y-108547453D01*
X92952547Y-108449285D01*
X92931830Y-108418279D01*
X92875415Y-108333848D01*
X92875414Y-108333847D01*
X92822285Y-108205583D01*
X92795200Y-108069417D01*
X92795200Y-107930583D01*
X92822285Y-107794417D01*
X92875414Y-107666153D01*
X92952547Y-107550715D01*
X93050715Y-107452547D01*
X93166153Y-107375414D01*
X93294417Y-107322285D01*
X93430583Y-107295200D01*
X93569417Y-107295200D01*
X93705583Y-107322285D01*
G37*
G36*
X150955583Y-107322285D02*
G01*
X151083847Y-107375414D01*
X151199285Y-107452547D01*
X151297453Y-107550715D01*
X151374586Y-107666153D01*
X151427715Y-107794417D01*
X151454800Y-107930583D01*
X151454800Y-108069417D01*
X151427715Y-108205583D01*
X151374586Y-108333847D01*
X151374585Y-108333848D01*
X151318171Y-108418279D01*
X151297453Y-108449285D01*
X151199285Y-108547453D01*
X151083847Y-108624586D01*
X150955583Y-108677715D01*
X150819417Y-108704800D01*
X150680583Y-108704800D01*
X150544417Y-108677715D01*
X150416153Y-108624586D01*
X150300715Y-108547453D01*
X150202547Y-108449285D01*
X150181830Y-108418279D01*
X150125415Y-108333848D01*
X150125414Y-108333847D01*
X150072285Y-108205583D01*
X150045200Y-108069417D01*
X150045200Y-107930583D01*
X150072285Y-107794417D01*
X150125414Y-107666153D01*
X150202547Y-107550715D01*
X150300715Y-107452547D01*
X150416153Y-107375414D01*
X150544417Y-107322285D01*
X150680583Y-107295200D01*
X150819417Y-107295200D01*
X150955583Y-107322285D01*
G37*
G36*
X142262754Y-106753817D02*
G01*
X142426689Y-106821721D01*
X142574227Y-106920303D01*
X142699697Y-107045773D01*
X142798279Y-107193311D01*
X142866183Y-107357246D01*
X142900800Y-107531279D01*
X142900800Y-107708721D01*
X142866183Y-107882754D01*
X142798279Y-108046689D01*
X142699697Y-108194227D01*
X142574227Y-108319697D01*
X142426689Y-108418279D01*
X142262754Y-108486183D01*
X142088721Y-108520800D01*
X141911279Y-108520800D01*
X141737246Y-108486183D01*
X141573311Y-108418279D01*
X141425773Y-108319697D01*
X141300303Y-108194227D01*
X141201721Y-108046689D01*
X141133817Y-107882754D01*
X141099200Y-107708721D01*
X141099200Y-107531279D01*
X141133817Y-107357246D01*
X141201721Y-107193311D01*
X141300303Y-107045773D01*
X141425773Y-106920303D01*
X141573311Y-106821721D01*
X141737246Y-106753817D01*
X141911279Y-106719200D01*
X142088721Y-106719200D01*
X142262754Y-106753817D01*
G37*
G36*
X102262754Y-106753817D02*
G01*
X102426689Y-106821721D01*
X102574227Y-106920303D01*
X102699697Y-107045773D01*
X102798279Y-107193311D01*
X102866183Y-107357246D01*
X102900800Y-107531279D01*
X102900800Y-107708721D01*
X102866183Y-107882754D01*
X102798279Y-108046689D01*
X102699697Y-108194227D01*
X102574227Y-108319697D01*
X102426689Y-108418279D01*
X102262754Y-108486183D01*
X102088721Y-108520800D01*
X101911279Y-108520800D01*
X101737246Y-108486183D01*
X101573311Y-108418279D01*
X101425773Y-108319697D01*
X101300303Y-108194227D01*
X101201721Y-108046689D01*
X101133817Y-107882754D01*
X101099200Y-107708721D01*
X101099200Y-107531279D01*
X101133817Y-107357246D01*
X101201721Y-107193311D01*
X101300303Y-107045773D01*
X101425773Y-106920303D01*
X101573311Y-106821721D01*
X101737246Y-106753817D01*
X101911279Y-106719200D01*
X102088721Y-106719200D01*
X102262754Y-106753817D01*
G37*
G36*
X112262754Y-106753817D02*
G01*
X112426689Y-106821721D01*
X112574227Y-106920303D01*
X112699697Y-107045773D01*
X112798279Y-107193311D01*
X112866183Y-107357246D01*
X112900800Y-107531279D01*
X112900800Y-107708721D01*
X112866183Y-107882754D01*
X112798279Y-108046689D01*
X112699697Y-108194227D01*
X112574227Y-108319697D01*
X112426689Y-108418279D01*
X112262754Y-108486183D01*
X112088721Y-108520800D01*
X111911279Y-108520800D01*
X111737246Y-108486183D01*
X111573311Y-108418279D01*
X111425773Y-108319697D01*
X111300303Y-108194227D01*
X111201721Y-108046689D01*
X111133817Y-107882754D01*
X111099200Y-107708721D01*
X111099200Y-107531279D01*
X111133817Y-107357246D01*
X111201721Y-107193311D01*
X111300303Y-107045773D01*
X111425773Y-106920303D01*
X111573311Y-106821721D01*
X111737246Y-106753817D01*
X111911279Y-106719200D01*
X112088721Y-106719200D01*
X112262754Y-106753817D01*
G37*
G36*
X122262754Y-106753817D02*
G01*
X122426689Y-106821721D01*
X122574227Y-106920303D01*
X122699697Y-107045773D01*
X122798279Y-107193311D01*
X122866183Y-107357246D01*
X122900800Y-107531279D01*
X122900800Y-107708721D01*
X122866183Y-107882754D01*
X122798279Y-108046689D01*
X122699697Y-108194227D01*
X122574227Y-108319697D01*
X122426689Y-108418279D01*
X122262754Y-108486183D01*
X122088721Y-108520800D01*
X121911279Y-108520800D01*
X121737246Y-108486183D01*
X121573311Y-108418279D01*
X121425773Y-108319697D01*
X121300303Y-108194227D01*
X121201721Y-108046689D01*
X121133817Y-107882754D01*
X121099200Y-107708721D01*
X121099200Y-107531279D01*
X121133817Y-107357246D01*
X121201721Y-107193311D01*
X121300303Y-107045773D01*
X121425773Y-106920303D01*
X121573311Y-106821721D01*
X121737246Y-106753817D01*
X121911279Y-106719200D01*
X122088721Y-106719200D01*
X122262754Y-106753817D01*
G37*
G36*
X132262754Y-106753817D02*
G01*
X132426689Y-106821721D01*
X132574227Y-106920303D01*
X132699697Y-107045773D01*
X132798279Y-107193311D01*
X132866183Y-107357246D01*
X132900800Y-107531279D01*
X132900800Y-107708721D01*
X132866183Y-107882754D01*
X132798279Y-108046689D01*
X132699697Y-108194227D01*
X132574227Y-108319697D01*
X132426689Y-108418279D01*
X132262754Y-108486183D01*
X132088721Y-108520800D01*
X131911279Y-108520800D01*
X131737246Y-108486183D01*
X131573311Y-108418279D01*
X131425773Y-108319697D01*
X131300303Y-108194227D01*
X131201721Y-108046689D01*
X131133817Y-107882754D01*
X131099200Y-107708721D01*
X131099200Y-107531279D01*
X131133817Y-107357246D01*
X131201721Y-107193311D01*
X131300303Y-107045773D01*
X131425773Y-106920303D01*
X131573311Y-106821721D01*
X131737246Y-106753817D01*
X131911279Y-106719200D01*
X132088721Y-106719200D01*
X132262754Y-106753817D01*
G37*
G36*
X93705583Y-105322285D02*
G01*
X93833847Y-105375414D01*
X93949285Y-105452547D01*
X94047453Y-105550715D01*
X94124586Y-105666153D01*
X94177715Y-105794417D01*
X94204800Y-105930583D01*
X94204800Y-106069417D01*
X94177715Y-106205583D01*
X94124586Y-106333847D01*
X94047453Y-106449285D01*
X93949285Y-106547453D01*
X93833847Y-106624586D01*
X93705583Y-106677715D01*
X93569417Y-106704800D01*
X93430583Y-106704800D01*
X93294417Y-106677715D01*
X93166153Y-106624586D01*
X93050715Y-106547453D01*
X92952547Y-106449285D01*
X92875414Y-106333847D01*
X92822285Y-106205583D01*
X92795200Y-106069417D01*
X92795200Y-105930583D01*
X92822285Y-105794417D01*
X92875414Y-105666153D01*
X92952547Y-105550715D01*
X93050715Y-105452547D01*
X93166153Y-105375414D01*
X93294417Y-105322285D01*
X93430583Y-105295200D01*
X93569417Y-105295200D01*
X93705583Y-105322285D01*
G37*
G36*
X150955583Y-105322285D02*
G01*
X151083847Y-105375414D01*
X151199285Y-105452547D01*
X151297453Y-105550715D01*
X151374586Y-105666153D01*
X151427715Y-105794417D01*
X151454800Y-105930583D01*
X151454800Y-106069417D01*
X151427715Y-106205583D01*
X151374586Y-106333847D01*
X151297453Y-106449285D01*
X151199285Y-106547453D01*
X151083847Y-106624586D01*
X150955583Y-106677715D01*
X150819417Y-106704800D01*
X150680583Y-106704800D01*
X150544417Y-106677715D01*
X150416153Y-106624586D01*
X150300715Y-106547453D01*
X150202547Y-106449285D01*
X150125414Y-106333847D01*
X150072285Y-106205583D01*
X150045200Y-106069417D01*
X150045200Y-105930583D01*
X150072285Y-105794417D01*
X150125414Y-105666153D01*
X150202547Y-105550715D01*
X150300715Y-105452547D01*
X150416153Y-105375414D01*
X150544417Y-105322285D01*
X150680583Y-105295200D01*
X150819417Y-105295200D01*
X150955583Y-105322285D01*
G37*
G36*
X132262754Y-104213817D02*
G01*
X132426689Y-104281721D01*
X132574227Y-104380303D01*
X132699697Y-104505773D01*
X132798279Y-104653311D01*
X132866183Y-104817246D01*
X132900800Y-104991279D01*
X132900800Y-105168721D01*
X132866183Y-105342754D01*
X132798279Y-105506689D01*
X132699697Y-105654227D01*
X132574227Y-105779697D01*
X132426689Y-105878279D01*
X132262754Y-105946183D01*
X132088721Y-105980800D01*
X131911279Y-105980800D01*
X131737246Y-105946183D01*
X131573311Y-105878279D01*
X131425773Y-105779697D01*
X131300303Y-105654227D01*
X131201721Y-105506689D01*
X131133817Y-105342754D01*
X131099200Y-105168721D01*
X131099200Y-104991279D01*
X131133817Y-104817246D01*
X131201721Y-104653311D01*
X131300303Y-104505773D01*
X131425773Y-104380303D01*
X131573311Y-104281721D01*
X131737246Y-104213817D01*
X131911279Y-104179200D01*
X132088721Y-104179200D01*
X132262754Y-104213817D01*
G37*
G36*
X122262754Y-104213817D02*
G01*
X122426689Y-104281721D01*
X122574227Y-104380303D01*
X122699697Y-104505773D01*
X122798279Y-104653311D01*
X122866183Y-104817246D01*
X122900800Y-104991279D01*
X122900800Y-105168721D01*
X122866183Y-105342754D01*
X122798279Y-105506689D01*
X122699697Y-105654227D01*
X122574227Y-105779697D01*
X122426689Y-105878279D01*
X122262754Y-105946183D01*
X122088721Y-105980800D01*
X121911279Y-105980800D01*
X121737246Y-105946183D01*
X121573311Y-105878279D01*
X121425773Y-105779697D01*
X121300303Y-105654227D01*
X121201721Y-105506689D01*
X121133817Y-105342754D01*
X121099200Y-105168721D01*
X121099200Y-104991279D01*
X121133817Y-104817246D01*
X121201721Y-104653311D01*
X121300303Y-104505773D01*
X121425773Y-104380303D01*
X121573311Y-104281721D01*
X121737246Y-104213817D01*
X121911279Y-104179200D01*
X122088721Y-104179200D01*
X122262754Y-104213817D01*
G37*
G36*
X142262754Y-104213817D02*
G01*
X142426689Y-104281721D01*
X142574227Y-104380303D01*
X142699697Y-104505773D01*
X142798279Y-104653311D01*
X142866183Y-104817246D01*
X142900800Y-104991279D01*
X142900800Y-105168721D01*
X142866183Y-105342754D01*
X142798279Y-105506689D01*
X142699697Y-105654227D01*
X142574227Y-105779697D01*
X142426689Y-105878279D01*
X142262754Y-105946183D01*
X142088721Y-105980800D01*
X141911279Y-105980800D01*
X141737246Y-105946183D01*
X141573311Y-105878279D01*
X141425773Y-105779697D01*
X141300303Y-105654227D01*
X141201721Y-105506689D01*
X141133817Y-105342754D01*
X141099200Y-105168721D01*
X141099200Y-104991279D01*
X141133817Y-104817246D01*
X141201721Y-104653311D01*
X141300303Y-104505773D01*
X141425773Y-104380303D01*
X141573311Y-104281721D01*
X141737246Y-104213817D01*
X141911279Y-104179200D01*
X142088721Y-104179200D01*
X142262754Y-104213817D01*
G37*
G36*
X112262754Y-104213817D02*
G01*
X112426689Y-104281721D01*
X112574227Y-104380303D01*
X112699697Y-104505773D01*
X112798279Y-104653311D01*
X112866183Y-104817246D01*
X112900800Y-104991279D01*
X112900800Y-105168721D01*
X112866183Y-105342754D01*
X112798279Y-105506689D01*
X112699697Y-105654227D01*
X112574227Y-105779697D01*
X112426689Y-105878279D01*
X112262754Y-105946183D01*
X112088721Y-105980800D01*
X111911279Y-105980800D01*
X111737246Y-105946183D01*
X111573311Y-105878279D01*
X111425773Y-105779697D01*
X111300303Y-105654227D01*
X111201721Y-105506689D01*
X111133817Y-105342754D01*
X111099200Y-105168721D01*
X111099200Y-104991279D01*
X111133817Y-104817246D01*
X111201721Y-104653311D01*
X111300303Y-104505773D01*
X111425773Y-104380303D01*
X111573311Y-104281721D01*
X111737246Y-104213817D01*
X111911279Y-104179200D01*
X112088721Y-104179200D01*
X112262754Y-104213817D01*
G37*
G36*
X102262754Y-104213817D02*
G01*
X102426689Y-104281721D01*
X102574227Y-104380303D01*
X102699697Y-104505773D01*
X102798279Y-104653311D01*
X102866183Y-104817246D01*
X102900800Y-104991279D01*
X102900800Y-105168721D01*
X102866183Y-105342754D01*
X102798279Y-105506689D01*
X102699697Y-105654227D01*
X102574227Y-105779697D01*
X102426689Y-105878279D01*
X102262754Y-105946183D01*
X102088721Y-105980800D01*
X101911279Y-105980800D01*
X101737246Y-105946183D01*
X101573311Y-105878279D01*
X101425773Y-105779697D01*
X101300303Y-105654227D01*
X101201721Y-105506689D01*
X101133817Y-105342754D01*
X101099200Y-105168721D01*
X101099200Y-104991279D01*
X101133817Y-104817246D01*
X101201721Y-104653311D01*
X101300303Y-104505773D01*
X101425773Y-104380303D01*
X101573311Y-104281721D01*
X101737246Y-104213817D01*
X101911279Y-104179200D01*
X102088721Y-104179200D01*
X102262754Y-104213817D01*
G37*
G36*
X93705583Y-103322285D02*
G01*
X93833847Y-103375414D01*
X93833848Y-103375415D01*
X93931705Y-103440800D01*
X93949285Y-103452547D01*
X94047453Y-103550715D01*
X94124586Y-103666153D01*
X94177715Y-103794417D01*
X94204800Y-103930583D01*
X94204800Y-104069417D01*
X94177715Y-104205583D01*
X94124586Y-104333847D01*
X94047453Y-104449285D01*
X93949285Y-104547453D01*
X93833847Y-104624586D01*
X93705583Y-104677715D01*
X93569417Y-104704800D01*
X93430583Y-104704800D01*
X93294417Y-104677715D01*
X93166153Y-104624586D01*
X93050715Y-104547453D01*
X92952547Y-104449285D01*
X92875414Y-104333847D01*
X92822285Y-104205583D01*
X92795200Y-104069417D01*
X92795200Y-103930583D01*
X92822285Y-103794417D01*
X92875414Y-103666153D01*
X92952547Y-103550715D01*
X93050715Y-103452547D01*
X93068296Y-103440800D01*
X93166152Y-103375415D01*
X93166153Y-103375414D01*
X93294417Y-103322285D01*
X93430583Y-103295200D01*
X93569417Y-103295200D01*
X93705583Y-103322285D01*
G37*
G36*
X150955583Y-103322285D02*
G01*
X151083847Y-103375414D01*
X151083848Y-103375415D01*
X151181705Y-103440800D01*
X151199285Y-103452547D01*
X151297453Y-103550715D01*
X151374586Y-103666153D01*
X151427715Y-103794417D01*
X151454800Y-103930583D01*
X151454800Y-104069417D01*
X151427715Y-104205583D01*
X151374586Y-104333847D01*
X151297453Y-104449285D01*
X151199285Y-104547453D01*
X151083847Y-104624586D01*
X150955583Y-104677715D01*
X150819417Y-104704800D01*
X150680583Y-104704800D01*
X150544417Y-104677715D01*
X150416153Y-104624586D01*
X150300715Y-104547453D01*
X150202547Y-104449285D01*
X150125414Y-104333847D01*
X150072285Y-104205583D01*
X150045200Y-104069417D01*
X150045200Y-103930583D01*
X150072285Y-103794417D01*
X150125414Y-103666153D01*
X150202547Y-103550715D01*
X150300715Y-103452547D01*
X150318296Y-103440800D01*
X150416152Y-103375415D01*
X150416153Y-103375414D01*
X150544417Y-103322285D01*
X150680583Y-103295200D01*
X150819417Y-103295200D01*
X150955583Y-103322285D01*
G37*
G36*
X102262754Y-101673817D02*
G01*
X102426689Y-101741721D01*
X102574227Y-101840303D01*
X102699697Y-101965773D01*
X102798279Y-102113311D01*
X102866183Y-102277246D01*
X102900800Y-102451279D01*
X102900800Y-102628721D01*
X102866183Y-102802754D01*
X102798279Y-102966689D01*
X102699697Y-103114227D01*
X102574227Y-103239697D01*
X102426689Y-103338279D01*
X102262754Y-103406183D01*
X102088721Y-103440800D01*
X101911279Y-103440800D01*
X101737246Y-103406183D01*
X101573311Y-103338279D01*
X101425773Y-103239697D01*
X101300303Y-103114227D01*
X101201721Y-102966689D01*
X101133817Y-102802754D01*
X101099200Y-102628721D01*
X101099200Y-102451279D01*
X101133817Y-102277246D01*
X101201721Y-102113311D01*
X101300303Y-101965773D01*
X101425773Y-101840303D01*
X101573311Y-101741721D01*
X101737246Y-101673817D01*
X101911279Y-101639200D01*
X102088721Y-101639200D01*
X102262754Y-101673817D01*
G37*
G36*
X142262754Y-101673817D02*
G01*
X142426689Y-101741721D01*
X142574227Y-101840303D01*
X142699697Y-101965773D01*
X142798279Y-102113311D01*
X142866183Y-102277246D01*
X142900800Y-102451279D01*
X142900800Y-102628721D01*
X142866183Y-102802754D01*
X142798279Y-102966689D01*
X142699697Y-103114227D01*
X142574227Y-103239697D01*
X142426689Y-103338279D01*
X142262754Y-103406183D01*
X142088721Y-103440800D01*
X141911279Y-103440800D01*
X141737246Y-103406183D01*
X141573311Y-103338279D01*
X141425773Y-103239697D01*
X141300303Y-103114227D01*
X141201721Y-102966689D01*
X141133817Y-102802754D01*
X141099200Y-102628721D01*
X141099200Y-102451279D01*
X141133817Y-102277246D01*
X141201721Y-102113311D01*
X141300303Y-101965773D01*
X141425773Y-101840303D01*
X141573311Y-101741721D01*
X141737246Y-101673817D01*
X141911279Y-101639200D01*
X142088721Y-101639200D01*
X142262754Y-101673817D01*
G37*
G36*
X132262754Y-101673817D02*
G01*
X132426689Y-101741721D01*
X132574227Y-101840303D01*
X132699697Y-101965773D01*
X132798279Y-102113311D01*
X132866183Y-102277246D01*
X132900800Y-102451279D01*
X132900800Y-102628721D01*
X132866183Y-102802754D01*
X132798279Y-102966689D01*
X132699697Y-103114227D01*
X132574227Y-103239697D01*
X132426689Y-103338279D01*
X132262754Y-103406183D01*
X132088721Y-103440800D01*
X131911279Y-103440800D01*
X131737246Y-103406183D01*
X131573311Y-103338279D01*
X131425773Y-103239697D01*
X131300303Y-103114227D01*
X131201721Y-102966689D01*
X131133817Y-102802754D01*
X131099200Y-102628721D01*
X131099200Y-102451279D01*
X131133817Y-102277246D01*
X131201721Y-102113311D01*
X131300303Y-101965773D01*
X131425773Y-101840303D01*
X131573311Y-101741721D01*
X131737246Y-101673817D01*
X131911279Y-101639200D01*
X132088721Y-101639200D01*
X132262754Y-101673817D01*
G37*
G36*
X122262754Y-101673817D02*
G01*
X122426689Y-101741721D01*
X122574227Y-101840303D01*
X122699697Y-101965773D01*
X122798279Y-102113311D01*
X122866183Y-102277246D01*
X122900800Y-102451279D01*
X122900800Y-102628721D01*
X122866183Y-102802754D01*
X122798279Y-102966689D01*
X122699697Y-103114227D01*
X122574227Y-103239697D01*
X122426689Y-103338279D01*
X122262754Y-103406183D01*
X122088721Y-103440800D01*
X121911279Y-103440800D01*
X121737246Y-103406183D01*
X121573311Y-103338279D01*
X121425773Y-103239697D01*
X121300303Y-103114227D01*
X121201721Y-102966689D01*
X121133817Y-102802754D01*
X121099200Y-102628721D01*
X121099200Y-102451279D01*
X121133817Y-102277246D01*
X121201721Y-102113311D01*
X121300303Y-101965773D01*
X121425773Y-101840303D01*
X121573311Y-101741721D01*
X121737246Y-101673817D01*
X121911279Y-101639200D01*
X122088721Y-101639200D01*
X122262754Y-101673817D01*
G37*
G36*
X112262754Y-101673817D02*
G01*
X112426689Y-101741721D01*
X112574227Y-101840303D01*
X112699697Y-101965773D01*
X112798279Y-102113311D01*
X112866183Y-102277246D01*
X112900800Y-102451279D01*
X112900800Y-102628721D01*
X112866183Y-102802754D01*
X112798279Y-102966689D01*
X112699697Y-103114227D01*
X112574227Y-103239697D01*
X112426689Y-103338279D01*
X112262754Y-103406183D01*
X112088721Y-103440800D01*
X111911279Y-103440800D01*
X111737246Y-103406183D01*
X111573311Y-103338279D01*
X111425773Y-103239697D01*
X111300303Y-103114227D01*
X111201721Y-102966689D01*
X111133817Y-102802754D01*
X111099200Y-102628721D01*
X111099200Y-102451279D01*
X111133817Y-102277246D01*
X111201721Y-102113311D01*
X111300303Y-101965773D01*
X111425773Y-101840303D01*
X111573311Y-101741721D01*
X111737246Y-101673817D01*
X111911279Y-101639200D01*
X112088721Y-101639200D01*
X112262754Y-101673817D01*
G37*
G36*
X151454800Y-102704800D02*
G01*
X150045200Y-102704800D01*
X150045200Y-101295200D01*
X151454800Y-101295200D01*
X151454800Y-102704800D01*
G37*
G36*
X94204800Y-102704800D02*
G01*
X92795200Y-102704800D01*
X92795200Y-101295200D01*
X94204800Y-101295200D01*
X94204800Y-102704800D01*
G37*
G36*
X112900800Y-100900800D02*
G01*
X111099200Y-100900800D01*
X111099200Y-99099200D01*
X112900800Y-99099200D01*
X112900800Y-100900800D01*
G37*
G36*
X102900800Y-100900800D02*
G01*
X101099200Y-100900800D01*
X101099200Y-99099200D01*
X102900800Y-99099200D01*
X102900800Y-100900800D01*
G37*
G36*
X142900800Y-100900800D02*
G01*
X141099200Y-100900800D01*
X141099200Y-99099200D01*
X142900800Y-99099200D01*
X142900800Y-100900800D01*
G37*
G36*
X132900800Y-100900800D02*
G01*
X131099200Y-100900800D01*
X131099200Y-99099200D01*
X132900800Y-99099200D01*
X132900800Y-100900800D01*
G37*
G36*
X122900800Y-100900800D02*
G01*
X121099200Y-100900800D01*
X121099200Y-99099200D01*
X122900800Y-99099200D01*
X122900800Y-100900800D01*
G37*
G36*
X88744041Y-93547226D02*
G01*
X89208257Y-93739510D01*
X89626042Y-94018665D01*
X89981335Y-94373958D01*
X90260490Y-94791743D01*
X90452774Y-95255959D01*
X90550800Y-95748768D01*
X90550800Y-96251232D01*
X90452774Y-96744041D01*
X90260490Y-97208257D01*
X89981335Y-97626042D01*
X89626042Y-97981335D01*
X89208257Y-98260490D01*
X88744041Y-98452774D01*
X88251232Y-98550800D01*
X87748768Y-98550800D01*
X87255959Y-98452774D01*
X86791743Y-98260490D01*
X86373958Y-97981335D01*
X86018665Y-97626042D01*
X85739510Y-97208257D01*
X85547226Y-96744041D01*
X85449200Y-96251232D01*
X85449200Y-95748768D01*
X85547226Y-95255959D01*
X85739510Y-94791743D01*
X86018665Y-94373958D01*
X86373958Y-94018665D01*
X86791743Y-93739510D01*
X87255959Y-93547226D01*
X87748768Y-93449200D01*
X88251232Y-93449200D01*
X88744041Y-93547226D01*
G37*
G36*
X155744041Y-93547226D02*
G01*
X156208257Y-93739510D01*
X156626042Y-94018665D01*
X156981335Y-94373958D01*
X157260490Y-94791743D01*
X157452774Y-95255959D01*
X157550800Y-95748768D01*
X157550800Y-96251232D01*
X157452774Y-96744041D01*
X157260490Y-97208257D01*
X156981335Y-97626042D01*
X156626042Y-97981335D01*
X156208257Y-98260490D01*
X155744041Y-98452774D01*
X155251232Y-98550800D01*
X154748768Y-98550800D01*
X154255959Y-98452774D01*
X153791743Y-98260490D01*
X153373958Y-97981335D01*
X153018665Y-97626042D01*
X152739510Y-97208257D01*
X152547226Y-96744041D01*
X152449200Y-96251232D01*
X152449200Y-95748768D01*
X152547226Y-95255959D01*
X152739510Y-94791743D01*
X153018665Y-94373958D01*
X153373958Y-94018665D01*
X153791743Y-93739510D01*
X154255959Y-93547226D01*
X154748768Y-93449200D01*
X155251232Y-93449200D01*
X155744041Y-93547226D01*
G37*
M02*
