G04 #@! TF.GenerationSoftware,KiCad,Pcbnew,(5.1.5)-3*
G04 #@! TF.CreationDate,2020-09-01T16:09:18+01:00*
G04 #@! TF.ProjectId,groveToPi,67726f76-6554-46f5-9069-2e6b69636164,1.1.0*
G04 #@! TF.SameCoordinates,Original*
G04 #@! TF.FileFunction,Copper,L2,Bot*
G04 #@! TF.FilePolarity,Positive*
%FSLAX46Y46*%
G04 Gerber Fmt 4.6, Leading zero omitted, Abs format (unit mm)*
G04 Created by KiCad (PCBNEW (5.1.5)-3) date 2020-09-01 16:09:18*
%MOMM*%
%LPD*%
G04 APERTURE LIST*
%ADD10R,1.308000X1.308000*%
%ADD11C,1.308000*%
%ADD12C,5.000000*%
%ADD13R,1.700000X1.700000*%
%ADD14O,1.700000X1.700000*%
%ADD15C,0.508000*%
%ADD16C,0.254000*%
G04 APERTURE END LIST*
D10*
X150750000Y-102000000D03*
D11*
X150750000Y-104000000D03*
X150750000Y-106000000D03*
X150750000Y-108000000D03*
X93500000Y-108000000D03*
X93500000Y-106000000D03*
X93500000Y-104000000D03*
D10*
X93500000Y-102000000D03*
D12*
X155000000Y-114000000D03*
X88000000Y-114000000D03*
X88000000Y-96000000D03*
X155000000Y-96000000D03*
D13*
X102000000Y-100000000D03*
D14*
X102000000Y-102540000D03*
X102000000Y-105080000D03*
X102000000Y-107620000D03*
X102000000Y-110160000D03*
X112000000Y-110160000D03*
X112000000Y-107620000D03*
X112000000Y-105080000D03*
X112000000Y-102540000D03*
D13*
X112000000Y-100000000D03*
X122000000Y-100000000D03*
D14*
X122000000Y-102540000D03*
X122000000Y-105080000D03*
X122000000Y-107620000D03*
X122000000Y-110160000D03*
X132000000Y-110160000D03*
X132000000Y-107620000D03*
X132000000Y-105080000D03*
X132000000Y-102540000D03*
D13*
X132000000Y-100000000D03*
X142000000Y-100000000D03*
D14*
X142000000Y-102540000D03*
X142000000Y-105080000D03*
X142000000Y-107620000D03*
X142000000Y-110160000D03*
D15*
X93500000Y-104000000D02*
X97650600Y-104000000D01*
X99110600Y-102540000D02*
X102000000Y-102540000D01*
X97650600Y-104000000D02*
X99110600Y-102540000D01*
X102000000Y-102540000D02*
X142000000Y-102540000D01*
X150750000Y-104000000D02*
X146052840Y-104000000D01*
X144592840Y-102540000D02*
X142000000Y-102540000D01*
X146052840Y-104000000D02*
X144592840Y-102540000D01*
D16*
G36*
X158873000Y-117873000D02*
G01*
X84127000Y-117873000D01*
X84127000Y-113691229D01*
X84865000Y-113691229D01*
X84865000Y-114308771D01*
X84985476Y-114914446D01*
X85221799Y-115484979D01*
X85564886Y-115998446D01*
X86001554Y-116435114D01*
X86515021Y-116778201D01*
X87085554Y-117014524D01*
X87691229Y-117135000D01*
X88308771Y-117135000D01*
X88914446Y-117014524D01*
X89484979Y-116778201D01*
X89998446Y-116435114D01*
X90435114Y-115998446D01*
X90778201Y-115484979D01*
X91014524Y-114914446D01*
X91135000Y-114308771D01*
X91135000Y-113691229D01*
X151865000Y-113691229D01*
X151865000Y-114308771D01*
X151985476Y-114914446D01*
X152221799Y-115484979D01*
X152564886Y-115998446D01*
X153001554Y-116435114D01*
X153515021Y-116778201D01*
X154085554Y-117014524D01*
X154691229Y-117135000D01*
X155308771Y-117135000D01*
X155914446Y-117014524D01*
X156484979Y-116778201D01*
X156998446Y-116435114D01*
X157435114Y-115998446D01*
X157778201Y-115484979D01*
X158014524Y-114914446D01*
X158135000Y-114308771D01*
X158135000Y-113691229D01*
X158014524Y-113085554D01*
X157778201Y-112515021D01*
X157435114Y-112001554D01*
X156998446Y-111564886D01*
X156484979Y-111221799D01*
X155914446Y-110985476D01*
X155308771Y-110865000D01*
X154691229Y-110865000D01*
X154085554Y-110985476D01*
X153515021Y-111221799D01*
X153001554Y-111564886D01*
X152564886Y-112001554D01*
X152221799Y-112515021D01*
X151985476Y-113085554D01*
X151865000Y-113691229D01*
X91135000Y-113691229D01*
X91014524Y-113085554D01*
X90778201Y-112515021D01*
X90435114Y-112001554D01*
X89998446Y-111564886D01*
X89484979Y-111221799D01*
X88914446Y-110985476D01*
X88308771Y-110865000D01*
X87691229Y-110865000D01*
X87085554Y-110985476D01*
X86515021Y-111221799D01*
X86001554Y-111564886D01*
X85564886Y-112001554D01*
X85221799Y-112515021D01*
X84985476Y-113085554D01*
X84865000Y-113691229D01*
X84127000Y-113691229D01*
X84127000Y-110516890D01*
X100558524Y-110516890D01*
X100603175Y-110664099D01*
X100728359Y-110926920D01*
X100902412Y-111160269D01*
X101118645Y-111355178D01*
X101368748Y-111504157D01*
X101643109Y-111601481D01*
X101873000Y-111480814D01*
X101873000Y-110287000D01*
X102127000Y-110287000D01*
X102127000Y-111480814D01*
X102356891Y-111601481D01*
X102631252Y-111504157D01*
X102881355Y-111355178D01*
X103097588Y-111160269D01*
X103271641Y-110926920D01*
X103396825Y-110664099D01*
X103441476Y-110516890D01*
X110558524Y-110516890D01*
X110603175Y-110664099D01*
X110728359Y-110926920D01*
X110902412Y-111160269D01*
X111118645Y-111355178D01*
X111368748Y-111504157D01*
X111643109Y-111601481D01*
X111873000Y-111480814D01*
X111873000Y-110287000D01*
X112127000Y-110287000D01*
X112127000Y-111480814D01*
X112356891Y-111601481D01*
X112631252Y-111504157D01*
X112881355Y-111355178D01*
X113097588Y-111160269D01*
X113271641Y-110926920D01*
X113396825Y-110664099D01*
X113441476Y-110516890D01*
X120558524Y-110516890D01*
X120603175Y-110664099D01*
X120728359Y-110926920D01*
X120902412Y-111160269D01*
X121118645Y-111355178D01*
X121368748Y-111504157D01*
X121643109Y-111601481D01*
X121873000Y-111480814D01*
X121873000Y-110287000D01*
X122127000Y-110287000D01*
X122127000Y-111480814D01*
X122356891Y-111601481D01*
X122631252Y-111504157D01*
X122881355Y-111355178D01*
X123097588Y-111160269D01*
X123271641Y-110926920D01*
X123396825Y-110664099D01*
X123441476Y-110516890D01*
X130558524Y-110516890D01*
X130603175Y-110664099D01*
X130728359Y-110926920D01*
X130902412Y-111160269D01*
X131118645Y-111355178D01*
X131368748Y-111504157D01*
X131643109Y-111601481D01*
X131873000Y-111480814D01*
X131873000Y-110287000D01*
X132127000Y-110287000D01*
X132127000Y-111480814D01*
X132356891Y-111601481D01*
X132631252Y-111504157D01*
X132881355Y-111355178D01*
X133097588Y-111160269D01*
X133271641Y-110926920D01*
X133396825Y-110664099D01*
X133441476Y-110516890D01*
X140558524Y-110516890D01*
X140603175Y-110664099D01*
X140728359Y-110926920D01*
X140902412Y-111160269D01*
X141118645Y-111355178D01*
X141368748Y-111504157D01*
X141643109Y-111601481D01*
X141873000Y-111480814D01*
X141873000Y-110287000D01*
X142127000Y-110287000D01*
X142127000Y-111480814D01*
X142356891Y-111601481D01*
X142631252Y-111504157D01*
X142881355Y-111355178D01*
X143097588Y-111160269D01*
X143271641Y-110926920D01*
X143396825Y-110664099D01*
X143441476Y-110516890D01*
X143320155Y-110287000D01*
X142127000Y-110287000D01*
X141873000Y-110287000D01*
X140679845Y-110287000D01*
X140558524Y-110516890D01*
X133441476Y-110516890D01*
X133320155Y-110287000D01*
X132127000Y-110287000D01*
X131873000Y-110287000D01*
X130679845Y-110287000D01*
X130558524Y-110516890D01*
X123441476Y-110516890D01*
X123320155Y-110287000D01*
X122127000Y-110287000D01*
X121873000Y-110287000D01*
X120679845Y-110287000D01*
X120558524Y-110516890D01*
X113441476Y-110516890D01*
X113320155Y-110287000D01*
X112127000Y-110287000D01*
X111873000Y-110287000D01*
X110679845Y-110287000D01*
X110558524Y-110516890D01*
X103441476Y-110516890D01*
X103320155Y-110287000D01*
X102127000Y-110287000D01*
X101873000Y-110287000D01*
X100679845Y-110287000D01*
X100558524Y-110516890D01*
X84127000Y-110516890D01*
X84127000Y-108888387D01*
X92791218Y-108888387D01*
X92845093Y-109117468D01*
X93075684Y-109223763D01*
X93322581Y-109283028D01*
X93576296Y-109292988D01*
X93827079Y-109253259D01*
X94065293Y-109165368D01*
X94154907Y-109117468D01*
X94208782Y-108888387D01*
X93500000Y-108179605D01*
X92791218Y-108888387D01*
X84127000Y-108888387D01*
X84127000Y-108076296D01*
X92207012Y-108076296D01*
X92246741Y-108327079D01*
X92334632Y-108565293D01*
X92382532Y-108654907D01*
X92611613Y-108708782D01*
X93320395Y-108000000D01*
X93679605Y-108000000D01*
X94388387Y-108708782D01*
X94617468Y-108654907D01*
X94723763Y-108424316D01*
X94783028Y-108177419D01*
X94792988Y-107923704D01*
X94753259Y-107672921D01*
X94665368Y-107434707D01*
X94617468Y-107345093D01*
X94388387Y-107291218D01*
X93679605Y-108000000D01*
X93320395Y-108000000D01*
X92611613Y-107291218D01*
X92382532Y-107345093D01*
X92276237Y-107575684D01*
X92216972Y-107822581D01*
X92207012Y-108076296D01*
X84127000Y-108076296D01*
X84127000Y-101346000D01*
X92207928Y-101346000D01*
X92207928Y-102654000D01*
X92220188Y-102778482D01*
X92256498Y-102898180D01*
X92315463Y-103008494D01*
X92394815Y-103105185D01*
X92491506Y-103184537D01*
X92493791Y-103185758D01*
X92357703Y-103389430D01*
X92260535Y-103624013D01*
X92211000Y-103873045D01*
X92211000Y-104126955D01*
X92260535Y-104375987D01*
X92357703Y-104610570D01*
X92498768Y-104821690D01*
X92677078Y-105000000D01*
X92498768Y-105178310D01*
X92357703Y-105389430D01*
X92260535Y-105624013D01*
X92211000Y-105873045D01*
X92211000Y-106126955D01*
X92260535Y-106375987D01*
X92357703Y-106610570D01*
X92498768Y-106821690D01*
X92678310Y-107001232D01*
X92798319Y-107081419D01*
X92791218Y-107111613D01*
X93500000Y-107820395D01*
X94208782Y-107111613D01*
X94201681Y-107081419D01*
X94321690Y-107001232D01*
X94501232Y-106821690D01*
X94642297Y-106610570D01*
X94739465Y-106375987D01*
X94789000Y-106126955D01*
X94789000Y-105873045D01*
X94739465Y-105624013D01*
X94642297Y-105389430D01*
X94501232Y-105178310D01*
X94322922Y-105000000D01*
X94433922Y-104889000D01*
X97606940Y-104889000D01*
X97650600Y-104893300D01*
X97694260Y-104889000D01*
X97694267Y-104889000D01*
X97824874Y-104876136D01*
X97992451Y-104825303D01*
X98146891Y-104742753D01*
X98282259Y-104631659D01*
X98310099Y-104597736D01*
X99478836Y-103429000D01*
X100808017Y-103429000D01*
X100846525Y-103486632D01*
X101053368Y-103693475D01*
X101227760Y-103810000D01*
X101053368Y-103926525D01*
X100846525Y-104133368D01*
X100684010Y-104376589D01*
X100572068Y-104646842D01*
X100515000Y-104933740D01*
X100515000Y-105226260D01*
X100572068Y-105513158D01*
X100684010Y-105783411D01*
X100846525Y-106026632D01*
X101053368Y-106233475D01*
X101227760Y-106350000D01*
X101053368Y-106466525D01*
X100846525Y-106673368D01*
X100684010Y-106916589D01*
X100572068Y-107186842D01*
X100515000Y-107473740D01*
X100515000Y-107766260D01*
X100572068Y-108053158D01*
X100684010Y-108323411D01*
X100846525Y-108566632D01*
X101053368Y-108773475D01*
X101235534Y-108895195D01*
X101118645Y-108964822D01*
X100902412Y-109159731D01*
X100728359Y-109393080D01*
X100603175Y-109655901D01*
X100558524Y-109803110D01*
X100679845Y-110033000D01*
X101873000Y-110033000D01*
X101873000Y-110013000D01*
X102127000Y-110013000D01*
X102127000Y-110033000D01*
X103320155Y-110033000D01*
X103441476Y-109803110D01*
X103396825Y-109655901D01*
X103271641Y-109393080D01*
X103097588Y-109159731D01*
X102881355Y-108964822D01*
X102764466Y-108895195D01*
X102946632Y-108773475D01*
X103153475Y-108566632D01*
X103315990Y-108323411D01*
X103427932Y-108053158D01*
X103485000Y-107766260D01*
X103485000Y-107473740D01*
X103427932Y-107186842D01*
X103315990Y-106916589D01*
X103153475Y-106673368D01*
X102946632Y-106466525D01*
X102772240Y-106350000D01*
X102946632Y-106233475D01*
X103153475Y-106026632D01*
X103315990Y-105783411D01*
X103427932Y-105513158D01*
X103485000Y-105226260D01*
X103485000Y-104933740D01*
X103427932Y-104646842D01*
X103315990Y-104376589D01*
X103153475Y-104133368D01*
X102946632Y-103926525D01*
X102772240Y-103810000D01*
X102946632Y-103693475D01*
X103153475Y-103486632D01*
X103191983Y-103429000D01*
X110808017Y-103429000D01*
X110846525Y-103486632D01*
X111053368Y-103693475D01*
X111227760Y-103810000D01*
X111053368Y-103926525D01*
X110846525Y-104133368D01*
X110684010Y-104376589D01*
X110572068Y-104646842D01*
X110515000Y-104933740D01*
X110515000Y-105226260D01*
X110572068Y-105513158D01*
X110684010Y-105783411D01*
X110846525Y-106026632D01*
X111053368Y-106233475D01*
X111227760Y-106350000D01*
X111053368Y-106466525D01*
X110846525Y-106673368D01*
X110684010Y-106916589D01*
X110572068Y-107186842D01*
X110515000Y-107473740D01*
X110515000Y-107766260D01*
X110572068Y-108053158D01*
X110684010Y-108323411D01*
X110846525Y-108566632D01*
X111053368Y-108773475D01*
X111235534Y-108895195D01*
X111118645Y-108964822D01*
X110902412Y-109159731D01*
X110728359Y-109393080D01*
X110603175Y-109655901D01*
X110558524Y-109803110D01*
X110679845Y-110033000D01*
X111873000Y-110033000D01*
X111873000Y-110013000D01*
X112127000Y-110013000D01*
X112127000Y-110033000D01*
X113320155Y-110033000D01*
X113441476Y-109803110D01*
X113396825Y-109655901D01*
X113271641Y-109393080D01*
X113097588Y-109159731D01*
X112881355Y-108964822D01*
X112764466Y-108895195D01*
X112946632Y-108773475D01*
X113153475Y-108566632D01*
X113315990Y-108323411D01*
X113427932Y-108053158D01*
X113485000Y-107766260D01*
X113485000Y-107473740D01*
X113427932Y-107186842D01*
X113315990Y-106916589D01*
X113153475Y-106673368D01*
X112946632Y-106466525D01*
X112772240Y-106350000D01*
X112946632Y-106233475D01*
X113153475Y-106026632D01*
X113315990Y-105783411D01*
X113427932Y-105513158D01*
X113485000Y-105226260D01*
X113485000Y-104933740D01*
X113427932Y-104646842D01*
X113315990Y-104376589D01*
X113153475Y-104133368D01*
X112946632Y-103926525D01*
X112772240Y-103810000D01*
X112946632Y-103693475D01*
X113153475Y-103486632D01*
X113191983Y-103429000D01*
X120808017Y-103429000D01*
X120846525Y-103486632D01*
X121053368Y-103693475D01*
X121227760Y-103810000D01*
X121053368Y-103926525D01*
X120846525Y-104133368D01*
X120684010Y-104376589D01*
X120572068Y-104646842D01*
X120515000Y-104933740D01*
X120515000Y-105226260D01*
X120572068Y-105513158D01*
X120684010Y-105783411D01*
X120846525Y-106026632D01*
X121053368Y-106233475D01*
X121227760Y-106350000D01*
X121053368Y-106466525D01*
X120846525Y-106673368D01*
X120684010Y-106916589D01*
X120572068Y-107186842D01*
X120515000Y-107473740D01*
X120515000Y-107766260D01*
X120572068Y-108053158D01*
X120684010Y-108323411D01*
X120846525Y-108566632D01*
X121053368Y-108773475D01*
X121235534Y-108895195D01*
X121118645Y-108964822D01*
X120902412Y-109159731D01*
X120728359Y-109393080D01*
X120603175Y-109655901D01*
X120558524Y-109803110D01*
X120679845Y-110033000D01*
X121873000Y-110033000D01*
X121873000Y-110013000D01*
X122127000Y-110013000D01*
X122127000Y-110033000D01*
X123320155Y-110033000D01*
X123441476Y-109803110D01*
X123396825Y-109655901D01*
X123271641Y-109393080D01*
X123097588Y-109159731D01*
X122881355Y-108964822D01*
X122764466Y-108895195D01*
X122946632Y-108773475D01*
X123153475Y-108566632D01*
X123315990Y-108323411D01*
X123427932Y-108053158D01*
X123485000Y-107766260D01*
X123485000Y-107473740D01*
X123427932Y-107186842D01*
X123315990Y-106916589D01*
X123153475Y-106673368D01*
X122946632Y-106466525D01*
X122772240Y-106350000D01*
X122946632Y-106233475D01*
X123153475Y-106026632D01*
X123315990Y-105783411D01*
X123427932Y-105513158D01*
X123485000Y-105226260D01*
X123485000Y-104933740D01*
X123427932Y-104646842D01*
X123315990Y-104376589D01*
X123153475Y-104133368D01*
X122946632Y-103926525D01*
X122772240Y-103810000D01*
X122946632Y-103693475D01*
X123153475Y-103486632D01*
X123191983Y-103429000D01*
X130808017Y-103429000D01*
X130846525Y-103486632D01*
X131053368Y-103693475D01*
X131227760Y-103810000D01*
X131053368Y-103926525D01*
X130846525Y-104133368D01*
X130684010Y-104376589D01*
X130572068Y-104646842D01*
X130515000Y-104933740D01*
X130515000Y-105226260D01*
X130572068Y-105513158D01*
X130684010Y-105783411D01*
X130846525Y-106026632D01*
X131053368Y-106233475D01*
X131227760Y-106350000D01*
X131053368Y-106466525D01*
X130846525Y-106673368D01*
X130684010Y-106916589D01*
X130572068Y-107186842D01*
X130515000Y-107473740D01*
X130515000Y-107766260D01*
X130572068Y-108053158D01*
X130684010Y-108323411D01*
X130846525Y-108566632D01*
X131053368Y-108773475D01*
X131235534Y-108895195D01*
X131118645Y-108964822D01*
X130902412Y-109159731D01*
X130728359Y-109393080D01*
X130603175Y-109655901D01*
X130558524Y-109803110D01*
X130679845Y-110033000D01*
X131873000Y-110033000D01*
X131873000Y-110013000D01*
X132127000Y-110013000D01*
X132127000Y-110033000D01*
X133320155Y-110033000D01*
X133441476Y-109803110D01*
X133396825Y-109655901D01*
X133271641Y-109393080D01*
X133097588Y-109159731D01*
X132881355Y-108964822D01*
X132764466Y-108895195D01*
X132946632Y-108773475D01*
X133153475Y-108566632D01*
X133315990Y-108323411D01*
X133427932Y-108053158D01*
X133485000Y-107766260D01*
X133485000Y-107473740D01*
X133427932Y-107186842D01*
X133315990Y-106916589D01*
X133153475Y-106673368D01*
X132946632Y-106466525D01*
X132772240Y-106350000D01*
X132946632Y-106233475D01*
X133153475Y-106026632D01*
X133315990Y-105783411D01*
X133427932Y-105513158D01*
X133485000Y-105226260D01*
X133485000Y-104933740D01*
X133427932Y-104646842D01*
X133315990Y-104376589D01*
X133153475Y-104133368D01*
X132946632Y-103926525D01*
X132772240Y-103810000D01*
X132946632Y-103693475D01*
X133153475Y-103486632D01*
X133191983Y-103429000D01*
X140808017Y-103429000D01*
X140846525Y-103486632D01*
X141053368Y-103693475D01*
X141227760Y-103810000D01*
X141053368Y-103926525D01*
X140846525Y-104133368D01*
X140684010Y-104376589D01*
X140572068Y-104646842D01*
X140515000Y-104933740D01*
X140515000Y-105226260D01*
X140572068Y-105513158D01*
X140684010Y-105783411D01*
X140846525Y-106026632D01*
X141053368Y-106233475D01*
X141227760Y-106350000D01*
X141053368Y-106466525D01*
X140846525Y-106673368D01*
X140684010Y-106916589D01*
X140572068Y-107186842D01*
X140515000Y-107473740D01*
X140515000Y-107766260D01*
X140572068Y-108053158D01*
X140684010Y-108323411D01*
X140846525Y-108566632D01*
X141053368Y-108773475D01*
X141235534Y-108895195D01*
X141118645Y-108964822D01*
X140902412Y-109159731D01*
X140728359Y-109393080D01*
X140603175Y-109655901D01*
X140558524Y-109803110D01*
X140679845Y-110033000D01*
X141873000Y-110033000D01*
X141873000Y-110013000D01*
X142127000Y-110013000D01*
X142127000Y-110033000D01*
X143320155Y-110033000D01*
X143441476Y-109803110D01*
X143396825Y-109655901D01*
X143271641Y-109393080D01*
X143097588Y-109159731D01*
X142881355Y-108964822D01*
X142764466Y-108895195D01*
X142774654Y-108888387D01*
X150041218Y-108888387D01*
X150095093Y-109117468D01*
X150325684Y-109223763D01*
X150572581Y-109283028D01*
X150826296Y-109292988D01*
X151077079Y-109253259D01*
X151315293Y-109165368D01*
X151404907Y-109117468D01*
X151458782Y-108888387D01*
X150750000Y-108179605D01*
X150041218Y-108888387D01*
X142774654Y-108888387D01*
X142946632Y-108773475D01*
X143153475Y-108566632D01*
X143315990Y-108323411D01*
X143418347Y-108076296D01*
X149457012Y-108076296D01*
X149496741Y-108327079D01*
X149584632Y-108565293D01*
X149632532Y-108654907D01*
X149861613Y-108708782D01*
X150570395Y-108000000D01*
X150929605Y-108000000D01*
X151638387Y-108708782D01*
X151867468Y-108654907D01*
X151973763Y-108424316D01*
X152033028Y-108177419D01*
X152042988Y-107923704D01*
X152003259Y-107672921D01*
X151915368Y-107434707D01*
X151867468Y-107345093D01*
X151638387Y-107291218D01*
X150929605Y-108000000D01*
X150570395Y-108000000D01*
X149861613Y-107291218D01*
X149632532Y-107345093D01*
X149526237Y-107575684D01*
X149466972Y-107822581D01*
X149457012Y-108076296D01*
X143418347Y-108076296D01*
X143427932Y-108053158D01*
X143485000Y-107766260D01*
X143485000Y-107473740D01*
X143427932Y-107186842D01*
X143315990Y-106916589D01*
X143153475Y-106673368D01*
X142946632Y-106466525D01*
X142772240Y-106350000D01*
X142946632Y-106233475D01*
X143153475Y-106026632D01*
X143315990Y-105783411D01*
X143427932Y-105513158D01*
X143485000Y-105226260D01*
X143485000Y-104933740D01*
X143427932Y-104646842D01*
X143315990Y-104376589D01*
X143153475Y-104133368D01*
X142946632Y-103926525D01*
X142772240Y-103810000D01*
X142946632Y-103693475D01*
X143153475Y-103486632D01*
X143191983Y-103429000D01*
X144224605Y-103429000D01*
X145393346Y-104597741D01*
X145421181Y-104631659D01*
X145556549Y-104742753D01*
X145589817Y-104760535D01*
X145704230Y-104821690D01*
X145710989Y-104825303D01*
X145805598Y-104854002D01*
X145878565Y-104876136D01*
X145895165Y-104877771D01*
X146009173Y-104889000D01*
X146009180Y-104889000D01*
X146052840Y-104893300D01*
X146096500Y-104889000D01*
X149816078Y-104889000D01*
X149927078Y-105000000D01*
X149748768Y-105178310D01*
X149607703Y-105389430D01*
X149510535Y-105624013D01*
X149461000Y-105873045D01*
X149461000Y-106126955D01*
X149510535Y-106375987D01*
X149607703Y-106610570D01*
X149748768Y-106821690D01*
X149928310Y-107001232D01*
X150048319Y-107081419D01*
X150041218Y-107111613D01*
X150750000Y-107820395D01*
X151458782Y-107111613D01*
X151451681Y-107081419D01*
X151571690Y-107001232D01*
X151751232Y-106821690D01*
X151892297Y-106610570D01*
X151989465Y-106375987D01*
X152039000Y-106126955D01*
X152039000Y-105873045D01*
X151989465Y-105624013D01*
X151892297Y-105389430D01*
X151751232Y-105178310D01*
X151572922Y-105000000D01*
X151751232Y-104821690D01*
X151892297Y-104610570D01*
X151989465Y-104375987D01*
X152039000Y-104126955D01*
X152039000Y-103873045D01*
X151989465Y-103624013D01*
X151892297Y-103389430D01*
X151756209Y-103185758D01*
X151758494Y-103184537D01*
X151855185Y-103105185D01*
X151934537Y-103008494D01*
X151993502Y-102898180D01*
X152029812Y-102778482D01*
X152042072Y-102654000D01*
X152042072Y-101346000D01*
X152029812Y-101221518D01*
X151993502Y-101101820D01*
X151934537Y-100991506D01*
X151855185Y-100894815D01*
X151758494Y-100815463D01*
X151648180Y-100756498D01*
X151528482Y-100720188D01*
X151404000Y-100707928D01*
X150096000Y-100707928D01*
X149971518Y-100720188D01*
X149851820Y-100756498D01*
X149741506Y-100815463D01*
X149644815Y-100894815D01*
X149565463Y-100991506D01*
X149506498Y-101101820D01*
X149470188Y-101221518D01*
X149457928Y-101346000D01*
X149457928Y-102654000D01*
X149470188Y-102778482D01*
X149506498Y-102898180D01*
X149565463Y-103008494D01*
X149644815Y-103105185D01*
X149651901Y-103111000D01*
X146421076Y-103111000D01*
X145252339Y-101942264D01*
X145224499Y-101908341D01*
X145089131Y-101797247D01*
X144934691Y-101714697D01*
X144767114Y-101663864D01*
X144636507Y-101651000D01*
X144636500Y-101651000D01*
X144592840Y-101646700D01*
X144549180Y-101651000D01*
X143191983Y-101651000D01*
X143153475Y-101593368D01*
X143021620Y-101461513D01*
X143094180Y-101439502D01*
X143204494Y-101380537D01*
X143301185Y-101301185D01*
X143380537Y-101204494D01*
X143439502Y-101094180D01*
X143475812Y-100974482D01*
X143488072Y-100850000D01*
X143488072Y-99150000D01*
X143475812Y-99025518D01*
X143439502Y-98905820D01*
X143380537Y-98795506D01*
X143301185Y-98698815D01*
X143204494Y-98619463D01*
X143094180Y-98560498D01*
X142974482Y-98524188D01*
X142850000Y-98511928D01*
X141150000Y-98511928D01*
X141025518Y-98524188D01*
X140905820Y-98560498D01*
X140795506Y-98619463D01*
X140698815Y-98698815D01*
X140619463Y-98795506D01*
X140560498Y-98905820D01*
X140524188Y-99025518D01*
X140511928Y-99150000D01*
X140511928Y-100850000D01*
X140524188Y-100974482D01*
X140560498Y-101094180D01*
X140619463Y-101204494D01*
X140698815Y-101301185D01*
X140795506Y-101380537D01*
X140905820Y-101439502D01*
X140978380Y-101461513D01*
X140846525Y-101593368D01*
X140808017Y-101651000D01*
X133191983Y-101651000D01*
X133153475Y-101593368D01*
X133021620Y-101461513D01*
X133094180Y-101439502D01*
X133204494Y-101380537D01*
X133301185Y-101301185D01*
X133380537Y-101204494D01*
X133439502Y-101094180D01*
X133475812Y-100974482D01*
X133488072Y-100850000D01*
X133488072Y-99150000D01*
X133475812Y-99025518D01*
X133439502Y-98905820D01*
X133380537Y-98795506D01*
X133301185Y-98698815D01*
X133204494Y-98619463D01*
X133094180Y-98560498D01*
X132974482Y-98524188D01*
X132850000Y-98511928D01*
X131150000Y-98511928D01*
X131025518Y-98524188D01*
X130905820Y-98560498D01*
X130795506Y-98619463D01*
X130698815Y-98698815D01*
X130619463Y-98795506D01*
X130560498Y-98905820D01*
X130524188Y-99025518D01*
X130511928Y-99150000D01*
X130511928Y-100850000D01*
X130524188Y-100974482D01*
X130560498Y-101094180D01*
X130619463Y-101204494D01*
X130698815Y-101301185D01*
X130795506Y-101380537D01*
X130905820Y-101439502D01*
X130978380Y-101461513D01*
X130846525Y-101593368D01*
X130808017Y-101651000D01*
X123191983Y-101651000D01*
X123153475Y-101593368D01*
X123021620Y-101461513D01*
X123094180Y-101439502D01*
X123204494Y-101380537D01*
X123301185Y-101301185D01*
X123380537Y-101204494D01*
X123439502Y-101094180D01*
X123475812Y-100974482D01*
X123488072Y-100850000D01*
X123488072Y-99150000D01*
X123475812Y-99025518D01*
X123439502Y-98905820D01*
X123380537Y-98795506D01*
X123301185Y-98698815D01*
X123204494Y-98619463D01*
X123094180Y-98560498D01*
X122974482Y-98524188D01*
X122850000Y-98511928D01*
X121150000Y-98511928D01*
X121025518Y-98524188D01*
X120905820Y-98560498D01*
X120795506Y-98619463D01*
X120698815Y-98698815D01*
X120619463Y-98795506D01*
X120560498Y-98905820D01*
X120524188Y-99025518D01*
X120511928Y-99150000D01*
X120511928Y-100850000D01*
X120524188Y-100974482D01*
X120560498Y-101094180D01*
X120619463Y-101204494D01*
X120698815Y-101301185D01*
X120795506Y-101380537D01*
X120905820Y-101439502D01*
X120978380Y-101461513D01*
X120846525Y-101593368D01*
X120808017Y-101651000D01*
X113191983Y-101651000D01*
X113153475Y-101593368D01*
X113021620Y-101461513D01*
X113094180Y-101439502D01*
X113204494Y-101380537D01*
X113301185Y-101301185D01*
X113380537Y-101204494D01*
X113439502Y-101094180D01*
X113475812Y-100974482D01*
X113488072Y-100850000D01*
X113488072Y-99150000D01*
X113475812Y-99025518D01*
X113439502Y-98905820D01*
X113380537Y-98795506D01*
X113301185Y-98698815D01*
X113204494Y-98619463D01*
X113094180Y-98560498D01*
X112974482Y-98524188D01*
X112850000Y-98511928D01*
X111150000Y-98511928D01*
X111025518Y-98524188D01*
X110905820Y-98560498D01*
X110795506Y-98619463D01*
X110698815Y-98698815D01*
X110619463Y-98795506D01*
X110560498Y-98905820D01*
X110524188Y-99025518D01*
X110511928Y-99150000D01*
X110511928Y-100850000D01*
X110524188Y-100974482D01*
X110560498Y-101094180D01*
X110619463Y-101204494D01*
X110698815Y-101301185D01*
X110795506Y-101380537D01*
X110905820Y-101439502D01*
X110978380Y-101461513D01*
X110846525Y-101593368D01*
X110808017Y-101651000D01*
X103191983Y-101651000D01*
X103153475Y-101593368D01*
X103021620Y-101461513D01*
X103094180Y-101439502D01*
X103204494Y-101380537D01*
X103301185Y-101301185D01*
X103380537Y-101204494D01*
X103439502Y-101094180D01*
X103475812Y-100974482D01*
X103488072Y-100850000D01*
X103488072Y-99150000D01*
X103475812Y-99025518D01*
X103439502Y-98905820D01*
X103380537Y-98795506D01*
X103301185Y-98698815D01*
X103204494Y-98619463D01*
X103094180Y-98560498D01*
X102974482Y-98524188D01*
X102850000Y-98511928D01*
X101150000Y-98511928D01*
X101025518Y-98524188D01*
X100905820Y-98560498D01*
X100795506Y-98619463D01*
X100698815Y-98698815D01*
X100619463Y-98795506D01*
X100560498Y-98905820D01*
X100524188Y-99025518D01*
X100511928Y-99150000D01*
X100511928Y-100850000D01*
X100524188Y-100974482D01*
X100560498Y-101094180D01*
X100619463Y-101204494D01*
X100698815Y-101301185D01*
X100795506Y-101380537D01*
X100905820Y-101439502D01*
X100978380Y-101461513D01*
X100846525Y-101593368D01*
X100808017Y-101651000D01*
X99154260Y-101651000D01*
X99110600Y-101646700D01*
X99066940Y-101651000D01*
X99066933Y-101651000D01*
X98952925Y-101662229D01*
X98936325Y-101663864D01*
X98863358Y-101685998D01*
X98768749Y-101714697D01*
X98614309Y-101797247D01*
X98478941Y-101908341D01*
X98451106Y-101942259D01*
X97282365Y-103111000D01*
X94598099Y-103111000D01*
X94605185Y-103105185D01*
X94684537Y-103008494D01*
X94743502Y-102898180D01*
X94779812Y-102778482D01*
X94792072Y-102654000D01*
X94792072Y-101346000D01*
X94779812Y-101221518D01*
X94743502Y-101101820D01*
X94684537Y-100991506D01*
X94605185Y-100894815D01*
X94508494Y-100815463D01*
X94398180Y-100756498D01*
X94278482Y-100720188D01*
X94154000Y-100707928D01*
X92846000Y-100707928D01*
X92721518Y-100720188D01*
X92601820Y-100756498D01*
X92491506Y-100815463D01*
X92394815Y-100894815D01*
X92315463Y-100991506D01*
X92256498Y-101101820D01*
X92220188Y-101221518D01*
X92207928Y-101346000D01*
X84127000Y-101346000D01*
X84127000Y-95691229D01*
X84865000Y-95691229D01*
X84865000Y-96308771D01*
X84985476Y-96914446D01*
X85221799Y-97484979D01*
X85564886Y-97998446D01*
X86001554Y-98435114D01*
X86515021Y-98778201D01*
X87085554Y-99014524D01*
X87691229Y-99135000D01*
X88308771Y-99135000D01*
X88914446Y-99014524D01*
X89484979Y-98778201D01*
X89998446Y-98435114D01*
X90435114Y-97998446D01*
X90778201Y-97484979D01*
X91014524Y-96914446D01*
X91135000Y-96308771D01*
X91135000Y-95691229D01*
X151865000Y-95691229D01*
X151865000Y-96308771D01*
X151985476Y-96914446D01*
X152221799Y-97484979D01*
X152564886Y-97998446D01*
X153001554Y-98435114D01*
X153515021Y-98778201D01*
X154085554Y-99014524D01*
X154691229Y-99135000D01*
X155308771Y-99135000D01*
X155914446Y-99014524D01*
X156484979Y-98778201D01*
X156998446Y-98435114D01*
X157435114Y-97998446D01*
X157778201Y-97484979D01*
X158014524Y-96914446D01*
X158135000Y-96308771D01*
X158135000Y-95691229D01*
X158014524Y-95085554D01*
X157778201Y-94515021D01*
X157435114Y-94001554D01*
X156998446Y-93564886D01*
X156484979Y-93221799D01*
X155914446Y-92985476D01*
X155308771Y-92865000D01*
X154691229Y-92865000D01*
X154085554Y-92985476D01*
X153515021Y-93221799D01*
X153001554Y-93564886D01*
X152564886Y-94001554D01*
X152221799Y-94515021D01*
X151985476Y-95085554D01*
X151865000Y-95691229D01*
X91135000Y-95691229D01*
X91014524Y-95085554D01*
X90778201Y-94515021D01*
X90435114Y-94001554D01*
X89998446Y-93564886D01*
X89484979Y-93221799D01*
X88914446Y-92985476D01*
X88308771Y-92865000D01*
X87691229Y-92865000D01*
X87085554Y-92985476D01*
X86515021Y-93221799D01*
X86001554Y-93564886D01*
X85564886Y-94001554D01*
X85221799Y-94515021D01*
X84985476Y-95085554D01*
X84865000Y-95691229D01*
X84127000Y-95691229D01*
X84127000Y-92127000D01*
X158873000Y-92127000D01*
X158873000Y-117873000D01*
G37*
X158873000Y-117873000D02*
X84127000Y-117873000D01*
X84127000Y-113691229D01*
X84865000Y-113691229D01*
X84865000Y-114308771D01*
X84985476Y-114914446D01*
X85221799Y-115484979D01*
X85564886Y-115998446D01*
X86001554Y-116435114D01*
X86515021Y-116778201D01*
X87085554Y-117014524D01*
X87691229Y-117135000D01*
X88308771Y-117135000D01*
X88914446Y-117014524D01*
X89484979Y-116778201D01*
X89998446Y-116435114D01*
X90435114Y-115998446D01*
X90778201Y-115484979D01*
X91014524Y-114914446D01*
X91135000Y-114308771D01*
X91135000Y-113691229D01*
X151865000Y-113691229D01*
X151865000Y-114308771D01*
X151985476Y-114914446D01*
X152221799Y-115484979D01*
X152564886Y-115998446D01*
X153001554Y-116435114D01*
X153515021Y-116778201D01*
X154085554Y-117014524D01*
X154691229Y-117135000D01*
X155308771Y-117135000D01*
X155914446Y-117014524D01*
X156484979Y-116778201D01*
X156998446Y-116435114D01*
X157435114Y-115998446D01*
X157778201Y-115484979D01*
X158014524Y-114914446D01*
X158135000Y-114308771D01*
X158135000Y-113691229D01*
X158014524Y-113085554D01*
X157778201Y-112515021D01*
X157435114Y-112001554D01*
X156998446Y-111564886D01*
X156484979Y-111221799D01*
X155914446Y-110985476D01*
X155308771Y-110865000D01*
X154691229Y-110865000D01*
X154085554Y-110985476D01*
X153515021Y-111221799D01*
X153001554Y-111564886D01*
X152564886Y-112001554D01*
X152221799Y-112515021D01*
X151985476Y-113085554D01*
X151865000Y-113691229D01*
X91135000Y-113691229D01*
X91014524Y-113085554D01*
X90778201Y-112515021D01*
X90435114Y-112001554D01*
X89998446Y-111564886D01*
X89484979Y-111221799D01*
X88914446Y-110985476D01*
X88308771Y-110865000D01*
X87691229Y-110865000D01*
X87085554Y-110985476D01*
X86515021Y-111221799D01*
X86001554Y-111564886D01*
X85564886Y-112001554D01*
X85221799Y-112515021D01*
X84985476Y-113085554D01*
X84865000Y-113691229D01*
X84127000Y-113691229D01*
X84127000Y-110516890D01*
X100558524Y-110516890D01*
X100603175Y-110664099D01*
X100728359Y-110926920D01*
X100902412Y-111160269D01*
X101118645Y-111355178D01*
X101368748Y-111504157D01*
X101643109Y-111601481D01*
X101873000Y-111480814D01*
X101873000Y-110287000D01*
X102127000Y-110287000D01*
X102127000Y-111480814D01*
X102356891Y-111601481D01*
X102631252Y-111504157D01*
X102881355Y-111355178D01*
X103097588Y-111160269D01*
X103271641Y-110926920D01*
X103396825Y-110664099D01*
X103441476Y-110516890D01*
X110558524Y-110516890D01*
X110603175Y-110664099D01*
X110728359Y-110926920D01*
X110902412Y-111160269D01*
X111118645Y-111355178D01*
X111368748Y-111504157D01*
X111643109Y-111601481D01*
X111873000Y-111480814D01*
X111873000Y-110287000D01*
X112127000Y-110287000D01*
X112127000Y-111480814D01*
X112356891Y-111601481D01*
X112631252Y-111504157D01*
X112881355Y-111355178D01*
X113097588Y-111160269D01*
X113271641Y-110926920D01*
X113396825Y-110664099D01*
X113441476Y-110516890D01*
X120558524Y-110516890D01*
X120603175Y-110664099D01*
X120728359Y-110926920D01*
X120902412Y-111160269D01*
X121118645Y-111355178D01*
X121368748Y-111504157D01*
X121643109Y-111601481D01*
X121873000Y-111480814D01*
X121873000Y-110287000D01*
X122127000Y-110287000D01*
X122127000Y-111480814D01*
X122356891Y-111601481D01*
X122631252Y-111504157D01*
X122881355Y-111355178D01*
X123097588Y-111160269D01*
X123271641Y-110926920D01*
X123396825Y-110664099D01*
X123441476Y-110516890D01*
X130558524Y-110516890D01*
X130603175Y-110664099D01*
X130728359Y-110926920D01*
X130902412Y-111160269D01*
X131118645Y-111355178D01*
X131368748Y-111504157D01*
X131643109Y-111601481D01*
X131873000Y-111480814D01*
X131873000Y-110287000D01*
X132127000Y-110287000D01*
X132127000Y-111480814D01*
X132356891Y-111601481D01*
X132631252Y-111504157D01*
X132881355Y-111355178D01*
X133097588Y-111160269D01*
X133271641Y-110926920D01*
X133396825Y-110664099D01*
X133441476Y-110516890D01*
X140558524Y-110516890D01*
X140603175Y-110664099D01*
X140728359Y-110926920D01*
X140902412Y-111160269D01*
X141118645Y-111355178D01*
X141368748Y-111504157D01*
X141643109Y-111601481D01*
X141873000Y-111480814D01*
X141873000Y-110287000D01*
X142127000Y-110287000D01*
X142127000Y-111480814D01*
X142356891Y-111601481D01*
X142631252Y-111504157D01*
X142881355Y-111355178D01*
X143097588Y-111160269D01*
X143271641Y-110926920D01*
X143396825Y-110664099D01*
X143441476Y-110516890D01*
X143320155Y-110287000D01*
X142127000Y-110287000D01*
X141873000Y-110287000D01*
X140679845Y-110287000D01*
X140558524Y-110516890D01*
X133441476Y-110516890D01*
X133320155Y-110287000D01*
X132127000Y-110287000D01*
X131873000Y-110287000D01*
X130679845Y-110287000D01*
X130558524Y-110516890D01*
X123441476Y-110516890D01*
X123320155Y-110287000D01*
X122127000Y-110287000D01*
X121873000Y-110287000D01*
X120679845Y-110287000D01*
X120558524Y-110516890D01*
X113441476Y-110516890D01*
X113320155Y-110287000D01*
X112127000Y-110287000D01*
X111873000Y-110287000D01*
X110679845Y-110287000D01*
X110558524Y-110516890D01*
X103441476Y-110516890D01*
X103320155Y-110287000D01*
X102127000Y-110287000D01*
X101873000Y-110287000D01*
X100679845Y-110287000D01*
X100558524Y-110516890D01*
X84127000Y-110516890D01*
X84127000Y-108888387D01*
X92791218Y-108888387D01*
X92845093Y-109117468D01*
X93075684Y-109223763D01*
X93322581Y-109283028D01*
X93576296Y-109292988D01*
X93827079Y-109253259D01*
X94065293Y-109165368D01*
X94154907Y-109117468D01*
X94208782Y-108888387D01*
X93500000Y-108179605D01*
X92791218Y-108888387D01*
X84127000Y-108888387D01*
X84127000Y-108076296D01*
X92207012Y-108076296D01*
X92246741Y-108327079D01*
X92334632Y-108565293D01*
X92382532Y-108654907D01*
X92611613Y-108708782D01*
X93320395Y-108000000D01*
X93679605Y-108000000D01*
X94388387Y-108708782D01*
X94617468Y-108654907D01*
X94723763Y-108424316D01*
X94783028Y-108177419D01*
X94792988Y-107923704D01*
X94753259Y-107672921D01*
X94665368Y-107434707D01*
X94617468Y-107345093D01*
X94388387Y-107291218D01*
X93679605Y-108000000D01*
X93320395Y-108000000D01*
X92611613Y-107291218D01*
X92382532Y-107345093D01*
X92276237Y-107575684D01*
X92216972Y-107822581D01*
X92207012Y-108076296D01*
X84127000Y-108076296D01*
X84127000Y-101346000D01*
X92207928Y-101346000D01*
X92207928Y-102654000D01*
X92220188Y-102778482D01*
X92256498Y-102898180D01*
X92315463Y-103008494D01*
X92394815Y-103105185D01*
X92491506Y-103184537D01*
X92493791Y-103185758D01*
X92357703Y-103389430D01*
X92260535Y-103624013D01*
X92211000Y-103873045D01*
X92211000Y-104126955D01*
X92260535Y-104375987D01*
X92357703Y-104610570D01*
X92498768Y-104821690D01*
X92677078Y-105000000D01*
X92498768Y-105178310D01*
X92357703Y-105389430D01*
X92260535Y-105624013D01*
X92211000Y-105873045D01*
X92211000Y-106126955D01*
X92260535Y-106375987D01*
X92357703Y-106610570D01*
X92498768Y-106821690D01*
X92678310Y-107001232D01*
X92798319Y-107081419D01*
X92791218Y-107111613D01*
X93500000Y-107820395D01*
X94208782Y-107111613D01*
X94201681Y-107081419D01*
X94321690Y-107001232D01*
X94501232Y-106821690D01*
X94642297Y-106610570D01*
X94739465Y-106375987D01*
X94789000Y-106126955D01*
X94789000Y-105873045D01*
X94739465Y-105624013D01*
X94642297Y-105389430D01*
X94501232Y-105178310D01*
X94322922Y-105000000D01*
X94433922Y-104889000D01*
X97606940Y-104889000D01*
X97650600Y-104893300D01*
X97694260Y-104889000D01*
X97694267Y-104889000D01*
X97824874Y-104876136D01*
X97992451Y-104825303D01*
X98146891Y-104742753D01*
X98282259Y-104631659D01*
X98310099Y-104597736D01*
X99478836Y-103429000D01*
X100808017Y-103429000D01*
X100846525Y-103486632D01*
X101053368Y-103693475D01*
X101227760Y-103810000D01*
X101053368Y-103926525D01*
X100846525Y-104133368D01*
X100684010Y-104376589D01*
X100572068Y-104646842D01*
X100515000Y-104933740D01*
X100515000Y-105226260D01*
X100572068Y-105513158D01*
X100684010Y-105783411D01*
X100846525Y-106026632D01*
X101053368Y-106233475D01*
X101227760Y-106350000D01*
X101053368Y-106466525D01*
X100846525Y-106673368D01*
X100684010Y-106916589D01*
X100572068Y-107186842D01*
X100515000Y-107473740D01*
X100515000Y-107766260D01*
X100572068Y-108053158D01*
X100684010Y-108323411D01*
X100846525Y-108566632D01*
X101053368Y-108773475D01*
X101235534Y-108895195D01*
X101118645Y-108964822D01*
X100902412Y-109159731D01*
X100728359Y-109393080D01*
X100603175Y-109655901D01*
X100558524Y-109803110D01*
X100679845Y-110033000D01*
X101873000Y-110033000D01*
X101873000Y-110013000D01*
X102127000Y-110013000D01*
X102127000Y-110033000D01*
X103320155Y-110033000D01*
X103441476Y-109803110D01*
X103396825Y-109655901D01*
X103271641Y-109393080D01*
X103097588Y-109159731D01*
X102881355Y-108964822D01*
X102764466Y-108895195D01*
X102946632Y-108773475D01*
X103153475Y-108566632D01*
X103315990Y-108323411D01*
X103427932Y-108053158D01*
X103485000Y-107766260D01*
X103485000Y-107473740D01*
X103427932Y-107186842D01*
X103315990Y-106916589D01*
X103153475Y-106673368D01*
X102946632Y-106466525D01*
X102772240Y-106350000D01*
X102946632Y-106233475D01*
X103153475Y-106026632D01*
X103315990Y-105783411D01*
X103427932Y-105513158D01*
X103485000Y-105226260D01*
X103485000Y-104933740D01*
X103427932Y-104646842D01*
X103315990Y-104376589D01*
X103153475Y-104133368D01*
X102946632Y-103926525D01*
X102772240Y-103810000D01*
X102946632Y-103693475D01*
X103153475Y-103486632D01*
X103191983Y-103429000D01*
X110808017Y-103429000D01*
X110846525Y-103486632D01*
X111053368Y-103693475D01*
X111227760Y-103810000D01*
X111053368Y-103926525D01*
X110846525Y-104133368D01*
X110684010Y-104376589D01*
X110572068Y-104646842D01*
X110515000Y-104933740D01*
X110515000Y-105226260D01*
X110572068Y-105513158D01*
X110684010Y-105783411D01*
X110846525Y-106026632D01*
X111053368Y-106233475D01*
X111227760Y-106350000D01*
X111053368Y-106466525D01*
X110846525Y-106673368D01*
X110684010Y-106916589D01*
X110572068Y-107186842D01*
X110515000Y-107473740D01*
X110515000Y-107766260D01*
X110572068Y-108053158D01*
X110684010Y-108323411D01*
X110846525Y-108566632D01*
X111053368Y-108773475D01*
X111235534Y-108895195D01*
X111118645Y-108964822D01*
X110902412Y-109159731D01*
X110728359Y-109393080D01*
X110603175Y-109655901D01*
X110558524Y-109803110D01*
X110679845Y-110033000D01*
X111873000Y-110033000D01*
X111873000Y-110013000D01*
X112127000Y-110013000D01*
X112127000Y-110033000D01*
X113320155Y-110033000D01*
X113441476Y-109803110D01*
X113396825Y-109655901D01*
X113271641Y-109393080D01*
X113097588Y-109159731D01*
X112881355Y-108964822D01*
X112764466Y-108895195D01*
X112946632Y-108773475D01*
X113153475Y-108566632D01*
X113315990Y-108323411D01*
X113427932Y-108053158D01*
X113485000Y-107766260D01*
X113485000Y-107473740D01*
X113427932Y-107186842D01*
X113315990Y-106916589D01*
X113153475Y-106673368D01*
X112946632Y-106466525D01*
X112772240Y-106350000D01*
X112946632Y-106233475D01*
X113153475Y-106026632D01*
X113315990Y-105783411D01*
X113427932Y-105513158D01*
X113485000Y-105226260D01*
X113485000Y-104933740D01*
X113427932Y-104646842D01*
X113315990Y-104376589D01*
X113153475Y-104133368D01*
X112946632Y-103926525D01*
X112772240Y-103810000D01*
X112946632Y-103693475D01*
X113153475Y-103486632D01*
X113191983Y-103429000D01*
X120808017Y-103429000D01*
X120846525Y-103486632D01*
X121053368Y-103693475D01*
X121227760Y-103810000D01*
X121053368Y-103926525D01*
X120846525Y-104133368D01*
X120684010Y-104376589D01*
X120572068Y-104646842D01*
X120515000Y-104933740D01*
X120515000Y-105226260D01*
X120572068Y-105513158D01*
X120684010Y-105783411D01*
X120846525Y-106026632D01*
X121053368Y-106233475D01*
X121227760Y-106350000D01*
X121053368Y-106466525D01*
X120846525Y-106673368D01*
X120684010Y-106916589D01*
X120572068Y-107186842D01*
X120515000Y-107473740D01*
X120515000Y-107766260D01*
X120572068Y-108053158D01*
X120684010Y-108323411D01*
X120846525Y-108566632D01*
X121053368Y-108773475D01*
X121235534Y-108895195D01*
X121118645Y-108964822D01*
X120902412Y-109159731D01*
X120728359Y-109393080D01*
X120603175Y-109655901D01*
X120558524Y-109803110D01*
X120679845Y-110033000D01*
X121873000Y-110033000D01*
X121873000Y-110013000D01*
X122127000Y-110013000D01*
X122127000Y-110033000D01*
X123320155Y-110033000D01*
X123441476Y-109803110D01*
X123396825Y-109655901D01*
X123271641Y-109393080D01*
X123097588Y-109159731D01*
X122881355Y-108964822D01*
X122764466Y-108895195D01*
X122946632Y-108773475D01*
X123153475Y-108566632D01*
X123315990Y-108323411D01*
X123427932Y-108053158D01*
X123485000Y-107766260D01*
X123485000Y-107473740D01*
X123427932Y-107186842D01*
X123315990Y-106916589D01*
X123153475Y-106673368D01*
X122946632Y-106466525D01*
X122772240Y-106350000D01*
X122946632Y-106233475D01*
X123153475Y-106026632D01*
X123315990Y-105783411D01*
X123427932Y-105513158D01*
X123485000Y-105226260D01*
X123485000Y-104933740D01*
X123427932Y-104646842D01*
X123315990Y-104376589D01*
X123153475Y-104133368D01*
X122946632Y-103926525D01*
X122772240Y-103810000D01*
X122946632Y-103693475D01*
X123153475Y-103486632D01*
X123191983Y-103429000D01*
X130808017Y-103429000D01*
X130846525Y-103486632D01*
X131053368Y-103693475D01*
X131227760Y-103810000D01*
X131053368Y-103926525D01*
X130846525Y-104133368D01*
X130684010Y-104376589D01*
X130572068Y-104646842D01*
X130515000Y-104933740D01*
X130515000Y-105226260D01*
X130572068Y-105513158D01*
X130684010Y-105783411D01*
X130846525Y-106026632D01*
X131053368Y-106233475D01*
X131227760Y-106350000D01*
X131053368Y-106466525D01*
X130846525Y-106673368D01*
X130684010Y-106916589D01*
X130572068Y-107186842D01*
X130515000Y-107473740D01*
X130515000Y-107766260D01*
X130572068Y-108053158D01*
X130684010Y-108323411D01*
X130846525Y-108566632D01*
X131053368Y-108773475D01*
X131235534Y-108895195D01*
X131118645Y-108964822D01*
X130902412Y-109159731D01*
X130728359Y-109393080D01*
X130603175Y-109655901D01*
X130558524Y-109803110D01*
X130679845Y-110033000D01*
X131873000Y-110033000D01*
X131873000Y-110013000D01*
X132127000Y-110013000D01*
X132127000Y-110033000D01*
X133320155Y-110033000D01*
X133441476Y-109803110D01*
X133396825Y-109655901D01*
X133271641Y-109393080D01*
X133097588Y-109159731D01*
X132881355Y-108964822D01*
X132764466Y-108895195D01*
X132946632Y-108773475D01*
X133153475Y-108566632D01*
X133315990Y-108323411D01*
X133427932Y-108053158D01*
X133485000Y-107766260D01*
X133485000Y-107473740D01*
X133427932Y-107186842D01*
X133315990Y-106916589D01*
X133153475Y-106673368D01*
X132946632Y-106466525D01*
X132772240Y-106350000D01*
X132946632Y-106233475D01*
X133153475Y-106026632D01*
X133315990Y-105783411D01*
X133427932Y-105513158D01*
X133485000Y-105226260D01*
X133485000Y-104933740D01*
X133427932Y-104646842D01*
X133315990Y-104376589D01*
X133153475Y-104133368D01*
X132946632Y-103926525D01*
X132772240Y-103810000D01*
X132946632Y-103693475D01*
X133153475Y-103486632D01*
X133191983Y-103429000D01*
X140808017Y-103429000D01*
X140846525Y-103486632D01*
X141053368Y-103693475D01*
X141227760Y-103810000D01*
X141053368Y-103926525D01*
X140846525Y-104133368D01*
X140684010Y-104376589D01*
X140572068Y-104646842D01*
X140515000Y-104933740D01*
X140515000Y-105226260D01*
X140572068Y-105513158D01*
X140684010Y-105783411D01*
X140846525Y-106026632D01*
X141053368Y-106233475D01*
X141227760Y-106350000D01*
X141053368Y-106466525D01*
X140846525Y-106673368D01*
X140684010Y-106916589D01*
X140572068Y-107186842D01*
X140515000Y-107473740D01*
X140515000Y-107766260D01*
X140572068Y-108053158D01*
X140684010Y-108323411D01*
X140846525Y-108566632D01*
X141053368Y-108773475D01*
X141235534Y-108895195D01*
X141118645Y-108964822D01*
X140902412Y-109159731D01*
X140728359Y-109393080D01*
X140603175Y-109655901D01*
X140558524Y-109803110D01*
X140679845Y-110033000D01*
X141873000Y-110033000D01*
X141873000Y-110013000D01*
X142127000Y-110013000D01*
X142127000Y-110033000D01*
X143320155Y-110033000D01*
X143441476Y-109803110D01*
X143396825Y-109655901D01*
X143271641Y-109393080D01*
X143097588Y-109159731D01*
X142881355Y-108964822D01*
X142764466Y-108895195D01*
X142774654Y-108888387D01*
X150041218Y-108888387D01*
X150095093Y-109117468D01*
X150325684Y-109223763D01*
X150572581Y-109283028D01*
X150826296Y-109292988D01*
X151077079Y-109253259D01*
X151315293Y-109165368D01*
X151404907Y-109117468D01*
X151458782Y-108888387D01*
X150750000Y-108179605D01*
X150041218Y-108888387D01*
X142774654Y-108888387D01*
X142946632Y-108773475D01*
X143153475Y-108566632D01*
X143315990Y-108323411D01*
X143418347Y-108076296D01*
X149457012Y-108076296D01*
X149496741Y-108327079D01*
X149584632Y-108565293D01*
X149632532Y-108654907D01*
X149861613Y-108708782D01*
X150570395Y-108000000D01*
X150929605Y-108000000D01*
X151638387Y-108708782D01*
X151867468Y-108654907D01*
X151973763Y-108424316D01*
X152033028Y-108177419D01*
X152042988Y-107923704D01*
X152003259Y-107672921D01*
X151915368Y-107434707D01*
X151867468Y-107345093D01*
X151638387Y-107291218D01*
X150929605Y-108000000D01*
X150570395Y-108000000D01*
X149861613Y-107291218D01*
X149632532Y-107345093D01*
X149526237Y-107575684D01*
X149466972Y-107822581D01*
X149457012Y-108076296D01*
X143418347Y-108076296D01*
X143427932Y-108053158D01*
X143485000Y-107766260D01*
X143485000Y-107473740D01*
X143427932Y-107186842D01*
X143315990Y-106916589D01*
X143153475Y-106673368D01*
X142946632Y-106466525D01*
X142772240Y-106350000D01*
X142946632Y-106233475D01*
X143153475Y-106026632D01*
X143315990Y-105783411D01*
X143427932Y-105513158D01*
X143485000Y-105226260D01*
X143485000Y-104933740D01*
X143427932Y-104646842D01*
X143315990Y-104376589D01*
X143153475Y-104133368D01*
X142946632Y-103926525D01*
X142772240Y-103810000D01*
X142946632Y-103693475D01*
X143153475Y-103486632D01*
X143191983Y-103429000D01*
X144224605Y-103429000D01*
X145393346Y-104597741D01*
X145421181Y-104631659D01*
X145556549Y-104742753D01*
X145589817Y-104760535D01*
X145704230Y-104821690D01*
X145710989Y-104825303D01*
X145805598Y-104854002D01*
X145878565Y-104876136D01*
X145895165Y-104877771D01*
X146009173Y-104889000D01*
X146009180Y-104889000D01*
X146052840Y-104893300D01*
X146096500Y-104889000D01*
X149816078Y-104889000D01*
X149927078Y-105000000D01*
X149748768Y-105178310D01*
X149607703Y-105389430D01*
X149510535Y-105624013D01*
X149461000Y-105873045D01*
X149461000Y-106126955D01*
X149510535Y-106375987D01*
X149607703Y-106610570D01*
X149748768Y-106821690D01*
X149928310Y-107001232D01*
X150048319Y-107081419D01*
X150041218Y-107111613D01*
X150750000Y-107820395D01*
X151458782Y-107111613D01*
X151451681Y-107081419D01*
X151571690Y-107001232D01*
X151751232Y-106821690D01*
X151892297Y-106610570D01*
X151989465Y-106375987D01*
X152039000Y-106126955D01*
X152039000Y-105873045D01*
X151989465Y-105624013D01*
X151892297Y-105389430D01*
X151751232Y-105178310D01*
X151572922Y-105000000D01*
X151751232Y-104821690D01*
X151892297Y-104610570D01*
X151989465Y-104375987D01*
X152039000Y-104126955D01*
X152039000Y-103873045D01*
X151989465Y-103624013D01*
X151892297Y-103389430D01*
X151756209Y-103185758D01*
X151758494Y-103184537D01*
X151855185Y-103105185D01*
X151934537Y-103008494D01*
X151993502Y-102898180D01*
X152029812Y-102778482D01*
X152042072Y-102654000D01*
X152042072Y-101346000D01*
X152029812Y-101221518D01*
X151993502Y-101101820D01*
X151934537Y-100991506D01*
X151855185Y-100894815D01*
X151758494Y-100815463D01*
X151648180Y-100756498D01*
X151528482Y-100720188D01*
X151404000Y-100707928D01*
X150096000Y-100707928D01*
X149971518Y-100720188D01*
X149851820Y-100756498D01*
X149741506Y-100815463D01*
X149644815Y-100894815D01*
X149565463Y-100991506D01*
X149506498Y-101101820D01*
X149470188Y-101221518D01*
X149457928Y-101346000D01*
X149457928Y-102654000D01*
X149470188Y-102778482D01*
X149506498Y-102898180D01*
X149565463Y-103008494D01*
X149644815Y-103105185D01*
X149651901Y-103111000D01*
X146421076Y-103111000D01*
X145252339Y-101942264D01*
X145224499Y-101908341D01*
X145089131Y-101797247D01*
X144934691Y-101714697D01*
X144767114Y-101663864D01*
X144636507Y-101651000D01*
X144636500Y-101651000D01*
X144592840Y-101646700D01*
X144549180Y-101651000D01*
X143191983Y-101651000D01*
X143153475Y-101593368D01*
X143021620Y-101461513D01*
X143094180Y-101439502D01*
X143204494Y-101380537D01*
X143301185Y-101301185D01*
X143380537Y-101204494D01*
X143439502Y-101094180D01*
X143475812Y-100974482D01*
X143488072Y-100850000D01*
X143488072Y-99150000D01*
X143475812Y-99025518D01*
X143439502Y-98905820D01*
X143380537Y-98795506D01*
X143301185Y-98698815D01*
X143204494Y-98619463D01*
X143094180Y-98560498D01*
X142974482Y-98524188D01*
X142850000Y-98511928D01*
X141150000Y-98511928D01*
X141025518Y-98524188D01*
X140905820Y-98560498D01*
X140795506Y-98619463D01*
X140698815Y-98698815D01*
X140619463Y-98795506D01*
X140560498Y-98905820D01*
X140524188Y-99025518D01*
X140511928Y-99150000D01*
X140511928Y-100850000D01*
X140524188Y-100974482D01*
X140560498Y-101094180D01*
X140619463Y-101204494D01*
X140698815Y-101301185D01*
X140795506Y-101380537D01*
X140905820Y-101439502D01*
X140978380Y-101461513D01*
X140846525Y-101593368D01*
X140808017Y-101651000D01*
X133191983Y-101651000D01*
X133153475Y-101593368D01*
X133021620Y-101461513D01*
X133094180Y-101439502D01*
X133204494Y-101380537D01*
X133301185Y-101301185D01*
X133380537Y-101204494D01*
X133439502Y-101094180D01*
X133475812Y-100974482D01*
X133488072Y-100850000D01*
X133488072Y-99150000D01*
X133475812Y-99025518D01*
X133439502Y-98905820D01*
X133380537Y-98795506D01*
X133301185Y-98698815D01*
X133204494Y-98619463D01*
X133094180Y-98560498D01*
X132974482Y-98524188D01*
X132850000Y-98511928D01*
X131150000Y-98511928D01*
X131025518Y-98524188D01*
X130905820Y-98560498D01*
X130795506Y-98619463D01*
X130698815Y-98698815D01*
X130619463Y-98795506D01*
X130560498Y-98905820D01*
X130524188Y-99025518D01*
X130511928Y-99150000D01*
X130511928Y-100850000D01*
X130524188Y-100974482D01*
X130560498Y-101094180D01*
X130619463Y-101204494D01*
X130698815Y-101301185D01*
X130795506Y-101380537D01*
X130905820Y-101439502D01*
X130978380Y-101461513D01*
X130846525Y-101593368D01*
X130808017Y-101651000D01*
X123191983Y-101651000D01*
X123153475Y-101593368D01*
X123021620Y-101461513D01*
X123094180Y-101439502D01*
X123204494Y-101380537D01*
X123301185Y-101301185D01*
X123380537Y-101204494D01*
X123439502Y-101094180D01*
X123475812Y-100974482D01*
X123488072Y-100850000D01*
X123488072Y-99150000D01*
X123475812Y-99025518D01*
X123439502Y-98905820D01*
X123380537Y-98795506D01*
X123301185Y-98698815D01*
X123204494Y-98619463D01*
X123094180Y-98560498D01*
X122974482Y-98524188D01*
X122850000Y-98511928D01*
X121150000Y-98511928D01*
X121025518Y-98524188D01*
X120905820Y-98560498D01*
X120795506Y-98619463D01*
X120698815Y-98698815D01*
X120619463Y-98795506D01*
X120560498Y-98905820D01*
X120524188Y-99025518D01*
X120511928Y-99150000D01*
X120511928Y-100850000D01*
X120524188Y-100974482D01*
X120560498Y-101094180D01*
X120619463Y-101204494D01*
X120698815Y-101301185D01*
X120795506Y-101380537D01*
X120905820Y-101439502D01*
X120978380Y-101461513D01*
X120846525Y-101593368D01*
X120808017Y-101651000D01*
X113191983Y-101651000D01*
X113153475Y-101593368D01*
X113021620Y-101461513D01*
X113094180Y-101439502D01*
X113204494Y-101380537D01*
X113301185Y-101301185D01*
X113380537Y-101204494D01*
X113439502Y-101094180D01*
X113475812Y-100974482D01*
X113488072Y-100850000D01*
X113488072Y-99150000D01*
X113475812Y-99025518D01*
X113439502Y-98905820D01*
X113380537Y-98795506D01*
X113301185Y-98698815D01*
X113204494Y-98619463D01*
X113094180Y-98560498D01*
X112974482Y-98524188D01*
X112850000Y-98511928D01*
X111150000Y-98511928D01*
X111025518Y-98524188D01*
X110905820Y-98560498D01*
X110795506Y-98619463D01*
X110698815Y-98698815D01*
X110619463Y-98795506D01*
X110560498Y-98905820D01*
X110524188Y-99025518D01*
X110511928Y-99150000D01*
X110511928Y-100850000D01*
X110524188Y-100974482D01*
X110560498Y-101094180D01*
X110619463Y-101204494D01*
X110698815Y-101301185D01*
X110795506Y-101380537D01*
X110905820Y-101439502D01*
X110978380Y-101461513D01*
X110846525Y-101593368D01*
X110808017Y-101651000D01*
X103191983Y-101651000D01*
X103153475Y-101593368D01*
X103021620Y-101461513D01*
X103094180Y-101439502D01*
X103204494Y-101380537D01*
X103301185Y-101301185D01*
X103380537Y-101204494D01*
X103439502Y-101094180D01*
X103475812Y-100974482D01*
X103488072Y-100850000D01*
X103488072Y-99150000D01*
X103475812Y-99025518D01*
X103439502Y-98905820D01*
X103380537Y-98795506D01*
X103301185Y-98698815D01*
X103204494Y-98619463D01*
X103094180Y-98560498D01*
X102974482Y-98524188D01*
X102850000Y-98511928D01*
X101150000Y-98511928D01*
X101025518Y-98524188D01*
X100905820Y-98560498D01*
X100795506Y-98619463D01*
X100698815Y-98698815D01*
X100619463Y-98795506D01*
X100560498Y-98905820D01*
X100524188Y-99025518D01*
X100511928Y-99150000D01*
X100511928Y-100850000D01*
X100524188Y-100974482D01*
X100560498Y-101094180D01*
X100619463Y-101204494D01*
X100698815Y-101301185D01*
X100795506Y-101380537D01*
X100905820Y-101439502D01*
X100978380Y-101461513D01*
X100846525Y-101593368D01*
X100808017Y-101651000D01*
X99154260Y-101651000D01*
X99110600Y-101646700D01*
X99066940Y-101651000D01*
X99066933Y-101651000D01*
X98952925Y-101662229D01*
X98936325Y-101663864D01*
X98863358Y-101685998D01*
X98768749Y-101714697D01*
X98614309Y-101797247D01*
X98478941Y-101908341D01*
X98451106Y-101942259D01*
X97282365Y-103111000D01*
X94598099Y-103111000D01*
X94605185Y-103105185D01*
X94684537Y-103008494D01*
X94743502Y-102898180D01*
X94779812Y-102778482D01*
X94792072Y-102654000D01*
X94792072Y-101346000D01*
X94779812Y-101221518D01*
X94743502Y-101101820D01*
X94684537Y-100991506D01*
X94605185Y-100894815D01*
X94508494Y-100815463D01*
X94398180Y-100756498D01*
X94278482Y-100720188D01*
X94154000Y-100707928D01*
X92846000Y-100707928D01*
X92721518Y-100720188D01*
X92601820Y-100756498D01*
X92491506Y-100815463D01*
X92394815Y-100894815D01*
X92315463Y-100991506D01*
X92256498Y-101101820D01*
X92220188Y-101221518D01*
X92207928Y-101346000D01*
X84127000Y-101346000D01*
X84127000Y-95691229D01*
X84865000Y-95691229D01*
X84865000Y-96308771D01*
X84985476Y-96914446D01*
X85221799Y-97484979D01*
X85564886Y-97998446D01*
X86001554Y-98435114D01*
X86515021Y-98778201D01*
X87085554Y-99014524D01*
X87691229Y-99135000D01*
X88308771Y-99135000D01*
X88914446Y-99014524D01*
X89484979Y-98778201D01*
X89998446Y-98435114D01*
X90435114Y-97998446D01*
X90778201Y-97484979D01*
X91014524Y-96914446D01*
X91135000Y-96308771D01*
X91135000Y-95691229D01*
X151865000Y-95691229D01*
X151865000Y-96308771D01*
X151985476Y-96914446D01*
X152221799Y-97484979D01*
X152564886Y-97998446D01*
X153001554Y-98435114D01*
X153515021Y-98778201D01*
X154085554Y-99014524D01*
X154691229Y-99135000D01*
X155308771Y-99135000D01*
X155914446Y-99014524D01*
X156484979Y-98778201D01*
X156998446Y-98435114D01*
X157435114Y-97998446D01*
X157778201Y-97484979D01*
X158014524Y-96914446D01*
X158135000Y-96308771D01*
X158135000Y-95691229D01*
X158014524Y-95085554D01*
X157778201Y-94515021D01*
X157435114Y-94001554D01*
X156998446Y-93564886D01*
X156484979Y-93221799D01*
X155914446Y-92985476D01*
X155308771Y-92865000D01*
X154691229Y-92865000D01*
X154085554Y-92985476D01*
X153515021Y-93221799D01*
X153001554Y-93564886D01*
X152564886Y-94001554D01*
X152221799Y-94515021D01*
X151985476Y-95085554D01*
X151865000Y-95691229D01*
X91135000Y-95691229D01*
X91014524Y-95085554D01*
X90778201Y-94515021D01*
X90435114Y-94001554D01*
X89998446Y-93564886D01*
X89484979Y-93221799D01*
X88914446Y-92985476D01*
X88308771Y-92865000D01*
X87691229Y-92865000D01*
X87085554Y-92985476D01*
X86515021Y-93221799D01*
X86001554Y-93564886D01*
X85564886Y-94001554D01*
X85221799Y-94515021D01*
X84985476Y-95085554D01*
X84865000Y-95691229D01*
X84127000Y-95691229D01*
X84127000Y-92127000D01*
X158873000Y-92127000D01*
X158873000Y-117873000D01*
M02*
