G04 #@! TF.GenerationSoftware,KiCad,Pcbnew,(5.1.5)-3*
G04 #@! TF.CreationDate,2020-09-01T19:36:17+01:00*
G04 #@! TF.ProjectId,solarVoltageLimiter,736f6c61-7256-46f6-9c74-6167654c696d,1.0.1*
G04 #@! TF.SameCoordinates,Original*
G04 #@! TF.FileFunction,Legend,Bot*
G04 #@! TF.FilePolarity,Positive*
%FSLAX46Y46*%
G04 Gerber Fmt 4.6, Leading zero omitted, Abs format (unit mm)*
G04 Created by KiCad (PCBNEW (5.1.5)-3) date 2020-09-01 19:36:17*
%MOMM*%
%LPD*%
G04 APERTURE LIST*
%ADD10C,0.150000*%
G04 APERTURE END LIST*
D10*
X158285714Y-114809523D02*
X158000000Y-114904761D01*
X157523809Y-114904761D01*
X157333333Y-114809523D01*
X157238095Y-114714285D01*
X157142857Y-114523809D01*
X157142857Y-114333333D01*
X157238095Y-114142857D01*
X157333333Y-114047619D01*
X157523809Y-113952380D01*
X157904761Y-113857142D01*
X158095238Y-113761904D01*
X158190476Y-113666666D01*
X158285714Y-113476190D01*
X158285714Y-113285714D01*
X158190476Y-113095238D01*
X158095238Y-113000000D01*
X157904761Y-112904761D01*
X157428571Y-112904761D01*
X157142857Y-113000000D01*
X156000000Y-114904761D02*
X156190476Y-114809523D01*
X156285714Y-114619047D01*
X156285714Y-112904761D01*
X154476190Y-114809523D02*
X154666666Y-114904761D01*
X155047619Y-114904761D01*
X155238095Y-114809523D01*
X155333333Y-114619047D01*
X155333333Y-113857142D01*
X155238095Y-113666666D01*
X155047619Y-113571428D01*
X154666666Y-113571428D01*
X154476190Y-113666666D01*
X154380952Y-113857142D01*
X154380952Y-114047619D01*
X155333333Y-114238095D01*
X152761904Y-114809523D02*
X152952380Y-114904761D01*
X153333333Y-114904761D01*
X153523809Y-114809523D01*
X153619047Y-114619047D01*
X153619047Y-113857142D01*
X153523809Y-113666666D01*
X153333333Y-113571428D01*
X152952380Y-113571428D01*
X152761904Y-113666666D01*
X152666666Y-113857142D01*
X152666666Y-114047619D01*
X153619047Y-114238095D01*
X151809523Y-113571428D02*
X151809523Y-115571428D01*
X151809523Y-113666666D02*
X151619047Y-113571428D01*
X151238095Y-113571428D01*
X151047619Y-113666666D01*
X150952380Y-113761904D01*
X150857142Y-113952380D01*
X150857142Y-114523809D01*
X150952380Y-114714285D01*
X151047619Y-114809523D01*
X151238095Y-114904761D01*
X151619047Y-114904761D01*
X151809523Y-114809523D01*
X150190476Y-113571428D02*
X149714285Y-114904761D01*
X149238095Y-113571428D02*
X149714285Y-114904761D01*
X149904761Y-115380952D01*
X150000000Y-115476190D01*
X150190476Y-115571428D01*
X148476190Y-114904761D02*
X148476190Y-113571428D01*
X148476190Y-113761904D02*
X148380952Y-113666666D01*
X148190476Y-113571428D01*
X147904761Y-113571428D01*
X147714285Y-113666666D01*
X147619047Y-113857142D01*
X147619047Y-114904761D01*
X147619047Y-113857142D02*
X147523809Y-113666666D01*
X147333333Y-113571428D01*
X147047619Y-113571428D01*
X146857142Y-113666666D01*
X146761904Y-113857142D01*
X146761904Y-114904761D01*
X145523809Y-114904761D02*
X145714285Y-114809523D01*
X145809523Y-114714285D01*
X145904761Y-114523809D01*
X145904761Y-113952380D01*
X145809523Y-113761904D01*
X145714285Y-113666666D01*
X145523809Y-113571428D01*
X145238095Y-113571428D01*
X145047619Y-113666666D01*
X144952380Y-113761904D01*
X144857142Y-113952380D01*
X144857142Y-114523809D01*
X144952380Y-114714285D01*
X145047619Y-114809523D01*
X145238095Y-114904761D01*
X145523809Y-114904761D01*
X143142857Y-113571428D02*
X143142857Y-114904761D01*
X144000000Y-113571428D02*
X144000000Y-114619047D01*
X143904761Y-114809523D01*
X143714285Y-114904761D01*
X143428571Y-114904761D01*
X143238095Y-114809523D01*
X143142857Y-114714285D01*
X142285714Y-114809523D02*
X142095238Y-114904761D01*
X141714285Y-114904761D01*
X141523809Y-114809523D01*
X141428571Y-114619047D01*
X141428571Y-114523809D01*
X141523809Y-114333333D01*
X141714285Y-114238095D01*
X142000000Y-114238095D01*
X142190476Y-114142857D01*
X142285714Y-113952380D01*
X142285714Y-113857142D01*
X142190476Y-113666666D01*
X142000000Y-113571428D01*
X141714285Y-113571428D01*
X141523809Y-113666666D01*
X139809523Y-114809523D02*
X140000000Y-114904761D01*
X140380952Y-114904761D01*
X140571428Y-114809523D01*
X140666666Y-114619047D01*
X140666666Y-113857142D01*
X140571428Y-113666666D01*
X140380952Y-113571428D01*
X140000000Y-113571428D01*
X139809523Y-113666666D01*
X139714285Y-113857142D01*
X139714285Y-114047619D01*
X140666666Y-114238095D01*
X132190476Y-55179761D02*
X132190476Y-53179761D01*
X131238095Y-55179761D02*
X131238095Y-53846428D01*
X131238095Y-54036904D02*
X131142857Y-53941666D01*
X130952380Y-53846428D01*
X130666666Y-53846428D01*
X130476190Y-53941666D01*
X130380952Y-54132142D01*
X130380952Y-55179761D01*
X130380952Y-54132142D02*
X130285714Y-53941666D01*
X130095238Y-53846428D01*
X129809523Y-53846428D01*
X129619047Y-53941666D01*
X129523809Y-54132142D01*
X129523809Y-55179761D01*
X128571428Y-53846428D02*
X128571428Y-55846428D01*
X128571428Y-53941666D02*
X128380952Y-53846428D01*
X128000000Y-53846428D01*
X127809523Y-53941666D01*
X127714285Y-54036904D01*
X127619047Y-54227380D01*
X127619047Y-54798809D01*
X127714285Y-54989285D01*
X127809523Y-55084523D01*
X128000000Y-55179761D01*
X128380952Y-55179761D01*
X128571428Y-55084523D01*
X126476190Y-55179761D02*
X126666666Y-55084523D01*
X126761904Y-54989285D01*
X126857142Y-54798809D01*
X126857142Y-54227380D01*
X126761904Y-54036904D01*
X126666666Y-53941666D01*
X126476190Y-53846428D01*
X126190476Y-53846428D01*
X126000000Y-53941666D01*
X125904761Y-54036904D01*
X125809523Y-54227380D01*
X125809523Y-54798809D01*
X125904761Y-54989285D01*
X126000000Y-55084523D01*
X126190476Y-55179761D01*
X126476190Y-55179761D01*
X124952380Y-55179761D02*
X124952380Y-53846428D01*
X124952380Y-54227380D02*
X124857142Y-54036904D01*
X124761904Y-53941666D01*
X124571428Y-53846428D01*
X124380952Y-53846428D01*
X124000000Y-53846428D02*
X123238095Y-53846428D01*
X123714285Y-53179761D02*
X123714285Y-54894047D01*
X123619047Y-55084523D01*
X123428571Y-55179761D01*
X123238095Y-55179761D01*
X121714285Y-55179761D02*
X121714285Y-54132142D01*
X121809523Y-53941666D01*
X122000000Y-53846428D01*
X122380952Y-53846428D01*
X122571428Y-53941666D01*
X121714285Y-55084523D02*
X121904761Y-55179761D01*
X122380952Y-55179761D01*
X122571428Y-55084523D01*
X122666666Y-54894047D01*
X122666666Y-54703571D01*
X122571428Y-54513095D01*
X122380952Y-54417857D01*
X121904761Y-54417857D01*
X121714285Y-54322619D01*
X120761904Y-53846428D02*
X120761904Y-55179761D01*
X120761904Y-54036904D02*
X120666666Y-53941666D01*
X120476190Y-53846428D01*
X120190476Y-53846428D01*
X120000000Y-53941666D01*
X119904761Y-54132142D01*
X119904761Y-55179761D01*
X119238095Y-53846428D02*
X118476190Y-53846428D01*
X118952380Y-53179761D02*
X118952380Y-54894047D01*
X118857142Y-55084523D01*
X118666666Y-55179761D01*
X118476190Y-55179761D01*
X117809523Y-54989285D02*
X117714285Y-55084523D01*
X117809523Y-55179761D01*
X117904761Y-55084523D01*
X117809523Y-54989285D01*
X117809523Y-55179761D01*
X117809523Y-53941666D02*
X117714285Y-54036904D01*
X117809523Y-54132142D01*
X117904761Y-54036904D01*
X117809523Y-53941666D01*
X117809523Y-54132142D01*
X145714285Y-58139285D02*
X145809523Y-58234523D01*
X146095238Y-58329761D01*
X146285714Y-58329761D01*
X146571428Y-58234523D01*
X146761904Y-58044047D01*
X146857142Y-57853571D01*
X146952380Y-57472619D01*
X146952380Y-57186904D01*
X146857142Y-56805952D01*
X146761904Y-56615476D01*
X146571428Y-56425000D01*
X146285714Y-56329761D01*
X146095238Y-56329761D01*
X145809523Y-56425000D01*
X145714285Y-56520238D01*
X144857142Y-58329761D02*
X144857142Y-56329761D01*
X144000000Y-58329761D02*
X144000000Y-57282142D01*
X144095238Y-57091666D01*
X144285714Y-56996428D01*
X144571428Y-56996428D01*
X144761904Y-57091666D01*
X144857142Y-57186904D01*
X142190476Y-58329761D02*
X142190476Y-57282142D01*
X142285714Y-57091666D01*
X142476190Y-56996428D01*
X142857142Y-56996428D01*
X143047619Y-57091666D01*
X142190476Y-58234523D02*
X142380952Y-58329761D01*
X142857142Y-58329761D01*
X143047619Y-58234523D01*
X143142857Y-58044047D01*
X143142857Y-57853571D01*
X143047619Y-57663095D01*
X142857142Y-57567857D01*
X142380952Y-57567857D01*
X142190476Y-57472619D01*
X141238095Y-56996428D02*
X141238095Y-58329761D01*
X141238095Y-57186904D02*
X141142857Y-57091666D01*
X140952380Y-56996428D01*
X140666666Y-56996428D01*
X140476190Y-57091666D01*
X140380952Y-57282142D01*
X140380952Y-58329761D01*
X138571428Y-56996428D02*
X138571428Y-58615476D01*
X138666666Y-58805952D01*
X138761904Y-58901190D01*
X138952380Y-58996428D01*
X139238095Y-58996428D01*
X139428571Y-58901190D01*
X138571428Y-58234523D02*
X138761904Y-58329761D01*
X139142857Y-58329761D01*
X139333333Y-58234523D01*
X139428571Y-58139285D01*
X139523809Y-57948809D01*
X139523809Y-57377380D01*
X139428571Y-57186904D01*
X139333333Y-57091666D01*
X139142857Y-56996428D01*
X138761904Y-56996428D01*
X138571428Y-57091666D01*
X136857142Y-58234523D02*
X137047619Y-58329761D01*
X137428571Y-58329761D01*
X137619047Y-58234523D01*
X137714285Y-58044047D01*
X137714285Y-57282142D01*
X137619047Y-57091666D01*
X137428571Y-56996428D01*
X137047619Y-56996428D01*
X136857142Y-57091666D01*
X136761904Y-57282142D01*
X136761904Y-57472619D01*
X137714285Y-57663095D01*
X134095238Y-58329761D02*
X134285714Y-58234523D01*
X134380952Y-58139285D01*
X134476190Y-57948809D01*
X134476190Y-57377380D01*
X134380952Y-57186904D01*
X134285714Y-57091666D01*
X134095238Y-56996428D01*
X133809523Y-56996428D01*
X133619047Y-57091666D01*
X133523809Y-57186904D01*
X133428571Y-57377380D01*
X133428571Y-57948809D01*
X133523809Y-58139285D01*
X133619047Y-58234523D01*
X133809523Y-58329761D01*
X134095238Y-58329761D01*
X131714285Y-56996428D02*
X131714285Y-58329761D01*
X132571428Y-56996428D02*
X132571428Y-58044047D01*
X132476190Y-58234523D01*
X132285714Y-58329761D01*
X132000000Y-58329761D01*
X131809523Y-58234523D01*
X131714285Y-58139285D01*
X131047619Y-56996428D02*
X130285714Y-56996428D01*
X130761904Y-56329761D02*
X130761904Y-58044047D01*
X130666666Y-58234523D01*
X130476190Y-58329761D01*
X130285714Y-58329761D01*
X129619047Y-56996428D02*
X129619047Y-58996428D01*
X129619047Y-57091666D02*
X129428571Y-56996428D01*
X129047619Y-56996428D01*
X128857142Y-57091666D01*
X128761904Y-57186904D01*
X128666666Y-57377380D01*
X128666666Y-57948809D01*
X128761904Y-58139285D01*
X128857142Y-58234523D01*
X129047619Y-58329761D01*
X129428571Y-58329761D01*
X129619047Y-58234523D01*
X126952380Y-56996428D02*
X126952380Y-58329761D01*
X127809523Y-56996428D02*
X127809523Y-58044047D01*
X127714285Y-58234523D01*
X127523809Y-58329761D01*
X127238095Y-58329761D01*
X127047619Y-58234523D01*
X126952380Y-58139285D01*
X126285714Y-56996428D02*
X125523809Y-56996428D01*
X126000000Y-56329761D02*
X126000000Y-58044047D01*
X125904761Y-58234523D01*
X125714285Y-58329761D01*
X125523809Y-58329761D01*
X123047619Y-58329761D02*
X123238095Y-58234523D01*
X123333333Y-58044047D01*
X123333333Y-56329761D01*
X122285714Y-58329761D02*
X122285714Y-56996428D01*
X122285714Y-56329761D02*
X122380952Y-56425000D01*
X122285714Y-56520238D01*
X122190476Y-56425000D01*
X122285714Y-56329761D01*
X122285714Y-56520238D01*
X121333333Y-58329761D02*
X121333333Y-56996428D01*
X121333333Y-57186904D02*
X121238095Y-57091666D01*
X121047619Y-56996428D01*
X120761904Y-56996428D01*
X120571428Y-57091666D01*
X120476190Y-57282142D01*
X120476190Y-58329761D01*
X120476190Y-57282142D02*
X120380952Y-57091666D01*
X120190476Y-56996428D01*
X119904761Y-56996428D01*
X119714285Y-57091666D01*
X119619047Y-57282142D01*
X119619047Y-58329761D01*
X118666666Y-58329761D02*
X118666666Y-56996428D01*
X118666666Y-56329761D02*
X118761904Y-56425000D01*
X118666666Y-56520238D01*
X118571428Y-56425000D01*
X118666666Y-56329761D01*
X118666666Y-56520238D01*
X118000000Y-56996428D02*
X117238095Y-56996428D01*
X117714285Y-56329761D02*
X117714285Y-58044047D01*
X117619047Y-58234523D01*
X117428571Y-58329761D01*
X117238095Y-58329761D01*
X115047619Y-58329761D02*
X115047619Y-56329761D01*
X115047619Y-57091666D02*
X114857142Y-56996428D01*
X114476190Y-56996428D01*
X114285714Y-57091666D01*
X114190476Y-57186904D01*
X114095238Y-57377380D01*
X114095238Y-57948809D01*
X114190476Y-58139285D01*
X114285714Y-58234523D01*
X114476190Y-58329761D01*
X114857142Y-58329761D01*
X115047619Y-58234523D01*
X113428571Y-56996428D02*
X112952380Y-58329761D01*
X112476190Y-56996428D02*
X112952380Y-58329761D01*
X113142857Y-58805952D01*
X113238095Y-58901190D01*
X113428571Y-58996428D01*
X109333333Y-56996428D02*
X109333333Y-58329761D01*
X110190476Y-56996428D02*
X110190476Y-58044047D01*
X110095238Y-58234523D01*
X109904761Y-58329761D01*
X109619047Y-58329761D01*
X109428571Y-58234523D01*
X109333333Y-58139285D01*
X108476190Y-58234523D02*
X108285714Y-58329761D01*
X107904761Y-58329761D01*
X107714285Y-58234523D01*
X107619047Y-58044047D01*
X107619047Y-57948809D01*
X107714285Y-57758333D01*
X107904761Y-57663095D01*
X108190476Y-57663095D01*
X108380952Y-57567857D01*
X108476190Y-57377380D01*
X108476190Y-57282142D01*
X108380952Y-57091666D01*
X108190476Y-56996428D01*
X107904761Y-56996428D01*
X107714285Y-57091666D01*
X106761904Y-58329761D02*
X106761904Y-56996428D01*
X106761904Y-56329761D02*
X106857142Y-56425000D01*
X106761904Y-56520238D01*
X106666666Y-56425000D01*
X106761904Y-56329761D01*
X106761904Y-56520238D01*
X105809523Y-56996428D02*
X105809523Y-58329761D01*
X105809523Y-57186904D02*
X105714285Y-57091666D01*
X105523809Y-56996428D01*
X105238095Y-56996428D01*
X105047619Y-57091666D01*
X104952380Y-57282142D01*
X104952380Y-58329761D01*
X103142857Y-56996428D02*
X103142857Y-58615476D01*
X103238095Y-58805952D01*
X103333333Y-58901190D01*
X103523809Y-58996428D01*
X103809523Y-58996428D01*
X104000000Y-58901190D01*
X103142857Y-58234523D02*
X103333333Y-58329761D01*
X103714285Y-58329761D01*
X103904761Y-58234523D01*
X104000000Y-58139285D01*
X104095238Y-57948809D01*
X104095238Y-57377380D01*
X104000000Y-57186904D01*
X103904761Y-57091666D01*
X103714285Y-56996428D01*
X103333333Y-56996428D01*
X103142857Y-57091666D01*
X147142857Y-61479761D02*
X147142857Y-59479761D01*
X147142857Y-61384523D02*
X147333333Y-61479761D01*
X147714285Y-61479761D01*
X147904761Y-61384523D01*
X148000000Y-61289285D01*
X148095238Y-61098809D01*
X148095238Y-60527380D01*
X148000000Y-60336904D01*
X147904761Y-60241666D01*
X147714285Y-60146428D01*
X147333333Y-60146428D01*
X147142857Y-60241666D01*
X146190476Y-61479761D02*
X146190476Y-60146428D01*
X146190476Y-59479761D02*
X146285714Y-59575000D01*
X146190476Y-59670238D01*
X146095238Y-59575000D01*
X146190476Y-59479761D01*
X146190476Y-59670238D01*
X145523809Y-60146428D02*
X144761904Y-60146428D01*
X145238095Y-61479761D02*
X145238095Y-59765476D01*
X145142857Y-59575000D01*
X144952380Y-59479761D01*
X144761904Y-59479761D01*
X144380952Y-60146428D02*
X143619047Y-60146428D01*
X144095238Y-61479761D02*
X144095238Y-59765476D01*
X144000000Y-59575000D01*
X143809523Y-59479761D01*
X143619047Y-59479761D01*
X142190476Y-61384523D02*
X142380952Y-61479761D01*
X142761904Y-61479761D01*
X142952380Y-61384523D01*
X143047619Y-61194047D01*
X143047619Y-60432142D01*
X142952380Y-60241666D01*
X142761904Y-60146428D01*
X142380952Y-60146428D01*
X142190476Y-60241666D01*
X142095238Y-60432142D01*
X142095238Y-60622619D01*
X143047619Y-60813095D01*
X141238095Y-61479761D02*
X141238095Y-60146428D01*
X141238095Y-60527380D02*
X141142857Y-60336904D01*
X141047619Y-60241666D01*
X140857142Y-60146428D01*
X140666666Y-60146428D01*
X139238095Y-61384523D02*
X139428571Y-61479761D01*
X139809523Y-61479761D01*
X140000000Y-61384523D01*
X140095238Y-61194047D01*
X140095238Y-60432142D01*
X140000000Y-60241666D01*
X139809523Y-60146428D01*
X139428571Y-60146428D01*
X139238095Y-60241666D01*
X139142857Y-60432142D01*
X139142857Y-60622619D01*
X140095238Y-60813095D01*
X138285714Y-60146428D02*
X138285714Y-61479761D01*
X138285714Y-60336904D02*
X138190476Y-60241666D01*
X138000000Y-60146428D01*
X137714285Y-60146428D01*
X137523809Y-60241666D01*
X137428571Y-60432142D01*
X137428571Y-61479761D01*
X136761904Y-60146428D02*
X136000000Y-60146428D01*
X136476190Y-59479761D02*
X136476190Y-61194047D01*
X136380952Y-61384523D01*
X136190476Y-61479761D01*
X136000000Y-61479761D01*
X134000000Y-60146428D02*
X133523809Y-61479761D01*
X133047619Y-60146428D01*
X131428571Y-61479761D02*
X131428571Y-60432142D01*
X131523809Y-60241666D01*
X131714285Y-60146428D01*
X132095238Y-60146428D01*
X132285714Y-60241666D01*
X131428571Y-61384523D02*
X131619047Y-61479761D01*
X132095238Y-61479761D01*
X132285714Y-61384523D01*
X132380952Y-61194047D01*
X132380952Y-61003571D01*
X132285714Y-60813095D01*
X132095238Y-60717857D01*
X131619047Y-60717857D01*
X131428571Y-60622619D01*
X130190476Y-61479761D02*
X130380952Y-61384523D01*
X130476190Y-61194047D01*
X130476190Y-59479761D01*
X128571428Y-60146428D02*
X128571428Y-61479761D01*
X129428571Y-60146428D02*
X129428571Y-61194047D01*
X129333333Y-61384523D01*
X129142857Y-61479761D01*
X128857142Y-61479761D01*
X128666666Y-61384523D01*
X128571428Y-61289285D01*
X126857142Y-61384523D02*
X127047619Y-61479761D01*
X127428571Y-61479761D01*
X127619047Y-61384523D01*
X127714285Y-61194047D01*
X127714285Y-60432142D01*
X127619047Y-60241666D01*
X127428571Y-60146428D01*
X127047619Y-60146428D01*
X126857142Y-60241666D01*
X126761904Y-60432142D01*
X126761904Y-60622619D01*
X127714285Y-60813095D01*
X126000000Y-61384523D02*
X125809523Y-61479761D01*
X125428571Y-61479761D01*
X125238095Y-61384523D01*
X125142857Y-61194047D01*
X125142857Y-61098809D01*
X125238095Y-60908333D01*
X125428571Y-60813095D01*
X125714285Y-60813095D01*
X125904761Y-60717857D01*
X126000000Y-60527380D01*
X126000000Y-60432142D01*
X125904761Y-60241666D01*
X125714285Y-60146428D01*
X125428571Y-60146428D01*
X125238095Y-60241666D01*
X122476190Y-61479761D02*
X122666666Y-61384523D01*
X122761904Y-61289285D01*
X122857142Y-61098809D01*
X122857142Y-60527380D01*
X122761904Y-60336904D01*
X122666666Y-60241666D01*
X122476190Y-60146428D01*
X122190476Y-60146428D01*
X122000000Y-60241666D01*
X121904761Y-60336904D01*
X121809523Y-60527380D01*
X121809523Y-61098809D01*
X121904761Y-61289285D01*
X122000000Y-61384523D01*
X122190476Y-61479761D01*
X122476190Y-61479761D01*
X121238095Y-60146428D02*
X120476190Y-60146428D01*
X120952380Y-61479761D02*
X120952380Y-59765476D01*
X120857142Y-59575000D01*
X120666666Y-59479761D01*
X120476190Y-59479761D01*
X118285714Y-61479761D02*
X118285714Y-59479761D01*
X117809523Y-59479761D01*
X117523809Y-59575000D01*
X117333333Y-59765476D01*
X117238095Y-59955952D01*
X117142857Y-60336904D01*
X117142857Y-60622619D01*
X117238095Y-61003571D01*
X117333333Y-61194047D01*
X117523809Y-61384523D01*
X117809523Y-61479761D01*
X118285714Y-61479761D01*
X115238095Y-61479761D02*
X116380952Y-61479761D01*
X115809523Y-61479761D02*
X115809523Y-59479761D01*
X116000000Y-59765476D01*
X116190476Y-59955952D01*
X116380952Y-60051190D01*
X112000000Y-61479761D02*
X112000000Y-60432142D01*
X112095238Y-60241666D01*
X112285714Y-60146428D01*
X112666666Y-60146428D01*
X112857142Y-60241666D01*
X112000000Y-61384523D02*
X112190476Y-61479761D01*
X112666666Y-61479761D01*
X112857142Y-61384523D01*
X112952380Y-61194047D01*
X112952380Y-61003571D01*
X112857142Y-60813095D01*
X112666666Y-60717857D01*
X112190476Y-60717857D01*
X112000000Y-60622619D01*
X111047619Y-60146428D02*
X111047619Y-61479761D01*
X111047619Y-60336904D02*
X110952380Y-60241666D01*
X110761904Y-60146428D01*
X110476190Y-60146428D01*
X110285714Y-60241666D01*
X110190476Y-60432142D01*
X110190476Y-61479761D01*
X108380952Y-61479761D02*
X108380952Y-59479761D01*
X108380952Y-61384523D02*
X108571428Y-61479761D01*
X108952380Y-61479761D01*
X109142857Y-61384523D01*
X109238095Y-61289285D01*
X109333333Y-61098809D01*
X109333333Y-60527380D01*
X109238095Y-60336904D01*
X109142857Y-60241666D01*
X108952380Y-60146428D01*
X108571428Y-60146428D01*
X108380952Y-60241666D01*
X104761904Y-61479761D02*
X105428571Y-60527380D01*
X105904761Y-61479761D02*
X105904761Y-59479761D01*
X105142857Y-59479761D01*
X104952380Y-59575000D01*
X104857142Y-59670238D01*
X104761904Y-59860714D01*
X104761904Y-60146428D01*
X104857142Y-60336904D01*
X104952380Y-60432142D01*
X105142857Y-60527380D01*
X105904761Y-60527380D01*
X102857142Y-61479761D02*
X104000000Y-61479761D01*
X103428571Y-61479761D02*
X103428571Y-59479761D01*
X103619047Y-59765476D01*
X103809523Y-59955952D01*
X104000000Y-60051190D01*
X102000000Y-61289285D02*
X101904761Y-61384523D01*
X102000000Y-61479761D01*
X102095238Y-61384523D01*
X102000000Y-61289285D01*
X102000000Y-61479761D01*
X134857142Y-62629761D02*
X133714285Y-62629761D01*
X134285714Y-64629761D02*
X134285714Y-62629761D01*
X133047619Y-64629761D02*
X133047619Y-62629761D01*
X132190476Y-64629761D02*
X132190476Y-63582142D01*
X132285714Y-63391666D01*
X132476190Y-63296428D01*
X132761904Y-63296428D01*
X132952380Y-63391666D01*
X133047619Y-63486904D01*
X130476190Y-64534523D02*
X130666666Y-64629761D01*
X131047619Y-64629761D01*
X131238095Y-64534523D01*
X131333333Y-64344047D01*
X131333333Y-63582142D01*
X131238095Y-63391666D01*
X131047619Y-63296428D01*
X130666666Y-63296428D01*
X130476190Y-63391666D01*
X130380952Y-63582142D01*
X130380952Y-63772619D01*
X131333333Y-63963095D01*
X129523809Y-63296428D02*
X129523809Y-64629761D01*
X129523809Y-63486904D02*
X129428571Y-63391666D01*
X129238095Y-63296428D01*
X128952380Y-63296428D01*
X128761904Y-63391666D01*
X128666666Y-63582142D01*
X128666666Y-64629761D01*
X126476190Y-63296428D02*
X125714285Y-63296428D01*
X126190476Y-62629761D02*
X126190476Y-64344047D01*
X126095238Y-64534523D01*
X125904761Y-64629761D01*
X125714285Y-64629761D01*
X124285714Y-64534523D02*
X124476190Y-64629761D01*
X124857142Y-64629761D01*
X125047619Y-64534523D01*
X125142857Y-64344047D01*
X125142857Y-63582142D01*
X125047619Y-63391666D01*
X124857142Y-63296428D01*
X124476190Y-63296428D01*
X124285714Y-63391666D01*
X124190476Y-63582142D01*
X124190476Y-63772619D01*
X125142857Y-63963095D01*
X123428571Y-64534523D02*
X123238095Y-64629761D01*
X122857142Y-64629761D01*
X122666666Y-64534523D01*
X122571428Y-64344047D01*
X122571428Y-64248809D01*
X122666666Y-64058333D01*
X122857142Y-63963095D01*
X123142857Y-63963095D01*
X123333333Y-63867857D01*
X123428571Y-63677380D01*
X123428571Y-63582142D01*
X123333333Y-63391666D01*
X123142857Y-63296428D01*
X122857142Y-63296428D01*
X122666666Y-63391666D01*
X122000000Y-63296428D02*
X121238095Y-63296428D01*
X121714285Y-62629761D02*
X121714285Y-64344047D01*
X121619047Y-64534523D01*
X121428571Y-64629761D01*
X121238095Y-64629761D01*
X119047619Y-64629761D02*
X119047619Y-63296428D01*
X119047619Y-62629761D02*
X119142857Y-62725000D01*
X119047619Y-62820238D01*
X118952380Y-62725000D01*
X119047619Y-62629761D01*
X119047619Y-62820238D01*
X118380952Y-63296428D02*
X117619047Y-63296428D01*
X118095238Y-62629761D02*
X118095238Y-64344047D01*
X118000000Y-64534523D01*
X117809523Y-64629761D01*
X117619047Y-64629761D01*
X115428571Y-64439285D02*
X115333333Y-64534523D01*
X115428571Y-64629761D01*
X115523809Y-64534523D01*
X115428571Y-64439285D01*
X115428571Y-64629761D01*
X115428571Y-63867857D02*
X115523809Y-62725000D01*
X115428571Y-62629761D01*
X115333333Y-62725000D01*
X115428571Y-63867857D01*
X115428571Y-62629761D01*
X106809523Y-112904761D02*
X106142857Y-114904761D01*
X105476190Y-112904761D01*
X104047619Y-114809523D02*
X104238095Y-114904761D01*
X104619047Y-114904761D01*
X104809523Y-114809523D01*
X104904761Y-114619047D01*
X104904761Y-113857142D01*
X104809523Y-113666666D01*
X104619047Y-113571428D01*
X104238095Y-113571428D01*
X104047619Y-113666666D01*
X103952380Y-113857142D01*
X103952380Y-114047619D01*
X104904761Y-114238095D01*
X103095238Y-114904761D02*
X103095238Y-113571428D01*
X103095238Y-113952380D02*
X103000000Y-113761904D01*
X102904761Y-113666666D01*
X102714285Y-113571428D01*
X102523809Y-113571428D01*
X101952380Y-114809523D02*
X101761904Y-114904761D01*
X101380952Y-114904761D01*
X101190476Y-114809523D01*
X101095238Y-114619047D01*
X101095238Y-114523809D01*
X101190476Y-114333333D01*
X101380952Y-114238095D01*
X101666666Y-114238095D01*
X101857142Y-114142857D01*
X101952380Y-113952380D01*
X101952380Y-113857142D01*
X101857142Y-113666666D01*
X101666666Y-113571428D01*
X101380952Y-113571428D01*
X101190476Y-113666666D01*
X100238095Y-114904761D02*
X100238095Y-113571428D01*
X100238095Y-112904761D02*
X100333333Y-113000000D01*
X100238095Y-113095238D01*
X100142857Y-113000000D01*
X100238095Y-112904761D01*
X100238095Y-113095238D01*
X99000000Y-114904761D02*
X99190476Y-114809523D01*
X99285714Y-114714285D01*
X99380952Y-114523809D01*
X99380952Y-113952380D01*
X99285714Y-113761904D01*
X99190476Y-113666666D01*
X99000000Y-113571428D01*
X98714285Y-113571428D01*
X98523809Y-113666666D01*
X98428571Y-113761904D01*
X98333333Y-113952380D01*
X98333333Y-114523809D01*
X98428571Y-114714285D01*
X98523809Y-114809523D01*
X98714285Y-114904761D01*
X99000000Y-114904761D01*
X97476190Y-113571428D02*
X97476190Y-114904761D01*
X97476190Y-113761904D02*
X97380952Y-113666666D01*
X97190476Y-113571428D01*
X96904761Y-113571428D01*
X96714285Y-113666666D01*
X96619047Y-113857142D01*
X96619047Y-114904761D01*
X93095238Y-114904761D02*
X94238095Y-114904761D01*
X93666666Y-114904761D02*
X93666666Y-112904761D01*
X93857142Y-113190476D01*
X94047619Y-113380952D01*
X94238095Y-113476190D01*
X92238095Y-114714285D02*
X92142857Y-114809523D01*
X92238095Y-114904761D01*
X92333333Y-114809523D01*
X92238095Y-114714285D01*
X92238095Y-114904761D01*
X90904761Y-112904761D02*
X90714285Y-112904761D01*
X90523809Y-113000000D01*
X90428571Y-113095238D01*
X90333333Y-113285714D01*
X90238095Y-113666666D01*
X90238095Y-114142857D01*
X90333333Y-114523809D01*
X90428571Y-114714285D01*
X90523809Y-114809523D01*
X90714285Y-114904761D01*
X90904761Y-114904761D01*
X91095238Y-114809523D01*
X91190476Y-114714285D01*
X91285714Y-114523809D01*
X91380952Y-114142857D01*
X91380952Y-113666666D01*
X91285714Y-113285714D01*
X91190476Y-113095238D01*
X91095238Y-113000000D01*
X90904761Y-112904761D01*
X89380952Y-114714285D02*
X89285714Y-114809523D01*
X89380952Y-114904761D01*
X89476190Y-114809523D01*
X89380952Y-114714285D01*
X89380952Y-114904761D01*
X88047619Y-112904761D02*
X87857142Y-112904761D01*
X87666666Y-113000000D01*
X87571428Y-113095238D01*
X87476190Y-113285714D01*
X87380952Y-113666666D01*
X87380952Y-114142857D01*
X87476190Y-114523809D01*
X87571428Y-114714285D01*
X87666666Y-114809523D01*
X87857142Y-114904761D01*
X88047619Y-114904761D01*
X88238095Y-114809523D01*
X88333333Y-114714285D01*
X88428571Y-114523809D01*
X88523809Y-114142857D01*
X88523809Y-113666666D01*
X88428571Y-113285714D01*
X88333333Y-113095238D01*
X88238095Y-113000000D01*
X88047619Y-112904761D01*
M02*
