G04 #@! TF.GenerationSoftware,KiCad,Pcbnew,(5.1.5)-3*
G04 #@! TF.CreationDate,2020-09-01T19:36:17+01:00*
G04 #@! TF.ProjectId,solarVoltageLimiter,736f6c61-7256-46f6-9c74-6167654c696d,1.0.1*
G04 #@! TF.SameCoordinates,Original*
G04 #@! TF.FileFunction,Soldermask,Bot*
G04 #@! TF.FilePolarity,Negative*
%FSLAX46Y46*%
G04 Gerber Fmt 4.6, Leading zero omitted, Abs format (unit mm)*
G04 Created by KiCad (PCBNEW (5.1.5)-3) date 2020-09-01 19:36:17*
%MOMM*%
%LPD*%
G04 APERTURE LIST*
%ADD10C,0.150000*%
G04 APERTURE END LIST*
D10*
G36*
X76379430Y-112749189D02*
G01*
X76616160Y-112847245D01*
X76829213Y-112989603D01*
X77010397Y-113170787D01*
X77152755Y-113383840D01*
X77250811Y-113620570D01*
X77300800Y-113871882D01*
X77300800Y-114128118D01*
X77250811Y-114379430D01*
X77152755Y-114616160D01*
X77010397Y-114829213D01*
X76829213Y-115010397D01*
X76616160Y-115152755D01*
X76379430Y-115250811D01*
X76128118Y-115300800D01*
X75871882Y-115300800D01*
X75620570Y-115250811D01*
X75383840Y-115152755D01*
X75170787Y-115010397D01*
X74989603Y-114829213D01*
X74847245Y-114616160D01*
X74749189Y-114379430D01*
X74699200Y-114128118D01*
X74699200Y-113871882D01*
X74749189Y-113620570D01*
X74847245Y-113383840D01*
X74989603Y-113170787D01*
X75170787Y-112989603D01*
X75383840Y-112847245D01*
X75620570Y-112749189D01*
X75871882Y-112699200D01*
X76128118Y-112699200D01*
X76379430Y-112749189D01*
G37*
G36*
X174379430Y-112749189D02*
G01*
X174616160Y-112847245D01*
X174829213Y-112989603D01*
X175010397Y-113170787D01*
X175152755Y-113383840D01*
X175250811Y-113620570D01*
X175300800Y-113871882D01*
X175300800Y-114128118D01*
X175250811Y-114379430D01*
X175152755Y-114616160D01*
X175010397Y-114829213D01*
X174829213Y-115010397D01*
X174616160Y-115152755D01*
X174379430Y-115250811D01*
X174128118Y-115300800D01*
X173871882Y-115300800D01*
X173620570Y-115250811D01*
X173383840Y-115152755D01*
X173170787Y-115010397D01*
X172989603Y-114829213D01*
X172847245Y-114616160D01*
X172749189Y-114379430D01*
X172699200Y-114128118D01*
X172699200Y-113871882D01*
X172749189Y-113620570D01*
X172847245Y-113383840D01*
X172989603Y-113170787D01*
X173170787Y-112989603D01*
X173383840Y-112847245D01*
X173620570Y-112749189D01*
X173871882Y-112699200D01*
X174128118Y-112699200D01*
X174379430Y-112749189D01*
G37*
G36*
X126959454Y-96950105D02*
G01*
X127558068Y-97198060D01*
X128096807Y-97558033D01*
X128554967Y-98016193D01*
X128914940Y-98554932D01*
X129162895Y-99153546D01*
X129289300Y-99789032D01*
X129289300Y-100436968D01*
X129162895Y-101072454D01*
X128914940Y-101671068D01*
X128554967Y-102209807D01*
X128096807Y-102667967D01*
X127558068Y-103027940D01*
X126959454Y-103275895D01*
X126323968Y-103402300D01*
X125676032Y-103402300D01*
X125040546Y-103275895D01*
X124441932Y-103027940D01*
X123903193Y-102667967D01*
X123445033Y-102209807D01*
X123085060Y-101671068D01*
X122837105Y-101072454D01*
X122710700Y-100436968D01*
X122710700Y-99789032D01*
X122837105Y-99153546D01*
X123085060Y-98554932D01*
X123445033Y-98016193D01*
X123903193Y-97558033D01*
X124441932Y-97198060D01*
X125040546Y-96950105D01*
X125676032Y-96823700D01*
X126323968Y-96823700D01*
X126959454Y-96950105D01*
G37*
G36*
X160248169Y-101681895D02*
G01*
X160403005Y-101746031D01*
X160542354Y-101839140D01*
X160660860Y-101957646D01*
X160753969Y-102096995D01*
X160818105Y-102251831D01*
X160850800Y-102416203D01*
X160850800Y-102583797D01*
X160818105Y-102748169D01*
X160753969Y-102903005D01*
X160660860Y-103042354D01*
X160542354Y-103160860D01*
X160403005Y-103253969D01*
X160248169Y-103318105D01*
X160083797Y-103350800D01*
X159916203Y-103350800D01*
X159751831Y-103318105D01*
X159596995Y-103253969D01*
X159457646Y-103160860D01*
X159339140Y-103042354D01*
X159246031Y-102903005D01*
X159181895Y-102748169D01*
X159149200Y-102583797D01*
X159149200Y-102416203D01*
X159181895Y-102251831D01*
X159246031Y-102096995D01*
X159339140Y-101957646D01*
X159457646Y-101839140D01*
X159596995Y-101746031D01*
X159751831Y-101681895D01*
X159916203Y-101649200D01*
X160083797Y-101649200D01*
X160248169Y-101681895D01*
G37*
G36*
X97150800Y-102150800D02*
G01*
X94849200Y-102150800D01*
X94849200Y-99849200D01*
X97150800Y-99849200D01*
X97150800Y-102150800D01*
G37*
G36*
X86175676Y-99893425D02*
G01*
X86385109Y-99980174D01*
X86573594Y-100106116D01*
X86733884Y-100266406D01*
X86859826Y-100454891D01*
X86946575Y-100664324D01*
X86990800Y-100886656D01*
X86990800Y-101113344D01*
X86946575Y-101335676D01*
X86859826Y-101545109D01*
X86733884Y-101733594D01*
X86573594Y-101893884D01*
X86385109Y-102019826D01*
X86198804Y-102096995D01*
X86175676Y-102106575D01*
X85953344Y-102150800D01*
X85726656Y-102150800D01*
X85504324Y-102106575D01*
X85481196Y-102096995D01*
X85294891Y-102019826D01*
X85106406Y-101893884D01*
X84946116Y-101733594D01*
X84820174Y-101545109D01*
X84733425Y-101335676D01*
X84689200Y-101113344D01*
X84689200Y-100886656D01*
X84733425Y-100664324D01*
X84820174Y-100454891D01*
X84946116Y-100266406D01*
X85106406Y-100106116D01*
X85294891Y-99980174D01*
X85504324Y-99893425D01*
X85726656Y-99849200D01*
X85953344Y-99849200D01*
X86175676Y-99893425D01*
G37*
G36*
X160850800Y-100850800D02*
G01*
X159149200Y-100850800D01*
X159149200Y-99149200D01*
X160850800Y-99149200D01*
X160850800Y-100850800D01*
G37*
G36*
X173034045Y-88297268D02*
G01*
X173261676Y-88391555D01*
X173466540Y-88528441D01*
X173640759Y-88702660D01*
X173777645Y-88907524D01*
X173871932Y-89135155D01*
X173920000Y-89376807D01*
X173920000Y-89623193D01*
X173871932Y-89864845D01*
X173777645Y-90092476D01*
X173640759Y-90297340D01*
X173466540Y-90471559D01*
X173261676Y-90608445D01*
X173034045Y-90702732D01*
X172792393Y-90750800D01*
X172546007Y-90750800D01*
X172304355Y-90702732D01*
X172076724Y-90608445D01*
X171871860Y-90471559D01*
X171697641Y-90297340D01*
X171560755Y-90092476D01*
X171466468Y-89864845D01*
X171418400Y-89623193D01*
X171418400Y-89376807D01*
X171466468Y-89135155D01*
X171560755Y-88907524D01*
X171697641Y-88702660D01*
X171871860Y-88528441D01*
X172076724Y-88391555D01*
X172304355Y-88297268D01*
X172546007Y-88249200D01*
X172792393Y-88249200D01*
X173034045Y-88297268D01*
G37*
G36*
X80364845Y-88297268D02*
G01*
X80592476Y-88391555D01*
X80797340Y-88528441D01*
X80971559Y-88702660D01*
X81108445Y-88907524D01*
X81202732Y-89135155D01*
X81250800Y-89376807D01*
X81250800Y-89623193D01*
X81202732Y-89864845D01*
X81108445Y-90092476D01*
X80971559Y-90297340D01*
X80797340Y-90471559D01*
X80592476Y-90608445D01*
X80364845Y-90702732D01*
X80123193Y-90750800D01*
X79876807Y-90750800D01*
X79635155Y-90702732D01*
X79407524Y-90608445D01*
X79202660Y-90471559D01*
X79028441Y-90297340D01*
X78891555Y-90092476D01*
X78797268Y-89864845D01*
X78749200Y-89623193D01*
X78749200Y-89376807D01*
X78797268Y-89135155D01*
X78891555Y-88907524D01*
X79028441Y-88702660D01*
X79202660Y-88528441D01*
X79407524Y-88391555D01*
X79635155Y-88297268D01*
X79876807Y-88249200D01*
X80123193Y-88249200D01*
X80364845Y-88297268D01*
G37*
G36*
X120857669Y-83601120D02*
G01*
X121044614Y-83657830D01*
X121164099Y-83694075D01*
X121446504Y-83845023D01*
X121694034Y-84048166D01*
X121897177Y-84295695D01*
X122048125Y-84578100D01*
X122048125Y-84578101D01*
X122141080Y-84884530D01*
X122164600Y-85123338D01*
X122164600Y-88432662D01*
X122141080Y-88671470D01*
X122084370Y-88858415D01*
X122048125Y-88977900D01*
X121897177Y-89260305D01*
X121694034Y-89507834D01*
X121446505Y-89710977D01*
X121164100Y-89861925D01*
X121044615Y-89898170D01*
X120857670Y-89954880D01*
X120539000Y-89986266D01*
X120220331Y-89954880D01*
X120033386Y-89898170D01*
X119913901Y-89861925D01*
X119631496Y-89710977D01*
X119383967Y-89507834D01*
X119180824Y-89260305D01*
X119029876Y-88977900D01*
X118993631Y-88858415D01*
X118936921Y-88671470D01*
X118913401Y-88432662D01*
X118913400Y-85123339D01*
X118936920Y-84884531D01*
X118993630Y-84697586D01*
X119029875Y-84578101D01*
X119180823Y-84295696D01*
X119383966Y-84048166D01*
X119631495Y-83845023D01*
X119913900Y-83694075D01*
X120033385Y-83657830D01*
X120220330Y-83601120D01*
X120539000Y-83569734D01*
X120857669Y-83601120D01*
G37*
G36*
X131779669Y-83601120D02*
G01*
X131966614Y-83657830D01*
X132086099Y-83694075D01*
X132368504Y-83845023D01*
X132616034Y-84048166D01*
X132819177Y-84295695D01*
X132970125Y-84578100D01*
X132970125Y-84578101D01*
X133063080Y-84884530D01*
X133086600Y-85123338D01*
X133086600Y-88432662D01*
X133063080Y-88671470D01*
X133006370Y-88858415D01*
X132970125Y-88977900D01*
X132819177Y-89260305D01*
X132616034Y-89507834D01*
X132368505Y-89710977D01*
X132086100Y-89861925D01*
X131966615Y-89898170D01*
X131779670Y-89954880D01*
X131461000Y-89986266D01*
X131142331Y-89954880D01*
X130955386Y-89898170D01*
X130835901Y-89861925D01*
X130553496Y-89710977D01*
X130305967Y-89507834D01*
X130102824Y-89260305D01*
X129951876Y-88977900D01*
X129915631Y-88858415D01*
X129858921Y-88671470D01*
X129835401Y-88432662D01*
X129835400Y-85123339D01*
X129858920Y-84884531D01*
X129915630Y-84697586D01*
X129951875Y-84578101D01*
X130102823Y-84295696D01*
X130305966Y-84048166D01*
X130553495Y-83845023D01*
X130835900Y-83694075D01*
X130955385Y-83657830D01*
X131142330Y-83601120D01*
X131461000Y-83569734D01*
X131779669Y-83601120D01*
G37*
G36*
X160364845Y-85797268D02*
G01*
X160592476Y-85891555D01*
X160797340Y-86028441D01*
X160971559Y-86202660D01*
X161108445Y-86407524D01*
X161202732Y-86635155D01*
X161250800Y-86876807D01*
X161250800Y-87123193D01*
X161202732Y-87364845D01*
X161108445Y-87592476D01*
X160971559Y-87797340D01*
X160797340Y-87971559D01*
X160592476Y-88108445D01*
X160364845Y-88202732D01*
X160123193Y-88250800D01*
X159876807Y-88250800D01*
X159635155Y-88202732D01*
X159407524Y-88108445D01*
X159202660Y-87971559D01*
X159028441Y-87797340D01*
X158891555Y-87592476D01*
X158797268Y-87364845D01*
X158749200Y-87123193D01*
X158749200Y-86876807D01*
X158797268Y-86635155D01*
X158891555Y-86407524D01*
X159028441Y-86202660D01*
X159202660Y-86028441D01*
X159407524Y-85891555D01*
X159635155Y-85797268D01*
X159876807Y-85749200D01*
X160123193Y-85749200D01*
X160364845Y-85797268D01*
G37*
G36*
X92364845Y-85197268D02*
G01*
X92592476Y-85291555D01*
X92797340Y-85428441D01*
X92971559Y-85602660D01*
X93108445Y-85807524D01*
X93202732Y-86035155D01*
X93250800Y-86276807D01*
X93250800Y-86523193D01*
X93202732Y-86764845D01*
X93108445Y-86992476D01*
X92971559Y-87197340D01*
X92797340Y-87371559D01*
X92592476Y-87508445D01*
X92364845Y-87602732D01*
X92123193Y-87650800D01*
X91876807Y-87650800D01*
X91635155Y-87602732D01*
X91407524Y-87508445D01*
X91202660Y-87371559D01*
X91028441Y-87197340D01*
X90891555Y-86992476D01*
X90797268Y-86764845D01*
X90749200Y-86523193D01*
X90749200Y-86276807D01*
X90797268Y-86035155D01*
X90891555Y-85807524D01*
X91028441Y-85602660D01*
X91202660Y-85428441D01*
X91407524Y-85291555D01*
X91635155Y-85197268D01*
X91876807Y-85149200D01*
X92123193Y-85149200D01*
X92364845Y-85197268D01*
G37*
G36*
X81250800Y-87250800D02*
G01*
X78749200Y-87250800D01*
X78749200Y-84749200D01*
X81250800Y-84749200D01*
X81250800Y-87250800D01*
G37*
G36*
X173920000Y-87250800D02*
G01*
X171418400Y-87250800D01*
X171418400Y-84749200D01*
X173920000Y-84749200D01*
X173920000Y-87250800D01*
G37*
G36*
X126959454Y-66724105D02*
G01*
X127558068Y-66972060D01*
X128096807Y-67332033D01*
X128554967Y-67790193D01*
X128914940Y-68328932D01*
X129162895Y-68927546D01*
X129289300Y-69563032D01*
X129289300Y-70210968D01*
X129162895Y-70846454D01*
X128914940Y-71445068D01*
X128554967Y-71983807D01*
X128096807Y-72441967D01*
X127558068Y-72801940D01*
X126959454Y-73049895D01*
X126323968Y-73176300D01*
X125676032Y-73176300D01*
X125040546Y-73049895D01*
X124441932Y-72801940D01*
X123903193Y-72441967D01*
X123445033Y-71983807D01*
X123085060Y-71445068D01*
X122837105Y-70846454D01*
X122710700Y-70210968D01*
X122710700Y-69563032D01*
X122837105Y-68927546D01*
X123085060Y-68328932D01*
X123445033Y-67790193D01*
X123903193Y-67332033D01*
X124441932Y-66972060D01*
X125040546Y-66724105D01*
X125676032Y-66597700D01*
X126323968Y-66597700D01*
X126959454Y-66724105D01*
G37*
G36*
X160364845Y-60397268D02*
G01*
X160592476Y-60491555D01*
X160797340Y-60628441D01*
X160971559Y-60802660D01*
X161108445Y-61007524D01*
X161202732Y-61235155D01*
X161250800Y-61476807D01*
X161250800Y-61723193D01*
X161202732Y-61964845D01*
X161108445Y-62192476D01*
X160971559Y-62397340D01*
X160797340Y-62571559D01*
X160592476Y-62708445D01*
X160364845Y-62802732D01*
X160123193Y-62850800D01*
X159876807Y-62850800D01*
X159635155Y-62802732D01*
X159407524Y-62708445D01*
X159202660Y-62571559D01*
X159028441Y-62397340D01*
X158891555Y-62192476D01*
X158797268Y-61964845D01*
X158749200Y-61723193D01*
X158749200Y-61476807D01*
X158797268Y-61235155D01*
X158891555Y-61007524D01*
X159028441Y-60802660D01*
X159202660Y-60628441D01*
X159407524Y-60491555D01*
X159635155Y-60397268D01*
X159876807Y-60349200D01*
X160123193Y-60349200D01*
X160364845Y-60397268D01*
G37*
G36*
X92364845Y-59797268D02*
G01*
X92592476Y-59891555D01*
X92797340Y-60028441D01*
X92971559Y-60202660D01*
X93108445Y-60407524D01*
X93202732Y-60635155D01*
X93250800Y-60876807D01*
X93250800Y-61123193D01*
X93202732Y-61364845D01*
X93108445Y-61592476D01*
X92971559Y-61797340D01*
X92797340Y-61971559D01*
X92592476Y-62108445D01*
X92364845Y-62202732D01*
X92123193Y-62250800D01*
X91876807Y-62250800D01*
X91635155Y-62202732D01*
X91407524Y-62108445D01*
X91202660Y-61971559D01*
X91028441Y-61797340D01*
X90891555Y-61592476D01*
X90797268Y-61364845D01*
X90749200Y-61123193D01*
X90749200Y-60876807D01*
X90797268Y-60635155D01*
X90891555Y-60407524D01*
X91028441Y-60202660D01*
X91202660Y-60028441D01*
X91407524Y-59891555D01*
X91635155Y-59797268D01*
X91876807Y-59749200D01*
X92123193Y-59749200D01*
X92364845Y-59797268D01*
G37*
G36*
X76379430Y-54749189D02*
G01*
X76616160Y-54847245D01*
X76829213Y-54989603D01*
X77010397Y-55170787D01*
X77152755Y-55383840D01*
X77250811Y-55620570D01*
X77300800Y-55871882D01*
X77300800Y-56128118D01*
X77250811Y-56379430D01*
X77152755Y-56616160D01*
X77010397Y-56829213D01*
X76829213Y-57010397D01*
X76616160Y-57152755D01*
X76379430Y-57250811D01*
X76128118Y-57300800D01*
X75871882Y-57300800D01*
X75620570Y-57250811D01*
X75383840Y-57152755D01*
X75170787Y-57010397D01*
X74989603Y-56829213D01*
X74847245Y-56616160D01*
X74749189Y-56379430D01*
X74699200Y-56128118D01*
X74699200Y-55871882D01*
X74749189Y-55620570D01*
X74847245Y-55383840D01*
X74989603Y-55170787D01*
X75170787Y-54989603D01*
X75383840Y-54847245D01*
X75620570Y-54749189D01*
X75871882Y-54699200D01*
X76128118Y-54699200D01*
X76379430Y-54749189D01*
G37*
G36*
X174379430Y-54749189D02*
G01*
X174616160Y-54847245D01*
X174829213Y-54989603D01*
X175010397Y-55170787D01*
X175152755Y-55383840D01*
X175250811Y-55620570D01*
X175300800Y-55871882D01*
X175300800Y-56128118D01*
X175250811Y-56379430D01*
X175152755Y-56616160D01*
X175010397Y-56829213D01*
X174829213Y-57010397D01*
X174616160Y-57152755D01*
X174379430Y-57250811D01*
X174128118Y-57300800D01*
X173871882Y-57300800D01*
X173620570Y-57250811D01*
X173383840Y-57152755D01*
X173170787Y-57010397D01*
X172989603Y-56829213D01*
X172847245Y-56616160D01*
X172749189Y-56379430D01*
X172699200Y-56128118D01*
X172699200Y-55871882D01*
X172749189Y-55620570D01*
X172847245Y-55383840D01*
X172989603Y-55170787D01*
X173170787Y-54989603D01*
X173383840Y-54847245D01*
X173620570Y-54749189D01*
X173871882Y-54699200D01*
X174128118Y-54699200D01*
X174379430Y-54749189D01*
G37*
M02*
