G04 #@! TF.GenerationSoftware,KiCad,Pcbnew,(5.1.5)-3*
G04 #@! TF.CreationDate,2020-09-01T19:36:17+01:00*
G04 #@! TF.ProjectId,solarVoltageLimiter,736f6c61-7256-46f6-9c74-6167654c696d,1.0.1*
G04 #@! TF.SameCoordinates,Original*
G04 #@! TF.FileFunction,Legend,Top*
G04 #@! TF.FilePolarity,Positive*
%FSLAX46Y46*%
G04 Gerber Fmt 4.6, Leading zero omitted, Abs format (unit mm)*
G04 Created by KiCad (PCBNEW (5.1.5)-3) date 2020-09-01 19:36:17*
%MOMM*%
%LPD*%
G04 APERTURE LIST*
%ADD10C,0.150000*%
%ADD11C,0.120000*%
%ADD12C,0.050800*%
%ADD13C,0.152400*%
%ADD14C,0.015000*%
G04 APERTURE END LIST*
D10*
X117815060Y-102535533D02*
X116400846Y-103949747D01*
X117074281Y-103276312D02*
X116266159Y-102468190D01*
X117006938Y-101727411D02*
X115592724Y-103141625D01*
X115727411Y-100582572D02*
X115929442Y-100649915D01*
X116198816Y-100919289D01*
X116266159Y-101121320D01*
X116198816Y-101323350D01*
X115660068Y-101862098D01*
X115458037Y-101929442D01*
X115256007Y-101862098D01*
X114986633Y-101592724D01*
X114919289Y-101390694D01*
X114986633Y-101188663D01*
X115121320Y-101053976D01*
X115929442Y-101592724D01*
X114515228Y-99235702D02*
X113774450Y-99976480D01*
X113707106Y-100178511D01*
X113774450Y-100380541D01*
X114043824Y-100649915D01*
X114245854Y-100717259D01*
X114447885Y-99303045D02*
X114649915Y-99370389D01*
X114986633Y-99707106D01*
X115053976Y-99909137D01*
X114986633Y-100111167D01*
X114851946Y-100245854D01*
X114649915Y-100313198D01*
X114447885Y-100245854D01*
X114111167Y-99909137D01*
X113909137Y-99841793D01*
X113101015Y-99707106D02*
X112562267Y-99168358D01*
X112427580Y-99976480D02*
X113639763Y-98764297D01*
X113707106Y-98562267D01*
X113639763Y-98360236D01*
X113505076Y-98225549D01*
X113033671Y-97888832D02*
X112966328Y-97686801D01*
X112696954Y-97417427D01*
X112494923Y-97350084D01*
X112292893Y-97417427D01*
X112225549Y-97484771D01*
X112158206Y-97686801D01*
X112225549Y-97888832D01*
X112427580Y-98090862D01*
X112494923Y-98292893D01*
X112427580Y-98494923D01*
X112360236Y-98562267D01*
X112158206Y-98629610D01*
X111956175Y-98562267D01*
X111754145Y-98360236D01*
X111686801Y-98158206D01*
X111888832Y-96609305D02*
X110946023Y-97552114D01*
X110474618Y-98023519D02*
X110609305Y-98023519D01*
X110609305Y-97888832D01*
X110474618Y-97888832D01*
X110474618Y-98023519D01*
X110609305Y-97888832D01*
X110272588Y-96878679D02*
X111215397Y-95935870D01*
X110407275Y-96743992D02*
X110272588Y-96743992D01*
X110070557Y-96676649D01*
X109868527Y-96474618D01*
X109801183Y-96272588D01*
X109868527Y-96070557D01*
X110609305Y-95329779D01*
X109935870Y-94656344D02*
X108521657Y-96070557D01*
X109262435Y-95060405D02*
X109397122Y-94117596D01*
X108454313Y-95060405D02*
X109531809Y-95060405D01*
X134184939Y-69464466D02*
X135599153Y-68050252D01*
X134925718Y-68723687D02*
X135733840Y-69531809D01*
X134993061Y-70272588D02*
X136407275Y-68858374D01*
X136272588Y-71417427D02*
X136070557Y-71350084D01*
X135801183Y-71080710D01*
X135733840Y-70878679D01*
X135801183Y-70676649D01*
X136339931Y-70137901D01*
X136541962Y-70070557D01*
X136743992Y-70137901D01*
X137013366Y-70407275D01*
X137080710Y-70609305D01*
X137013366Y-70811336D01*
X136878679Y-70946023D01*
X136070557Y-70407275D01*
X137484771Y-72764297D02*
X138225549Y-72023519D01*
X138292893Y-71821488D01*
X138225549Y-71619458D01*
X137956175Y-71350084D01*
X137754145Y-71282740D01*
X137552114Y-72696954D02*
X137350084Y-72629610D01*
X137013366Y-72292893D01*
X136946023Y-72090862D01*
X137013366Y-71888832D01*
X137148053Y-71754145D01*
X137350084Y-71686801D01*
X137552114Y-71754145D01*
X137888832Y-72090862D01*
X138090862Y-72158206D01*
X138898984Y-72292893D02*
X139437732Y-72831641D01*
X139572419Y-72023519D02*
X138360236Y-73235702D01*
X138292893Y-73437732D01*
X138360236Y-73639763D01*
X138494923Y-73774450D01*
X138966328Y-74111167D02*
X139033671Y-74313198D01*
X139303045Y-74582572D01*
X139505076Y-74649915D01*
X139707106Y-74582572D01*
X139774450Y-74515228D01*
X139841793Y-74313198D01*
X139774450Y-74111167D01*
X139572419Y-73909137D01*
X139505076Y-73707106D01*
X139572419Y-73505076D01*
X139639763Y-73437732D01*
X139841793Y-73370389D01*
X140043824Y-73437732D01*
X140245854Y-73639763D01*
X140313198Y-73841793D01*
X140111167Y-75390694D02*
X141053976Y-74447885D01*
X141525381Y-73976480D02*
X141390694Y-73976480D01*
X141390694Y-74111167D01*
X141525381Y-74111167D01*
X141525381Y-73976480D01*
X141390694Y-74111167D01*
X141727411Y-75121320D02*
X140784602Y-76064129D01*
X141592724Y-75256007D02*
X141727411Y-75256007D01*
X141929442Y-75323350D01*
X142131472Y-75525381D01*
X142198816Y-75727411D01*
X142131472Y-75929442D01*
X141390694Y-76670220D01*
X142064129Y-77343655D02*
X143478342Y-75929442D01*
X142737564Y-76939594D02*
X142602877Y-77882403D01*
X143545686Y-76939594D02*
X142468190Y-76939594D01*
X141535533Y-93184939D02*
X142949747Y-94599153D01*
X142276312Y-93925718D02*
X141468190Y-94733840D01*
X140727411Y-93993061D02*
X142141625Y-95407275D01*
X139582572Y-95272588D02*
X139649915Y-95070557D01*
X139919289Y-94801183D01*
X140121320Y-94733840D01*
X140323350Y-94801183D01*
X140862098Y-95339931D01*
X140929442Y-95541962D01*
X140862098Y-95743992D01*
X140592724Y-96013366D01*
X140390694Y-96080710D01*
X140188663Y-96013366D01*
X140053976Y-95878679D01*
X140592724Y-95070557D01*
X138235702Y-96484771D02*
X138976480Y-97225549D01*
X139178511Y-97292893D01*
X139380541Y-97225549D01*
X139649915Y-96956175D01*
X139717259Y-96754145D01*
X138303045Y-96552114D02*
X138370389Y-96350084D01*
X138707106Y-96013366D01*
X138909137Y-95946023D01*
X139111167Y-96013366D01*
X139245854Y-96148053D01*
X139313198Y-96350084D01*
X139245854Y-96552114D01*
X138909137Y-96888832D01*
X138841793Y-97090862D01*
X138707106Y-97898984D02*
X138168358Y-98437732D01*
X138976480Y-98572419D02*
X137764297Y-97360236D01*
X137562267Y-97292893D01*
X137360236Y-97360236D01*
X137225549Y-97494923D01*
X136888832Y-97966328D02*
X136686801Y-98033671D01*
X136417427Y-98303045D01*
X136350084Y-98505076D01*
X136417427Y-98707106D01*
X136484771Y-98774450D01*
X136686801Y-98841793D01*
X136888832Y-98774450D01*
X137090862Y-98572419D01*
X137292893Y-98505076D01*
X137494923Y-98572419D01*
X137562267Y-98639763D01*
X137629610Y-98841793D01*
X137562267Y-99043824D01*
X137360236Y-99245854D01*
X137158206Y-99313198D01*
X135609305Y-99111167D02*
X136552114Y-100053976D01*
X137023519Y-100525381D02*
X137023519Y-100390694D01*
X136888832Y-100390694D01*
X136888832Y-100525381D01*
X137023519Y-100525381D01*
X136888832Y-100390694D01*
X135878679Y-100727411D02*
X134935870Y-99784602D01*
X135743992Y-100592724D02*
X135743992Y-100727411D01*
X135676649Y-100929442D01*
X135474618Y-101131472D01*
X135272588Y-101198816D01*
X135070557Y-101131472D01*
X134329779Y-100390694D01*
X133656344Y-101064129D02*
X135070557Y-102478342D01*
X134060405Y-101737564D02*
X133117596Y-101602877D01*
X134060405Y-102545686D02*
X134060405Y-101468190D01*
X107464466Y-78815060D02*
X106050252Y-77400846D01*
X106723687Y-78074281D02*
X107531809Y-77266159D01*
X108272588Y-78006938D02*
X106858374Y-76592724D01*
X109417427Y-76727411D02*
X109350084Y-76929442D01*
X109080710Y-77198816D01*
X108878679Y-77266159D01*
X108676649Y-77198816D01*
X108137901Y-76660068D01*
X108070557Y-76458037D01*
X108137901Y-76256007D01*
X108407275Y-75986633D01*
X108609305Y-75919289D01*
X108811336Y-75986633D01*
X108946023Y-76121320D01*
X108407275Y-76929442D01*
X110764297Y-75515228D02*
X110023519Y-74774450D01*
X109821488Y-74707106D01*
X109619458Y-74774450D01*
X109350084Y-75043824D01*
X109282740Y-75245854D01*
X110696954Y-75447885D02*
X110629610Y-75649915D01*
X110292893Y-75986633D01*
X110090862Y-76053976D01*
X109888832Y-75986633D01*
X109754145Y-75851946D01*
X109686801Y-75649915D01*
X109754145Y-75447885D01*
X110090862Y-75111167D01*
X110158206Y-74909137D01*
X110292893Y-74101015D02*
X110831641Y-73562267D01*
X110023519Y-73427580D02*
X111235702Y-74639763D01*
X111437732Y-74707106D01*
X111639763Y-74639763D01*
X111774450Y-74505076D01*
X112111167Y-74033671D02*
X112313198Y-73966328D01*
X112582572Y-73696954D01*
X112649915Y-73494923D01*
X112582572Y-73292893D01*
X112515228Y-73225549D01*
X112313198Y-73158206D01*
X112111167Y-73225549D01*
X111909137Y-73427580D01*
X111707106Y-73494923D01*
X111505076Y-73427580D01*
X111437732Y-73360236D01*
X111370389Y-73158206D01*
X111437732Y-72956175D01*
X111639763Y-72754145D01*
X111841793Y-72686801D01*
X113390694Y-72888832D02*
X112447885Y-71946023D01*
X111976480Y-71474618D02*
X111976480Y-71609305D01*
X112111167Y-71609305D01*
X112111167Y-71474618D01*
X111976480Y-71474618D01*
X112111167Y-71609305D01*
X113121320Y-71272588D02*
X114064129Y-72215397D01*
X113256007Y-71407275D02*
X113256007Y-71272588D01*
X113323350Y-71070557D01*
X113525381Y-70868527D01*
X113727411Y-70801183D01*
X113929442Y-70868527D01*
X114670220Y-71609305D01*
X115343655Y-70935870D02*
X113929442Y-69521657D01*
X114939594Y-70262435D02*
X115882403Y-70397122D01*
X114939594Y-69454313D02*
X114939594Y-70531809D01*
X107333333Y-54809523D02*
X107619047Y-54904761D01*
X108095238Y-54904761D01*
X108285714Y-54809523D01*
X108380952Y-54714285D01*
X108476190Y-54523809D01*
X108476190Y-54333333D01*
X108380952Y-54142857D01*
X108285714Y-54047619D01*
X108095238Y-53952380D01*
X107714285Y-53857142D01*
X107523809Y-53761904D01*
X107428571Y-53666666D01*
X107333333Y-53476190D01*
X107333333Y-53285714D01*
X107428571Y-53095238D01*
X107523809Y-53000000D01*
X107714285Y-52904761D01*
X108190476Y-52904761D01*
X108476190Y-53000000D01*
X109619047Y-54904761D02*
X109428571Y-54809523D01*
X109333333Y-54714285D01*
X109238095Y-54523809D01*
X109238095Y-53952380D01*
X109333333Y-53761904D01*
X109428571Y-53666666D01*
X109619047Y-53571428D01*
X109904761Y-53571428D01*
X110095238Y-53666666D01*
X110190476Y-53761904D01*
X110285714Y-53952380D01*
X110285714Y-54523809D01*
X110190476Y-54714285D01*
X110095238Y-54809523D01*
X109904761Y-54904761D01*
X109619047Y-54904761D01*
X111428571Y-54904761D02*
X111238095Y-54809523D01*
X111142857Y-54619047D01*
X111142857Y-52904761D01*
X113047619Y-54904761D02*
X113047619Y-53857142D01*
X112952380Y-53666666D01*
X112761904Y-53571428D01*
X112380952Y-53571428D01*
X112190476Y-53666666D01*
X113047619Y-54809523D02*
X112857142Y-54904761D01*
X112380952Y-54904761D01*
X112190476Y-54809523D01*
X112095238Y-54619047D01*
X112095238Y-54428571D01*
X112190476Y-54238095D01*
X112380952Y-54142857D01*
X112857142Y-54142857D01*
X113047619Y-54047619D01*
X114000000Y-54904761D02*
X114000000Y-53571428D01*
X114000000Y-53952380D02*
X114095238Y-53761904D01*
X114190476Y-53666666D01*
X114380952Y-53571428D01*
X114571428Y-53571428D01*
X116761904Y-54904761D02*
X116761904Y-52904761D01*
X117523809Y-52904761D01*
X117714285Y-53000000D01*
X117809523Y-53095238D01*
X117904761Y-53285714D01*
X117904761Y-53571428D01*
X117809523Y-53761904D01*
X117714285Y-53857142D01*
X117523809Y-53952380D01*
X116761904Y-53952380D01*
X119619047Y-54904761D02*
X119619047Y-53857142D01*
X119523809Y-53666666D01*
X119333333Y-53571428D01*
X118952380Y-53571428D01*
X118761904Y-53666666D01*
X119619047Y-54809523D02*
X119428571Y-54904761D01*
X118952380Y-54904761D01*
X118761904Y-54809523D01*
X118666666Y-54619047D01*
X118666666Y-54428571D01*
X118761904Y-54238095D01*
X118952380Y-54142857D01*
X119428571Y-54142857D01*
X119619047Y-54047619D01*
X120571428Y-53571428D02*
X120571428Y-54904761D01*
X120571428Y-53761904D02*
X120666666Y-53666666D01*
X120857142Y-53571428D01*
X121142857Y-53571428D01*
X121333333Y-53666666D01*
X121428571Y-53857142D01*
X121428571Y-54904761D01*
X123142857Y-54809523D02*
X122952380Y-54904761D01*
X122571428Y-54904761D01*
X122380952Y-54809523D01*
X122285714Y-54619047D01*
X122285714Y-53857142D01*
X122380952Y-53666666D01*
X122571428Y-53571428D01*
X122952380Y-53571428D01*
X123142857Y-53666666D01*
X123238095Y-53857142D01*
X123238095Y-54047619D01*
X122285714Y-54238095D01*
X124380952Y-54904761D02*
X124190476Y-54809523D01*
X124095238Y-54619047D01*
X124095238Y-52904761D01*
X126380952Y-52904761D02*
X127047619Y-54904761D01*
X127714285Y-52904761D01*
X128666666Y-54904761D02*
X128476190Y-54809523D01*
X128380952Y-54714285D01*
X128285714Y-54523809D01*
X128285714Y-53952380D01*
X128380952Y-53761904D01*
X128476190Y-53666666D01*
X128666666Y-53571428D01*
X128952380Y-53571428D01*
X129142857Y-53666666D01*
X129238095Y-53761904D01*
X129333333Y-53952380D01*
X129333333Y-54523809D01*
X129238095Y-54714285D01*
X129142857Y-54809523D01*
X128952380Y-54904761D01*
X128666666Y-54904761D01*
X130476190Y-54904761D02*
X130285714Y-54809523D01*
X130190476Y-54619047D01*
X130190476Y-52904761D01*
X130952380Y-53571428D02*
X131714285Y-53571428D01*
X131238095Y-52904761D02*
X131238095Y-54619047D01*
X131333333Y-54809523D01*
X131523809Y-54904761D01*
X131714285Y-54904761D01*
X133238095Y-54904761D02*
X133238095Y-53857142D01*
X133142857Y-53666666D01*
X132952380Y-53571428D01*
X132571428Y-53571428D01*
X132380952Y-53666666D01*
X133238095Y-54809523D02*
X133047619Y-54904761D01*
X132571428Y-54904761D01*
X132380952Y-54809523D01*
X132285714Y-54619047D01*
X132285714Y-54428571D01*
X132380952Y-54238095D01*
X132571428Y-54142857D01*
X133047619Y-54142857D01*
X133238095Y-54047619D01*
X135047619Y-53571428D02*
X135047619Y-55190476D01*
X134952380Y-55380952D01*
X134857142Y-55476190D01*
X134666666Y-55571428D01*
X134380952Y-55571428D01*
X134190476Y-55476190D01*
X135047619Y-54809523D02*
X134857142Y-54904761D01*
X134476190Y-54904761D01*
X134285714Y-54809523D01*
X134190476Y-54714285D01*
X134095238Y-54523809D01*
X134095238Y-53952380D01*
X134190476Y-53761904D01*
X134285714Y-53666666D01*
X134476190Y-53571428D01*
X134857142Y-53571428D01*
X135047619Y-53666666D01*
X136761904Y-54809523D02*
X136571428Y-54904761D01*
X136190476Y-54904761D01*
X136000000Y-54809523D01*
X135904761Y-54619047D01*
X135904761Y-53857142D01*
X136000000Y-53666666D01*
X136190476Y-53571428D01*
X136571428Y-53571428D01*
X136761904Y-53666666D01*
X136857142Y-53857142D01*
X136857142Y-54047619D01*
X135904761Y-54238095D01*
X140190476Y-54904761D02*
X139238095Y-54904761D01*
X139238095Y-52904761D01*
X140857142Y-54904761D02*
X140857142Y-53571428D01*
X140857142Y-52904761D02*
X140761904Y-53000000D01*
X140857142Y-53095238D01*
X140952380Y-53000000D01*
X140857142Y-52904761D01*
X140857142Y-53095238D01*
X141809523Y-54904761D02*
X141809523Y-53571428D01*
X141809523Y-53761904D02*
X141904761Y-53666666D01*
X142095238Y-53571428D01*
X142380952Y-53571428D01*
X142571428Y-53666666D01*
X142666666Y-53857142D01*
X142666666Y-54904761D01*
X142666666Y-53857142D02*
X142761904Y-53666666D01*
X142952380Y-53571428D01*
X143238095Y-53571428D01*
X143428571Y-53666666D01*
X143523809Y-53857142D01*
X143523809Y-54904761D01*
X144476190Y-54904761D02*
X144476190Y-53571428D01*
X144476190Y-52904761D02*
X144380952Y-53000000D01*
X144476190Y-53095238D01*
X144571428Y-53000000D01*
X144476190Y-52904761D01*
X144476190Y-53095238D01*
X145142857Y-53571428D02*
X145904761Y-53571428D01*
X145428571Y-52904761D02*
X145428571Y-54619047D01*
X145523809Y-54809523D01*
X145714285Y-54904761D01*
X145904761Y-54904761D01*
X147333333Y-54809523D02*
X147142857Y-54904761D01*
X146761904Y-54904761D01*
X146571428Y-54809523D01*
X146476190Y-54619047D01*
X146476190Y-53857142D01*
X146571428Y-53666666D01*
X146761904Y-53571428D01*
X147142857Y-53571428D01*
X147333333Y-53666666D01*
X147428571Y-53857142D01*
X147428571Y-54047619D01*
X146476190Y-54238095D01*
X148285714Y-54904761D02*
X148285714Y-53571428D01*
X148285714Y-53952380D02*
X148380952Y-53761904D01*
X148476190Y-53666666D01*
X148666666Y-53571428D01*
X148857142Y-53571428D01*
X145571428Y-113095238D02*
X145666666Y-113000000D01*
X145857142Y-112904761D01*
X146333333Y-112904761D01*
X146523809Y-113000000D01*
X146619047Y-113095238D01*
X146714285Y-113285714D01*
X146714285Y-113476190D01*
X146619047Y-113761904D01*
X145476190Y-114904761D01*
X146714285Y-114904761D01*
X147952380Y-112904761D02*
X148142857Y-112904761D01*
X148333333Y-113000000D01*
X148428571Y-113095238D01*
X148523809Y-113285714D01*
X148619047Y-113666666D01*
X148619047Y-114142857D01*
X148523809Y-114523809D01*
X148428571Y-114714285D01*
X148333333Y-114809523D01*
X148142857Y-114904761D01*
X147952380Y-114904761D01*
X147761904Y-114809523D01*
X147666666Y-114714285D01*
X147571428Y-114523809D01*
X147476190Y-114142857D01*
X147476190Y-113666666D01*
X147571428Y-113285714D01*
X147666666Y-113095238D01*
X147761904Y-113000000D01*
X147952380Y-112904761D01*
X149380952Y-113095238D02*
X149476190Y-113000000D01*
X149666666Y-112904761D01*
X150142857Y-112904761D01*
X150333333Y-113000000D01*
X150428571Y-113095238D01*
X150523809Y-113285714D01*
X150523809Y-113476190D01*
X150428571Y-113761904D01*
X149285714Y-114904761D01*
X150523809Y-114904761D01*
X151761904Y-112904761D02*
X151952380Y-112904761D01*
X152142857Y-113000000D01*
X152238095Y-113095238D01*
X152333333Y-113285714D01*
X152428571Y-113666666D01*
X152428571Y-114142857D01*
X152333333Y-114523809D01*
X152238095Y-114714285D01*
X152142857Y-114809523D01*
X151952380Y-114904761D01*
X151761904Y-114904761D01*
X151571428Y-114809523D01*
X151476190Y-114714285D01*
X151380952Y-114523809D01*
X151285714Y-114142857D01*
X151285714Y-113666666D01*
X151380952Y-113285714D01*
X151476190Y-113095238D01*
X151571428Y-113000000D01*
X151761904Y-112904761D01*
X90714285Y-114809523D02*
X91000000Y-114904761D01*
X91476190Y-114904761D01*
X91666666Y-114809523D01*
X91761904Y-114714285D01*
X91857142Y-114523809D01*
X91857142Y-114333333D01*
X91761904Y-114142857D01*
X91666666Y-114047619D01*
X91476190Y-113952380D01*
X91095238Y-113857142D01*
X90904761Y-113761904D01*
X90809523Y-113666666D01*
X90714285Y-113476190D01*
X90714285Y-113285714D01*
X90809523Y-113095238D01*
X90904761Y-113000000D01*
X91095238Y-112904761D01*
X91571428Y-112904761D01*
X91857142Y-113000000D01*
X93000000Y-114904761D02*
X92809523Y-114809523D01*
X92714285Y-114619047D01*
X92714285Y-112904761D01*
X94523809Y-114809523D02*
X94333333Y-114904761D01*
X93952380Y-114904761D01*
X93761904Y-114809523D01*
X93666666Y-114619047D01*
X93666666Y-113857142D01*
X93761904Y-113666666D01*
X93952380Y-113571428D01*
X94333333Y-113571428D01*
X94523809Y-113666666D01*
X94619047Y-113857142D01*
X94619047Y-114047619D01*
X93666666Y-114238095D01*
X96238095Y-114809523D02*
X96047619Y-114904761D01*
X95666666Y-114904761D01*
X95476190Y-114809523D01*
X95380952Y-114619047D01*
X95380952Y-113857142D01*
X95476190Y-113666666D01*
X95666666Y-113571428D01*
X96047619Y-113571428D01*
X96238095Y-113666666D01*
X96333333Y-113857142D01*
X96333333Y-114047619D01*
X95380952Y-114238095D01*
X97190476Y-113571428D02*
X97190476Y-115571428D01*
X97190476Y-113666666D02*
X97380952Y-113571428D01*
X97761904Y-113571428D01*
X97952380Y-113666666D01*
X98047619Y-113761904D01*
X98142857Y-113952380D01*
X98142857Y-114523809D01*
X98047619Y-114714285D01*
X97952380Y-114809523D01*
X97761904Y-114904761D01*
X97380952Y-114904761D01*
X97190476Y-114809523D01*
X98809523Y-113571428D02*
X99285714Y-114904761D01*
X99761904Y-113571428D02*
X99285714Y-114904761D01*
X99095238Y-115380952D01*
X99000000Y-115476190D01*
X98809523Y-115571428D01*
X100523809Y-114904761D02*
X100523809Y-113571428D01*
X100523809Y-113761904D02*
X100619047Y-113666666D01*
X100809523Y-113571428D01*
X101095238Y-113571428D01*
X101285714Y-113666666D01*
X101380952Y-113857142D01*
X101380952Y-114904761D01*
X101380952Y-113857142D02*
X101476190Y-113666666D01*
X101666666Y-113571428D01*
X101952380Y-113571428D01*
X102142857Y-113666666D01*
X102238095Y-113857142D01*
X102238095Y-114904761D01*
X103476190Y-114904761D02*
X103285714Y-114809523D01*
X103190476Y-114714285D01*
X103095238Y-114523809D01*
X103095238Y-113952380D01*
X103190476Y-113761904D01*
X103285714Y-113666666D01*
X103476190Y-113571428D01*
X103761904Y-113571428D01*
X103952380Y-113666666D01*
X104047619Y-113761904D01*
X104142857Y-113952380D01*
X104142857Y-114523809D01*
X104047619Y-114714285D01*
X103952380Y-114809523D01*
X103761904Y-114904761D01*
X103476190Y-114904761D01*
X105857142Y-113571428D02*
X105857142Y-114904761D01*
X105000000Y-113571428D02*
X105000000Y-114619047D01*
X105095238Y-114809523D01*
X105285714Y-114904761D01*
X105571428Y-114904761D01*
X105761904Y-114809523D01*
X105857142Y-114714285D01*
X106714285Y-114809523D02*
X106904761Y-114904761D01*
X107285714Y-114904761D01*
X107476190Y-114809523D01*
X107571428Y-114619047D01*
X107571428Y-114523809D01*
X107476190Y-114333333D01*
X107285714Y-114238095D01*
X107000000Y-114238095D01*
X106809523Y-114142857D01*
X106714285Y-113952380D01*
X106714285Y-113857142D01*
X106809523Y-113666666D01*
X107000000Y-113571428D01*
X107285714Y-113571428D01*
X107476190Y-113666666D01*
X109190476Y-114809523D02*
X109000000Y-114904761D01*
X108619047Y-114904761D01*
X108428571Y-114809523D01*
X108333333Y-114619047D01*
X108333333Y-113857142D01*
X108428571Y-113666666D01*
X108619047Y-113571428D01*
X109000000Y-113571428D01*
X109190476Y-113666666D01*
X109285714Y-113857142D01*
X109285714Y-114047619D01*
X108333333Y-114238095D01*
X130571428Y-79857142D02*
X131238095Y-79857142D01*
X131523809Y-80904761D02*
X130571428Y-80904761D01*
X130571428Y-78904761D01*
X131523809Y-78904761D01*
X120142857Y-79857142D02*
X120428571Y-79952380D01*
X120523809Y-80047619D01*
X120619047Y-80238095D01*
X120619047Y-80523809D01*
X120523809Y-80714285D01*
X120428571Y-80809523D01*
X120238095Y-80904761D01*
X119476190Y-80904761D01*
X119476190Y-78904761D01*
X120142857Y-78904761D01*
X120333333Y-79000000D01*
X120428571Y-79095238D01*
X120523809Y-79285714D01*
X120523809Y-79476190D01*
X120428571Y-79666666D01*
X120333333Y-79761904D01*
X120142857Y-79857142D01*
X119476190Y-79857142D01*
X125619047Y-62714285D02*
X125523809Y-62809523D01*
X125238095Y-62904761D01*
X125047619Y-62904761D01*
X124761904Y-62809523D01*
X124571428Y-62619047D01*
X124476190Y-62428571D01*
X124380952Y-62047619D01*
X124380952Y-61761904D01*
X124476190Y-61380952D01*
X124571428Y-61190476D01*
X124761904Y-61000000D01*
X125047619Y-60904761D01*
X125238095Y-60904761D01*
X125523809Y-61000000D01*
X125619047Y-61095238D01*
X125619047Y-108714285D02*
X125523809Y-108809523D01*
X125238095Y-108904761D01*
X125047619Y-108904761D01*
X124761904Y-108809523D01*
X124571428Y-108619047D01*
X124476190Y-108428571D01*
X124380952Y-108047619D01*
X124380952Y-107761904D01*
X124476190Y-107380952D01*
X124571428Y-107190476D01*
X124761904Y-107000000D01*
X125047619Y-106904761D01*
X125238095Y-106904761D01*
X125523809Y-107000000D01*
X125619047Y-107095238D01*
X78238095Y-79579761D02*
X78380952Y-79627380D01*
X78619047Y-79627380D01*
X78714285Y-79579761D01*
X78761904Y-79532142D01*
X78809523Y-79436904D01*
X78809523Y-79341666D01*
X78761904Y-79246428D01*
X78714285Y-79198809D01*
X78619047Y-79151190D01*
X78428571Y-79103571D01*
X78333333Y-79055952D01*
X78285714Y-79008333D01*
X78238095Y-78913095D01*
X78238095Y-78817857D01*
X78285714Y-78722619D01*
X78333333Y-78675000D01*
X78428571Y-78627380D01*
X78666666Y-78627380D01*
X78809523Y-78675000D01*
X79380952Y-79627380D02*
X79285714Y-79579761D01*
X79238095Y-79532142D01*
X79190476Y-79436904D01*
X79190476Y-79151190D01*
X79238095Y-79055952D01*
X79285714Y-79008333D01*
X79380952Y-78960714D01*
X79523809Y-78960714D01*
X79619047Y-79008333D01*
X79666666Y-79055952D01*
X79714285Y-79151190D01*
X79714285Y-79436904D01*
X79666666Y-79532142D01*
X79619047Y-79579761D01*
X79523809Y-79627380D01*
X79380952Y-79627380D01*
X80285714Y-79627380D02*
X80190476Y-79579761D01*
X80142857Y-79484523D01*
X80142857Y-78627380D01*
X81095238Y-79627380D02*
X81095238Y-79103571D01*
X81047619Y-79008333D01*
X80952380Y-78960714D01*
X80761904Y-78960714D01*
X80666666Y-79008333D01*
X81095238Y-79579761D02*
X81000000Y-79627380D01*
X80761904Y-79627380D01*
X80666666Y-79579761D01*
X80619047Y-79484523D01*
X80619047Y-79389285D01*
X80666666Y-79294047D01*
X80761904Y-79246428D01*
X81000000Y-79246428D01*
X81095238Y-79198809D01*
X81571428Y-79627380D02*
X81571428Y-78960714D01*
X81571428Y-79151190D02*
X81619047Y-79055952D01*
X81666666Y-79008333D01*
X81761904Y-78960714D01*
X81857142Y-78960714D01*
X79547619Y-81277380D02*
X79547619Y-80277380D01*
X80023809Y-80610714D02*
X80023809Y-81277380D01*
X80023809Y-80705952D02*
X80071428Y-80658333D01*
X80166666Y-80610714D01*
X80309523Y-80610714D01*
X80404761Y-80658333D01*
X80452380Y-80753571D01*
X80452380Y-81277380D01*
X169595238Y-81452380D02*
X169595238Y-80452380D01*
X169833333Y-80452380D01*
X169976190Y-80500000D01*
X170071428Y-80595238D01*
X170119047Y-80690476D01*
X170166666Y-80880952D01*
X170166666Y-81023809D01*
X170119047Y-81214285D01*
X170071428Y-81309523D01*
X169976190Y-81404761D01*
X169833333Y-81452380D01*
X169595238Y-81452380D01*
X171166666Y-81357142D02*
X171119047Y-81404761D01*
X170976190Y-81452380D01*
X170880952Y-81452380D01*
X170738095Y-81404761D01*
X170642857Y-81309523D01*
X170595238Y-81214285D01*
X170547619Y-81023809D01*
X170547619Y-80880952D01*
X170595238Y-80690476D01*
X170642857Y-80595238D01*
X170738095Y-80500000D01*
X170880952Y-80452380D01*
X170976190Y-80452380D01*
X171119047Y-80500000D01*
X171166666Y-80547619D01*
X172547619Y-80452380D02*
X172738095Y-80452380D01*
X172833333Y-80500000D01*
X172928571Y-80595238D01*
X172976190Y-80785714D01*
X172976190Y-81119047D01*
X172928571Y-81309523D01*
X172833333Y-81404761D01*
X172738095Y-81452380D01*
X172547619Y-81452380D01*
X172452380Y-81404761D01*
X172357142Y-81309523D01*
X172309523Y-81119047D01*
X172309523Y-80785714D01*
X172357142Y-80595238D01*
X172452380Y-80500000D01*
X172547619Y-80452380D01*
X173833333Y-80785714D02*
X173833333Y-81452380D01*
X173404761Y-80785714D02*
X173404761Y-81309523D01*
X173452380Y-81404761D01*
X173547619Y-81452380D01*
X173690476Y-81452380D01*
X173785714Y-81404761D01*
X173833333Y-81357142D01*
X174166666Y-80785714D02*
X174547619Y-80785714D01*
X174309523Y-80452380D02*
X174309523Y-81309523D01*
X174357142Y-81404761D01*
X174452380Y-81452380D01*
X174547619Y-81452380D01*
X171238095Y-94500000D02*
X171142857Y-94452380D01*
X171000000Y-94452380D01*
X170857142Y-94500000D01*
X170761904Y-94595238D01*
X170714285Y-94690476D01*
X170666666Y-94880952D01*
X170666666Y-95023809D01*
X170714285Y-95214285D01*
X170761904Y-95309523D01*
X170857142Y-95404761D01*
X171000000Y-95452380D01*
X171095238Y-95452380D01*
X171238095Y-95404761D01*
X171285714Y-95357142D01*
X171285714Y-95023809D01*
X171095238Y-95023809D01*
X171714285Y-95452380D02*
X171714285Y-94452380D01*
X172285714Y-95452380D01*
X172285714Y-94452380D01*
X172761904Y-95452380D02*
X172761904Y-94452380D01*
X173000000Y-94452380D01*
X173142857Y-94500000D01*
X173238095Y-94595238D01*
X173285714Y-94690476D01*
X173333333Y-94880952D01*
X173333333Y-95023809D01*
X173285714Y-95214285D01*
X173238095Y-95309523D01*
X173142857Y-95404761D01*
X173000000Y-95452380D01*
X172761904Y-95452380D01*
X79238095Y-94500000D02*
X79142857Y-94452380D01*
X79000000Y-94452380D01*
X78857142Y-94500000D01*
X78761904Y-94595238D01*
X78714285Y-94690476D01*
X78666666Y-94880952D01*
X78666666Y-95023809D01*
X78714285Y-95214285D01*
X78761904Y-95309523D01*
X78857142Y-95404761D01*
X79000000Y-95452380D01*
X79095238Y-95452380D01*
X79238095Y-95404761D01*
X79285714Y-95357142D01*
X79285714Y-95023809D01*
X79095238Y-95023809D01*
X79714285Y-95452380D02*
X79714285Y-94452380D01*
X80285714Y-95452380D01*
X80285714Y-94452380D01*
X80761904Y-95452380D02*
X80761904Y-94452380D01*
X81000000Y-94452380D01*
X81142857Y-94500000D01*
X81238095Y-94595238D01*
X81285714Y-94690476D01*
X81333333Y-94880952D01*
X81333333Y-95023809D01*
X81285714Y-95214285D01*
X81238095Y-95309523D01*
X81142857Y-95404761D01*
X81000000Y-95452380D01*
X80761904Y-95452380D01*
D11*
X125535503Y-114412161D02*
X96831012Y-85707670D01*
X154349553Y-85598111D02*
X125535503Y-114412161D01*
X125645062Y-56893621D02*
X154293875Y-85542434D01*
X96831012Y-85707670D02*
X125645062Y-56893621D01*
X163270000Y-101250000D02*
G75*
G03X163270000Y-101250000I-3270000J0D01*
G01*
X163230000Y-101250000D02*
X156770000Y-101250000D01*
X163230000Y-101290000D02*
X156770000Y-101290000D01*
X163230000Y-101330000D02*
X156770000Y-101330000D01*
X163228000Y-101370000D02*
X156772000Y-101370000D01*
X163227000Y-101410000D02*
X156773000Y-101410000D01*
X163224000Y-101450000D02*
X156776000Y-101450000D01*
X163222000Y-101490000D02*
X161040000Y-101490000D01*
X158960000Y-101490000D02*
X156778000Y-101490000D01*
X163218000Y-101530000D02*
X161040000Y-101530000D01*
X158960000Y-101530000D02*
X156782000Y-101530000D01*
X163215000Y-101570000D02*
X161040000Y-101570000D01*
X158960000Y-101570000D02*
X156785000Y-101570000D01*
X163211000Y-101610000D02*
X161040000Y-101610000D01*
X158960000Y-101610000D02*
X156789000Y-101610000D01*
X163206000Y-101650000D02*
X161040000Y-101650000D01*
X158960000Y-101650000D02*
X156794000Y-101650000D01*
X163201000Y-101690000D02*
X161040000Y-101690000D01*
X158960000Y-101690000D02*
X156799000Y-101690000D01*
X163195000Y-101730000D02*
X161040000Y-101730000D01*
X158960000Y-101730000D02*
X156805000Y-101730000D01*
X163189000Y-101770000D02*
X161040000Y-101770000D01*
X158960000Y-101770000D02*
X156811000Y-101770000D01*
X163182000Y-101810000D02*
X161040000Y-101810000D01*
X158960000Y-101810000D02*
X156818000Y-101810000D01*
X163175000Y-101850000D02*
X161040000Y-101850000D01*
X158960000Y-101850000D02*
X156825000Y-101850000D01*
X163167000Y-101890000D02*
X161040000Y-101890000D01*
X158960000Y-101890000D02*
X156833000Y-101890000D01*
X163159000Y-101930000D02*
X161040000Y-101930000D01*
X158960000Y-101930000D02*
X156841000Y-101930000D01*
X163150000Y-101971000D02*
X161040000Y-101971000D01*
X158960000Y-101971000D02*
X156850000Y-101971000D01*
X163141000Y-102011000D02*
X161040000Y-102011000D01*
X158960000Y-102011000D02*
X156859000Y-102011000D01*
X163131000Y-102051000D02*
X161040000Y-102051000D01*
X158960000Y-102051000D02*
X156869000Y-102051000D01*
X163121000Y-102091000D02*
X161040000Y-102091000D01*
X158960000Y-102091000D02*
X156879000Y-102091000D01*
X163110000Y-102131000D02*
X161040000Y-102131000D01*
X158960000Y-102131000D02*
X156890000Y-102131000D01*
X163098000Y-102171000D02*
X161040000Y-102171000D01*
X158960000Y-102171000D02*
X156902000Y-102171000D01*
X163086000Y-102211000D02*
X161040000Y-102211000D01*
X158960000Y-102211000D02*
X156914000Y-102211000D01*
X163074000Y-102251000D02*
X161040000Y-102251000D01*
X158960000Y-102251000D02*
X156926000Y-102251000D01*
X163061000Y-102291000D02*
X161040000Y-102291000D01*
X158960000Y-102291000D02*
X156939000Y-102291000D01*
X163047000Y-102331000D02*
X161040000Y-102331000D01*
X158960000Y-102331000D02*
X156953000Y-102331000D01*
X163033000Y-102371000D02*
X161040000Y-102371000D01*
X158960000Y-102371000D02*
X156967000Y-102371000D01*
X163018000Y-102411000D02*
X161040000Y-102411000D01*
X158960000Y-102411000D02*
X156982000Y-102411000D01*
X163002000Y-102451000D02*
X161040000Y-102451000D01*
X158960000Y-102451000D02*
X156998000Y-102451000D01*
X162986000Y-102491000D02*
X161040000Y-102491000D01*
X158960000Y-102491000D02*
X157014000Y-102491000D01*
X162970000Y-102531000D02*
X161040000Y-102531000D01*
X158960000Y-102531000D02*
X157030000Y-102531000D01*
X162952000Y-102571000D02*
X161040000Y-102571000D01*
X158960000Y-102571000D02*
X157048000Y-102571000D01*
X162934000Y-102611000D02*
X161040000Y-102611000D01*
X158960000Y-102611000D02*
X157066000Y-102611000D01*
X162916000Y-102651000D02*
X161040000Y-102651000D01*
X158960000Y-102651000D02*
X157084000Y-102651000D01*
X162896000Y-102691000D02*
X161040000Y-102691000D01*
X158960000Y-102691000D02*
X157104000Y-102691000D01*
X162876000Y-102731000D02*
X161040000Y-102731000D01*
X158960000Y-102731000D02*
X157124000Y-102731000D01*
X162856000Y-102771000D02*
X161040000Y-102771000D01*
X158960000Y-102771000D02*
X157144000Y-102771000D01*
X162834000Y-102811000D02*
X161040000Y-102811000D01*
X158960000Y-102811000D02*
X157166000Y-102811000D01*
X162812000Y-102851000D02*
X161040000Y-102851000D01*
X158960000Y-102851000D02*
X157188000Y-102851000D01*
X162790000Y-102891000D02*
X161040000Y-102891000D01*
X158960000Y-102891000D02*
X157210000Y-102891000D01*
X162766000Y-102931000D02*
X161040000Y-102931000D01*
X158960000Y-102931000D02*
X157234000Y-102931000D01*
X162742000Y-102971000D02*
X161040000Y-102971000D01*
X158960000Y-102971000D02*
X157258000Y-102971000D01*
X162716000Y-103011000D02*
X161040000Y-103011000D01*
X158960000Y-103011000D02*
X157284000Y-103011000D01*
X162690000Y-103051000D02*
X161040000Y-103051000D01*
X158960000Y-103051000D02*
X157310000Y-103051000D01*
X162664000Y-103091000D02*
X161040000Y-103091000D01*
X158960000Y-103091000D02*
X157336000Y-103091000D01*
X162636000Y-103131000D02*
X161040000Y-103131000D01*
X158960000Y-103131000D02*
X157364000Y-103131000D01*
X162607000Y-103171000D02*
X161040000Y-103171000D01*
X158960000Y-103171000D02*
X157393000Y-103171000D01*
X162578000Y-103211000D02*
X161040000Y-103211000D01*
X158960000Y-103211000D02*
X157422000Y-103211000D01*
X162548000Y-103251000D02*
X161040000Y-103251000D01*
X158960000Y-103251000D02*
X157452000Y-103251000D01*
X162516000Y-103291000D02*
X161040000Y-103291000D01*
X158960000Y-103291000D02*
X157484000Y-103291000D01*
X162484000Y-103331000D02*
X161040000Y-103331000D01*
X158960000Y-103331000D02*
X157516000Y-103331000D01*
X162450000Y-103371000D02*
X161040000Y-103371000D01*
X158960000Y-103371000D02*
X157550000Y-103371000D01*
X162416000Y-103411000D02*
X161040000Y-103411000D01*
X158960000Y-103411000D02*
X157584000Y-103411000D01*
X162380000Y-103451000D02*
X161040000Y-103451000D01*
X158960000Y-103451000D02*
X157620000Y-103451000D01*
X162343000Y-103491000D02*
X161040000Y-103491000D01*
X158960000Y-103491000D02*
X157657000Y-103491000D01*
X162305000Y-103531000D02*
X161040000Y-103531000D01*
X158960000Y-103531000D02*
X157695000Y-103531000D01*
X162265000Y-103571000D02*
X157735000Y-103571000D01*
X162224000Y-103611000D02*
X157776000Y-103611000D01*
X162182000Y-103651000D02*
X157818000Y-103651000D01*
X162137000Y-103691000D02*
X157863000Y-103691000D01*
X162092000Y-103731000D02*
X157908000Y-103731000D01*
X162044000Y-103771000D02*
X157956000Y-103771000D01*
X161995000Y-103811000D02*
X158005000Y-103811000D01*
X161944000Y-103851000D02*
X158056000Y-103851000D01*
X161890000Y-103891000D02*
X158110000Y-103891000D01*
X161834000Y-103931000D02*
X158166000Y-103931000D01*
X161776000Y-103971000D02*
X158224000Y-103971000D01*
X161714000Y-104011000D02*
X158286000Y-104011000D01*
X161650000Y-104051000D02*
X158350000Y-104051000D01*
X161581000Y-104091000D02*
X158419000Y-104091000D01*
X161509000Y-104131000D02*
X158491000Y-104131000D01*
X161432000Y-104171000D02*
X158568000Y-104171000D01*
X161350000Y-104211000D02*
X158650000Y-104211000D01*
X161262000Y-104251000D02*
X158738000Y-104251000D01*
X161165000Y-104291000D02*
X158835000Y-104291000D01*
X161059000Y-104331000D02*
X158941000Y-104331000D01*
X160940000Y-104371000D02*
X159060000Y-104371000D01*
X160802000Y-104411000D02*
X159198000Y-104411000D01*
X160633000Y-104451000D02*
X159367000Y-104451000D01*
X160402000Y-104491000D02*
X159598000Y-104491000D01*
X161839000Y-97749759D02*
X161839000Y-98379759D01*
X162154000Y-98064759D02*
X161524000Y-98064759D01*
X93640000Y-102470000D02*
X93640000Y-99530000D01*
X93640000Y-99530000D02*
X88200000Y-99530000D01*
X88200000Y-99530000D02*
X88200000Y-102470000D01*
X88200000Y-102470000D02*
X93640000Y-102470000D01*
X94660000Y-101000000D02*
X93640000Y-101000000D01*
X87180000Y-101000000D02*
X88200000Y-101000000D01*
X92740000Y-102470000D02*
X92740000Y-99530000D01*
X92620000Y-102470000D02*
X92620000Y-99530000D01*
X92860000Y-102470000D02*
X92860000Y-99530000D01*
X75200000Y-83950000D02*
X75200000Y-84350000D01*
X75840000Y-83950000D02*
X75200000Y-83950000D01*
X79059000Y-88355000D02*
X78931000Y-88226000D01*
X81275000Y-90570000D02*
X81181000Y-90476000D01*
X78819000Y-88525000D02*
X78726000Y-88431000D01*
X81069000Y-90775000D02*
X80941000Y-90646000D01*
X83160000Y-91310000D02*
X75440000Y-91310000D01*
X83160000Y-84190000D02*
X75440000Y-84190000D01*
X75440000Y-84190000D02*
X75440000Y-91310000D01*
X83160000Y-84190000D02*
X83160000Y-91310000D01*
X77000000Y-84190000D02*
X77000000Y-91310000D01*
X75900000Y-84190000D02*
X75900000Y-91310000D01*
X81680000Y-89500000D02*
G75*
G03X81680000Y-89500000I-1680000J0D01*
G01*
X78319901Y-86028674D02*
G75*
G02X78560000Y-85134000I1680099J28674D01*
G01*
X79110106Y-84574642D02*
G75*
G02X80866000Y-84560000I889894J-1425358D01*
G01*
X81425358Y-85110106D02*
G75*
G02X81440000Y-86866000I-1425358J-889894D01*
G01*
X80890193Y-87425505D02*
G75*
G02X79109000Y-87425000I-890193J1425505D01*
G01*
X78575279Y-86890264D02*
G75*
G02X78320000Y-86000000I1424721J890264D01*
G01*
X171244479Y-86890264D02*
G75*
G02X170989200Y-86000000I1424721J890264D01*
G01*
X173559393Y-87425505D02*
G75*
G02X171778200Y-87425000I-890193J1425505D01*
G01*
X174094558Y-85110106D02*
G75*
G02X174109200Y-86866000I-1425358J-889894D01*
G01*
X171779306Y-84574642D02*
G75*
G02X173535200Y-84560000I889894J-1425358D01*
G01*
X170989101Y-86028674D02*
G75*
G02X171229200Y-85134000I1680099J28674D01*
G01*
X174349200Y-89500000D02*
G75*
G03X174349200Y-89500000I-1680000J0D01*
G01*
X168569200Y-84190000D02*
X168569200Y-91310000D01*
X169669200Y-84190000D02*
X169669200Y-91310000D01*
X175829200Y-84190000D02*
X175829200Y-91310000D01*
X168109200Y-84190000D02*
X168109200Y-91310000D01*
X175829200Y-84190000D02*
X168109200Y-84190000D01*
X175829200Y-91310000D02*
X168109200Y-91310000D01*
X173738200Y-90775000D02*
X173610200Y-90646000D01*
X171488200Y-88525000D02*
X171395200Y-88431000D01*
X173944200Y-90570000D02*
X173850200Y-90476000D01*
X171728200Y-88355000D02*
X171600200Y-88226000D01*
X168509200Y-83950000D02*
X167869200Y-83950000D01*
X167869200Y-83950000D02*
X167869200Y-84350000D01*
X94370000Y-67630000D02*
X89630000Y-67630000D01*
X89630000Y-67630000D02*
X89630000Y-79770000D01*
X89630000Y-79770000D02*
X94370000Y-79770000D01*
X94370000Y-79770000D02*
X94370000Y-67630000D01*
X92000000Y-62440000D02*
X92000000Y-67630000D01*
X92000000Y-84960000D02*
X92000000Y-79770000D01*
X160000000Y-63040000D02*
X160000000Y-68230000D01*
X160000000Y-85560000D02*
X160000000Y-80370000D01*
X157630000Y-68230000D02*
X157630000Y-80370000D01*
X162370000Y-68230000D02*
X157630000Y-68230000D01*
X162370000Y-80370000D02*
X162370000Y-68230000D01*
X157630000Y-80370000D02*
X162370000Y-80370000D01*
D12*
X137684000Y-85000000D02*
G75*
G03X137684000Y-85000000I-11684000J0D01*
G01*
D13*
X135372600Y-85000000D02*
G75*
G03X135372600Y-85000000I-9372600J0D01*
G01*
X113300000Y-85000000D02*
G75*
G02X114794100Y-79023500I12700000J63D01*
G01*
X115014100Y-91371800D02*
G75*
G02X113300000Y-85000000I10985916J6371817D01*
G01*
X137205900Y-90976500D02*
G75*
G03X138700000Y-85000000I-11205900J5976437D01*
G01*
X138700000Y-85000000D02*
G75*
G03X136985900Y-78628200I-12700016J-17D01*
G01*
X126000000Y-104812000D02*
G75*
G03X130657000Y-102155500I28J5410197D01*
G01*
X126000000Y-104812000D02*
G75*
G02X121306500Y-102092700I39J5410197D01*
G01*
X130545000Y-67663400D02*
G75*
G03X126000000Y-65188000I-4545022J-2934803D01*
G01*
X121455000Y-67663400D02*
G75*
G02X126000000Y-65188000I4545022J-2934803D01*
G01*
X137226800Y-90943600D02*
X130597400Y-102246600D01*
X115001800Y-91350000D02*
X121428000Y-102272000D01*
X114798600Y-79031000D02*
X121478800Y-67626400D01*
X136998200Y-78624600D02*
X130521200Y-67626400D01*
D10*
X76285714Y-52952380D02*
X75714285Y-52952380D01*
X76000000Y-52952380D02*
X76000000Y-51952380D01*
X75904761Y-52095238D01*
X75809523Y-52190476D01*
X75714285Y-52238095D01*
X76190476Y-110285714D02*
X76190476Y-110952380D01*
X75952380Y-109904761D02*
X75714285Y-110619047D01*
X76333333Y-110619047D01*
X173666666Y-109952380D02*
X174285714Y-109952380D01*
X173952380Y-110333333D01*
X174095238Y-110333333D01*
X174190476Y-110380952D01*
X174238095Y-110428571D01*
X174285714Y-110523809D01*
X174285714Y-110761904D01*
X174238095Y-110857142D01*
X174190476Y-110904761D01*
X174095238Y-110952380D01*
X173809523Y-110952380D01*
X173714285Y-110904761D01*
X173666666Y-110857142D01*
X173714285Y-52047619D02*
X173761904Y-52000000D01*
X173857142Y-51952380D01*
X174095238Y-51952380D01*
X174190476Y-52000000D01*
X174238095Y-52047619D01*
X174285714Y-52142857D01*
X174285714Y-52238095D01*
X174238095Y-52380952D01*
X173666666Y-52952380D01*
X174285714Y-52952380D01*
X164757142Y-105107142D02*
X164804761Y-105154761D01*
X164852380Y-105297619D01*
X164852380Y-105392857D01*
X164804761Y-105535714D01*
X164709523Y-105630952D01*
X164614285Y-105678571D01*
X164423809Y-105726190D01*
X164280952Y-105726190D01*
X164090476Y-105678571D01*
X163995238Y-105630952D01*
X163900000Y-105535714D01*
X163852380Y-105392857D01*
X163852380Y-105297619D01*
X163900000Y-105154761D01*
X163947619Y-105107142D01*
X164852380Y-104154761D02*
X164852380Y-104726190D01*
X164852380Y-104440476D02*
X163852380Y-104440476D01*
X163995238Y-104535714D01*
X164090476Y-104630952D01*
X164138095Y-104726190D01*
X164471428Y-102964285D02*
X164471428Y-102202380D01*
X164852380Y-100440476D02*
X164852380Y-101011904D01*
X164852380Y-100726190D02*
X163852380Y-100726190D01*
X163995238Y-100821428D01*
X164090476Y-100916666D01*
X164138095Y-101011904D01*
X163852380Y-99821428D02*
X163852380Y-99726190D01*
X163900000Y-99630952D01*
X163947619Y-99583333D01*
X164042857Y-99535714D01*
X164233333Y-99488095D01*
X164471428Y-99488095D01*
X164661904Y-99535714D01*
X164757142Y-99583333D01*
X164804761Y-99630952D01*
X164852380Y-99726190D01*
X164852380Y-99821428D01*
X164804761Y-99916666D01*
X164757142Y-99964285D01*
X164661904Y-100011904D01*
X164471428Y-100059523D01*
X164233333Y-100059523D01*
X164042857Y-100011904D01*
X163947619Y-99964285D01*
X163900000Y-99916666D01*
X163852380Y-99821428D01*
X163852380Y-98869047D02*
X163852380Y-98773809D01*
X163900000Y-98678571D01*
X163947619Y-98630952D01*
X164042857Y-98583333D01*
X164233333Y-98535714D01*
X164471428Y-98535714D01*
X164661904Y-98583333D01*
X164757142Y-98630952D01*
X164804761Y-98678571D01*
X164852380Y-98773809D01*
X164852380Y-98869047D01*
X164804761Y-98964285D01*
X164757142Y-99011904D01*
X164661904Y-99059523D01*
X164471428Y-99107142D01*
X164233333Y-99107142D01*
X164042857Y-99059523D01*
X163947619Y-99011904D01*
X163900000Y-98964285D01*
X163852380Y-98869047D01*
X164185714Y-97678571D02*
X164852380Y-97678571D01*
X164185714Y-98107142D02*
X164709523Y-98107142D01*
X164804761Y-98059523D01*
X164852380Y-97964285D01*
X164852380Y-97821428D01*
X164804761Y-97726190D01*
X164757142Y-97678571D01*
X164328571Y-96869047D02*
X164328571Y-97202380D01*
X164852380Y-97202380D02*
X163852380Y-97202380D01*
X163852380Y-96726190D01*
X82562857Y-103922380D02*
X82562857Y-102922380D01*
X82800952Y-102922380D01*
X82943809Y-102970000D01*
X83039047Y-103065238D01*
X83086666Y-103160476D01*
X83134285Y-103350952D01*
X83134285Y-103493809D01*
X83086666Y-103684285D01*
X83039047Y-103779523D01*
X82943809Y-103874761D01*
X82800952Y-103922380D01*
X82562857Y-103922380D01*
X84086666Y-103922380D02*
X83515238Y-103922380D01*
X83800952Y-103922380D02*
X83800952Y-102922380D01*
X83705714Y-103065238D01*
X83610476Y-103160476D01*
X83515238Y-103208095D01*
X85277142Y-103541428D02*
X86039047Y-103541428D01*
X87181904Y-102922380D02*
X87848571Y-102922380D01*
X87181904Y-103922380D01*
X87848571Y-103922380D01*
X88610476Y-103874761D02*
X88515238Y-103922380D01*
X88324761Y-103922380D01*
X88229523Y-103874761D01*
X88181904Y-103779523D01*
X88181904Y-103398571D01*
X88229523Y-103303333D01*
X88324761Y-103255714D01*
X88515238Y-103255714D01*
X88610476Y-103303333D01*
X88658095Y-103398571D01*
X88658095Y-103493809D01*
X88181904Y-103589047D01*
X89086666Y-103255714D02*
X89086666Y-103922380D01*
X89086666Y-103350952D02*
X89134285Y-103303333D01*
X89229523Y-103255714D01*
X89372380Y-103255714D01*
X89467619Y-103303333D01*
X89515238Y-103398571D01*
X89515238Y-103922380D01*
X90372380Y-103874761D02*
X90277142Y-103922380D01*
X90086666Y-103922380D01*
X89991428Y-103874761D01*
X89943809Y-103779523D01*
X89943809Y-103398571D01*
X89991428Y-103303333D01*
X90086666Y-103255714D01*
X90277142Y-103255714D01*
X90372380Y-103303333D01*
X90420000Y-103398571D01*
X90420000Y-103493809D01*
X89943809Y-103589047D01*
X90848571Y-103922380D02*
X90848571Y-103255714D01*
X90848571Y-103446190D02*
X90896190Y-103350952D01*
X90943809Y-103303333D01*
X91039047Y-103255714D01*
X91134285Y-103255714D01*
X92229523Y-103541428D02*
X92991428Y-103541428D01*
X94753333Y-103922380D02*
X94181904Y-103922380D01*
X94467619Y-103922380D02*
X94467619Y-102922380D01*
X94372380Y-103065238D01*
X94277142Y-103160476D01*
X94181904Y-103208095D01*
X95181904Y-103922380D02*
X95181904Y-102922380D01*
X95753333Y-103922380D01*
X95753333Y-102922380D01*
X96658095Y-103255714D02*
X96658095Y-103922380D01*
X96420000Y-102874761D02*
X96181904Y-103589047D01*
X96800952Y-103589047D01*
X97086666Y-102922380D02*
X97753333Y-102922380D01*
X97324761Y-103922380D01*
X98039047Y-103922380D02*
X98562857Y-103255714D01*
X98039047Y-103255714D02*
X98562857Y-103922380D01*
X98848571Y-103922380D02*
X99372380Y-103255714D01*
X98848571Y-103255714D02*
X99372380Y-103922380D01*
X95738095Y-103552380D02*
X95738095Y-102552380D01*
X96309523Y-103552380D02*
X95880952Y-102980952D01*
X96309523Y-102552380D02*
X95738095Y-103123809D01*
X83612380Y-88083333D02*
X84326666Y-88083333D01*
X84469523Y-88130952D01*
X84564761Y-88226190D01*
X84612380Y-88369047D01*
X84612380Y-88464285D01*
X84612380Y-87083333D02*
X84612380Y-87654761D01*
X84612380Y-87369047D02*
X83612380Y-87369047D01*
X83755238Y-87464285D01*
X83850476Y-87559523D01*
X83898095Y-87654761D01*
X176281580Y-88083333D02*
X176995866Y-88083333D01*
X177138723Y-88130952D01*
X177233961Y-88226190D01*
X177281580Y-88369047D01*
X177281580Y-88464285D01*
X176376819Y-87654761D02*
X176329200Y-87607142D01*
X176281580Y-87511904D01*
X176281580Y-87273809D01*
X176329200Y-87178571D01*
X176376819Y-87130952D01*
X176472057Y-87083333D01*
X176567295Y-87083333D01*
X176710152Y-87130952D01*
X177281580Y-87702380D01*
X177281580Y-87083333D01*
X95822380Y-76438095D02*
X95346190Y-76771428D01*
X95822380Y-77009523D02*
X94822380Y-77009523D01*
X94822380Y-76628571D01*
X94870000Y-76533333D01*
X94917619Y-76485714D01*
X95012857Y-76438095D01*
X95155714Y-76438095D01*
X95250952Y-76485714D01*
X95298571Y-76533333D01*
X95346190Y-76628571D01*
X95346190Y-77009523D01*
X95822380Y-75485714D02*
X95822380Y-76057142D01*
X95822380Y-75771428D02*
X94822380Y-75771428D01*
X94965238Y-75866666D01*
X95060476Y-75961904D01*
X95108095Y-76057142D01*
X95441428Y-74295238D02*
X95441428Y-73533333D01*
X94822380Y-71866666D02*
X94822380Y-72057142D01*
X94870000Y-72152380D01*
X94917619Y-72200000D01*
X95060476Y-72295238D01*
X95250952Y-72342857D01*
X95631904Y-72342857D01*
X95727142Y-72295238D01*
X95774761Y-72247619D01*
X95822380Y-72152380D01*
X95822380Y-71961904D01*
X95774761Y-71866666D01*
X95727142Y-71819047D01*
X95631904Y-71771428D01*
X95393809Y-71771428D01*
X95298571Y-71819047D01*
X95250952Y-71866666D01*
X95203333Y-71961904D01*
X95203333Y-72152380D01*
X95250952Y-72247619D01*
X95298571Y-72295238D01*
X95393809Y-72342857D01*
X95727142Y-71342857D02*
X95774761Y-71295238D01*
X95822380Y-71342857D01*
X95774761Y-71390476D01*
X95727142Y-71342857D01*
X95822380Y-71342857D01*
X95250952Y-70723809D02*
X95203333Y-70819047D01*
X95155714Y-70866666D01*
X95060476Y-70914285D01*
X95012857Y-70914285D01*
X94917619Y-70866666D01*
X94870000Y-70819047D01*
X94822380Y-70723809D01*
X94822380Y-70533333D01*
X94870000Y-70438095D01*
X94917619Y-70390476D01*
X95012857Y-70342857D01*
X95060476Y-70342857D01*
X95155714Y-70390476D01*
X95203333Y-70438095D01*
X95250952Y-70533333D01*
X95250952Y-70723809D01*
X95298571Y-70819047D01*
X95346190Y-70866666D01*
X95441428Y-70914285D01*
X95631904Y-70914285D01*
X95727142Y-70866666D01*
X95774761Y-70819047D01*
X95822380Y-70723809D01*
X95822380Y-70533333D01*
X95774761Y-70438095D01*
X95727142Y-70390476D01*
X95631904Y-70342857D01*
X95441428Y-70342857D01*
X95346190Y-70390476D01*
X95298571Y-70438095D01*
X95250952Y-70533333D01*
X157082380Y-77752380D02*
X156606190Y-78085714D01*
X157082380Y-78323809D02*
X156082380Y-78323809D01*
X156082380Y-77942857D01*
X156130000Y-77847619D01*
X156177619Y-77800000D01*
X156272857Y-77752380D01*
X156415714Y-77752380D01*
X156510952Y-77800000D01*
X156558571Y-77847619D01*
X156606190Y-77942857D01*
X156606190Y-78323809D01*
X156177619Y-77371428D02*
X156130000Y-77323809D01*
X156082380Y-77228571D01*
X156082380Y-76990476D01*
X156130000Y-76895238D01*
X156177619Y-76847619D01*
X156272857Y-76800000D01*
X156368095Y-76800000D01*
X156510952Y-76847619D01*
X157082380Y-77419047D01*
X157082380Y-76800000D01*
X156701428Y-75609523D02*
X156701428Y-74847619D01*
X157082380Y-73085714D02*
X157082380Y-73657142D01*
X157082380Y-73371428D02*
X156082380Y-73371428D01*
X156225238Y-73466666D01*
X156320476Y-73561904D01*
X156368095Y-73657142D01*
X156082380Y-72466666D02*
X156082380Y-72371428D01*
X156130000Y-72276190D01*
X156177619Y-72228571D01*
X156272857Y-72180952D01*
X156463333Y-72133333D01*
X156701428Y-72133333D01*
X156891904Y-72180952D01*
X156987142Y-72228571D01*
X157034761Y-72276190D01*
X157082380Y-72371428D01*
X157082380Y-72466666D01*
X157034761Y-72561904D01*
X156987142Y-72609523D01*
X156891904Y-72657142D01*
X156701428Y-72704761D01*
X156463333Y-72704761D01*
X156272857Y-72657142D01*
X156177619Y-72609523D01*
X156130000Y-72561904D01*
X156082380Y-72466666D01*
X156082380Y-71514285D02*
X156082380Y-71419047D01*
X156130000Y-71323809D01*
X156177619Y-71276190D01*
X156272857Y-71228571D01*
X156463333Y-71180952D01*
X156701428Y-71180952D01*
X156891904Y-71228571D01*
X156987142Y-71276190D01*
X157034761Y-71323809D01*
X157082380Y-71419047D01*
X157082380Y-71514285D01*
X157034761Y-71609523D01*
X156987142Y-71657142D01*
X156891904Y-71704761D01*
X156701428Y-71752380D01*
X156463333Y-71752380D01*
X156272857Y-71704761D01*
X156177619Y-71657142D01*
X156130000Y-71609523D01*
X156082380Y-71514285D01*
X156082380Y-70561904D02*
X156082380Y-70466666D01*
X156130000Y-70371428D01*
X156177619Y-70323809D01*
X156272857Y-70276190D01*
X156463333Y-70228571D01*
X156701428Y-70228571D01*
X156891904Y-70276190D01*
X156987142Y-70323809D01*
X157034761Y-70371428D01*
X157082380Y-70466666D01*
X157082380Y-70561904D01*
X157034761Y-70657142D01*
X156987142Y-70704761D01*
X156891904Y-70752380D01*
X156701428Y-70800000D01*
X156463333Y-70800000D01*
X156272857Y-70752380D01*
X156177619Y-70704761D01*
X156130000Y-70657142D01*
X156082380Y-70561904D01*
D14*
X124642349Y-87729702D02*
X124594730Y-87824940D01*
X124499491Y-87920178D01*
X124356634Y-88063035D01*
X124309015Y-88158273D01*
X124309015Y-88253511D01*
X124547110Y-88205892D02*
X124499491Y-88301130D01*
X124404253Y-88396369D01*
X124213777Y-88443988D01*
X123880444Y-88443988D01*
X123689968Y-88396369D01*
X123594730Y-88301130D01*
X123547110Y-88205892D01*
X123547110Y-88015416D01*
X123594730Y-87920178D01*
X123689968Y-87824940D01*
X123880444Y-87777321D01*
X124213777Y-87777321D01*
X124404253Y-87824940D01*
X124499491Y-87920178D01*
X124547110Y-88015416D01*
X124547110Y-88205892D01*
X124547110Y-86824940D02*
X124547110Y-87396369D01*
X124547110Y-87110654D02*
X123547110Y-87110654D01*
X123689968Y-87205892D01*
X123785206Y-87301130D01*
X123832825Y-87396369D01*
X124166158Y-85634464D02*
X124166158Y-84872559D01*
X123642349Y-83682083D02*
X123594730Y-83634464D01*
X123547110Y-83539226D01*
X123547110Y-83301130D01*
X123594730Y-83205892D01*
X123642349Y-83158273D01*
X123737587Y-83110654D01*
X123832825Y-83110654D01*
X123975682Y-83158273D01*
X124547110Y-83729702D01*
X124547110Y-83110654D01*
X124547110Y-82682083D02*
X123547110Y-82682083D01*
X124547110Y-82110654D01*
X123547110Y-82110654D01*
X123547110Y-81729702D02*
X123547110Y-81110654D01*
X123928063Y-81443988D01*
X123928063Y-81301130D01*
X123975682Y-81205892D01*
X124023301Y-81158273D01*
X124118539Y-81110654D01*
X124356634Y-81110654D01*
X124451872Y-81158273D01*
X124499491Y-81205892D01*
X124547110Y-81301130D01*
X124547110Y-81586845D01*
X124499491Y-81682083D01*
X124451872Y-81729702D01*
X123547110Y-80491607D02*
X123547110Y-80396369D01*
X123594730Y-80301130D01*
X123642349Y-80253511D01*
X123737587Y-80205892D01*
X123928063Y-80158273D01*
X124166158Y-80158273D01*
X124356634Y-80205892D01*
X124451872Y-80253511D01*
X124499491Y-80301130D01*
X124547110Y-80396369D01*
X124547110Y-80491607D01*
X124499491Y-80586845D01*
X124451872Y-80634464D01*
X124356634Y-80682083D01*
X124166158Y-80729702D01*
X123928063Y-80729702D01*
X123737587Y-80682083D01*
X123642349Y-80634464D01*
X123594730Y-80586845D01*
X123547110Y-80491607D01*
X123547110Y-79253511D02*
X123547110Y-79729702D01*
X124023301Y-79777321D01*
X123975682Y-79729702D01*
X123928063Y-79634464D01*
X123928063Y-79396369D01*
X123975682Y-79301130D01*
X124023301Y-79253511D01*
X124118539Y-79205892D01*
X124356634Y-79205892D01*
X124451872Y-79253511D01*
X124499491Y-79301130D01*
X124547110Y-79396369D01*
X124547110Y-79634464D01*
X124499491Y-79729702D01*
X124451872Y-79777321D01*
X123547110Y-78301130D02*
X123547110Y-78777321D01*
X124023301Y-78824940D01*
X123975682Y-78777321D01*
X123928063Y-78682083D01*
X123928063Y-78443988D01*
X123975682Y-78348750D01*
X124023301Y-78301130D01*
X124118539Y-78253511D01*
X124356634Y-78253511D01*
X124451872Y-78301130D01*
X124499491Y-78348750D01*
X124547110Y-78443988D01*
X124547110Y-78682083D01*
X124499491Y-78777321D01*
X124451872Y-78824940D01*
M02*
